<?xml version="1.0" encoding="utf-8" standalone="no"?>
<!DOCTYPE svg PUBLIC "-//W3C//DTD SVG 1.1//EN"
  "http://www.w3.org/Graphics/SVG/1.1/DTD/svg11.dtd">
<svg xmlns:xlink="http://www.w3.org/1999/xlink" width="480.096pt" height="501.973969pt" viewBox="0 0 480.096 501.973969" xmlns="http://www.w3.org/2000/svg" version="1.1">
 <metadata>
  <rdf:RDF xmlns:dc="http://purl.org/dc/elements/1.1/" xmlns:cc="http://creativecommons.org/ns#" xmlns:rdf="http://www.w3.org/1999/02/22-rdf-syntax-ns#">
   <cc:Work>
    <dc:type rdf:resource="http://purl.org/dc/dcmitype/StillImage"/>
    <dc:date>2026-06-13T00:22:04.239153</dc:date>
    <dc:format>image/svg+xml</dc:format>
    <dc:creator>
     <cc:Agent>
      <dc:title>Matplotlib v3.10.9, https://matplotlib.org/</dc:title>
     </cc:Agent>
    </dc:creator>
   </cc:Work>
  </rdf:RDF>
 </metadata>
 <defs>
  <style type="text/css">*{stroke-linejoin: round; stroke-linecap: butt}</style>
 </defs>
 <g id="figure_1">
  <g id="patch_1">
   <path d="M 0 501.973969 
L 480.096 501.973969 
L 480.096 0 
L 0 0 
z
" style="fill: #ffffff"/>
  </g>
  <g id="axes_1">
   <g id="patch_2">
    <path d="M 348.695854 375.50266 
Q 304.618824 359.363446 261.696649 343.647093 
" clip-path="url(#paca1689007)" style="fill: none; stroke: #9aa3b2; stroke-width: 1.1; stroke-linecap: round"/>
    <path d="M 265.378791 347.551172 
L 261.696649 343.647093 
L 267.029197 343.043827 
z
" clip-path="url(#paca1689007)" style="fill: #9aa3b2; stroke: #9aa3b2; stroke-width: 1.1; stroke-linecap: round"/>
   </g>
   <g id="patch_3">
    <path d="M 242.714685 333.116072 
Q 190.23789 290.621648 138.716862 248.901181 
" clip-path="url(#paca1689007)" style="fill: none; stroke: #9aa3b2; stroke-width: 1.1; stroke-linecap: round"/>
    <path d="M 140.936819 253.787058 
L 138.716862 248.901181 
L 143.957538 250.056741 
z
" clip-path="url(#paca1689007)" style="fill: #9aa3b2; stroke: #9aa3b2; stroke-width: 1.1; stroke-linecap: round"/>
   </g>
   <g id="patch_4">
    <path d="M 257.779071 331.974226 
Q 289.019324 297.674445 319.431448 264.283896 
" clip-path="url(#paca1689007)" style="fill: none; stroke: #9aa3b2; stroke-width: 1.1; stroke-linecap: round"/>
    <path d="M 314.424953 266.216513 
L 319.431448 264.283896 
L 317.973644 269.448662 
z
" clip-path="url(#paca1689007)" style="fill: #9aa3b2; stroke: #9aa3b2; stroke-width: 1.1; stroke-linecap: round"/>
   </g>
   <g id="patch_5">
    <path d="M 329.139242 149.344137 
Q 277.90143 176.169276 227.753166 202.423991 
" clip-path="url(#paca1689007)" style="fill: none; stroke: #9aa3b2; stroke-width: 1.1; stroke-linecap: round"/>
    <path d="M 233.118795 202.32388 
L 227.753166 202.423991 
L 230.892455 198.071421 
z
" clip-path="url(#paca1689007)" style="fill: #9aa3b2; stroke: #9aa3b2; stroke-width: 1.1; stroke-linecap: round"/>
   </g>
   <g id="patch_6">
    <path d="M 139.214303 238.699706 
Q 172.803933 225.478541 205.249184 212.707814 
" clip-path="url(#paca1689007)" style="fill: none; stroke: #9aa3b2; stroke-width: 1.1; stroke-linecap: round"/>
    <path d="M 199.9037 212.23262 
L 205.249184 212.707814 
L 201.661739 216.699084 
z
" clip-path="url(#paca1689007)" style="fill: #9aa3b2; stroke: #9aa3b2; stroke-width: 1.1; stroke-linecap: round"/>
   </g>
   <g id="patch_7">
    <path d="M 317.963991 252.566832 
Q 272.479927 232.610092 228.122066 213.147488 
" clip-path="url(#paca1689007)" style="fill: none; stroke: #9aa3b2; stroke-width: 1.1; stroke-linecap: round"/>
    <path d="M 231.553284 217.273835 
L 228.122066 213.147488 
L 233.481874 212.878322 
z
" clip-path="url(#paca1689007)" style="fill: #9aa3b2; stroke: #9aa3b2; stroke-width: 1.1; stroke-linecap: round"/>
   </g>
   <g id="patch_8">
    <path d="M 210.111381 217.114791 
Q 169.342114 271.817301 129.307775 325.533716 
" clip-path="url(#paca1689007)" style="fill: none; stroke: #9aa3b2; stroke-width: 1.1; stroke-linecap: round"/>
    <path d="M 134.100503 323.119227 
L 129.307775 325.533716 
L 130.25182 320.250841 
z
" clip-path="url(#paca1689007)" style="fill: #9aa3b2; stroke: #9aa3b2; stroke-width: 1.1; stroke-linecap: round"/>
   </g>
   <g id="text_1">
    <g id="patch_9">
     <path d="M 280.140802 364.963683 
L 296.860021 364.963683 
Q 297.640021 364.963683 297.640021 364.183683 
L 297.640021 357.892902 
Q 297.640021 357.112902 296.860021 357.112902 
L 280.140802 357.112902 
Q 279.360802 357.112902 279.360802 357.892902 
L 279.360802 364.183683 
Q 279.360802 364.963683 280.140802 364.963683 
z
" style="fill: #ffffff; opacity: 0.9"/>
    </g>
    <!-- input -->
    <g style="fill: #475569" transform="translate(280.140802 362.831887) scale(0.065 -0.065)">
     <defs>
      <path id="DejaVuSans-69" d="M 603 3500 
L 1178 3500 
L 1178 0 
L 603 0 
L 603 3500 
z
M 603 4863 
L 1178 4863 
L 1178 4134 
L 603 4134 
L 603 4863 
z
" transform="scale(0.015625)"/>
      <path id="DejaVuSans-6e" d="M 3513 2113 
L 3513 0 
L 2938 0 
L 2938 2094 
Q 2938 2591 2744 2837 
Q 2550 3084 2163 3084 
Q 1697 3084 1428 2787 
Q 1159 2491 1159 1978 
L 1159 0 
L 581 0 
L 581 3500 
L 1159 3500 
L 1159 2956 
Q 1366 3272 1645 3428 
Q 1925 3584 2291 3584 
Q 2894 3584 3203 3211 
Q 3513 2838 3513 2113 
z
" transform="scale(0.015625)"/>
      <path id="DejaVuSans-70" d="M 1159 525 
L 1159 -1331 
L 581 -1331 
L 581 3500 
L 1159 3500 
L 1159 2969 
Q 1341 3281 1617 3432 
Q 1894 3584 2278 3584 
Q 2916 3584 3314 3078 
Q 3713 2572 3713 1747 
Q 3713 922 3314 415 
Q 2916 -91 2278 -91 
Q 1894 -91 1617 61 
Q 1341 213 1159 525 
z
M 3116 1747 
Q 3116 2381 2855 2742 
Q 2594 3103 2138 3103 
Q 1681 3103 1420 2742 
Q 1159 2381 1159 1747 
Q 1159 1113 1420 752 
Q 1681 391 2138 391 
Q 2594 391 2855 752 
Q 3116 1113 3116 1747 
z
" transform="scale(0.015625)"/>
      <path id="DejaVuSans-75" d="M 544 1381 
L 544 3500 
L 1119 3500 
L 1119 1403 
Q 1119 906 1312 657 
Q 1506 409 1894 409 
Q 2359 409 2629 706 
Q 2900 1003 2900 1516 
L 2900 3500 
L 3475 3500 
L 3475 0 
L 2900 0 
L 2900 538 
Q 2691 219 2414 64 
Q 2138 -91 1772 -91 
Q 1169 -91 856 284 
Q 544 659 544 1381 
z
M 1991 3584 
L 1991 3584 
z
" transform="scale(0.015625)"/>
      <path id="DejaVuSans-74" d="M 1172 4494 
L 1172 3500 
L 2356 3500 
L 2356 3053 
L 1172 3053 
L 1172 1153 
Q 1172 725 1289 603 
Q 1406 481 1766 481 
L 2356 481 
L 2356 0 
L 1766 0 
Q 1100 0 847 248 
Q 594 497 594 1153 
L 594 3053 
L 172 3053 
L 172 3500 
L 594 3500 
L 594 4494 
L 1172 4494 
z
" transform="scale(0.015625)"/>
     </defs>
     <use xlink:href="#DejaVuSans-69"/>
     <use xlink:href="#DejaVuSans-6e" transform="translate(27.783203 0)"/>
     <use xlink:href="#DejaVuSans-70" transform="translate(91.162109 0)"/>
     <use xlink:href="#DejaVuSans-75" transform="translate(154.638672 0)"/>
     <use xlink:href="#DejaVuSans-74" transform="translate(218.017578 0)"/>
    </g>
   </g>
   <g id="text_2">
    <g id="patch_10">
     <path d="M 155.253569 288.666732 
L 188.08771 288.666732 
Q 188.86771 288.666732 188.86771 287.886732 
L 188.86771 281.595951 
Q 188.86771 280.815951 188.08771 280.815951 
L 155.253569 280.815951 
Q 154.473569 280.815951 154.473569 281.595951 
L 154.473569 287.886732 
Q 154.473569 288.666732 155.253569 288.666732 
z
" style="fill: #ffffff; opacity: 0.9"/>
    </g>
    <!-- generates -->
    <g style="fill: #475569" transform="translate(155.253569 286.534935) scale(0.065 -0.065)">
     <defs>
      <path id="DejaVuSans-67" d="M 2906 1791 
Q 2906 2416 2648 2759 
Q 2391 3103 1925 3103 
Q 1463 3103 1205 2759 
Q 947 2416 947 1791 
Q 947 1169 1205 825 
Q 1463 481 1925 481 
Q 2391 481 2648 825 
Q 2906 1169 2906 1791 
z
M 3481 434 
Q 3481 -459 3084 -895 
Q 2688 -1331 1869 -1331 
Q 1566 -1331 1297 -1286 
Q 1028 -1241 775 -1147 
L 775 -588 
Q 1028 -725 1275 -790 
Q 1522 -856 1778 -856 
Q 2344 -856 2625 -561 
Q 2906 -266 2906 331 
L 2906 616 
Q 2728 306 2450 153 
Q 2172 0 1784 0 
Q 1141 0 747 490 
Q 353 981 353 1791 
Q 353 2603 747 3093 
Q 1141 3584 1784 3584 
Q 2172 3584 2450 3431 
Q 2728 3278 2906 2969 
L 2906 3500 
L 3481 3500 
L 3481 434 
z
" transform="scale(0.015625)"/>
      <path id="DejaVuSans-65" d="M 3597 1894 
L 3597 1613 
L 953 1613 
Q 991 1019 1311 708 
Q 1631 397 2203 397 
Q 2534 397 2845 478 
Q 3156 559 3463 722 
L 3463 178 
Q 3153 47 2828 -22 
Q 2503 -91 2169 -91 
Q 1331 -91 842 396 
Q 353 884 353 1716 
Q 353 2575 817 3079 
Q 1281 3584 2069 3584 
Q 2775 3584 3186 3129 
Q 3597 2675 3597 1894 
z
M 3022 2063 
Q 3016 2534 2758 2815 
Q 2500 3097 2075 3097 
Q 1594 3097 1305 2825 
Q 1016 2553 972 2059 
L 3022 2063 
z
" transform="scale(0.015625)"/>
      <path id="DejaVuSans-72" d="M 2631 2963 
Q 2534 3019 2420 3045 
Q 2306 3072 2169 3072 
Q 1681 3072 1420 2755 
Q 1159 2438 1159 1844 
L 1159 0 
L 581 0 
L 581 3500 
L 1159 3500 
L 1159 2956 
Q 1341 3275 1631 3429 
Q 1922 3584 2338 3584 
Q 2397 3584 2469 3576 
Q 2541 3569 2628 3553 
L 2631 2963 
z
" transform="scale(0.015625)"/>
      <path id="DejaVuSans-61" d="M 2194 1759 
Q 1497 1759 1228 1600 
Q 959 1441 959 1056 
Q 959 750 1161 570 
Q 1363 391 1709 391 
Q 2188 391 2477 730 
Q 2766 1069 2766 1631 
L 2766 1759 
L 2194 1759 
z
M 3341 1997 
L 3341 0 
L 2766 0 
L 2766 531 
Q 2569 213 2275 61 
Q 1981 -91 1556 -91 
Q 1019 -91 701 211 
Q 384 513 384 1019 
Q 384 1609 779 1909 
Q 1175 2209 1959 2209 
L 2766 2209 
L 2766 2266 
Q 2766 2663 2505 2880 
Q 2244 3097 1772 3097 
Q 1472 3097 1187 3025 
Q 903 2953 641 2809 
L 641 3341 
Q 956 3463 1253 3523 
Q 1550 3584 1831 3584 
Q 2591 3584 2966 3190 
Q 3341 2797 3341 1997 
z
" transform="scale(0.015625)"/>
      <path id="DejaVuSans-73" d="M 2834 3397 
L 2834 2853 
Q 2591 2978 2328 3040 
Q 2066 3103 1784 3103 
Q 1356 3103 1142 2972 
Q 928 2841 928 2578 
Q 928 2378 1081 2264 
Q 1234 2150 1697 2047 
L 1894 2003 
Q 2506 1872 2764 1633 
Q 3022 1394 3022 966 
Q 3022 478 2636 193 
Q 2250 -91 1575 -91 
Q 1294 -91 989 -36 
Q 684 19 347 128 
L 347 722 
Q 666 556 975 473 
Q 1284 391 1588 391 
Q 1994 391 2212 530 
Q 2431 669 2431 922 
Q 2431 1156 2273 1281 
Q 2116 1406 1581 1522 
L 1381 1569 
Q 847 1681 609 1914 
Q 372 2147 372 2553 
Q 372 3047 722 3315 
Q 1072 3584 1716 3584 
Q 2034 3584 2315 3537 
Q 2597 3491 2834 3397 
z
" transform="scale(0.015625)"/>
     </defs>
     <use xlink:href="#DejaVuSans-67"/>
     <use xlink:href="#DejaVuSans-65" transform="translate(63.476562 0)"/>
     <use xlink:href="#DejaVuSans-6e" transform="translate(125 0)"/>
     <use xlink:href="#DejaVuSans-65" transform="translate(188.378906 0)"/>
     <use xlink:href="#DejaVuSans-72" transform="translate(249.902344 0)"/>
     <use xlink:href="#DejaVuSans-61" transform="translate(291.015625 0)"/>
     <use xlink:href="#DejaVuSans-74" transform="translate(352.294922 0)"/>
     <use xlink:href="#DejaVuSans-65" transform="translate(391.503906 0)"/>
     <use xlink:href="#DejaVuSans-73" transform="translate(453.027344 0)"/>
    </g>
   </g>
   <g id="text_3">
    <g id="patch_11">
     <path d="M 276.136706 287.153189 
L 308.970846 287.153189 
Q 309.750846 287.153189 309.750846 286.373189 
L 309.750846 280.082408 
Q 309.750846 279.302408 308.970846 279.302408 
L 276.136706 279.302408 
Q 275.356706 279.302408 275.356706 280.082408 
L 275.356706 286.373189 
Q 275.356706 287.153189 276.136706 287.153189 
z
" style="fill: #ffffff; opacity: 0.9"/>
    </g>
    <!-- generates -->
    <g style="fill: #475569" transform="translate(276.136706 285.021392) scale(0.065 -0.065)">
     <use xlink:href="#DejaVuSans-67"/>
     <use xlink:href="#DejaVuSans-65" transform="translate(63.476562 0)"/>
     <use xlink:href="#DejaVuSans-6e" transform="translate(125 0)"/>
     <use xlink:href="#DejaVuSans-65" transform="translate(188.378906 0)"/>
     <use xlink:href="#DejaVuSans-72" transform="translate(249.902344 0)"/>
     <use xlink:href="#DejaVuSans-61" transform="translate(291.015625 0)"/>
     <use xlink:href="#DejaVuSans-74" transform="translate(352.294922 0)"/>
     <use xlink:href="#DejaVuSans-65" transform="translate(391.503906 0)"/>
     <use xlink:href="#DejaVuSans-73" transform="translate(453.027344 0)"/>
    </g>
   </g>
   <g id="text_4">
    <g id="patch_12">
     <path d="M 253.416003 194.584775 
L 277.711784 194.584775 
Q 278.491784 194.584775 278.491784 193.804775 
L 278.491784 187.513994 
Q 278.491784 186.733994 277.711784 186.733994 
L 253.416003 186.733994 
Q 252.636003 186.733994 252.636003 187.513994 
L 252.636003 193.804775 
Q 252.636003 194.584775 253.416003 194.584775 
z
" style="fill: #ffffff; opacity: 0.9"/>
    </g>
    <!-- original -->
    <g style="fill: #475569" transform="translate(253.416003 192.452978) scale(0.065 -0.065)">
     <defs>
      <path id="DejaVuSans-6f" d="M 1959 3097 
Q 1497 3097 1228 2736 
Q 959 2375 959 1747 
Q 959 1119 1226 758 
Q 1494 397 1959 397 
Q 2419 397 2687 759 
Q 2956 1122 2956 1747 
Q 2956 2369 2687 2733 
Q 2419 3097 1959 3097 
z
M 1959 3584 
Q 2709 3584 3137 3096 
Q 3566 2609 3566 1747 
Q 3566 888 3137 398 
Q 2709 -91 1959 -91 
Q 1206 -91 779 398 
Q 353 888 353 1747 
Q 353 2609 779 3096 
Q 1206 3584 1959 3584 
z
" transform="scale(0.015625)"/>
      <path id="DejaVuSans-6c" d="M 603 4863 
L 1178 4863 
L 1178 0 
L 603 0 
L 603 4863 
z
" transform="scale(0.015625)"/>
     </defs>
     <use xlink:href="#DejaVuSans-6f"/>
     <use xlink:href="#DejaVuSans-72" transform="translate(61.181641 0)"/>
     <use xlink:href="#DejaVuSans-69" transform="translate(102.294922 0)"/>
     <use xlink:href="#DejaVuSans-67" transform="translate(130.078125 0)"/>
     <use xlink:href="#DejaVuSans-69" transform="translate(193.554688 0)"/>
     <use xlink:href="#DejaVuSans-6e" transform="translate(221.337891 0)"/>
     <use xlink:href="#DejaVuSans-61" transform="translate(284.716797 0)"/>
     <use xlink:href="#DejaVuSans-6c" transform="translate(345.996094 0)"/>
    </g>
   </g>
   <g id="text_5">
    <g id="patch_13">
     <path d="M 167.090378 218.394322 
L 195.608113 218.394322 
Q 196.388113 218.394322 196.388113 217.614322 
L 196.388113 211.323541 
Q 196.388113 210.543541 195.608113 210.543541 
L 167.090378 210.543541 
Q 166.310378 210.543541 166.310378 211.323541 
L 166.310378 217.614322 
Q 166.310378 218.394322 167.090378 218.394322 
z
" style="fill: #ffffff; opacity: 0.9"/>
    </g>
    <!-- compare -->
    <g style="fill: #475569" transform="translate(167.090378 216.262525) scale(0.065 -0.065)">
     <defs>
      <path id="DejaVuSans-63" d="M 3122 3366 
L 3122 2828 
Q 2878 2963 2633 3030 
Q 2388 3097 2138 3097 
Q 1578 3097 1268 2742 
Q 959 2388 959 1747 
Q 959 1106 1268 751 
Q 1578 397 2138 397 
Q 2388 397 2633 464 
Q 2878 531 3122 666 
L 3122 134 
Q 2881 22 2623 -34 
Q 2366 -91 2075 -91 
Q 1284 -91 818 406 
Q 353 903 353 1747 
Q 353 2603 823 3093 
Q 1294 3584 2113 3584 
Q 2378 3584 2631 3529 
Q 2884 3475 3122 3366 
z
" transform="scale(0.015625)"/>
      <path id="DejaVuSans-6d" d="M 3328 2828 
Q 3544 3216 3844 3400 
Q 4144 3584 4550 3584 
Q 5097 3584 5394 3201 
Q 5691 2819 5691 2113 
L 5691 0 
L 5113 0 
L 5113 2094 
Q 5113 2597 4934 2840 
Q 4756 3084 4391 3084 
Q 3944 3084 3684 2787 
Q 3425 2491 3425 1978 
L 3425 0 
L 2847 0 
L 2847 2094 
Q 2847 2600 2669 2842 
Q 2491 3084 2119 3084 
Q 1678 3084 1418 2786 
Q 1159 2488 1159 1978 
L 1159 0 
L 581 0 
L 581 3500 
L 1159 3500 
L 1159 2956 
Q 1356 3278 1631 3431 
Q 1906 3584 2284 3584 
Q 2666 3584 2933 3390 
Q 3200 3197 3328 2828 
z
" transform="scale(0.015625)"/>
     </defs>
     <use xlink:href="#DejaVuSans-63"/>
     <use xlink:href="#DejaVuSans-6f" transform="translate(54.980469 0)"/>
     <use xlink:href="#DejaVuSans-6d" transform="translate(116.162109 0)"/>
     <use xlink:href="#DejaVuSans-70" transform="translate(213.574219 0)"/>
     <use xlink:href="#DejaVuSans-61" transform="translate(277.050781 0)"/>
     <use xlink:href="#DejaVuSans-72" transform="translate(338.330078 0)"/>
     <use xlink:href="#DejaVuSans-65" transform="translate(377.193359 0)"/>
    </g>
   </g>
   <g id="text_6">
    <g id="patch_14">
     <path d="M 241.406892 236.927564 
L 269.924627 236.927564 
Q 270.704627 236.927564 270.704627 236.147564 
L 270.704627 229.856783 
Q 270.704627 229.076783 269.924627 229.076783 
L 241.406892 229.076783 
Q 240.626892 229.076783 240.626892 229.856783 
L 240.626892 236.147564 
Q 240.626892 236.927564 241.406892 236.927564 
z
" style="fill: #ffffff; opacity: 0.9"/>
    </g>
    <!-- compare -->
    <g style="fill: #475569" transform="translate(241.406892 234.795768) scale(0.065 -0.065)">
     <use xlink:href="#DejaVuSans-63"/>
     <use xlink:href="#DejaVuSans-6f" transform="translate(54.980469 0)"/>
     <use xlink:href="#DejaVuSans-6d" transform="translate(116.162109 0)"/>
     <use xlink:href="#DejaVuSans-70" transform="translate(213.574219 0)"/>
     <use xlink:href="#DejaVuSans-61" transform="translate(277.050781 0)"/>
     <use xlink:href="#DejaVuSans-72" transform="translate(338.330078 0)"/>
     <use xlink:href="#DejaVuSans-65" transform="translate(377.193359 0)"/>
    </g>
   </g>
   <g id="text_7">
    <g id="patch_15">
     <path d="M 146.324542 293.840856 
L 183.129776 293.840856 
Q 183.909776 293.840856 183.909776 293.060856 
L 183.909776 286.770075 
Q 183.909776 285.990075 183.129776 285.990075 
L 146.324542 285.990075 
Q 145.544542 285.990075 145.544542 286.770075 
L 145.544542 293.060856 
Q 145.544542 293.840856 146.324542 293.840856 
z
" style="fill: #ffffff; opacity: 0.9"/>
    </g>
    <!-- aggregates -->
    <g style="fill: #475569" transform="translate(146.324542 291.709059) scale(0.065 -0.065)">
     <use xlink:href="#DejaVuSans-61"/>
     <use xlink:href="#DejaVuSans-67" transform="translate(61.279297 0)"/>
     <use xlink:href="#DejaVuSans-67" transform="translate(124.755859 0)"/>
     <use xlink:href="#DejaVuSans-72" transform="translate(188.232422 0)"/>
     <use xlink:href="#DejaVuSans-65" transform="translate(227.095703 0)"/>
     <use xlink:href="#DejaVuSans-67" transform="translate(288.619141 0)"/>
     <use xlink:href="#DejaVuSans-61" transform="translate(352.095703 0)"/>
     <use xlink:href="#DejaVuSans-74" transform="translate(413.375 0)"/>
     <use xlink:href="#DejaVuSans-65" transform="translate(452.583984 0)"/>
     <use xlink:href="#DejaVuSans-73" transform="translate(514.107422 0)"/>
    </g>
   </g>
   <g id="text_8">
    <!-- Answer Relevancy — How DeepEval Scores It -->
    <g transform="translate(75.356281 17.077969) scale(0.13 -0.13)">
     <defs>
      <path id="DejaVuSans-Bold-41" d="M 3419 850 
L 1538 850 
L 1241 0 
L 31 0 
L 1759 4666 
L 3194 4666 
L 4922 0 
L 3713 0 
L 3419 850 
z
M 1838 1716 
L 3116 1716 
L 2478 3572 
L 1838 1716 
z
" transform="scale(0.015625)"/>
      <path id="DejaVuSans-Bold-6e" d="M 4056 2131 
L 4056 0 
L 2931 0 
L 2931 347 
L 2931 1631 
Q 2931 2084 2911 2256 
Q 2891 2428 2841 2509 
Q 2775 2619 2662 2680 
Q 2550 2741 2406 2741 
Q 2056 2741 1856 2470 
Q 1656 2200 1656 1722 
L 1656 0 
L 538 0 
L 538 3500 
L 1656 3500 
L 1656 2988 
Q 1909 3294 2193 3439 
Q 2478 3584 2822 3584 
Q 3428 3584 3742 3212 
Q 4056 2841 4056 2131 
z
" transform="scale(0.015625)"/>
      <path id="DejaVuSans-Bold-73" d="M 3272 3391 
L 3272 2541 
Q 2913 2691 2578 2766 
Q 2244 2841 1947 2841 
Q 1628 2841 1473 2761 
Q 1319 2681 1319 2516 
Q 1319 2381 1436 2309 
Q 1553 2238 1856 2203 
L 2053 2175 
Q 2913 2066 3209 1816 
Q 3506 1566 3506 1031 
Q 3506 472 3093 190 
Q 2681 -91 1863 -91 
Q 1516 -91 1145 -36 
Q 775 19 384 128 
L 384 978 
Q 719 816 1070 734 
Q 1422 653 1784 653 
Q 2113 653 2278 743 
Q 2444 834 2444 1013 
Q 2444 1163 2330 1236 
Q 2216 1309 1875 1350 
L 1678 1375 
Q 931 1469 631 1722 
Q 331 1975 331 2491 
Q 331 3047 712 3315 
Q 1094 3584 1881 3584 
Q 2191 3584 2531 3537 
Q 2872 3491 3272 3391 
z
" transform="scale(0.015625)"/>
      <path id="DejaVuSans-Bold-77" d="M 225 3500 
L 1313 3500 
L 1900 1088 
L 2491 3500 
L 3425 3500 
L 4013 1113 
L 4603 3500 
L 5691 3500 
L 4769 0 
L 3547 0 
L 2956 2406 
L 2369 0 
L 1147 0 
L 225 3500 
z
" transform="scale(0.015625)"/>
      <path id="DejaVuSans-Bold-65" d="M 4031 1759 
L 4031 1441 
L 1416 1441 
Q 1456 1047 1700 850 
Q 1944 653 2381 653 
Q 2734 653 3104 758 
Q 3475 863 3866 1075 
L 3866 213 
Q 3469 63 3072 -14 
Q 2675 -91 2278 -91 
Q 1328 -91 801 392 
Q 275 875 275 1747 
Q 275 2603 792 3093 
Q 1309 3584 2216 3584 
Q 3041 3584 3536 3087 
Q 4031 2591 4031 1759 
z
M 2881 2131 
Q 2881 2450 2695 2645 
Q 2509 2841 2209 2841 
Q 1884 2841 1681 2658 
Q 1478 2475 1428 2131 
L 2881 2131 
z
" transform="scale(0.015625)"/>
      <path id="DejaVuSans-Bold-72" d="M 3138 2547 
Q 2991 2616 2845 2648 
Q 2700 2681 2553 2681 
Q 2122 2681 1889 2404 
Q 1656 2128 1656 1613 
L 1656 0 
L 538 0 
L 538 3500 
L 1656 3500 
L 1656 2925 
Q 1872 3269 2151 3426 
Q 2431 3584 2822 3584 
Q 2878 3584 2943 3579 
Q 3009 3575 3134 3559 
L 3138 2547 
z
" transform="scale(0.015625)"/>
      <path id="DejaVuSans-Bold-20" transform="scale(0.015625)"/>
      <path id="DejaVuSans-Bold-52" d="M 2297 2597 
Q 2675 2597 2839 2737 
Q 3003 2878 3003 3200 
Q 3003 3519 2839 3656 
Q 2675 3794 2297 3794 
L 1791 3794 
L 1791 2597 
L 2297 2597 
z
M 1791 1766 
L 1791 0 
L 588 0 
L 588 4666 
L 2425 4666 
Q 3347 4666 3776 4356 
Q 4206 4047 4206 3378 
Q 4206 2916 3982 2619 
Q 3759 2322 3309 2181 
Q 3556 2125 3751 1926 
Q 3947 1728 4147 1325 
L 4800 0 
L 3519 0 
L 2950 1159 
Q 2778 1509 2601 1637 
Q 2425 1766 2131 1766 
L 1791 1766 
z
" transform="scale(0.015625)"/>
      <path id="DejaVuSans-Bold-6c" d="M 538 4863 
L 1656 4863 
L 1656 0 
L 538 0 
L 538 4863 
z
" transform="scale(0.015625)"/>
      <path id="DejaVuSans-Bold-76" d="M 97 3500 
L 1216 3500 
L 2088 1081 
L 2956 3500 
L 4078 3500 
L 2700 0 
L 1472 0 
L 97 3500 
z
" transform="scale(0.015625)"/>
      <path id="DejaVuSans-Bold-61" d="M 2106 1575 
Q 1756 1575 1579 1456 
Q 1403 1338 1403 1106 
Q 1403 894 1545 773 
Q 1688 653 1941 653 
Q 2256 653 2472 879 
Q 2688 1106 2688 1447 
L 2688 1575 
L 2106 1575 
z
M 3816 1997 
L 3816 0 
L 2688 0 
L 2688 519 
Q 2463 200 2181 54 
Q 1900 -91 1497 -91 
Q 953 -91 614 226 
Q 275 544 275 1050 
Q 275 1666 698 1953 
Q 1122 2241 2028 2241 
L 2688 2241 
L 2688 2328 
Q 2688 2594 2478 2717 
Q 2269 2841 1825 2841 
Q 1466 2841 1156 2769 
Q 847 2697 581 2553 
L 581 3406 
Q 941 3494 1303 3539 
Q 1666 3584 2028 3584 
Q 2975 3584 3395 3211 
Q 3816 2838 3816 1997 
z
" transform="scale(0.015625)"/>
      <path id="DejaVuSans-Bold-63" d="M 3366 3391 
L 3366 2478 
Q 3138 2634 2908 2709 
Q 2678 2784 2431 2784 
Q 1963 2784 1702 2511 
Q 1441 2238 1441 1747 
Q 1441 1256 1702 982 
Q 1963 709 2431 709 
Q 2694 709 2930 787 
Q 3166 866 3366 1019 
L 3366 103 
Q 3103 6 2833 -42 
Q 2563 -91 2291 -91 
Q 1344 -91 809 395 
Q 275 881 275 1747 
Q 275 2613 809 3098 
Q 1344 3584 2291 3584 
Q 2566 3584 2833 3536 
Q 3100 3488 3366 3391 
z
" transform="scale(0.015625)"/>
      <path id="DejaVuSans-Bold-79" d="M 78 3500 
L 1197 3500 
L 2138 1125 
L 2938 3500 
L 4056 3500 
L 2584 -331 
Q 2363 -916 2067 -1148 
Q 1772 -1381 1288 -1381 
L 641 -1381 
L 641 -647 
L 991 -647 
Q 1275 -647 1404 -556 
Q 1534 -466 1606 -231 
L 1638 -134 
L 78 3500 
z
" transform="scale(0.015625)"/>
      <path id="DejaVuSans-Bold-2014" d="M 344 2156 
L 6056 2156 
L 6056 1350 
L 344 1350 
L 344 2156 
z
" transform="scale(0.015625)"/>
      <path id="DejaVuSans-Bold-48" d="M 588 4666 
L 1791 4666 
L 1791 2888 
L 3566 2888 
L 3566 4666 
L 4769 4666 
L 4769 0 
L 3566 0 
L 3566 1978 
L 1791 1978 
L 1791 0 
L 588 0 
L 588 4666 
z
" transform="scale(0.015625)"/>
      <path id="DejaVuSans-Bold-6f" d="M 2203 2784 
Q 1831 2784 1636 2517 
Q 1441 2250 1441 1747 
Q 1441 1244 1636 976 
Q 1831 709 2203 709 
Q 2569 709 2762 976 
Q 2956 1244 2956 1747 
Q 2956 2250 2762 2517 
Q 2569 2784 2203 2784 
z
M 2203 3584 
Q 3106 3584 3614 3096 
Q 4122 2609 4122 1747 
Q 4122 884 3614 396 
Q 3106 -91 2203 -91 
Q 1297 -91 786 396 
Q 275 884 275 1747 
Q 275 2609 786 3096 
Q 1297 3584 2203 3584 
z
" transform="scale(0.015625)"/>
      <path id="DejaVuSans-Bold-44" d="M 1791 3756 
L 1791 909 
L 2222 909 
Q 2959 909 3348 1275 
Q 3738 1641 3738 2338 
Q 3738 3031 3350 3393 
Q 2963 3756 2222 3756 
L 1791 3756 
z
M 588 4666 
L 1856 4666 
Q 2919 4666 3439 4514 
Q 3959 4363 4331 4000 
Q 4659 3684 4818 3271 
Q 4978 2859 4978 2338 
Q 4978 1809 4818 1395 
Q 4659 981 4331 666 
Q 3956 303 3431 151 
Q 2906 0 1856 0 
L 588 0 
L 588 4666 
z
" transform="scale(0.015625)"/>
      <path id="DejaVuSans-Bold-70" d="M 1656 506 
L 1656 -1331 
L 538 -1331 
L 538 3500 
L 1656 3500 
L 1656 2988 
Q 1888 3294 2169 3439 
Q 2450 3584 2816 3584 
Q 3463 3584 3878 3070 
Q 4294 2556 4294 1747 
Q 4294 938 3878 423 
Q 3463 -91 2816 -91 
Q 2450 -91 2169 54 
Q 1888 200 1656 506 
z
M 2400 2772 
Q 2041 2772 1848 2508 
Q 1656 2244 1656 1747 
Q 1656 1250 1848 986 
Q 2041 722 2400 722 
Q 2759 722 2948 984 
Q 3138 1247 3138 1747 
Q 3138 2247 2948 2509 
Q 2759 2772 2400 2772 
z
" transform="scale(0.015625)"/>
      <path id="DejaVuSans-Bold-45" d="M 588 4666 
L 3834 4666 
L 3834 3756 
L 1791 3756 
L 1791 2888 
L 3713 2888 
L 3713 1978 
L 1791 1978 
L 1791 909 
L 3903 909 
L 3903 0 
L 588 0 
L 588 4666 
z
" transform="scale(0.015625)"/>
      <path id="DejaVuSans-Bold-53" d="M 3834 4519 
L 3834 3531 
Q 3450 3703 3084 3790 
Q 2719 3878 2394 3878 
Q 1963 3878 1756 3759 
Q 1550 3641 1550 3391 
Q 1550 3203 1689 3098 
Q 1828 2994 2194 2919 
L 2706 2816 
Q 3484 2659 3812 2340 
Q 4141 2022 4141 1434 
Q 4141 663 3683 286 
Q 3225 -91 2284 -91 
Q 1841 -91 1394 -6 
Q 947 78 500 244 
L 500 1259 
Q 947 1022 1364 901 
Q 1781 781 2169 781 
Q 2563 781 2772 912 
Q 2981 1044 2981 1288 
Q 2981 1506 2839 1625 
Q 2697 1744 2272 1838 
L 1806 1941 
Q 1106 2091 782 2419 
Q 459 2747 459 3303 
Q 459 4000 909 4375 
Q 1359 4750 2203 4750 
Q 2588 4750 2994 4692 
Q 3400 4634 3834 4519 
z
" transform="scale(0.015625)"/>
      <path id="DejaVuSans-Bold-49" d="M 588 4666 
L 1791 4666 
L 1791 0 
L 588 0 
L 588 4666 
z
" transform="scale(0.015625)"/>
      <path id="DejaVuSans-Bold-74" d="M 1759 4494 
L 1759 3500 
L 2913 3500 
L 2913 2700 
L 1759 2700 
L 1759 1216 
Q 1759 972 1856 886 
Q 1953 800 2241 800 
L 2816 800 
L 2816 0 
L 1856 0 
Q 1194 0 917 276 
Q 641 553 641 1216 
L 641 2700 
L 84 2700 
L 84 3500 
L 641 3500 
L 641 4494 
L 1759 4494 
z
" transform="scale(0.015625)"/>
     </defs>
     <use xlink:href="#DejaVuSans-Bold-41"/>
     <use xlink:href="#DejaVuSans-Bold-6e" transform="translate(77.392578 0)"/>
     <use xlink:href="#DejaVuSans-Bold-73" transform="translate(148.583984 0)"/>
     <use xlink:href="#DejaVuSans-Bold-77" transform="translate(208.105469 0)"/>
     <use xlink:href="#DejaVuSans-Bold-65" transform="translate(300.488281 0)"/>
     <use xlink:href="#DejaVuSans-Bold-72" transform="translate(368.310547 0)"/>
     <use xlink:href="#DejaVuSans-Bold-20" transform="translate(417.626953 0)"/>
     <use xlink:href="#DejaVuSans-Bold-52" transform="translate(452.441406 0)"/>
     <use xlink:href="#DejaVuSans-Bold-65" transform="translate(529.443359 0)"/>
     <use xlink:href="#DejaVuSans-Bold-6c" transform="translate(597.265625 0)"/>
     <use xlink:href="#DejaVuSans-Bold-65" transform="translate(631.542969 0)"/>
     <use xlink:href="#DejaVuSans-Bold-76" transform="translate(699.365234 0)"/>
     <use xlink:href="#DejaVuSans-Bold-61" transform="translate(764.550781 0)"/>
     <use xlink:href="#DejaVuSans-Bold-6e" transform="translate(832.03125 0)"/>
     <use xlink:href="#DejaVuSans-Bold-63" transform="translate(903.222656 0)"/>
     <use xlink:href="#DejaVuSans-Bold-79" transform="translate(962.5 0)"/>
     <use xlink:href="#DejaVuSans-Bold-20" transform="translate(1027.685547 0)"/>
     <use xlink:href="#DejaVuSans-Bold-2014" transform="translate(1062.5 0)"/>
     <use xlink:href="#DejaVuSans-Bold-20" transform="translate(1162.5 0)"/>
     <use xlink:href="#DejaVuSans-Bold-48" transform="translate(1197.314453 0)"/>
     <use xlink:href="#DejaVuSans-Bold-6f" transform="translate(1281.005859 0)"/>
     <use xlink:href="#DejaVuSans-Bold-77" transform="translate(1349.707031 0)"/>
     <use xlink:href="#DejaVuSans-Bold-20" transform="translate(1442.089844 0)"/>
     <use xlink:href="#DejaVuSans-Bold-44" transform="translate(1476.904297 0)"/>
     <use xlink:href="#DejaVuSans-Bold-65" transform="translate(1559.912109 0)"/>
     <use xlink:href="#DejaVuSans-Bold-65" transform="translate(1627.734375 0)"/>
     <use xlink:href="#DejaVuSans-Bold-70" transform="translate(1695.556641 0)"/>
     <use xlink:href="#DejaVuSans-Bold-45" transform="translate(1767.138672 0)"/>
     <use xlink:href="#DejaVuSans-Bold-76" transform="translate(1835.449219 0)"/>
     <use xlink:href="#DejaVuSans-Bold-61" transform="translate(1900.634766 0)"/>
     <use xlink:href="#DejaVuSans-Bold-6c" transform="translate(1968.115234 0)"/>
     <use xlink:href="#DejaVuSans-Bold-20" transform="translate(2002.392578 0)"/>
     <use xlink:href="#DejaVuSans-Bold-53" transform="translate(2037.207031 0)"/>
     <use xlink:href="#DejaVuSans-Bold-63" transform="translate(2109.228516 0)"/>
     <use xlink:href="#DejaVuSans-Bold-6f" transform="translate(2168.505859 0)"/>
     <use xlink:href="#DejaVuSans-Bold-72" transform="translate(2237.207031 0)"/>
     <use xlink:href="#DejaVuSans-Bold-65" transform="translate(2286.523438 0)"/>
     <use xlink:href="#DejaVuSans-Bold-73" transform="translate(2354.345703 0)"/>
     <use xlink:href="#DejaVuSans-Bold-20" transform="translate(2413.867188 0)"/>
     <use xlink:href="#DejaVuSans-Bold-49" transform="translate(2448.681641 0)"/>
     <use xlink:href="#DejaVuSans-Bold-74" transform="translate(2485.888672 0)"/>
    </g>
   </g>
   <g id="patch_16">
    <path d="M 336.478041 152.940169 
C 338.450674 152.940169 340.34278 152.156433 341.737642 150.76157 
C 343.132505 149.366708 343.916241 147.474602 343.916241 145.501969 
C 343.916241 143.529335 343.132505 141.63723 341.737642 140.242367 
C 340.34278 138.847504 338.450674 138.063769 336.478041 138.063769 
C 334.505407 138.063769 332.613302 138.847504 331.218439 140.242367 
C 329.823576 141.63723 329.039841 143.529335 329.039841 145.501969 
C 329.039841 147.474602 329.823576 149.366708 331.218439 150.76157 
C 332.613302 152.156433 334.505407 152.940169 336.478041 152.940169 
z
" clip-path="url(#paca1689007)" style="fill: #2e4057; stroke: #ffffff; stroke-width: 1.2; stroke-linejoin: miter"/>
   </g>
   <g id="patch_17">
    <path d="M 356.472 385.788169 
C 358.444634 385.788169 360.336739 385.004433 361.731602 383.60957 
C 363.126464 382.214708 363.9102 380.322602 363.9102 378.349969 
C 363.9102 376.377335 363.126464 374.48523 361.731602 373.090367 
C 360.336739 371.695504 358.444634 370.911769 356.472 370.911769 
C 354.499366 370.911769 352.607261 371.695504 351.212398 373.090367 
C 349.817536 374.48523 349.0338 376.377335 349.0338 378.349969 
C 349.0338 380.322602 349.817536 382.214708 351.212398 383.60957 
C 352.607261 385.004433 354.499366 385.788169 356.472 385.788169 
z
" clip-path="url(#paca1689007)" style="fill: #2e4057; stroke: #ffffff; stroke-width: 1.2; stroke-linejoin: miter"/>
   </g>
   <g id="patch_18">
    <path d="M 250.786074 348.984247 
C 253.260993 348.984247 255.634878 348.000951 257.384909 346.25092 
C 259.134941 344.500888 260.118236 342.127003 260.118236 339.652085 
C 260.118236 337.177166 259.134941 334.803281 257.384909 333.05325 
C 255.634878 331.303218 253.260993 330.319923 250.786074 330.319923 
C 248.311156 330.319923 245.937271 331.303218 244.187239 333.05325 
C 242.437208 334.803281 241.453912 337.177166 241.453912 339.652085 
C 241.453912 342.127003 242.437208 344.500888 244.187239 346.25092 
C 245.937271 348.000951 248.311156 348.984247 250.786074 348.984247 
z
" clip-path="url(#paca1689007)" style="fill: #048a81; stroke: #ffffff; stroke-width: 1.2; stroke-linejoin: miter"/>
   </g>
   <g id="patch_19">
    <path d="M 130.402245 250.67806 
C 132.659084 250.67806 134.823793 249.781409 136.41962 248.185582 
C 138.015446 246.589756 138.912098 244.425047 138.912098 242.168207 
C 138.912098 239.911368 138.015446 237.746659 136.41962 236.150832 
C 134.823793 234.555006 132.659084 233.658354 130.402245 233.658354 
C 128.145405 233.658354 125.980696 234.555006 124.38487 236.150832 
C 122.789043 237.746659 121.892391 239.911368 121.892391 242.168207 
C 121.892391 244.425047 122.789043 246.589756 124.38487 248.185582 
C 125.980696 249.781409 128.145405 250.67806 130.402245 250.67806 
z
" clip-path="url(#paca1689007)" style="fill: #54c6eb; stroke: #ffffff; stroke-width: 1.2; stroke-linejoin: miter"/>
   </g>
   <g id="patch_20">
    <path d="M 326.637283 264.882208 
C 328.894123 264.882208 331.058832 263.985556 332.654658 262.38973 
C 334.250485 260.793903 335.147136 258.629194 335.147136 256.372355 
C 335.147136 254.115515 334.250485 251.950806 332.654658 250.35498 
C 331.058832 248.759153 328.894123 247.862501 326.637283 247.862501 
C 324.380444 247.862501 322.215735 248.759153 320.619908 250.35498 
C 319.024082 251.950806 318.12743 254.115515 318.12743 256.372355 
C 318.12743 258.629194 319.024082 260.793903 320.619908 262.38973 
C 322.215735 263.985556 324.380444 264.882208 326.637283 264.882208 
z
" clip-path="url(#paca1689007)" style="fill: #54c6eb; stroke: #ffffff; stroke-width: 1.2; stroke-linejoin: miter"/>
   </g>
   <g id="patch_21">
    <path d="M 216.777814 218.195447 
C 219.436581 218.195447 221.98681 217.139107 223.866843 215.259075 
C 225.746875 213.379043 226.803214 210.828814 226.803214 208.170047 
C 226.803214 205.51128 225.746875 202.961051 223.866843 201.081018 
C 221.98681 199.200986 219.436581 198.144647 216.777814 198.144647 
C 214.119047 198.144647 211.568818 199.200986 209.688786 201.081018 
C 207.808754 202.961051 206.752414 205.51128 206.752414 208.170047 
C 206.752414 210.828814 207.808754 213.379043 209.688786 215.259075 
C 211.568818 217.139107 214.119047 218.195447 216.777814 218.195447 
z
" clip-path="url(#paca1689007)" style="fill: #048a81; stroke: #ffffff; stroke-width: 1.2; stroke-linejoin: miter"/>
   </g>
   <g id="patch_22">
    <path d="M 123.624 340.598169 
C 125.596634 340.598169 127.488739 339.814434 128.883602 338.419571 
C 130.278464 337.024708 131.0622 335.132603 131.0622 333.159969 
C 131.0622 331.187336 130.278464 329.29523 128.883602 327.900368 
C 127.488739 326.505505 125.596634 325.721769 123.624 325.721769 
C 121.651366 325.721769 119.759261 326.505505 118.364398 327.900368 
C 116.969536 329.29523 116.1858 331.187336 116.1858 333.159969 
C 116.1858 335.132603 116.969536 337.024708 118.364398 338.419571 
C 119.759261 339.814434 121.651366 340.598169 123.624 340.598169 
z
" clip-path="url(#paca1689007)" style="fill: #ef7b45; stroke: #ffffff; stroke-width: 1.2; stroke-linejoin: miter"/>
   </g>
   <g id="legend_1">
    <g id="patch_23">
     <path d="M 12.8 85.647969 
L 82.5 85.647969 
Q 84.1 85.647969 84.1 84.047969 
L 84.1 34.677969 
Q 84.1 33.077969 82.5 33.077969 
L 12.8 33.077969 
Q 11.2 33.077969 11.2 34.677969 
L 11.2 84.047969 
Q 11.2 85.647969 12.8 85.647969 
z
" style="fill: #ffffff; opacity: 0.9; stroke: #cccccc; stroke-linejoin: miter"/>
    </g>
    <g id="patch_24">
     <path d="M 16 43.956719 
L 32 43.956719 
L 32 38.356719 
L 16 38.356719 
z
" style="fill: #2e4057; stroke: #2e4057; stroke-linejoin: miter"/>
    </g>
    <g id="text_9">
     <!-- Input -->
     <g transform="translate(38.4 43.956719) scale(0.08 -0.08)">
      <defs>
       <path id="DejaVuSans-49" d="M 628 4666 
L 1259 4666 
L 1259 0 
L 628 0 
L 628 4666 
z
" transform="scale(0.015625)"/>
      </defs>
      <use xlink:href="#DejaVuSans-49"/>
      <use xlink:href="#DejaVuSans-6e" transform="translate(29.492188 0)"/>
      <use xlink:href="#DejaVuSans-70" transform="translate(92.871094 0)"/>
      <use xlink:href="#DejaVuSans-75" transform="translate(156.347656 0)"/>
      <use xlink:href="#DejaVuSans-74" transform="translate(219.726562 0)"/>
     </g>
    </g>
    <g id="patch_25">
     <path d="M 16 55.699219 
L 32 55.699219 
L 32 50.099219 
L 16 50.099219 
z
" style="fill: #048a81; stroke: #048a81; stroke-linejoin: miter"/>
    </g>
    <g id="text_10">
     <!-- Process -->
     <g transform="translate(38.4 55.699219) scale(0.08 -0.08)">
      <defs>
       <path id="DejaVuSans-50" d="M 1259 4147 
L 1259 2394 
L 2053 2394 
Q 2494 2394 2734 2622 
Q 2975 2850 2975 3272 
Q 2975 3691 2734 3919 
Q 2494 4147 2053 4147 
L 1259 4147 
z
M 628 4666 
L 2053 4666 
Q 2838 4666 3239 4311 
Q 3641 3956 3641 3272 
Q 3641 2581 3239 2228 
Q 2838 1875 2053 1875 
L 1259 1875 
L 1259 0 
L 628 0 
L 628 4666 
z
" transform="scale(0.015625)"/>
      </defs>
      <use xlink:href="#DejaVuSans-50"/>
      <use xlink:href="#DejaVuSans-72" transform="translate(58.552734 0)"/>
      <use xlink:href="#DejaVuSans-6f" transform="translate(97.416016 0)"/>
      <use xlink:href="#DejaVuSans-63" transform="translate(158.597656 0)"/>
      <use xlink:href="#DejaVuSans-65" transform="translate(213.578125 0)"/>
      <use xlink:href="#DejaVuSans-73" transform="translate(275.101562 0)"/>
      <use xlink:href="#DejaVuSans-73" transform="translate(327.201172 0)"/>
     </g>
    </g>
    <g id="patch_26">
     <path d="M 16 67.441719 
L 32 67.441719 
L 32 61.841719 
L 16 61.841719 
z
" style="fill: #54c6eb; stroke: #54c6eb; stroke-linejoin: miter"/>
    </g>
    <g id="text_11">
     <!-- Candidate -->
     <g transform="translate(38.4 67.441719) scale(0.08 -0.08)">
      <defs>
       <path id="DejaVuSans-43" d="M 4122 4306 
L 4122 3641 
Q 3803 3938 3442 4084 
Q 3081 4231 2675 4231 
Q 1875 4231 1450 3742 
Q 1025 3253 1025 2328 
Q 1025 1406 1450 917 
Q 1875 428 2675 428 
Q 3081 428 3442 575 
Q 3803 722 4122 1019 
L 4122 359 
Q 3791 134 3420 21 
Q 3050 -91 2638 -91 
Q 1578 -91 968 557 
Q 359 1206 359 2328 
Q 359 3453 968 4101 
Q 1578 4750 2638 4750 
Q 3056 4750 3426 4639 
Q 3797 4528 4122 4306 
z
" transform="scale(0.015625)"/>
       <path id="DejaVuSans-64" d="M 2906 2969 
L 2906 4863 
L 3481 4863 
L 3481 0 
L 2906 0 
L 2906 525 
Q 2725 213 2448 61 
Q 2172 -91 1784 -91 
Q 1150 -91 751 415 
Q 353 922 353 1747 
Q 353 2572 751 3078 
Q 1150 3584 1784 3584 
Q 2172 3584 2448 3432 
Q 2725 3281 2906 2969 
z
M 947 1747 
Q 947 1113 1208 752 
Q 1469 391 1925 391 
Q 2381 391 2643 752 
Q 2906 1113 2906 1747 
Q 2906 2381 2643 2742 
Q 2381 3103 1925 3103 
Q 1469 3103 1208 2742 
Q 947 2381 947 1747 
z
" transform="scale(0.015625)"/>
      </defs>
      <use xlink:href="#DejaVuSans-43"/>
      <use xlink:href="#DejaVuSans-61" transform="translate(69.824219 0)"/>
      <use xlink:href="#DejaVuSans-6e" transform="translate(131.103516 0)"/>
      <use xlink:href="#DejaVuSans-64" transform="translate(194.482422 0)"/>
      <use xlink:href="#DejaVuSans-69" transform="translate(257.958984 0)"/>
      <use xlink:href="#DejaVuSans-64" transform="translate(285.742188 0)"/>
      <use xlink:href="#DejaVuSans-61" transform="translate(349.21875 0)"/>
      <use xlink:href="#DejaVuSans-74" transform="translate(410.498047 0)"/>
      <use xlink:href="#DejaVuSans-65" transform="translate(449.707031 0)"/>
     </g>
    </g>
    <g id="patch_27">
     <path d="M 16 79.184219 
L 32 79.184219 
L 32 73.584219 
L 16 73.584219 
z
" style="fill: #ef7b45; stroke: #ef7b45; stroke-linejoin: miter"/>
    </g>
    <g id="text_12">
     <!-- Score -->
     <g transform="translate(38.4 79.184219) scale(0.08 -0.08)">
      <defs>
       <path id="DejaVuSans-53" d="M 3425 4513 
L 3425 3897 
Q 3066 4069 2747 4153 
Q 2428 4238 2131 4238 
Q 1616 4238 1336 4038 
Q 1056 3838 1056 3469 
Q 1056 3159 1242 3001 
Q 1428 2844 1947 2747 
L 2328 2669 
Q 3034 2534 3370 2195 
Q 3706 1856 3706 1288 
Q 3706 609 3251 259 
Q 2797 -91 1919 -91 
Q 1588 -91 1214 -16 
Q 841 59 441 206 
L 441 856 
Q 825 641 1194 531 
Q 1563 422 1919 422 
Q 2459 422 2753 634 
Q 3047 847 3047 1241 
Q 3047 1584 2836 1778 
Q 2625 1972 2144 2069 
L 1759 2144 
Q 1053 2284 737 2584 
Q 422 2884 422 3419 
Q 422 4038 858 4394 
Q 1294 4750 2059 4750 
Q 2388 4750 2728 4690 
Q 3069 4631 3425 4513 
z
" transform="scale(0.015625)"/>
      </defs>
      <use xlink:href="#DejaVuSans-53"/>
      <use xlink:href="#DejaVuSans-63" transform="translate(63.476562 0)"/>
      <use xlink:href="#DejaVuSans-6f" transform="translate(118.457031 0)"/>
      <use xlink:href="#DejaVuSans-72" transform="translate(179.638672 0)"/>
      <use xlink:href="#DejaVuSans-65" transform="translate(218.501953 0)"/>
     </g>
    </g>
   </g>
   <g id="text_13">
    <g id="patch_28">
     <path d="M 344.776113 134.59656 
L 397.798769 134.59656 
Q 398.848769 134.59656 398.848769 133.54656 
L 398.848769 126.287966 
Q 398.848769 125.237966 397.798769 125.237966 
L 344.776113 125.237966 
Q 343.726113 125.237966 343.726113 126.287966 
L 343.726113 133.54656 
Q 343.726113 134.59656 344.776113 134.59656 
z
" style="fill: #ffffff; opacity: 0.88"/>
    </g>
    <!-- User Question -->
    <g style="fill: #212529" transform="translate(344.776113 131.986794) scale(0.075 -0.075)">
     <defs>
      <path id="DejaVuSans-55" d="M 556 4666 
L 1191 4666 
L 1191 1831 
Q 1191 1081 1462 751 
Q 1734 422 2344 422 
Q 2950 422 3222 751 
Q 3494 1081 3494 1831 
L 3494 4666 
L 4128 4666 
L 4128 1753 
Q 4128 841 3676 375 
Q 3225 -91 2344 -91 
Q 1459 -91 1007 375 
Q 556 841 556 1753 
L 556 4666 
z
" transform="scale(0.015625)"/>
      <path id="DejaVuSans-20" transform="scale(0.015625)"/>
      <path id="DejaVuSans-51" d="M 2522 4238 
Q 1834 4238 1429 3725 
Q 1025 3213 1025 2328 
Q 1025 1447 1429 934 
Q 1834 422 2522 422 
Q 3209 422 3611 934 
Q 4013 1447 4013 2328 
Q 4013 3213 3611 3725 
Q 3209 4238 2522 4238 
z
M 3406 84 
L 4238 -825 
L 3475 -825 
L 2784 -78 
Q 2681 -84 2626 -87 
Q 2572 -91 2522 -91 
Q 1538 -91 948 567 
Q 359 1225 359 2328 
Q 359 3434 948 4092 
Q 1538 4750 2522 4750 
Q 3503 4750 4090 4092 
Q 4678 3434 4678 2328 
Q 4678 1516 4351 937 
Q 4025 359 3406 84 
z
" transform="scale(0.015625)"/>
     </defs>
     <use xlink:href="#DejaVuSans-55"/>
     <use xlink:href="#DejaVuSans-73" transform="translate(73.193359 0)"/>
     <use xlink:href="#DejaVuSans-65" transform="translate(125.292969 0)"/>
     <use xlink:href="#DejaVuSans-72" transform="translate(186.816406 0)"/>
     <use xlink:href="#DejaVuSans-20" transform="translate(227.929688 0)"/>
     <use xlink:href="#DejaVuSans-51" transform="translate(259.716797 0)"/>
     <use xlink:href="#DejaVuSans-75" transform="translate(338.427734 0)"/>
     <use xlink:href="#DejaVuSans-65" transform="translate(401.806641 0)"/>
     <use xlink:href="#DejaVuSans-73" transform="translate(463.330078 0)"/>
     <use xlink:href="#DejaVuSans-74" transform="translate(515.429688 0)"/>
     <use xlink:href="#DejaVuSans-69" transform="translate(554.638672 0)"/>
     <use xlink:href="#DejaVuSans-6f" transform="translate(582.421875 0)"/>
     <use xlink:href="#DejaVuSans-6e" transform="translate(643.603516 0)"/>
    </g>
   </g>
   <g id="text_14">
    <g id="patch_29">
     <path d="M 366.824465 396.886772 
L 436.620168 396.886772 
Q 437.670168 396.886772 437.670168 395.836772 
L 437.670168 388.578179 
Q 437.670168 387.528179 436.620168 387.528179 
L 366.824465 387.528179 
Q 365.774465 387.528179 365.774465 388.578179 
L 365.774465 395.836772 
Q 365.774465 396.886772 366.824465 396.886772 
z
" style="fill: #ffffff; opacity: 0.88"/>
    </g>
    <!-- Generated Answer -->
    <g style="fill: #212529" transform="translate(366.824465 394.277007) scale(0.075 -0.075)">
     <defs>
      <path id="DejaVuSans-47" d="M 3809 666 
L 3809 1919 
L 2778 1919 
L 2778 2438 
L 4434 2438 
L 4434 434 
Q 4069 175 3628 42 
Q 3188 -91 2688 -91 
Q 1594 -91 976 548 
Q 359 1188 359 2328 
Q 359 3472 976 4111 
Q 1594 4750 2688 4750 
Q 3144 4750 3555 4637 
Q 3966 4525 4313 4306 
L 4313 3634 
Q 3963 3931 3569 4081 
Q 3175 4231 2741 4231 
Q 1884 4231 1454 3753 
Q 1025 3275 1025 2328 
Q 1025 1384 1454 906 
Q 1884 428 2741 428 
Q 3075 428 3337 486 
Q 3600 544 3809 666 
z
" transform="scale(0.015625)"/>
      <path id="DejaVuSans-41" d="M 2188 4044 
L 1331 1722 
L 3047 1722 
L 2188 4044 
z
M 1831 4666 
L 2547 4666 
L 4325 0 
L 3669 0 
L 3244 1197 
L 1141 1197 
L 716 0 
L 50 0 
L 1831 4666 
z
" transform="scale(0.015625)"/>
      <path id="DejaVuSans-77" d="M 269 3500 
L 844 3500 
L 1563 769 
L 2278 3500 
L 2956 3500 
L 3675 769 
L 4391 3500 
L 4966 3500 
L 4050 0 
L 3372 0 
L 2619 2869 
L 1863 0 
L 1184 0 
L 269 3500 
z
" transform="scale(0.015625)"/>
     </defs>
     <use xlink:href="#DejaVuSans-47"/>
     <use xlink:href="#DejaVuSans-65" transform="translate(77.490234 0)"/>
     <use xlink:href="#DejaVuSans-6e" transform="translate(139.013672 0)"/>
     <use xlink:href="#DejaVuSans-65" transform="translate(202.392578 0)"/>
     <use xlink:href="#DejaVuSans-72" transform="translate(263.916016 0)"/>
     <use xlink:href="#DejaVuSans-61" transform="translate(305.029297 0)"/>
     <use xlink:href="#DejaVuSans-74" transform="translate(366.308594 0)"/>
     <use xlink:href="#DejaVuSans-65" transform="translate(405.517578 0)"/>
     <use xlink:href="#DejaVuSans-64" transform="translate(467.041016 0)"/>
     <use xlink:href="#DejaVuSans-20" transform="translate(530.517578 0)"/>
     <use xlink:href="#DejaVuSans-41" transform="translate(562.304688 0)"/>
     <use xlink:href="#DejaVuSans-6e" transform="translate(630.712891 0)"/>
     <use xlink:href="#DejaVuSans-73" transform="translate(694.091797 0)"/>
     <use xlink:href="#DejaVuSans-77" transform="translate(746.191406 0)"/>
     <use xlink:href="#DejaVuSans-65" transform="translate(827.978516 0)"/>
     <use xlink:href="#DejaVuSans-72" transform="translate(889.501953 0)"/>
    </g>
   </g>
   <g id="text_15">
    <g id="patch_30">
     <path d="M 223.898914 378.347445 
L 278.666492 378.347445 
Q 279.716492 378.347445 279.716492 377.297445 
L 279.716492 356.091547 
Q 279.716492 355.041547 278.666492 355.041547 
L 223.898914 355.041547 
Q 222.848914 355.041547 222.848914 356.091547 
L 222.848914 377.297445 
Q 222.848914 378.347445 223.898914 378.347445 
z
" style="fill: #ffffff; opacity: 0.88"/>
    </g>
    <!-- LLM: Generate -->
    <g style="fill: #212529" transform="translate(223.898914 361.790375) scale(0.075 -0.075)">
     <defs>
      <path id="DejaVuSans-4c" d="M 628 4666 
L 1259 4666 
L 1259 531 
L 3531 531 
L 3531 0 
L 628 0 
L 628 4666 
z
" transform="scale(0.015625)"/>
      <path id="DejaVuSans-4d" d="M 628 4666 
L 1569 4666 
L 2759 1491 
L 3956 4666 
L 4897 4666 
L 4897 0 
L 4281 0 
L 4281 4097 
L 3078 897 
L 2444 897 
L 1241 4097 
L 1241 0 
L 628 0 
L 628 4666 
z
" transform="scale(0.015625)"/>
      <path id="DejaVuSans-3a" d="M 750 794 
L 1409 794 
L 1409 0 
L 750 0 
L 750 794 
z
M 750 3309 
L 1409 3309 
L 1409 2516 
L 750 2516 
L 750 3309 
z
" transform="scale(0.015625)"/>
     </defs>
     <use xlink:href="#DejaVuSans-4c"/>
     <use xlink:href="#DejaVuSans-4c" transform="translate(55.712891 0)"/>
     <use xlink:href="#DejaVuSans-4d" transform="translate(111.425781 0)"/>
     <use xlink:href="#DejaVuSans-3a" transform="translate(197.705078 0)"/>
     <use xlink:href="#DejaVuSans-20" transform="translate(231.396484 0)"/>
     <use xlink:href="#DejaVuSans-47" transform="translate(263.183594 0)"/>
     <use xlink:href="#DejaVuSans-65" transform="translate(340.673828 0)"/>
     <use xlink:href="#DejaVuSans-6e" transform="translate(402.197266 0)"/>
     <use xlink:href="#DejaVuSans-65" transform="translate(465.576172 0)"/>
     <use xlink:href="#DejaVuSans-72" transform="translate(527.099609 0)"/>
     <use xlink:href="#DejaVuSans-61" transform="translate(568.212891 0)"/>
     <use xlink:href="#DejaVuSans-74" transform="translate(629.492188 0)"/>
     <use xlink:href="#DejaVuSans-65" transform="translate(668.701172 0)"/>
    </g>
    <!-- Hypothetical -->
    <g style="fill: #212529" transform="translate(227.500086 368.764027) scale(0.075 -0.075)">
     <defs>
      <path id="DejaVuSans-48" d="M 628 4666 
L 1259 4666 
L 1259 2753 
L 3553 2753 
L 3553 4666 
L 4184 4666 
L 4184 0 
L 3553 0 
L 3553 2222 
L 1259 2222 
L 1259 0 
L 628 0 
L 628 4666 
z
" transform="scale(0.015625)"/>
      <path id="DejaVuSans-79" d="M 2059 -325 
Q 1816 -950 1584 -1140 
Q 1353 -1331 966 -1331 
L 506 -1331 
L 506 -850 
L 844 -850 
Q 1081 -850 1212 -737 
Q 1344 -625 1503 -206 
L 1606 56 
L 191 3500 
L 800 3500 
L 1894 763 
L 2988 3500 
L 3597 3500 
L 2059 -325 
z
" transform="scale(0.015625)"/>
      <path id="DejaVuSans-68" d="M 3513 2113 
L 3513 0 
L 2938 0 
L 2938 2094 
Q 2938 2591 2744 2837 
Q 2550 3084 2163 3084 
Q 1697 3084 1428 2787 
Q 1159 2491 1159 1978 
L 1159 0 
L 581 0 
L 581 4863 
L 1159 4863 
L 1159 2956 
Q 1366 3272 1645 3428 
Q 1925 3584 2291 3584 
Q 2894 3584 3203 3211 
Q 3513 2838 3513 2113 
z
" transform="scale(0.015625)"/>
     </defs>
     <use xlink:href="#DejaVuSans-48"/>
     <use xlink:href="#DejaVuSans-79" transform="translate(75.195312 0)"/>
     <use xlink:href="#DejaVuSans-70" transform="translate(134.375 0)"/>
     <use xlink:href="#DejaVuSans-6f" transform="translate(197.851562 0)"/>
     <use xlink:href="#DejaVuSans-74" transform="translate(259.033203 0)"/>
     <use xlink:href="#DejaVuSans-68" transform="translate(298.242188 0)"/>
     <use xlink:href="#DejaVuSans-65" transform="translate(361.621094 0)"/>
     <use xlink:href="#DejaVuSans-74" transform="translate(423.144531 0)"/>
     <use xlink:href="#DejaVuSans-69" transform="translate(462.353516 0)"/>
     <use xlink:href="#DejaVuSans-63" transform="translate(490.136719 0)"/>
     <use xlink:href="#DejaVuSans-61" transform="translate(545.117188 0)"/>
     <use xlink:href="#DejaVuSans-6c" transform="translate(606.396484 0)"/>
    </g>
    <!-- Questions -->
    <g style="fill: #212529" transform="translate(232.556726 375.73768) scale(0.075 -0.075)">
     <use xlink:href="#DejaVuSans-51"/>
     <use xlink:href="#DejaVuSans-75" transform="translate(78.710938 0)"/>
     <use xlink:href="#DejaVuSans-65" transform="translate(142.089844 0)"/>
     <use xlink:href="#DejaVuSans-73" transform="translate(203.613281 0)"/>
     <use xlink:href="#DejaVuSans-74" transform="translate(255.712891 0)"/>
     <use xlink:href="#DejaVuSans-69" transform="translate(294.921875 0)"/>
     <use xlink:href="#DejaVuSans-6f" transform="translate(322.705078 0)"/>
     <use xlink:href="#DejaVuSans-6e" transform="translate(383.886719 0)"/>
     <use xlink:href="#DejaVuSans-73" transform="translate(447.265625 0)"/>
    </g>
   </g>
   <g id="text_16">
    <g id="patch_31">
     <path d="M 54.940677 243.038917 
L 115.24888 243.038917 
Q 116.29888 243.038917 116.29888 241.988917 
L 116.29888 234.730324 
Q 116.29888 233.680324 115.24888 233.680324 
L 54.940677 233.680324 
Q 53.890677 233.680324 53.890677 234.730324 
L 53.890677 241.988917 
Q 53.890677 243.038917 54.940677 243.038917 
z
" style="fill: #ffffff; opacity: 0.88"/>
    </g>
    <!-- Hyp. Question 1 -->
    <g style="fill: #212529" transform="translate(54.940677 240.429152) scale(0.075 -0.075)">
     <defs>
      <path id="DejaVuSans-2e" d="M 684 794 
L 1344 794 
L 1344 0 
L 684 0 
L 684 794 
z
" transform="scale(0.015625)"/>
      <path id="DejaVuSans-31" d="M 794 531 
L 1825 531 
L 1825 4091 
L 703 3866 
L 703 4441 
L 1819 4666 
L 2450 4666 
L 2450 531 
L 3481 531 
L 3481 0 
L 794 0 
L 794 531 
z
" transform="scale(0.015625)"/>
     </defs>
     <use xlink:href="#DejaVuSans-48"/>
     <use xlink:href="#DejaVuSans-79" transform="translate(75.195312 0)"/>
     <use xlink:href="#DejaVuSans-70" transform="translate(134.375 0)"/>
     <use xlink:href="#DejaVuSans-2e" transform="translate(197.851562 0)"/>
     <use xlink:href="#DejaVuSans-20" transform="translate(229.638672 0)"/>
     <use xlink:href="#DejaVuSans-51" transform="translate(261.425781 0)"/>
     <use xlink:href="#DejaVuSans-75" transform="translate(340.136719 0)"/>
     <use xlink:href="#DejaVuSans-65" transform="translate(403.515625 0)"/>
     <use xlink:href="#DejaVuSans-73" transform="translate(465.039062 0)"/>
     <use xlink:href="#DejaVuSans-74" transform="translate(517.138672 0)"/>
     <use xlink:href="#DejaVuSans-69" transform="translate(556.347656 0)"/>
     <use xlink:href="#DejaVuSans-6f" transform="translate(584.130859 0)"/>
     <use xlink:href="#DejaVuSans-6e" transform="translate(645.3125 0)"/>
     <use xlink:href="#DejaVuSans-20" transform="translate(708.691406 0)"/>
     <use xlink:href="#DejaVuSans-31" transform="translate(740.478516 0)"/>
    </g>
   </g>
   <g id="text_17">
    <g id="patch_32">
     <path d="M 341.960074 257.995203 
L 402.268277 257.995203 
Q 403.318277 257.995203 403.318277 256.945203 
L 403.318277 249.686609 
Q 403.318277 248.636609 402.268277 248.636609 
L 341.960074 248.636609 
Q 340.910074 248.636609 340.910074 249.686609 
L 340.910074 256.945203 
Q 340.910074 257.995203 341.960074 257.995203 
z
" style="fill: #ffffff; opacity: 0.88"/>
    </g>
    <!-- Hyp. Question 2 -->
    <g style="fill: #212529" transform="translate(341.960074 255.385437) scale(0.075 -0.075)">
     <defs>
      <path id="DejaVuSans-32" d="M 1228 531 
L 3431 531 
L 3431 0 
L 469 0 
L 469 531 
Q 828 903 1448 1529 
Q 2069 2156 2228 2338 
Q 2531 2678 2651 2914 
Q 2772 3150 2772 3378 
Q 2772 3750 2511 3984 
Q 2250 4219 1831 4219 
Q 1534 4219 1204 4116 
Q 875 4013 500 3803 
L 500 4441 
Q 881 4594 1212 4672 
Q 1544 4750 1819 4750 
Q 2544 4750 2975 4387 
Q 3406 4025 3406 3419 
Q 3406 3131 3298 2873 
Q 3191 2616 2906 2266 
Q 2828 2175 2409 1742 
Q 1991 1309 1228 531 
z
" transform="scale(0.015625)"/>
     </defs>
     <use xlink:href="#DejaVuSans-48"/>
     <use xlink:href="#DejaVuSans-79" transform="translate(75.195312 0)"/>
     <use xlink:href="#DejaVuSans-70" transform="translate(134.375 0)"/>
     <use xlink:href="#DejaVuSans-2e" transform="translate(197.851562 0)"/>
     <use xlink:href="#DejaVuSans-20" transform="translate(229.638672 0)"/>
     <use xlink:href="#DejaVuSans-51" transform="translate(261.425781 0)"/>
     <use xlink:href="#DejaVuSans-75" transform="translate(340.136719 0)"/>
     <use xlink:href="#DejaVuSans-65" transform="translate(403.515625 0)"/>
     <use xlink:href="#DejaVuSans-73" transform="translate(465.039062 0)"/>
     <use xlink:href="#DejaVuSans-74" transform="translate(517.138672 0)"/>
     <use xlink:href="#DejaVuSans-69" transform="translate(556.347656 0)"/>
     <use xlink:href="#DejaVuSans-6f" transform="translate(584.130859 0)"/>
     <use xlink:href="#DejaVuSans-6e" transform="translate(645.3125 0)"/>
     <use xlink:href="#DejaVuSans-20" transform="translate(708.691406 0)"/>
     <use xlink:href="#DejaVuSans-32" transform="translate(740.478516 0)"/>
    </g>
   </g>
   <g id="text_18">
    <g id="patch_33">
     <path d="M 146.066765 193.898195 
L 209.09489 193.898195 
Q 210.14489 193.898195 210.14489 192.848195 
L 210.14489 185.589602 
Q 210.14489 184.539602 209.09489 184.539602 
L 146.066765 184.539602 
Q 145.016765 184.539602 145.016765 185.589602 
L 145.016765 192.848195 
Q 145.016765 193.898195 146.066765 193.898195 
z
" style="fill: #ffffff; opacity: 0.88"/>
    </g>
    <!-- Cosine Similarity -->
    <g style="fill: #212529" transform="translate(146.066765 191.28843) scale(0.075 -0.075)">
     <use xlink:href="#DejaVuSans-43"/>
     <use xlink:href="#DejaVuSans-6f" transform="translate(69.824219 0)"/>
     <use xlink:href="#DejaVuSans-73" transform="translate(131.005859 0)"/>
     <use xlink:href="#DejaVuSans-69" transform="translate(183.105469 0)"/>
     <use xlink:href="#DejaVuSans-6e" transform="translate(210.888672 0)"/>
     <use xlink:href="#DejaVuSans-65" transform="translate(274.267578 0)"/>
     <use xlink:href="#DejaVuSans-20" transform="translate(335.791016 0)"/>
     <use xlink:href="#DejaVuSans-53" transform="translate(367.578125 0)"/>
     <use xlink:href="#DejaVuSans-69" transform="translate(431.054688 0)"/>
     <use xlink:href="#DejaVuSans-6d" transform="translate(458.837891 0)"/>
     <use xlink:href="#DejaVuSans-69" transform="translate(556.25 0)"/>
     <use xlink:href="#DejaVuSans-6c" transform="translate(584.033203 0)"/>
     <use xlink:href="#DejaVuSans-61" transform="translate(611.816406 0)"/>
     <use xlink:href="#DejaVuSans-72" transform="translate(673.095703 0)"/>
     <use xlink:href="#DejaVuSans-69" transform="translate(714.208984 0)"/>
     <use xlink:href="#DejaVuSans-74" transform="translate(741.992188 0)"/>
     <use xlink:href="#DejaVuSans-79" transform="translate(781.201172 0)"/>
    </g>
   </g>
   <g id="text_19">
    <g id="patch_34">
     <path d="M 38.079743 347.867273 
L 110.553181 347.867273 
Q 111.603181 347.867273 111.603181 346.817273 
L 111.603181 339.558679 
Q 111.603181 338.508679 110.553181 338.508679 
L 38.079743 338.508679 
Q 37.029743 338.508679 37.029743 339.558679 
L 37.029743 346.817273 
Q 37.029743 347.867273 38.079743 347.867273 
z
" style="fill: #ffffff; opacity: 0.88"/>
    </g>
    <!-- Score = mean(sim) -->
    <g style="fill: #212529" transform="translate(38.079743 345.257508) scale(0.075 -0.075)">
     <defs>
      <path id="DejaVuSans-3d" d="M 678 2906 
L 4684 2906 
L 4684 2381 
L 678 2381 
L 678 2906 
z
M 678 1631 
L 4684 1631 
L 4684 1100 
L 678 1100 
L 678 1631 
z
" transform="scale(0.015625)"/>
      <path id="DejaVuSans-28" d="M 1984 4856 
Q 1566 4138 1362 3434 
Q 1159 2731 1159 2009 
Q 1159 1288 1364 580 
Q 1569 -128 1984 -844 
L 1484 -844 
Q 1016 -109 783 600 
Q 550 1309 550 2009 
Q 550 2706 781 3412 
Q 1013 4119 1484 4856 
L 1984 4856 
z
" transform="scale(0.015625)"/>
      <path id="DejaVuSans-29" d="M 513 4856 
L 1013 4856 
Q 1481 4119 1714 3412 
Q 1947 2706 1947 2009 
Q 1947 1309 1714 600 
Q 1481 -109 1013 -844 
L 513 -844 
Q 928 -128 1133 580 
Q 1338 1288 1338 2009 
Q 1338 2731 1133 3434 
Q 928 4138 513 4856 
z
" transform="scale(0.015625)"/>
     </defs>
     <use xlink:href="#DejaVuSans-53"/>
     <use xlink:href="#DejaVuSans-63" transform="translate(63.476562 0)"/>
     <use xlink:href="#DejaVuSans-6f" transform="translate(118.457031 0)"/>
     <use xlink:href="#DejaVuSans-72" transform="translate(179.638672 0)"/>
     <use xlink:href="#DejaVuSans-65" transform="translate(218.501953 0)"/>
     <use xlink:href="#DejaVuSans-20" transform="translate(280.025391 0)"/>
     <use xlink:href="#DejaVuSans-3d" transform="translate(311.8125 0)"/>
     <use xlink:href="#DejaVuSans-20" transform="translate(395.601562 0)"/>
     <use xlink:href="#DejaVuSans-6d" transform="translate(427.388672 0)"/>
     <use xlink:href="#DejaVuSans-65" transform="translate(524.800781 0)"/>
     <use xlink:href="#DejaVuSans-61" transform="translate(586.324219 0)"/>
     <use xlink:href="#DejaVuSans-6e" transform="translate(647.603516 0)"/>
     <use xlink:href="#DejaVuSans-28" transform="translate(710.982422 0)"/>
     <use xlink:href="#DejaVuSans-73" transform="translate(749.996094 0)"/>
     <use xlink:href="#DejaVuSans-69" transform="translate(802.095703 0)"/>
     <use xlink:href="#DejaVuSans-6d" transform="translate(829.878906 0)"/>
     <use xlink:href="#DejaVuSans-29" transform="translate(927.291016 0)"/>
    </g>
   </g>
  </g>
 </g>
 <defs>
  <clipPath id="paca1689007">
   <rect x="7.2" y="29.077969" width="465.696" height="465.696"/>
  </clipPath>
 </defs>
</svg>
