<?xml version="1.0" encoding="utf-8" standalone="no"?>
<!DOCTYPE svg PUBLIC "-//W3C//DTD SVG 1.1//EN"
  "http://www.w3.org/Graphics/SVG/1.1/DTD/svg11.dtd">
<svg xmlns:xlink="http://www.w3.org/1999/xlink" width="480.096pt" height="501.973969pt" viewBox="0 0 480.096 501.973969" xmlns="http://www.w3.org/2000/svg" version="1.1">
 <metadata>
  <rdf:RDF xmlns:dc="http://purl.org/dc/elements/1.1/" xmlns:cc="http://creativecommons.org/ns#" xmlns:rdf="http://www.w3.org/1999/02/22-rdf-syntax-ns#">
   <cc:Work>
    <dc:type rdf:resource="http://purl.org/dc/dcmitype/StillImage"/>
    <dc:date>2026-06-13T00:19:33.370181</dc:date>
    <dc:format>image/svg+xml</dc:format>
    <dc:creator>
     <cc:Agent>
      <dc:title>Matplotlib v3.10.9, https://matplotlib.org/</dc:title>
     </cc:Agent>
    </dc:creator>
   </cc:Work>
  </rdf:RDF>
 </metadata>
 <defs>
  <style type="text/css">*{stroke-linejoin: round; stroke-linecap: butt}</style>
 </defs>
 <g id="figure_1">
  <g id="patch_1">
   <path d="M 0 501.973969 
L 480.096 501.973969 
L 480.096 0 
L 0 0 
z
" style="fill: #ffffff"/>
  </g>
  <g id="axes_1">
   <g id="patch_2">
    <path d="M 348.193602 145.501969 
Q 300.61045 145.501969 254.257135 145.501969 
" clip-path="url(#p18682ea316)" style="fill: none; stroke: #9aa3b2; stroke-width: 1.1; stroke-linecap: round"/>
    <path d="M 259.057135 147.901969 
L 254.257135 145.501969 
L 259.057135 143.101969 
z
" clip-path="url(#p18682ea316)" style="fill: #9aa3b2; stroke: #9aa3b2; stroke-width: 1.1; stroke-linecap: round"/>
   </g>
   <g id="patch_3">
    <path d="M 230.707722 145.501969 
Q 193.466772 145.501969 157.45566 145.501969 
" clip-path="url(#p18682ea316)" style="fill: none; stroke: #9aa3b2; stroke-width: 1.1; stroke-linecap: round"/>
    <path d="M 162.25566 147.901969 
L 157.45566 145.501969 
L 162.25566 143.101969 
z
" clip-path="url(#p18682ea316)" style="fill: #9aa3b2; stroke: #9aa3b2; stroke-width: 1.1; stroke-linecap: round"/>
   </g>
   <g id="patch_4">
    <path d="M 247.684427 155.023534 
Q 271.138957 193.42207 293.952412 230.771072 
" clip-path="url(#p18682ea316)" style="fill: none; stroke: #9aa3b2; stroke-width: 1.1; stroke-linecap: round"/>
    <path d="M 293.498469 225.423742 
L 293.952412 230.771072 
L 289.402182 227.925829 
z
" clip-path="url(#p18682ea316)" style="fill: #9aa3b2; stroke: #9aa3b2; stroke-width: 1.1; stroke-linecap: round"/>
   </g>
   <g id="patch_5">
    <path d="M 232.121827 150.943336 
Q 182.010122 178.91973 132.972243 206.296626 
" clip-path="url(#p18682ea316)" style="fill: none; stroke: #9aa3b2; stroke-width: 1.1; stroke-linecap: round"/>
    <path d="M 138.333244 206.052367 
L 132.972243 206.296626 
L 135.993436 201.861269 
z
" clip-path="url(#p18682ea316)" style="fill: #9aa3b2; stroke: #9aa3b2; stroke-width: 1.1; stroke-linecap: round"/>
   </g>
   <g id="patch_6">
    <path d="M 128.685641 371.800056 
Q 157.749578 334.190467 186.061502 297.554005 
" clip-path="url(#p18682ea316)" style="fill: none; stroke: #9aa3b2; stroke-width: 1.1; stroke-linecap: round"/>
    <path d="M 181.227393 299.88454 
L 186.061502 297.554005 
L 185.025465 302.819613 
z
" clip-path="url(#p18682ea316)" style="fill: #9aa3b2; stroke: #9aa3b2; stroke-width: 1.1; stroke-linecap: round"/>
   </g>
   <g id="patch_7">
    <path d="M 149.751899 154.484324 
Q 170.027871 215.232567 189.914475 274.814237 
" clip-path="url(#p18682ea316)" style="fill: none; stroke: #9aa3b2; stroke-width: 1.1; stroke-linecap: round"/>
    <path d="M 190.671331 269.501312 
L 189.914475 274.814237 
L 186.118249 271.020997 
z
" clip-path="url(#p18682ea316)" style="fill: #9aa3b2; stroke: #9aa3b2; stroke-width: 1.1; stroke-linecap: round"/>
   </g>
   <g id="patch_8">
    <path d="M 290.888792 243.781579 
Q 247.871432 263.075084 205.976214 281.865303 
" clip-path="url(#p18682ea316)" style="fill: none; stroke: #9aa3b2; stroke-width: 1.1; stroke-linecap: round"/>
    <path d="M 211.338036 282.090834 
L 205.976214 281.865303 
L 209.373732 277.711164 
z
" clip-path="url(#p18682ea316)" style="fill: #9aa3b2; stroke: #9aa3b2; stroke-width: 1.1; stroke-linecap: round"/>
   </g>
   <g id="patch_9">
    <path d="M 130.078399 218.452807 
Q 158.033041 248.498672 185.149957 277.644142 
" clip-path="url(#p18682ea316)" style="fill: none; stroke: #9aa3b2; stroke-width: 1.1; stroke-linecap: round"/>
    <path d="M 183.637446 272.495131 
L 185.149957 277.644142 
L 180.123242 275.764744 
z
" clip-path="url(#p18682ea316)" style="fill: #9aa3b2; stroke: #9aa3b2; stroke-width: 1.1; stroke-linecap: round"/>
   </g>
   <g id="patch_10">
    <path d="M 202.786096 295.203622 
Q 245.168407 333.981822 286.643368 371.929831 
" clip-path="url(#p18682ea316)" style="fill: none; stroke: #9aa3b2; stroke-width: 1.1; stroke-linecap: round"/>
    <path d="M 284.722121 366.918962 
L 286.643368 371.929831 
L 281.481925 370.460307 
z
" clip-path="url(#p18682ea316)" style="fill: #9aa3b2; stroke: #9aa3b2; stroke-width: 1.1; stroke-linecap: round"/>
   </g>
   <g id="text_1">
    <g id="patch_11">
     <path d="M 266.668873 156.542159 
L 304.166763 156.542159 
Q 304.946763 156.542159 304.946763 155.762159 
L 304.946763 149.471378 
Q 304.946763 148.691378 304.166763 148.691378 
L 266.668873 148.691378 
Q 265.888873 148.691378 265.888873 149.471378 
L 265.888873 155.762159 
Q 265.888873 156.542159 266.668873 156.542159 
z
" style="fill: #ffffff; opacity: 0.9"/>
    </g>
    <!-- decompose -->
    <g style="fill: #475569" transform="translate(266.668873 154.410363) scale(0.065 -0.065)">
     <defs>
      <path id="DejaVuSans-64" d="M 2906 2969 
L 2906 4863 
L 3481 4863 
L 3481 0 
L 2906 0 
L 2906 525 
Q 2725 213 2448 61 
Q 2172 -91 1784 -91 
Q 1150 -91 751 415 
Q 353 922 353 1747 
Q 353 2572 751 3078 
Q 1150 3584 1784 3584 
Q 2172 3584 2448 3432 
Q 2725 3281 2906 2969 
z
M 947 1747 
Q 947 1113 1208 752 
Q 1469 391 1925 391 
Q 2381 391 2643 752 
Q 2906 1113 2906 1747 
Q 2906 2381 2643 2742 
Q 2381 3103 1925 3103 
Q 1469 3103 1208 2742 
Q 947 2381 947 1747 
z
" transform="scale(0.015625)"/>
      <path id="DejaVuSans-65" d="M 3597 1894 
L 3597 1613 
L 953 1613 
Q 991 1019 1311 708 
Q 1631 397 2203 397 
Q 2534 397 2845 478 
Q 3156 559 3463 722 
L 3463 178 
Q 3153 47 2828 -22 
Q 2503 -91 2169 -91 
Q 1331 -91 842 396 
Q 353 884 353 1716 
Q 353 2575 817 3079 
Q 1281 3584 2069 3584 
Q 2775 3584 3186 3129 
Q 3597 2675 3597 1894 
z
M 3022 2063 
Q 3016 2534 2758 2815 
Q 2500 3097 2075 3097 
Q 1594 3097 1305 2825 
Q 1016 2553 972 2059 
L 3022 2063 
z
" transform="scale(0.015625)"/>
      <path id="DejaVuSans-63" d="M 3122 3366 
L 3122 2828 
Q 2878 2963 2633 3030 
Q 2388 3097 2138 3097 
Q 1578 3097 1268 2742 
Q 959 2388 959 1747 
Q 959 1106 1268 751 
Q 1578 397 2138 397 
Q 2388 397 2633 464 
Q 2878 531 3122 666 
L 3122 134 
Q 2881 22 2623 -34 
Q 2366 -91 2075 -91 
Q 1284 -91 818 406 
Q 353 903 353 1747 
Q 353 2603 823 3093 
Q 1294 3584 2113 3584 
Q 2378 3584 2631 3529 
Q 2884 3475 3122 3366 
z
" transform="scale(0.015625)"/>
      <path id="DejaVuSans-6f" d="M 1959 3097 
Q 1497 3097 1228 2736 
Q 959 2375 959 1747 
Q 959 1119 1226 758 
Q 1494 397 1959 397 
Q 2419 397 2687 759 
Q 2956 1122 2956 1747 
Q 2956 2369 2687 2733 
Q 2419 3097 1959 3097 
z
M 1959 3584 
Q 2709 3584 3137 3096 
Q 3566 2609 3566 1747 
Q 3566 888 3137 398 
Q 2709 -91 1959 -91 
Q 1206 -91 779 398 
Q 353 888 353 1747 
Q 353 2609 779 3096 
Q 1206 3584 1959 3584 
z
" transform="scale(0.015625)"/>
      <path id="DejaVuSans-6d" d="M 3328 2828 
Q 3544 3216 3844 3400 
Q 4144 3584 4550 3584 
Q 5097 3584 5394 3201 
Q 5691 2819 5691 2113 
L 5691 0 
L 5113 0 
L 5113 2094 
Q 5113 2597 4934 2840 
Q 4756 3084 4391 3084 
Q 3944 3084 3684 2787 
Q 3425 2491 3425 1978 
L 3425 0 
L 2847 0 
L 2847 2094 
Q 2847 2600 2669 2842 
Q 2491 3084 2119 3084 
Q 1678 3084 1418 2786 
Q 1159 2488 1159 1978 
L 1159 0 
L 581 0 
L 581 3500 
L 1159 3500 
L 1159 2956 
Q 1356 3278 1631 3431 
Q 1906 3584 2284 3584 
Q 2666 3584 2933 3390 
Q 3200 3197 3328 2828 
z
" transform="scale(0.015625)"/>
      <path id="DejaVuSans-70" d="M 1159 525 
L 1159 -1331 
L 581 -1331 
L 581 3500 
L 1159 3500 
L 1159 2969 
Q 1341 3281 1617 3432 
Q 1894 3584 2278 3584 
Q 2916 3584 3314 3078 
Q 3713 2572 3713 1747 
Q 3713 922 3314 415 
Q 2916 -91 2278 -91 
Q 1894 -91 1617 61 
Q 1341 213 1159 525 
z
M 3116 1747 
Q 3116 2381 2855 2742 
Q 2594 3103 2138 3103 
Q 1681 3103 1420 2742 
Q 1159 2381 1159 1747 
Q 1159 1113 1420 752 
Q 1681 391 2138 391 
Q 2594 391 2855 752 
Q 3116 1113 3116 1747 
z
" transform="scale(0.015625)"/>
      <path id="DejaVuSans-73" d="M 2834 3397 
L 2834 2853 
Q 2591 2978 2328 3040 
Q 2066 3103 1784 3103 
Q 1356 3103 1142 2972 
Q 928 2841 928 2578 
Q 928 2378 1081 2264 
Q 1234 2150 1697 2047 
L 1894 2003 
Q 2506 1872 2764 1633 
Q 3022 1394 3022 966 
Q 3022 478 2636 193 
Q 2250 -91 1575 -91 
Q 1294 -91 989 -36 
Q 684 19 347 128 
L 347 722 
Q 666 556 975 473 
Q 1284 391 1588 391 
Q 1994 391 2212 530 
Q 2431 669 2431 922 
Q 2431 1156 2273 1281 
Q 2116 1406 1581 1522 
L 1381 1569 
Q 847 1681 609 1914 
Q 372 2147 372 2553 
Q 372 3047 722 3315 
Q 1072 3584 1716 3584 
Q 2034 3584 2315 3537 
Q 2597 3491 2834 3397 
z
" transform="scale(0.015625)"/>
     </defs>
     <use xlink:href="#DejaVuSans-64"/>
     <use xlink:href="#DejaVuSans-65" transform="translate(63.476562 0)"/>
     <use xlink:href="#DejaVuSans-63" transform="translate(125 0)"/>
     <use xlink:href="#DejaVuSans-6f" transform="translate(179.980469 0)"/>
     <use xlink:href="#DejaVuSans-6d" transform="translate(241.162109 0)"/>
     <use xlink:href="#DejaVuSans-70" transform="translate(338.574219 0)"/>
     <use xlink:href="#DejaVuSans-6f" transform="translate(402.050781 0)"/>
     <use xlink:href="#DejaVuSans-73" transform="translate(463.232422 0)"/>
     <use xlink:href="#DejaVuSans-65" transform="translate(515.332031 0)"/>
    </g>
   </g>
   <g id="text_2">
    <g id="patch_12">
     <path d="M 169.67499 156.542159 
L 196.119834 156.542159 
Q 196.899834 156.542159 196.899834 155.762159 
L 196.899834 149.471378 
Q 196.899834 148.691378 196.119834 148.691378 
L 169.67499 148.691378 
Q 168.89499 148.691378 168.89499 149.471378 
L 168.89499 155.762159 
Q 168.89499 156.542159 169.67499 156.542159 
z
" style="fill: #ffffff; opacity: 0.9"/>
    </g>
    <!-- extracts -->
    <g style="fill: #475569" transform="translate(169.67499 154.410363) scale(0.065 -0.065)">
     <defs>
      <path id="DejaVuSans-78" d="M 3513 3500 
L 2247 1797 
L 3578 0 
L 2900 0 
L 1881 1375 
L 863 0 
L 184 0 
L 1544 1831 
L 300 3500 
L 978 3500 
L 1906 2253 
L 2834 3500 
L 3513 3500 
z
" transform="scale(0.015625)"/>
      <path id="DejaVuSans-74" d="M 1172 4494 
L 1172 3500 
L 2356 3500 
L 2356 3053 
L 1172 3053 
L 1172 1153 
Q 1172 725 1289 603 
Q 1406 481 1766 481 
L 2356 481 
L 2356 0 
L 1766 0 
Q 1100 0 847 248 
Q 594 497 594 1153 
L 594 3053 
L 172 3053 
L 172 3500 
L 594 3500 
L 594 4494 
L 1172 4494 
z
" transform="scale(0.015625)"/>
      <path id="DejaVuSans-72" d="M 2631 2963 
Q 2534 3019 2420 3045 
Q 2306 3072 2169 3072 
Q 1681 3072 1420 2755 
Q 1159 2438 1159 1844 
L 1159 0 
L 581 0 
L 581 3500 
L 1159 3500 
L 1159 2956 
Q 1341 3275 1631 3429 
Q 1922 3584 2338 3584 
Q 2397 3584 2469 3576 
Q 2541 3569 2628 3553 
L 2631 2963 
z
" transform="scale(0.015625)"/>
      <path id="DejaVuSans-61" d="M 2194 1759 
Q 1497 1759 1228 1600 
Q 959 1441 959 1056 
Q 959 750 1161 570 
Q 1363 391 1709 391 
Q 2188 391 2477 730 
Q 2766 1069 2766 1631 
L 2766 1759 
L 2194 1759 
z
M 3341 1997 
L 3341 0 
L 2766 0 
L 2766 531 
Q 2569 213 2275 61 
Q 1981 -91 1556 -91 
Q 1019 -91 701 211 
Q 384 513 384 1019 
Q 384 1609 779 1909 
Q 1175 2209 1959 2209 
L 2766 2209 
L 2766 2266 
Q 2766 2663 2505 2880 
Q 2244 3097 1772 3097 
Q 1472 3097 1187 3025 
Q 903 2953 641 2809 
L 641 3341 
Q 956 3463 1253 3523 
Q 1550 3584 1831 3584 
Q 2591 3584 2966 3190 
Q 3341 2797 3341 1997 
z
" transform="scale(0.015625)"/>
     </defs>
     <use xlink:href="#DejaVuSans-65"/>
     <use xlink:href="#DejaVuSans-78" transform="translate(59.773438 0)"/>
     <use xlink:href="#DejaVuSans-74" transform="translate(118.953125 0)"/>
     <use xlink:href="#DejaVuSans-72" transform="translate(158.162109 0)"/>
     <use xlink:href="#DejaVuSans-61" transform="translate(199.275391 0)"/>
     <use xlink:href="#DejaVuSans-63" transform="translate(260.554688 0)"/>
     <use xlink:href="#DejaVuSans-74" transform="translate(315.535156 0)"/>
     <use xlink:href="#DejaVuSans-73" transform="translate(354.744141 0)"/>
    </g>
   </g>
   <g id="text_3">
    <g id="patch_13">
     <path d="M 270.468975 204.248639 
L 296.913819 204.248639 
Q 297.693819 204.248639 297.693819 203.468639 
L 297.693819 197.177857 
Q 297.693819 196.397857 296.913819 196.397857 
L 270.468975 196.397857 
Q 269.688975 196.397857 269.688975 197.177857 
L 269.688975 203.468639 
Q 269.688975 204.248639 270.468975 204.248639 
z
" style="fill: #ffffff; opacity: 0.9"/>
    </g>
    <!-- extracts -->
    <g style="fill: #475569" transform="translate(270.468975 202.116842) scale(0.065 -0.065)">
     <use xlink:href="#DejaVuSans-65"/>
     <use xlink:href="#DejaVuSans-78" transform="translate(59.773438 0)"/>
     <use xlink:href="#DejaVuSans-74" transform="translate(118.953125 0)"/>
     <use xlink:href="#DejaVuSans-72" transform="translate(158.162109 0)"/>
     <use xlink:href="#DejaVuSans-61" transform="translate(199.275391 0)"/>
     <use xlink:href="#DejaVuSans-63" transform="translate(260.554688 0)"/>
     <use xlink:href="#DejaVuSans-74" transform="translate(315.535156 0)"/>
     <use xlink:href="#DejaVuSans-73" transform="translate(354.744141 0)"/>
    </g>
   </g>
   <g id="text_4">
    <g id="patch_14">
     <path d="M 158.802662 196.568046 
L 185.247506 196.568046 
Q 186.027506 196.568046 186.027506 195.788046 
L 186.027506 189.497264 
Q 186.027506 188.717264 185.247506 188.717264 
L 158.802662 188.717264 
Q 158.022662 188.717264 158.022662 189.497264 
L 158.022662 195.788046 
Q 158.022662 196.568046 158.802662 196.568046 
z
" style="fill: #ffffff; opacity: 0.9"/>
    </g>
    <!-- extracts -->
    <g style="fill: #475569" transform="translate(158.802662 194.436249) scale(0.065 -0.065)">
     <use xlink:href="#DejaVuSans-65"/>
     <use xlink:href="#DejaVuSans-78" transform="translate(59.773438 0)"/>
     <use xlink:href="#DejaVuSans-74" transform="translate(118.953125 0)"/>
     <use xlink:href="#DejaVuSans-72" transform="translate(158.162109 0)"/>
     <use xlink:href="#DejaVuSans-61" transform="translate(199.275391 0)"/>
     <use xlink:href="#DejaVuSans-63" transform="translate(260.554688 0)"/>
     <use xlink:href="#DejaVuSans-74" transform="translate(315.535156 0)"/>
     <use xlink:href="#DejaVuSans-73" transform="translate(354.744141 0)"/>
    </g>
   </g>
   <g id="text_5">
    <g id="patch_15">
     <path d="M 146.924473 321.419931 
L 176.39588 321.419931 
Q 177.17588 321.419931 177.17588 320.639931 
L 177.17588 314.349149 
Q 177.17588 313.569149 176.39588 313.569149 
L 146.924473 313.569149 
Q 146.144473 313.569149 146.144473 314.349149 
L 146.144473 320.639931 
Q 146.144473 321.419931 146.924473 321.419931 
z
" style="fill: #ffffff; opacity: 0.9"/>
    </g>
    <!-- evidence -->
    <g style="fill: #475569" transform="translate(146.924473 319.288134) scale(0.065 -0.065)">
     <defs>
      <path id="DejaVuSans-76" d="M 191 3500 
L 800 3500 
L 1894 563 
L 2988 3500 
L 3597 3500 
L 2284 0 
L 1503 0 
L 191 3500 
z
" transform="scale(0.015625)"/>
      <path id="DejaVuSans-69" d="M 603 3500 
L 1178 3500 
L 1178 0 
L 603 0 
L 603 3500 
z
M 603 4863 
L 1178 4863 
L 1178 4134 
L 603 4134 
L 603 4863 
z
" transform="scale(0.015625)"/>
      <path id="DejaVuSans-6e" d="M 3513 2113 
L 3513 0 
L 2938 0 
L 2938 2094 
Q 2938 2591 2744 2837 
Q 2550 3084 2163 3084 
Q 1697 3084 1428 2787 
Q 1159 2491 1159 1978 
L 1159 0 
L 581 0 
L 581 3500 
L 1159 3500 
L 1159 2956 
Q 1366 3272 1645 3428 
Q 1925 3584 2291 3584 
Q 2894 3584 3203 3211 
Q 3513 2838 3513 2113 
z
" transform="scale(0.015625)"/>
     </defs>
     <use xlink:href="#DejaVuSans-65"/>
     <use xlink:href="#DejaVuSans-76" transform="translate(61.523438 0)"/>
     <use xlink:href="#DejaVuSans-69" transform="translate(120.703125 0)"/>
     <use xlink:href="#DejaVuSans-64" transform="translate(148.486328 0)"/>
     <use xlink:href="#DejaVuSans-65" transform="translate(211.962891 0)"/>
     <use xlink:href="#DejaVuSans-6e" transform="translate(273.486328 0)"/>
     <use xlink:href="#DejaVuSans-63" transform="translate(336.865234 0)"/>
     <use xlink:href="#DejaVuSans-65" transform="translate(391.845703 0)"/>
    </g>
   </g>
   <g id="text_6">
    <g id="patch_16">
     <path d="M 173.312628 235.035651 
L 192.343409 235.035651 
Q 193.123409 235.035651 193.123409 234.255651 
L 193.123409 227.964869 
Q 193.123409 227.184869 192.343409 227.184869 
L 173.312628 227.184869 
Q 172.532628 227.184869 172.532628 227.964869 
L 172.532628 234.255651 
Q 172.532628 235.035651 173.312628 235.035651 
z
" style="fill: #ffffff; opacity: 0.9"/>
    </g>
    <!-- check -->
    <g style="fill: #475569" transform="translate(173.312628 232.903854) scale(0.065 -0.065)">
     <defs>
      <path id="DejaVuSans-68" d="M 3513 2113 
L 3513 0 
L 2938 0 
L 2938 2094 
Q 2938 2591 2744 2837 
Q 2550 3084 2163 3084 
Q 1697 3084 1428 2787 
Q 1159 2491 1159 1978 
L 1159 0 
L 581 0 
L 581 4863 
L 1159 4863 
L 1159 2956 
Q 1366 3272 1645 3428 
Q 1925 3584 2291 3584 
Q 2894 3584 3203 3211 
Q 3513 2838 3513 2113 
z
" transform="scale(0.015625)"/>
      <path id="DejaVuSans-6b" d="M 581 4863 
L 1159 4863 
L 1159 1991 
L 2875 3500 
L 3609 3500 
L 1753 1863 
L 3688 0 
L 2938 0 
L 1159 1709 
L 1159 0 
L 581 0 
L 581 4863 
z
" transform="scale(0.015625)"/>
     </defs>
     <use xlink:href="#DejaVuSans-63"/>
     <use xlink:href="#DejaVuSans-68" transform="translate(54.980469 0)"/>
     <use xlink:href="#DejaVuSans-65" transform="translate(118.359375 0)"/>
     <use xlink:href="#DejaVuSans-63" transform="translate(179.882812 0)"/>
     <use xlink:href="#DejaVuSans-6b" transform="translate(234.863281 0)"/>
    </g>
   </g>
   <g id="text_7">
    <g id="patch_17">
     <path d="M 227.530993 279.653193 
L 246.561774 279.653193 
Q 247.341774 279.653193 247.341774 278.873193 
L 247.341774 272.582412 
Q 247.341774 271.802412 246.561774 271.802412 
L 227.530993 271.802412 
Q 226.750993 271.802412 226.750993 272.582412 
L 226.750993 278.873193 
Q 226.750993 279.653193 227.530993 279.653193 
z
" style="fill: #ffffff; opacity: 0.9"/>
    </g>
    <!-- check -->
    <g style="fill: #475569" transform="translate(227.530993 277.521396) scale(0.065 -0.065)">
     <use xlink:href="#DejaVuSans-63"/>
     <use xlink:href="#DejaVuSans-68" transform="translate(54.980469 0)"/>
     <use xlink:href="#DejaVuSans-65" transform="translate(118.359375 0)"/>
     <use xlink:href="#DejaVuSans-63" transform="translate(179.882812 0)"/>
     <use xlink:href="#DejaVuSans-6b" transform="translate(234.863281 0)"/>
    </g>
   </g>
   <g id="text_8">
    <g id="patch_18">
     <path d="M 162.983407 257.526988 
L 182.014188 257.526988 
Q 182.794188 257.526988 182.794188 256.746988 
L 182.794188 250.456207 
Q 182.794188 249.676207 182.014188 249.676207 
L 162.983407 249.676207 
Q 162.203407 249.676207 162.203407 250.456207 
L 162.203407 256.746988 
Q 162.203407 257.526988 162.983407 257.526988 
z
" style="fill: #ffffff; opacity: 0.9"/>
    </g>
    <!-- check -->
    <g style="fill: #475569" transform="translate(162.983407 255.395191) scale(0.065 -0.065)">
     <use xlink:href="#DejaVuSans-63"/>
     <use xlink:href="#DejaVuSans-68" transform="translate(54.980469 0)"/>
     <use xlink:href="#DejaVuSans-65" transform="translate(118.359375 0)"/>
     <use xlink:href="#DejaVuSans-63" transform="translate(179.882812 0)"/>
     <use xlink:href="#DejaVuSans-6b" transform="translate(234.863281 0)"/>
    </g>
   </g>
   <g id="text_9">
    <g id="patch_19">
     <path d="M 257.888781 342.394154 
L 263.335577 342.394154 
Q 264.115577 342.394154 264.115577 341.614154 
L 264.115577 335.323373 
Q 264.115577 334.543373 263.335577 334.543373 
L 257.888781 334.543373 
Q 257.108781 334.543373 257.108781 335.323373 
L 257.108781 341.614154 
Q 257.108781 342.394154 257.888781 342.394154 
z
" style="fill: #ffffff; opacity: 0.9"/>
    </g>
    <!-- → -->
    <g style="fill: #475569" transform="translate(257.888781 340.262357) scale(0.065 -0.065)">
     <defs>
      <path id="DejaVuSans-2192" d="M 5050 2147 
L 5050 1866 
L 3822 638 
L 3447 1013 
L 4175 1741 
L 366 1741 
L 366 2272 
L 4175 2272 
L 3447 3000 
L 3822 3375 
L 5050 2147 
z
" transform="scale(0.015625)"/>
     </defs>
     <use xlink:href="#DejaVuSans-2192"/>
    </g>
   </g>
   <g id="text_10">
    <!-- Contextual Recall — How DeepEval Scores It -->
    <g transform="translate(77.863859 17.077969) scale(0.13 -0.13)">
     <defs>
      <path id="DejaVuSans-Bold-43" d="M 4288 256 
Q 3956 84 3597 -3 
Q 3238 -91 2847 -91 
Q 1681 -91 1000 561 
Q 319 1213 319 2328 
Q 319 3447 1000 4098 
Q 1681 4750 2847 4750 
Q 3238 4750 3597 4662 
Q 3956 4575 4288 4403 
L 4288 3438 
Q 3953 3666 3628 3772 
Q 3303 3878 2944 3878 
Q 2300 3878 1931 3465 
Q 1563 3053 1563 2328 
Q 1563 1606 1931 1193 
Q 2300 781 2944 781 
Q 3303 781 3628 887 
Q 3953 994 4288 1222 
L 4288 256 
z
" transform="scale(0.015625)"/>
      <path id="DejaVuSans-Bold-6f" d="M 2203 2784 
Q 1831 2784 1636 2517 
Q 1441 2250 1441 1747 
Q 1441 1244 1636 976 
Q 1831 709 2203 709 
Q 2569 709 2762 976 
Q 2956 1244 2956 1747 
Q 2956 2250 2762 2517 
Q 2569 2784 2203 2784 
z
M 2203 3584 
Q 3106 3584 3614 3096 
Q 4122 2609 4122 1747 
Q 4122 884 3614 396 
Q 3106 -91 2203 -91 
Q 1297 -91 786 396 
Q 275 884 275 1747 
Q 275 2609 786 3096 
Q 1297 3584 2203 3584 
z
" transform="scale(0.015625)"/>
      <path id="DejaVuSans-Bold-6e" d="M 4056 2131 
L 4056 0 
L 2931 0 
L 2931 347 
L 2931 1631 
Q 2931 2084 2911 2256 
Q 2891 2428 2841 2509 
Q 2775 2619 2662 2680 
Q 2550 2741 2406 2741 
Q 2056 2741 1856 2470 
Q 1656 2200 1656 1722 
L 1656 0 
L 538 0 
L 538 3500 
L 1656 3500 
L 1656 2988 
Q 1909 3294 2193 3439 
Q 2478 3584 2822 3584 
Q 3428 3584 3742 3212 
Q 4056 2841 4056 2131 
z
" transform="scale(0.015625)"/>
      <path id="DejaVuSans-Bold-74" d="M 1759 4494 
L 1759 3500 
L 2913 3500 
L 2913 2700 
L 1759 2700 
L 1759 1216 
Q 1759 972 1856 886 
Q 1953 800 2241 800 
L 2816 800 
L 2816 0 
L 1856 0 
Q 1194 0 917 276 
Q 641 553 641 1216 
L 641 2700 
L 84 2700 
L 84 3500 
L 641 3500 
L 641 4494 
L 1759 4494 
z
" transform="scale(0.015625)"/>
      <path id="DejaVuSans-Bold-65" d="M 4031 1759 
L 4031 1441 
L 1416 1441 
Q 1456 1047 1700 850 
Q 1944 653 2381 653 
Q 2734 653 3104 758 
Q 3475 863 3866 1075 
L 3866 213 
Q 3469 63 3072 -14 
Q 2675 -91 2278 -91 
Q 1328 -91 801 392 
Q 275 875 275 1747 
Q 275 2603 792 3093 
Q 1309 3584 2216 3584 
Q 3041 3584 3536 3087 
Q 4031 2591 4031 1759 
z
M 2881 2131 
Q 2881 2450 2695 2645 
Q 2509 2841 2209 2841 
Q 1884 2841 1681 2658 
Q 1478 2475 1428 2131 
L 2881 2131 
z
" transform="scale(0.015625)"/>
      <path id="DejaVuSans-Bold-78" d="M 1422 1791 
L 159 3500 
L 1344 3500 
L 2059 2463 
L 2784 3500 
L 3969 3500 
L 2706 1797 
L 4031 0 
L 2847 0 
L 2059 1106 
L 1281 0 
L 97 0 
L 1422 1791 
z
" transform="scale(0.015625)"/>
      <path id="DejaVuSans-Bold-75" d="M 500 1363 
L 500 3500 
L 1625 3500 
L 1625 3150 
Q 1625 2866 1622 2436 
Q 1619 2006 1619 1863 
Q 1619 1441 1641 1255 
Q 1663 1069 1716 984 
Q 1784 875 1895 815 
Q 2006 756 2150 756 
Q 2500 756 2700 1025 
Q 2900 1294 2900 1772 
L 2900 3500 
L 4019 3500 
L 4019 0 
L 2900 0 
L 2900 506 
Q 2647 200 2364 54 
Q 2081 -91 1741 -91 
Q 1134 -91 817 281 
Q 500 653 500 1363 
z
" transform="scale(0.015625)"/>
      <path id="DejaVuSans-Bold-61" d="M 2106 1575 
Q 1756 1575 1579 1456 
Q 1403 1338 1403 1106 
Q 1403 894 1545 773 
Q 1688 653 1941 653 
Q 2256 653 2472 879 
Q 2688 1106 2688 1447 
L 2688 1575 
L 2106 1575 
z
M 3816 1997 
L 3816 0 
L 2688 0 
L 2688 519 
Q 2463 200 2181 54 
Q 1900 -91 1497 -91 
Q 953 -91 614 226 
Q 275 544 275 1050 
Q 275 1666 698 1953 
Q 1122 2241 2028 2241 
L 2688 2241 
L 2688 2328 
Q 2688 2594 2478 2717 
Q 2269 2841 1825 2841 
Q 1466 2841 1156 2769 
Q 847 2697 581 2553 
L 581 3406 
Q 941 3494 1303 3539 
Q 1666 3584 2028 3584 
Q 2975 3584 3395 3211 
Q 3816 2838 3816 1997 
z
" transform="scale(0.015625)"/>
      <path id="DejaVuSans-Bold-6c" d="M 538 4863 
L 1656 4863 
L 1656 0 
L 538 0 
L 538 4863 
z
" transform="scale(0.015625)"/>
      <path id="DejaVuSans-Bold-20" transform="scale(0.015625)"/>
      <path id="DejaVuSans-Bold-52" d="M 2297 2597 
Q 2675 2597 2839 2737 
Q 3003 2878 3003 3200 
Q 3003 3519 2839 3656 
Q 2675 3794 2297 3794 
L 1791 3794 
L 1791 2597 
L 2297 2597 
z
M 1791 1766 
L 1791 0 
L 588 0 
L 588 4666 
L 2425 4666 
Q 3347 4666 3776 4356 
Q 4206 4047 4206 3378 
Q 4206 2916 3982 2619 
Q 3759 2322 3309 2181 
Q 3556 2125 3751 1926 
Q 3947 1728 4147 1325 
L 4800 0 
L 3519 0 
L 2950 1159 
Q 2778 1509 2601 1637 
Q 2425 1766 2131 1766 
L 1791 1766 
z
" transform="scale(0.015625)"/>
      <path id="DejaVuSans-Bold-63" d="M 3366 3391 
L 3366 2478 
Q 3138 2634 2908 2709 
Q 2678 2784 2431 2784 
Q 1963 2784 1702 2511 
Q 1441 2238 1441 1747 
Q 1441 1256 1702 982 
Q 1963 709 2431 709 
Q 2694 709 2930 787 
Q 3166 866 3366 1019 
L 3366 103 
Q 3103 6 2833 -42 
Q 2563 -91 2291 -91 
Q 1344 -91 809 395 
Q 275 881 275 1747 
Q 275 2613 809 3098 
Q 1344 3584 2291 3584 
Q 2566 3584 2833 3536 
Q 3100 3488 3366 3391 
z
" transform="scale(0.015625)"/>
      <path id="DejaVuSans-Bold-2014" d="M 344 2156 
L 6056 2156 
L 6056 1350 
L 344 1350 
L 344 2156 
z
" transform="scale(0.015625)"/>
      <path id="DejaVuSans-Bold-48" d="M 588 4666 
L 1791 4666 
L 1791 2888 
L 3566 2888 
L 3566 4666 
L 4769 4666 
L 4769 0 
L 3566 0 
L 3566 1978 
L 1791 1978 
L 1791 0 
L 588 0 
L 588 4666 
z
" transform="scale(0.015625)"/>
      <path id="DejaVuSans-Bold-77" d="M 225 3500 
L 1313 3500 
L 1900 1088 
L 2491 3500 
L 3425 3500 
L 4013 1113 
L 4603 3500 
L 5691 3500 
L 4769 0 
L 3547 0 
L 2956 2406 
L 2369 0 
L 1147 0 
L 225 3500 
z
" transform="scale(0.015625)"/>
      <path id="DejaVuSans-Bold-44" d="M 1791 3756 
L 1791 909 
L 2222 909 
Q 2959 909 3348 1275 
Q 3738 1641 3738 2338 
Q 3738 3031 3350 3393 
Q 2963 3756 2222 3756 
L 1791 3756 
z
M 588 4666 
L 1856 4666 
Q 2919 4666 3439 4514 
Q 3959 4363 4331 4000 
Q 4659 3684 4818 3271 
Q 4978 2859 4978 2338 
Q 4978 1809 4818 1395 
Q 4659 981 4331 666 
Q 3956 303 3431 151 
Q 2906 0 1856 0 
L 588 0 
L 588 4666 
z
" transform="scale(0.015625)"/>
      <path id="DejaVuSans-Bold-70" d="M 1656 506 
L 1656 -1331 
L 538 -1331 
L 538 3500 
L 1656 3500 
L 1656 2988 
Q 1888 3294 2169 3439 
Q 2450 3584 2816 3584 
Q 3463 3584 3878 3070 
Q 4294 2556 4294 1747 
Q 4294 938 3878 423 
Q 3463 -91 2816 -91 
Q 2450 -91 2169 54 
Q 1888 200 1656 506 
z
M 2400 2772 
Q 2041 2772 1848 2508 
Q 1656 2244 1656 1747 
Q 1656 1250 1848 986 
Q 2041 722 2400 722 
Q 2759 722 2948 984 
Q 3138 1247 3138 1747 
Q 3138 2247 2948 2509 
Q 2759 2772 2400 2772 
z
" transform="scale(0.015625)"/>
      <path id="DejaVuSans-Bold-45" d="M 588 4666 
L 3834 4666 
L 3834 3756 
L 1791 3756 
L 1791 2888 
L 3713 2888 
L 3713 1978 
L 1791 1978 
L 1791 909 
L 3903 909 
L 3903 0 
L 588 0 
L 588 4666 
z
" transform="scale(0.015625)"/>
      <path id="DejaVuSans-Bold-76" d="M 97 3500 
L 1216 3500 
L 2088 1081 
L 2956 3500 
L 4078 3500 
L 2700 0 
L 1472 0 
L 97 3500 
z
" transform="scale(0.015625)"/>
      <path id="DejaVuSans-Bold-53" d="M 3834 4519 
L 3834 3531 
Q 3450 3703 3084 3790 
Q 2719 3878 2394 3878 
Q 1963 3878 1756 3759 
Q 1550 3641 1550 3391 
Q 1550 3203 1689 3098 
Q 1828 2994 2194 2919 
L 2706 2816 
Q 3484 2659 3812 2340 
Q 4141 2022 4141 1434 
Q 4141 663 3683 286 
Q 3225 -91 2284 -91 
Q 1841 -91 1394 -6 
Q 947 78 500 244 
L 500 1259 
Q 947 1022 1364 901 
Q 1781 781 2169 781 
Q 2563 781 2772 912 
Q 2981 1044 2981 1288 
Q 2981 1506 2839 1625 
Q 2697 1744 2272 1838 
L 1806 1941 
Q 1106 2091 782 2419 
Q 459 2747 459 3303 
Q 459 4000 909 4375 
Q 1359 4750 2203 4750 
Q 2588 4750 2994 4692 
Q 3400 4634 3834 4519 
z
" transform="scale(0.015625)"/>
      <path id="DejaVuSans-Bold-72" d="M 3138 2547 
Q 2991 2616 2845 2648 
Q 2700 2681 2553 2681 
Q 2122 2681 1889 2404 
Q 1656 2128 1656 1613 
L 1656 0 
L 538 0 
L 538 3500 
L 1656 3500 
L 1656 2925 
Q 1872 3269 2151 3426 
Q 2431 3584 2822 3584 
Q 2878 3584 2943 3579 
Q 3009 3575 3134 3559 
L 3138 2547 
z
" transform="scale(0.015625)"/>
      <path id="DejaVuSans-Bold-73" d="M 3272 3391 
L 3272 2541 
Q 2913 2691 2578 2766 
Q 2244 2841 1947 2841 
Q 1628 2841 1473 2761 
Q 1319 2681 1319 2516 
Q 1319 2381 1436 2309 
Q 1553 2238 1856 2203 
L 2053 2175 
Q 2913 2066 3209 1816 
Q 3506 1566 3506 1031 
Q 3506 472 3093 190 
Q 2681 -91 1863 -91 
Q 1516 -91 1145 -36 
Q 775 19 384 128 
L 384 978 
Q 719 816 1070 734 
Q 1422 653 1784 653 
Q 2113 653 2278 743 
Q 2444 834 2444 1013 
Q 2444 1163 2330 1236 
Q 2216 1309 1875 1350 
L 1678 1375 
Q 931 1469 631 1722 
Q 331 1975 331 2491 
Q 331 3047 712 3315 
Q 1094 3584 1881 3584 
Q 2191 3584 2531 3537 
Q 2872 3491 3272 3391 
z
" transform="scale(0.015625)"/>
      <path id="DejaVuSans-Bold-49" d="M 588 4666 
L 1791 4666 
L 1791 0 
L 588 0 
L 588 4666 
z
" transform="scale(0.015625)"/>
     </defs>
     <use xlink:href="#DejaVuSans-Bold-43"/>
     <use xlink:href="#DejaVuSans-Bold-6f" transform="translate(73.388672 0)"/>
     <use xlink:href="#DejaVuSans-Bold-6e" transform="translate(142.089844 0)"/>
     <use xlink:href="#DejaVuSans-Bold-74" transform="translate(213.28125 0)"/>
     <use xlink:href="#DejaVuSans-Bold-65" transform="translate(261.083984 0)"/>
     <use xlink:href="#DejaVuSans-Bold-78" transform="translate(328.90625 0)"/>
     <use xlink:href="#DejaVuSans-Bold-74" transform="translate(393.408203 0)"/>
     <use xlink:href="#DejaVuSans-Bold-75" transform="translate(441.210938 0)"/>
     <use xlink:href="#DejaVuSans-Bold-61" transform="translate(512.402344 0)"/>
     <use xlink:href="#DejaVuSans-Bold-6c" transform="translate(579.882812 0)"/>
     <use xlink:href="#DejaVuSans-Bold-20" transform="translate(614.160156 0)"/>
     <use xlink:href="#DejaVuSans-Bold-52" transform="translate(648.974609 0)"/>
     <use xlink:href="#DejaVuSans-Bold-65" transform="translate(725.976562 0)"/>
     <use xlink:href="#DejaVuSans-Bold-63" transform="translate(793.798828 0)"/>
     <use xlink:href="#DejaVuSans-Bold-61" transform="translate(853.076172 0)"/>
     <use xlink:href="#DejaVuSans-Bold-6c" transform="translate(920.556641 0)"/>
     <use xlink:href="#DejaVuSans-Bold-6c" transform="translate(954.833984 0)"/>
     <use xlink:href="#DejaVuSans-Bold-20" transform="translate(989.111328 0)"/>
     <use xlink:href="#DejaVuSans-Bold-2014" transform="translate(1023.925781 0)"/>
     <use xlink:href="#DejaVuSans-Bold-20" transform="translate(1123.925781 0)"/>
     <use xlink:href="#DejaVuSans-Bold-48" transform="translate(1158.740234 0)"/>
     <use xlink:href="#DejaVuSans-Bold-6f" transform="translate(1242.431641 0)"/>
     <use xlink:href="#DejaVuSans-Bold-77" transform="translate(1311.132812 0)"/>
     <use xlink:href="#DejaVuSans-Bold-20" transform="translate(1403.515625 0)"/>
     <use xlink:href="#DejaVuSans-Bold-44" transform="translate(1438.330078 0)"/>
     <use xlink:href="#DejaVuSans-Bold-65" transform="translate(1521.337891 0)"/>
     <use xlink:href="#DejaVuSans-Bold-65" transform="translate(1589.160156 0)"/>
     <use xlink:href="#DejaVuSans-Bold-70" transform="translate(1656.982422 0)"/>
     <use xlink:href="#DejaVuSans-Bold-45" transform="translate(1728.564453 0)"/>
     <use xlink:href="#DejaVuSans-Bold-76" transform="translate(1796.875 0)"/>
     <use xlink:href="#DejaVuSans-Bold-61" transform="translate(1862.060547 0)"/>
     <use xlink:href="#DejaVuSans-Bold-6c" transform="translate(1929.541016 0)"/>
     <use xlink:href="#DejaVuSans-Bold-20" transform="translate(1963.818359 0)"/>
     <use xlink:href="#DejaVuSans-Bold-53" transform="translate(1998.632812 0)"/>
     <use xlink:href="#DejaVuSans-Bold-63" transform="translate(2070.654297 0)"/>
     <use xlink:href="#DejaVuSans-Bold-6f" transform="translate(2129.931641 0)"/>
     <use xlink:href="#DejaVuSans-Bold-72" transform="translate(2198.632812 0)"/>
     <use xlink:href="#DejaVuSans-Bold-65" transform="translate(2247.949219 0)"/>
     <use xlink:href="#DejaVuSans-Bold-73" transform="translate(2315.771484 0)"/>
     <use xlink:href="#DejaVuSans-Bold-20" transform="translate(2375.292969 0)"/>
     <use xlink:href="#DejaVuSans-Bold-49" transform="translate(2410.107422 0)"/>
     <use xlink:href="#DejaVuSans-Bold-74" transform="translate(2447.314453 0)"/>
    </g>
   </g>
   <g id="patch_20">
    <path d="M 356.472 152.940169 
C 358.444634 152.940169 360.336739 152.156433 361.731602 150.76157 
C 363.126464 149.366708 363.9102 147.474602 363.9102 145.501969 
C 363.9102 143.529335 363.126464 141.63723 361.731602 140.242367 
C 360.336739 138.847504 358.444634 138.063769 356.472 138.063769 
C 354.499366 138.063769 352.607261 138.847504 351.212398 140.242367 
C 349.817536 141.63723 349.0338 143.529335 349.0338 145.501969 
C 349.0338 147.474602 349.817536 149.366708 351.212398 150.76157 
C 352.607261 152.156433 354.499366 152.940169 356.472 152.940169 
z
" clip-path="url(#p18682ea316)" style="fill: #2e4057; stroke: #ffffff; stroke-width: 1.2; stroke-linejoin: miter"/>
   </g>
   <g id="patch_21">
    <path d="M 123.624 385.788169 
C 125.596634 385.788169 127.488739 385.004433 128.883602 383.60957 
C 130.278464 382.214708 131.0622 380.322602 131.0622 378.349969 
C 131.0622 376.377335 130.278464 374.48523 128.883602 373.090367 
C 127.488739 371.695504 125.596634 370.911769 123.624 370.911769 
C 121.651366 370.911769 119.759261 371.695504 118.364398 373.090367 
C 116.969536 374.48523 116.1858 376.377335 116.1858 378.349969 
C 116.1858 380.322602 116.969536 382.214708 118.364398 383.60957 
C 119.759261 385.004433 121.651366 385.788169 123.624 385.788169 
z
" clip-path="url(#p18682ea316)" style="fill: #2e4057; stroke: #ffffff; stroke-width: 1.2; stroke-linejoin: miter"/>
   </g>
   <g id="patch_22">
    <path d="M 241.868481 155.527369 
C 244.527248 155.527369 247.077477 154.471029 248.957509 152.590997 
C 250.837541 150.710965 251.893881 148.160736 251.893881 145.501969 
C 251.893881 142.843202 250.837541 140.292973 248.957509 138.41294 
C 247.077477 136.532908 244.527248 135.476569 241.868481 135.476569 
C 239.209714 135.476569 236.659485 136.532908 234.779452 138.41294 
C 232.89942 140.292973 231.843081 142.843202 231.843081 145.501969 
C 231.843081 148.160736 232.89942 150.710965 234.779452 152.590997 
C 236.659485 154.471029 239.209714 155.527369 241.868481 155.527369 
z
" clip-path="url(#p18682ea316)" style="fill: #048a81; stroke: #ffffff; stroke-width: 1.2; stroke-linejoin: miter"/>
   </g>
   <g id="patch_23">
    <path d="M 146.753854 154.011822 
C 149.010694 154.011822 151.175403 153.11517 152.771229 151.519344 
C 154.367056 149.923517 155.263707 147.758808 155.263707 145.501969 
C 155.263707 143.245129 154.367056 141.08042 152.771229 139.484594 
C 151.175403 137.888767 149.010694 136.992115 146.753854 136.992115 
C 144.497015 136.992115 142.332306 137.888767 140.736479 139.484594 
C 139.140653 141.08042 138.244001 143.245129 138.244001 145.501969 
C 138.244001 147.758808 139.140653 149.923517 140.736479 151.519344 
C 142.332306 153.11517 144.497015 154.011822 146.753854 154.011822 
z
" clip-path="url(#p18682ea316)" style="fill: #54c6eb; stroke: #ffffff; stroke-width: 1.2; stroke-linejoin: miter"/>
   </g>
   <g id="patch_24">
    <path d="M 299.5317 248.415044 
C 301.788539 248.415044 303.953248 247.518392 305.549075 245.922565 
C 307.144901 244.326739 308.041553 242.16203 308.041553 239.90519 
C 308.041553 237.648351 307.144901 235.483642 305.549075 233.887815 
C 303.953248 232.291989 301.788539 231.395337 299.5317 231.395337 
C 297.27486 231.395337 295.110151 232.291989 293.514325 233.887815 
C 291.918498 235.483642 291.021846 237.648351 291.021846 239.90519 
C 291.021846 242.16203 291.918498 244.326739 293.514325 245.922565 
C 295.110151 247.518392 297.27486 248.415044 299.5317 248.415044 
z
" clip-path="url(#p18682ea316)" style="fill: #54c6eb; stroke: #ffffff; stroke-width: 1.2; stroke-linejoin: miter"/>
   </g>
   <g id="patch_25">
    <path d="M 123.624 220.025422 
C 125.880839 220.025422 128.045548 219.128771 129.641375 217.532944 
C 131.237201 215.937118 132.133853 213.772409 132.133853 211.515569 
C 132.133853 209.25873 131.237201 207.094021 129.641375 205.498194 
C 128.045548 203.902368 125.880839 203.005716 123.624 203.005716 
C 121.367161 203.005716 119.202452 203.902368 117.606625 205.498194 
C 116.010799 207.094021 115.114147 209.25873 115.114147 211.515569 
C 115.114147 213.772409 116.010799 215.937118 117.606625 217.532944 
C 119.202452 219.128771 121.367161 220.025422 123.624 220.025422 
z
" clip-path="url(#p18682ea316)" style="fill: #54c6eb; stroke: #ffffff; stroke-width: 1.2; stroke-linejoin: miter"/>
   </g>
   <g id="patch_26">
    <path d="M 194.052819 297.849162 
C 196.87356 297.849162 199.579151 296.72847 201.573716 294.733904 
C 203.568281 292.739339 204.688974 290.033748 204.688974 287.213007 
C 204.688974 284.392266 203.568281 281.686675 201.573716 279.692109 
C 199.579151 277.697544 196.87356 276.576852 194.052819 276.576852 
C 191.232077 276.576852 188.526486 277.697544 186.531921 279.692109 
C 184.537356 281.686675 183.416663 284.392266 183.416663 287.213007 
C 183.416663 290.033748 184.537356 292.739339 186.531921 294.733904 
C 188.526486 296.72847 191.232077 297.849162 194.052819 297.849162 
z
" clip-path="url(#p18682ea316)" style="fill: #048a81; stroke: #ffffff; stroke-width: 1.2; stroke-linejoin: miter"/>
   </g>
   <g id="patch_27">
    <path d="M 293.660205 385.788169 
C 295.632839 385.788169 297.524944 385.004433 298.919807 383.60957 
C 300.314669 382.214708 301.098405 380.322602 301.098405 378.349969 
C 301.098405 376.377335 300.314669 374.48523 298.919807 373.090367 
C 297.524944 371.695504 295.632839 370.911769 293.660205 370.911769 
C 291.687571 370.911769 289.795466 371.695504 288.400603 373.090367 
C 287.005741 374.48523 286.222005 376.377335 286.222005 378.349969 
C 286.222005 380.322602 287.005741 382.214708 288.400603 383.60957 
C 289.795466 385.004433 291.687571 385.788169 293.660205 385.788169 
z
" clip-path="url(#p18682ea316)" style="fill: #ef7b45; stroke: #ffffff; stroke-width: 1.2; stroke-linejoin: miter"/>
   </g>
   <g id="legend_1">
    <g id="patch_28">
     <path d="M 12.8 85.647969 
L 83.6975 85.647969 
Q 85.2975 85.647969 85.2975 84.047969 
L 85.2975 34.677969 
Q 85.2975 33.077969 83.6975 33.077969 
L 12.8 33.077969 
Q 11.2 33.077969 11.2 34.677969 
L 11.2 84.047969 
Q 11.2 85.647969 12.8 85.647969 
z
" style="fill: #ffffff; opacity: 0.9; stroke: #cccccc; stroke-linejoin: miter"/>
    </g>
    <g id="patch_29">
     <path d="M 16 43.956719 
L 32 43.956719 
L 32 38.356719 
L 16 38.356719 
z
" style="fill: #2e4057; stroke: #2e4057; stroke-linejoin: miter"/>
    </g>
    <g id="text_11">
     <!-- Input -->
     <g transform="translate(38.4 43.956719) scale(0.08 -0.08)">
      <defs>
       <path id="DejaVuSans-49" d="M 628 4666 
L 1259 4666 
L 1259 0 
L 628 0 
L 628 4666 
z
" transform="scale(0.015625)"/>
       <path id="DejaVuSans-75" d="M 544 1381 
L 544 3500 
L 1119 3500 
L 1119 1403 
Q 1119 906 1312 657 
Q 1506 409 1894 409 
Q 2359 409 2629 706 
Q 2900 1003 2900 1516 
L 2900 3500 
L 3475 3500 
L 3475 0 
L 2900 0 
L 2900 538 
Q 2691 219 2414 64 
Q 2138 -91 1772 -91 
Q 1169 -91 856 284 
Q 544 659 544 1381 
z
M 1991 3584 
L 1991 3584 
z
" transform="scale(0.015625)"/>
      </defs>
      <use xlink:href="#DejaVuSans-49"/>
      <use xlink:href="#DejaVuSans-6e" transform="translate(29.492188 0)"/>
      <use xlink:href="#DejaVuSans-70" transform="translate(92.871094 0)"/>
      <use xlink:href="#DejaVuSans-75" transform="translate(156.347656 0)"/>
      <use xlink:href="#DejaVuSans-74" transform="translate(219.726562 0)"/>
     </g>
    </g>
    <g id="patch_30">
     <path d="M 16 55.699219 
L 32 55.699219 
L 32 50.099219 
L 16 50.099219 
z
" style="fill: #048a81; stroke: #048a81; stroke-linejoin: miter"/>
    </g>
    <g id="text_12">
     <!-- Process -->
     <g transform="translate(38.4 55.699219) scale(0.08 -0.08)">
      <defs>
       <path id="DejaVuSans-50" d="M 1259 4147 
L 1259 2394 
L 2053 2394 
Q 2494 2394 2734 2622 
Q 2975 2850 2975 3272 
Q 2975 3691 2734 3919 
Q 2494 4147 2053 4147 
L 1259 4147 
z
M 628 4666 
L 2053 4666 
Q 2838 4666 3239 4311 
Q 3641 3956 3641 3272 
Q 3641 2581 3239 2228 
Q 2838 1875 2053 1875 
L 1259 1875 
L 1259 0 
L 628 0 
L 628 4666 
z
" transform="scale(0.015625)"/>
      </defs>
      <use xlink:href="#DejaVuSans-50"/>
      <use xlink:href="#DejaVuSans-72" transform="translate(58.552734 0)"/>
      <use xlink:href="#DejaVuSans-6f" transform="translate(97.416016 0)"/>
      <use xlink:href="#DejaVuSans-63" transform="translate(158.597656 0)"/>
      <use xlink:href="#DejaVuSans-65" transform="translate(213.578125 0)"/>
      <use xlink:href="#DejaVuSans-73" transform="translate(275.101562 0)"/>
      <use xlink:href="#DejaVuSans-73" transform="translate(327.201172 0)"/>
     </g>
    </g>
    <g id="patch_31">
     <path d="M 16 67.441719 
L 32 67.441719 
L 32 61.841719 
L 16 61.841719 
z
" style="fill: #54c6eb; stroke: #54c6eb; stroke-linejoin: miter"/>
    </g>
    <g id="text_13">
     <!-- Statement -->
     <g transform="translate(38.4 67.441719) scale(0.08 -0.08)">
      <defs>
       <path id="DejaVuSans-53" d="M 3425 4513 
L 3425 3897 
Q 3066 4069 2747 4153 
Q 2428 4238 2131 4238 
Q 1616 4238 1336 4038 
Q 1056 3838 1056 3469 
Q 1056 3159 1242 3001 
Q 1428 2844 1947 2747 
L 2328 2669 
Q 3034 2534 3370 2195 
Q 3706 1856 3706 1288 
Q 3706 609 3251 259 
Q 2797 -91 1919 -91 
Q 1588 -91 1214 -16 
Q 841 59 441 206 
L 441 856 
Q 825 641 1194 531 
Q 1563 422 1919 422 
Q 2459 422 2753 634 
Q 3047 847 3047 1241 
Q 3047 1584 2836 1778 
Q 2625 1972 2144 2069 
L 1759 2144 
Q 1053 2284 737 2584 
Q 422 2884 422 3419 
Q 422 4038 858 4394 
Q 1294 4750 2059 4750 
Q 2388 4750 2728 4690 
Q 3069 4631 3425 4513 
z
" transform="scale(0.015625)"/>
      </defs>
      <use xlink:href="#DejaVuSans-53"/>
      <use xlink:href="#DejaVuSans-74" transform="translate(63.476562 0)"/>
      <use xlink:href="#DejaVuSans-61" transform="translate(102.685547 0)"/>
      <use xlink:href="#DejaVuSans-74" transform="translate(163.964844 0)"/>
      <use xlink:href="#DejaVuSans-65" transform="translate(203.173828 0)"/>
      <use xlink:href="#DejaVuSans-6d" transform="translate(264.697266 0)"/>
      <use xlink:href="#DejaVuSans-65" transform="translate(362.109375 0)"/>
      <use xlink:href="#DejaVuSans-6e" transform="translate(423.632812 0)"/>
      <use xlink:href="#DejaVuSans-74" transform="translate(487.011719 0)"/>
     </g>
    </g>
    <g id="patch_32">
     <path d="M 16 79.184219 
L 32 79.184219 
L 32 73.584219 
L 16 73.584219 
z
" style="fill: #ef7b45; stroke: #ef7b45; stroke-linejoin: miter"/>
    </g>
    <g id="text_14">
     <!-- Score -->
     <g transform="translate(38.4 79.184219) scale(0.08 -0.08)">
      <use xlink:href="#DejaVuSans-53"/>
      <use xlink:href="#DejaVuSans-63" transform="translate(63.476562 0)"/>
      <use xlink:href="#DejaVuSans-6f" transform="translate(118.457031 0)"/>
      <use xlink:href="#DejaVuSans-72" transform="translate(179.638672 0)"/>
      <use xlink:href="#DejaVuSans-65" transform="translate(218.501953 0)"/>
     </g>
    </g>
   </g>
   <g id="text_15">
    <g id="patch_33">
     <path d="M 368.303948 138.078787 
L 433.304339 138.078787 
Q 434.354339 138.078787 434.354339 137.028787 
L 434.354339 129.770193 
Q 434.354339 128.720193 433.304339 128.720193 
L 368.303948 128.720193 
Q 367.253948 128.720193 367.253948 129.770193 
L 367.253948 137.028787 
Q 367.253948 138.078787 368.303948 138.078787 
z
" style="fill: #ffffff; opacity: 0.88"/>
    </g>
    <!-- Expected Answer -->
    <g style="fill: #212529" transform="translate(368.303948 135.469021) scale(0.075 -0.075)">
     <defs>
      <path id="DejaVuSans-45" d="M 628 4666 
L 3578 4666 
L 3578 4134 
L 1259 4134 
L 1259 2753 
L 3481 2753 
L 3481 2222 
L 1259 2222 
L 1259 531 
L 3634 531 
L 3634 0 
L 628 0 
L 628 4666 
z
" transform="scale(0.015625)"/>
      <path id="DejaVuSans-20" transform="scale(0.015625)"/>
      <path id="DejaVuSans-41" d="M 2188 4044 
L 1331 1722 
L 3047 1722 
L 2188 4044 
z
M 1831 4666 
L 2547 4666 
L 4325 0 
L 3669 0 
L 3244 1197 
L 1141 1197 
L 716 0 
L 50 0 
L 1831 4666 
z
" transform="scale(0.015625)"/>
      <path id="DejaVuSans-77" d="M 269 3500 
L 844 3500 
L 1563 769 
L 2278 3500 
L 2956 3500 
L 3675 769 
L 4391 3500 
L 4966 3500 
L 4050 0 
L 3372 0 
L 2619 2869 
L 1863 0 
L 1184 0 
L 269 3500 
z
" transform="scale(0.015625)"/>
     </defs>
     <use xlink:href="#DejaVuSans-45"/>
     <use xlink:href="#DejaVuSans-78" transform="translate(63.183594 0)"/>
     <use xlink:href="#DejaVuSans-70" transform="translate(122.363281 0)"/>
     <use xlink:href="#DejaVuSans-65" transform="translate(185.839844 0)"/>
     <use xlink:href="#DejaVuSans-63" transform="translate(247.363281 0)"/>
     <use xlink:href="#DejaVuSans-74" transform="translate(302.34375 0)"/>
     <use xlink:href="#DejaVuSans-65" transform="translate(341.552734 0)"/>
     <use xlink:href="#DejaVuSans-64" transform="translate(403.076172 0)"/>
     <use xlink:href="#DejaVuSans-20" transform="translate(466.552734 0)"/>
     <use xlink:href="#DejaVuSans-41" transform="translate(498.339844 0)"/>
     <use xlink:href="#DejaVuSans-6e" transform="translate(566.748047 0)"/>
     <use xlink:href="#DejaVuSans-73" transform="translate(630.126953 0)"/>
     <use xlink:href="#DejaVuSans-77" transform="translate(682.226562 0)"/>
     <use xlink:href="#DejaVuSans-65" transform="translate(764.013672 0)"/>
     <use xlink:href="#DejaVuSans-72" transform="translate(825.537109 0)"/>
    </g>
   </g>
   <g id="text_16">
    <g id="patch_34">
     <path d="M 47.313043 398.457449 
L 115.10484 398.457449 
Q 116.15484 398.457449 116.15484 397.407449 
L 116.15484 390.148855 
Q 116.15484 389.098855 115.10484 389.098855 
L 47.313043 389.098855 
Q 46.263043 389.098855 46.263043 390.148855 
L 46.263043 397.407449 
Q 46.263043 398.457449 47.313043 398.457449 
z
" style="fill: #ffffff; opacity: 0.88"/>
    </g>
    <!-- Retrieved Context -->
    <g style="fill: #212529" transform="translate(47.313043 395.847683) scale(0.075 -0.075)">
     <defs>
      <path id="DejaVuSans-52" d="M 2841 2188 
Q 3044 2119 3236 1894 
Q 3428 1669 3622 1275 
L 4263 0 
L 3584 0 
L 2988 1197 
Q 2756 1666 2539 1819 
Q 2322 1972 1947 1972 
L 1259 1972 
L 1259 0 
L 628 0 
L 628 4666 
L 2053 4666 
Q 2853 4666 3247 4331 
Q 3641 3997 3641 3322 
Q 3641 2881 3436 2590 
Q 3231 2300 2841 2188 
z
M 1259 4147 
L 1259 2491 
L 2053 2491 
Q 2509 2491 2742 2702 
Q 2975 2913 2975 3322 
Q 2975 3731 2742 3939 
Q 2509 4147 2053 4147 
L 1259 4147 
z
" transform="scale(0.015625)"/>
      <path id="DejaVuSans-43" d="M 4122 4306 
L 4122 3641 
Q 3803 3938 3442 4084 
Q 3081 4231 2675 4231 
Q 1875 4231 1450 3742 
Q 1025 3253 1025 2328 
Q 1025 1406 1450 917 
Q 1875 428 2675 428 
Q 3081 428 3442 575 
Q 3803 722 4122 1019 
L 4122 359 
Q 3791 134 3420 21 
Q 3050 -91 2638 -91 
Q 1578 -91 968 557 
Q 359 1206 359 2328 
Q 359 3453 968 4101 
Q 1578 4750 2638 4750 
Q 3056 4750 3426 4639 
Q 3797 4528 4122 4306 
z
" transform="scale(0.015625)"/>
     </defs>
     <use xlink:href="#DejaVuSans-52"/>
     <use xlink:href="#DejaVuSans-65" transform="translate(64.982422 0)"/>
     <use xlink:href="#DejaVuSans-74" transform="translate(126.505859 0)"/>
     <use xlink:href="#DejaVuSans-72" transform="translate(165.714844 0)"/>
     <use xlink:href="#DejaVuSans-69" transform="translate(206.828125 0)"/>
     <use xlink:href="#DejaVuSans-65" transform="translate(234.611328 0)"/>
     <use xlink:href="#DejaVuSans-76" transform="translate(296.134766 0)"/>
     <use xlink:href="#DejaVuSans-65" transform="translate(355.314453 0)"/>
     <use xlink:href="#DejaVuSans-64" transform="translate(416.837891 0)"/>
     <use xlink:href="#DejaVuSans-20" transform="translate(480.314453 0)"/>
     <use xlink:href="#DejaVuSans-43" transform="translate(512.101562 0)"/>
     <use xlink:href="#DejaVuSans-6f" transform="translate(581.925781 0)"/>
     <use xlink:href="#DejaVuSans-6e" transform="translate(643.107422 0)"/>
     <use xlink:href="#DejaVuSans-74" transform="translate(706.486328 0)"/>
     <use xlink:href="#DejaVuSans-65" transform="translate(745.695312 0)"/>
     <use xlink:href="#DejaVuSans-78" transform="translate(805.46875 0)"/>
     <use xlink:href="#DejaVuSans-74" transform="translate(864.648438 0)"/>
    </g>
   </g>
   <g id="text_17">
    <g id="patch_35">
     <path d="M 221.967336 129.752219 
L 268.568118 129.752219 
Q 269.618118 129.752219 269.618118 128.702219 
L 269.618118 114.469973 
Q 269.618118 113.419973 268.568118 113.419973 
L 221.967336 113.419973 
Q 220.917336 113.419973 220.917336 114.469973 
L 220.917336 128.702219 
Q 220.917336 129.752219 221.967336 129.752219 
z
" style="fill: #ffffff; opacity: 0.88"/>
    </g>
    <!-- LLM: Extract -->
    <g style="fill: #212529" transform="translate(221.967336 120.168801) scale(0.075 -0.075)">
     <defs>
      <path id="DejaVuSans-4c" d="M 628 4666 
L 1259 4666 
L 1259 531 
L 3531 531 
L 3531 0 
L 628 0 
L 628 4666 
z
" transform="scale(0.015625)"/>
      <path id="DejaVuSans-4d" d="M 628 4666 
L 1569 4666 
L 2759 1491 
L 3956 4666 
L 4897 4666 
L 4897 0 
L 4281 0 
L 4281 4097 
L 3078 897 
L 2444 897 
L 1241 4097 
L 1241 0 
L 628 0 
L 628 4666 
z
" transform="scale(0.015625)"/>
      <path id="DejaVuSans-3a" d="M 750 794 
L 1409 794 
L 1409 0 
L 750 0 
L 750 794 
z
M 750 3309 
L 1409 3309 
L 1409 2516 
L 750 2516 
L 750 3309 
z
" transform="scale(0.015625)"/>
     </defs>
     <use xlink:href="#DejaVuSans-4c"/>
     <use xlink:href="#DejaVuSans-4c" transform="translate(55.712891 0)"/>
     <use xlink:href="#DejaVuSans-4d" transform="translate(111.425781 0)"/>
     <use xlink:href="#DejaVuSans-3a" transform="translate(197.705078 0)"/>
     <use xlink:href="#DejaVuSans-20" transform="translate(231.396484 0)"/>
     <use xlink:href="#DejaVuSans-45" transform="translate(263.183594 0)"/>
     <use xlink:href="#DejaVuSans-78" transform="translate(326.367188 0)"/>
     <use xlink:href="#DejaVuSans-74" transform="translate(385.546875 0)"/>
     <use xlink:href="#DejaVuSans-72" transform="translate(424.755859 0)"/>
     <use xlink:href="#DejaVuSans-61" transform="translate(465.869141 0)"/>
     <use xlink:href="#DejaVuSans-63" transform="translate(527.148438 0)"/>
     <use xlink:href="#DejaVuSans-74" transform="translate(582.128906 0)"/>
    </g>
    <!-- Statements -->
    <g style="fill: #212529" transform="translate(223.581008 127.142454) scale(0.075 -0.075)">
     <use xlink:href="#DejaVuSans-53"/>
     <use xlink:href="#DejaVuSans-74" transform="translate(63.476562 0)"/>
     <use xlink:href="#DejaVuSans-61" transform="translate(102.685547 0)"/>
     <use xlink:href="#DejaVuSans-74" transform="translate(163.964844 0)"/>
     <use xlink:href="#DejaVuSans-65" transform="translate(203.173828 0)"/>
     <use xlink:href="#DejaVuSans-6d" transform="translate(264.697266 0)"/>
     <use xlink:href="#DejaVuSans-65" transform="translate(362.109375 0)"/>
     <use xlink:href="#DejaVuSans-6e" transform="translate(423.632812 0)"/>
     <use xlink:href="#DejaVuSans-74" transform="translate(487.011719 0)"/>
     <use xlink:href="#DejaVuSans-73" transform="translate(526.220703 0)"/>
    </g>
   </g>
   <g id="text_18">
    <g id="patch_36">
     <path d="M 90.456361 134.283627 
L 137.078236 134.283627 
Q 138.128236 134.283627 138.128236 133.233627 
L 138.128236 125.975034 
Q 138.128236 124.925034 137.078236 124.925034 
L 90.456361 124.925034 
Q 89.406361 124.925034 89.406361 125.975034 
L 89.406361 133.233627 
Q 89.406361 134.283627 90.456361 134.283627 
z
" style="fill: #ffffff; opacity: 0.88"/>
    </g>
    <!-- Statement 1 -->
    <g style="fill: #212529" transform="translate(90.456361 131.673862) scale(0.075 -0.075)">
     <defs>
      <path id="DejaVuSans-31" d="M 794 531 
L 1825 531 
L 1825 4091 
L 703 3866 
L 703 4441 
L 1819 4666 
L 2450 4666 
L 2450 531 
L 3481 531 
L 3481 0 
L 794 0 
L 794 531 
z
" transform="scale(0.015625)"/>
     </defs>
     <use xlink:href="#DejaVuSans-53"/>
     <use xlink:href="#DejaVuSans-74" transform="translate(63.476562 0)"/>
     <use xlink:href="#DejaVuSans-61" transform="translate(102.685547 0)"/>
     <use xlink:href="#DejaVuSans-74" transform="translate(163.964844 0)"/>
     <use xlink:href="#DejaVuSans-65" transform="translate(203.173828 0)"/>
     <use xlink:href="#DejaVuSans-6d" transform="translate(264.697266 0)"/>
     <use xlink:href="#DejaVuSans-65" transform="translate(362.109375 0)"/>
     <use xlink:href="#DejaVuSans-6e" transform="translate(423.632812 0)"/>
     <use xlink:href="#DejaVuSans-74" transform="translate(487.011719 0)"/>
     <use xlink:href="#DejaVuSans-20" transform="translate(526.220703 0)"/>
     <use xlink:href="#DejaVuSans-31" transform="translate(558.007812 0)"/>
    </g>
   </g>
   <g id="text_19">
    <g id="patch_37">
     <path d="M 315.153093 244.265353 
L 361.774968 244.265353 
Q 362.824968 244.265353 362.824968 243.215353 
L 362.824968 235.956759 
Q 362.824968 234.906759 361.774968 234.906759 
L 315.153093 234.906759 
Q 314.103093 234.906759 314.103093 235.956759 
L 314.103093 243.215353 
Q 314.103093 244.265353 315.153093 244.265353 
z
" style="fill: #ffffff; opacity: 0.88"/>
    </g>
    <!-- Statement 2 -->
    <g style="fill: #212529" transform="translate(315.153093 241.655587) scale(0.075 -0.075)">
     <defs>
      <path id="DejaVuSans-32" d="M 1228 531 
L 3431 531 
L 3431 0 
L 469 0 
L 469 531 
Q 828 903 1448 1529 
Q 2069 2156 2228 2338 
Q 2531 2678 2651 2914 
Q 2772 3150 2772 3378 
Q 2772 3750 2511 3984 
Q 2250 4219 1831 4219 
Q 1534 4219 1204 4116 
Q 875 4013 500 3803 
L 500 4441 
Q 881 4594 1212 4672 
Q 1544 4750 1819 4750 
Q 2544 4750 2975 4387 
Q 3406 4025 3406 3419 
Q 3406 3131 3298 2873 
Q 3191 2616 2906 2266 
Q 2828 2175 2409 1742 
Q 1991 1309 1228 531 
z
" transform="scale(0.015625)"/>
     </defs>
     <use xlink:href="#DejaVuSans-53"/>
     <use xlink:href="#DejaVuSans-74" transform="translate(63.476562 0)"/>
     <use xlink:href="#DejaVuSans-61" transform="translate(102.685547 0)"/>
     <use xlink:href="#DejaVuSans-74" transform="translate(163.964844 0)"/>
     <use xlink:href="#DejaVuSans-65" transform="translate(203.173828 0)"/>
     <use xlink:href="#DejaVuSans-6d" transform="translate(264.697266 0)"/>
     <use xlink:href="#DejaVuSans-65" transform="translate(362.109375 0)"/>
     <use xlink:href="#DejaVuSans-6e" transform="translate(423.632812 0)"/>
     <use xlink:href="#DejaVuSans-74" transform="translate(487.011719 0)"/>
     <use xlink:href="#DejaVuSans-20" transform="translate(526.220703 0)"/>
     <use xlink:href="#DejaVuSans-32" transform="translate(558.007812 0)"/>
    </g>
   </g>
   <g id="text_20">
    <g id="patch_38">
     <path d="M 61.210627 211.661162 
L 108.671565 211.661162 
Q 109.721565 211.661162 109.721565 210.611162 
L 109.721565 203.352568 
Q 109.721565 202.302568 108.671565 202.302568 
L 61.210627 202.302568 
Q 60.160627 202.302568 60.160627 203.352568 
L 60.160627 210.611162 
Q 60.160627 211.661162 61.210627 211.661162 
z
" style="fill: #ffffff; opacity: 0.88"/>
    </g>
    <!-- Statement N -->
    <g style="fill: #212529" transform="translate(61.210627 209.051397) scale(0.075 -0.075)">
     <defs>
      <path id="DejaVuSans-4e" d="M 628 4666 
L 1478 4666 
L 3547 763 
L 3547 4666 
L 4159 4666 
L 4159 0 
L 3309 0 
L 1241 3903 
L 1241 0 
L 628 0 
L 628 4666 
z
" transform="scale(0.015625)"/>
     </defs>
     <use xlink:href="#DejaVuSans-53"/>
     <use xlink:href="#DejaVuSans-74" transform="translate(63.476562 0)"/>
     <use xlink:href="#DejaVuSans-61" transform="translate(102.685547 0)"/>
     <use xlink:href="#DejaVuSans-74" transform="translate(163.964844 0)"/>
     <use xlink:href="#DejaVuSans-65" transform="translate(203.173828 0)"/>
     <use xlink:href="#DejaVuSans-6d" transform="translate(264.697266 0)"/>
     <use xlink:href="#DejaVuSans-65" transform="translate(362.109375 0)"/>
     <use xlink:href="#DejaVuSans-6e" transform="translate(423.632812 0)"/>
     <use xlink:href="#DejaVuSans-74" transform="translate(487.011719 0)"/>
     <use xlink:href="#DejaVuSans-20" transform="translate(526.220703 0)"/>
     <use xlink:href="#DejaVuSans-4e" transform="translate(558.007812 0)"/>
    </g>
   </g>
   <g id="text_21">
    <g id="patch_39">
     <path d="M 110.112403 317.575769 
L 184.689356 317.575769 
Q 185.739356 317.575769 185.739356 316.525769 
L 185.739356 302.293523 
Q 185.739356 301.243523 184.689356 301.243523 
L 110.112403 301.243523 
Q 109.062403 301.243523 109.062403 302.293523 
L 109.062403 316.525769 
Q 109.062403 317.575769 110.112403 317.575769 
z
" style="fill: #ffffff; opacity: 0.88"/>
    </g>
    <!-- LLM: Check Context -->
    <g style="fill: #212529" transform="translate(110.112403 307.992351) scale(0.075 -0.075)">
     <use xlink:href="#DejaVuSans-4c"/>
     <use xlink:href="#DejaVuSans-4c" transform="translate(55.712891 0)"/>
     <use xlink:href="#DejaVuSans-4d" transform="translate(111.425781 0)"/>
     <use xlink:href="#DejaVuSans-3a" transform="translate(197.705078 0)"/>
     <use xlink:href="#DejaVuSans-20" transform="translate(231.396484 0)"/>
     <use xlink:href="#DejaVuSans-43" transform="translate(263.183594 0)"/>
     <use xlink:href="#DejaVuSans-68" transform="translate(333.007812 0)"/>
     <use xlink:href="#DejaVuSans-65" transform="translate(396.386719 0)"/>
     <use xlink:href="#DejaVuSans-63" transform="translate(457.910156 0)"/>
     <use xlink:href="#DejaVuSans-6b" transform="translate(512.890625 0)"/>
     <use xlink:href="#DejaVuSans-20" transform="translate(570.800781 0)"/>
     <use xlink:href="#DejaVuSans-43" transform="translate(602.587891 0)"/>
     <use xlink:href="#DejaVuSans-6f" transform="translate(672.412109 0)"/>
     <use xlink:href="#DejaVuSans-6e" transform="translate(733.59375 0)"/>
     <use xlink:href="#DejaVuSans-74" transform="translate(796.972656 0)"/>
     <use xlink:href="#DejaVuSans-65" transform="translate(836.181641 0)"/>
     <use xlink:href="#DejaVuSans-78" transform="translate(895.955078 0)"/>
     <use xlink:href="#DejaVuSans-74" transform="translate(955.134766 0)"/>
    </g>
    <!-- Support -->
    <g style="fill: #212529" transform="translate(155.039746 314.966004) scale(0.075 -0.075)">
     <use xlink:href="#DejaVuSans-53"/>
     <use xlink:href="#DejaVuSans-75" transform="translate(63.476562 0)"/>
     <use xlink:href="#DejaVuSans-70" transform="translate(126.855469 0)"/>
     <use xlink:href="#DejaVuSans-70" transform="translate(190.332031 0)"/>
     <use xlink:href="#DejaVuSans-6f" transform="translate(253.808594 0)"/>
     <use xlink:href="#DejaVuSans-72" transform="translate(314.990234 0)"/>
     <use xlink:href="#DejaVuSans-74" transform="translate(356.103516 0)"/>
    </g>
   </g>
   <g id="text_22">
    <g id="patch_40">
     <path d="M 300.377198 406.542359 
L 373.68501 406.542359 
Q 374.73501 406.542359 374.73501 405.492359 
L 374.73501 391.260113 
Q 374.73501 390.210113 373.68501 390.210113 
L 300.377198 390.210113 
Q 299.327198 390.210113 299.327198 391.260113 
L 299.327198 405.492359 
Q 299.327198 406.542359 300.377198 406.542359 
z
" style="fill: #ffffff; opacity: 0.88"/>
    </g>
    <!-- Score = #covered / -->
    <g style="fill: #212529" transform="translate(300.377198 396.958941) scale(0.075 -0.075)">
     <defs>
      <path id="DejaVuSans-3d" d="M 678 2906 
L 4684 2906 
L 4684 2381 
L 678 2381 
L 678 2906 
z
M 678 1631 
L 4684 1631 
L 4684 1100 
L 678 1100 
L 678 1631 
z
" transform="scale(0.015625)"/>
      <path id="DejaVuSans-23" d="M 3272 2816 
L 2363 2816 
L 2100 1772 
L 3016 1772 
L 3272 2816 
z
M 2803 4594 
L 2478 3297 
L 3391 3297 
L 3719 4594 
L 4219 4594 
L 3897 3297 
L 4872 3297 
L 4872 2816 
L 3775 2816 
L 3519 1772 
L 4513 1772 
L 4513 1294 
L 3397 1294 
L 3072 0 
L 2572 0 
L 2894 1294 
L 1978 1294 
L 1656 0 
L 1153 0 
L 1478 1294 
L 494 1294 
L 494 1772 
L 1594 1772 
L 1856 2816 
L 850 2816 
L 850 3297 
L 1978 3297 
L 2297 4594 
L 2803 4594 
z
" transform="scale(0.015625)"/>
      <path id="DejaVuSans-2f" d="M 1625 4666 
L 2156 4666 
L 531 -594 
L 0 -594 
L 1625 4666 
z
" transform="scale(0.015625)"/>
     </defs>
     <use xlink:href="#DejaVuSans-53"/>
     <use xlink:href="#DejaVuSans-63" transform="translate(63.476562 0)"/>
     <use xlink:href="#DejaVuSans-6f" transform="translate(118.457031 0)"/>
     <use xlink:href="#DejaVuSans-72" transform="translate(179.638672 0)"/>
     <use xlink:href="#DejaVuSans-65" transform="translate(218.501953 0)"/>
     <use xlink:href="#DejaVuSans-20" transform="translate(280.025391 0)"/>
     <use xlink:href="#DejaVuSans-3d" transform="translate(311.8125 0)"/>
     <use xlink:href="#DejaVuSans-20" transform="translate(395.601562 0)"/>
     <use xlink:href="#DejaVuSans-23" transform="translate(427.388672 0)"/>
     <use xlink:href="#DejaVuSans-63" transform="translate(511.177734 0)"/>
     <use xlink:href="#DejaVuSans-6f" transform="translate(566.158203 0)"/>
     <use xlink:href="#DejaVuSans-76" transform="translate(627.339844 0)"/>
     <use xlink:href="#DejaVuSans-65" transform="translate(686.519531 0)"/>
     <use xlink:href="#DejaVuSans-72" transform="translate(748.042969 0)"/>
     <use xlink:href="#DejaVuSans-65" transform="translate(786.90625 0)"/>
     <use xlink:href="#DejaVuSans-64" transform="translate(848.429688 0)"/>
     <use xlink:href="#DejaVuSans-20" transform="translate(911.90625 0)"/>
     <use xlink:href="#DejaVuSans-2f" transform="translate(943.693359 0)"/>
    </g>
    <!-- #total -->
    <g style="fill: #212529" transform="translate(300.377198 403.932593) scale(0.075 -0.075)">
     <defs>
      <path id="DejaVuSans-6c" d="M 603 4863 
L 1178 4863 
L 1178 0 
L 603 0 
L 603 4863 
z
" transform="scale(0.015625)"/>
     </defs>
     <use xlink:href="#DejaVuSans-23"/>
     <use xlink:href="#DejaVuSans-74" transform="translate(83.789062 0)"/>
     <use xlink:href="#DejaVuSans-6f" transform="translate(122.998047 0)"/>
     <use xlink:href="#DejaVuSans-74" transform="translate(184.179688 0)"/>
     <use xlink:href="#DejaVuSans-61" transform="translate(223.388672 0)"/>
     <use xlink:href="#DejaVuSans-6c" transform="translate(284.667969 0)"/>
    </g>
   </g>
  </g>
 </g>
 <defs>
  <clipPath id="p18682ea316">
   <rect x="7.2" y="29.077969" width="465.696" height="465.696"/>
  </clipPath>
 </defs>
</svg>
