<?xml version="1.0" encoding="utf-8" standalone="no"?>
<!DOCTYPE svg PUBLIC "-//W3C//DTD SVG 1.1//EN"
  "http://www.w3.org/Graphics/SVG/1.1/DTD/svg11.dtd">
<svg xmlns:xlink="http://www.w3.org/1999/xlink" width="480.096pt" height="501.973969pt" viewBox="0 0 480.096 501.973969" xmlns="http://www.w3.org/2000/svg" version="1.1">
 <metadata>
  <rdf:RDF xmlns:dc="http://purl.org/dc/elements/1.1/" xmlns:cc="http://creativecommons.org/ns#" xmlns:rdf="http://www.w3.org/1999/02/22-rdf-syntax-ns#">
   <cc:Work>
    <dc:type rdf:resource="http://purl.org/dc/dcmitype/StillImage"/>
    <dc:date>2026-06-13T00:22:44.181848</dc:date>
    <dc:format>image/svg+xml</dc:format>
    <dc:creator>
     <cc:Agent>
      <dc:title>Matplotlib v3.10.9, https://matplotlib.org/</dc:title>
     </cc:Agent>
    </dc:creator>
   </cc:Work>
  </rdf:RDF>
 </metadata>
 <defs>
  <style type="text/css">*{stroke-linejoin: round; stroke-linecap: butt}</style>
 </defs>
 <g id="figure_1">
  <g id="patch_1">
   <path d="M 0 501.973969 
L 480.096 501.973969 
L 480.096 0 
L 0 0 
z
" style="fill: #ffffff"/>
  </g>
  <g id="axes_1">
   <g id="patch_2">
    <path d="M 351.907963 152.41382 
Q 317.971317 203.808025 284.712346 254.175947 
" clip-path="url(#p850b3c2485)" style="fill: none; stroke: #9aa3b2; stroke-width: 1.1; stroke-linecap: round"/>
    <path d="M 289.36005 251.492881 
L 284.712346 254.175947 
L 285.354515 248.847944 
z
" clip-path="url(#p850b3c2485)" style="fill: #9aa3b2; stroke: #9aa3b2; stroke-width: 1.1; stroke-linecap: round"/>
   </g>
   <g id="patch_3">
    <path d="M 351.768859 371.537699 
Q 317.995197 322.618195 284.920259 274.71076 
" clip-path="url(#p850b3c2485)" style="fill: none; stroke: #9aa3b2; stroke-width: 1.1; stroke-linecap: round"/>
    <path d="M 285.672321 280.024366 
L 284.920259 274.71076 
L 289.62238 277.297274 
z
" clip-path="url(#p850b3c2485)" style="fill: #9aa3b2; stroke: #9aa3b2; stroke-width: 1.1; stroke-linecap: round"/>
   </g>
   <g id="patch_4">
    <path d="M 268.706012 258.164518 
Q 216.780758 222.216171 165.866667 186.967861 
" clip-path="url(#p850b3c2485)" style="fill: none; stroke: #9aa3b2; stroke-width: 1.1; stroke-linecap: round"/>
    <path d="M 168.44708 191.673333 
L 165.866667 186.967861 
L 171.179293 187.726814 
z
" clip-path="url(#p850b3c2485)" style="fill: #9aa3b2; stroke: #9aa3b2; stroke-width: 1.1; stroke-linecap: round"/>
   </g>
   <g id="patch_5">
    <path d="M 270.655523 273.025538 
Q 228.983215 322.076548 188.107176 370.190297 
" clip-path="url(#p850b3c2485)" style="fill: none; stroke: #9aa3b2; stroke-width: 1.1; stroke-linecap: round"/>
    <path d="M 193.044018 368.086114 
L 188.107176 370.190297 
L 189.385935 364.978313 
z
" clip-path="url(#p850b3c2485)" style="fill: #9aa3b2; stroke: #9aa3b2; stroke-width: 1.1; stroke-linecap: round"/>
   </g>
   <g id="patch_6">
    <path d="M 154.254144 189.917604 
Q 140.34448 234.696211 126.799647 278.300339 
" clip-path="url(#p850b3c2485)" style="fill: none; stroke: #9aa3b2; stroke-width: 1.1; stroke-linecap: round"/>
    <path d="M 130.515531 274.428362 
L 126.799647 278.300339 
L 125.931596 273.004446 
z
" clip-path="url(#p850b3c2485)" style="fill: #9aa3b2; stroke: #9aa3b2; stroke-width: 1.1; stroke-linecap: round"/>
   </g>
   <g id="patch_7">
    <path d="M 176.065834 370.375569 
Q 152.399952 333.437485 129.397526 297.534934 
" clip-path="url(#p850b3c2485)" style="fill: none; stroke: #9aa3b2; stroke-width: 1.1; stroke-linecap: round"/>
    <path d="M 129.966146 302.871287 
L 129.397526 297.534934 
L 134.007781 300.28185 
z
" clip-path="url(#p850b3c2485)" style="fill: #9aa3b2; stroke: #9aa3b2; stroke-width: 1.1; stroke-linecap: round"/>
   </g>
   <g id="text_1">
    <g id="patch_8">
     <path d="M 299.643173 227.137767 
L 327.725204 227.137767 
Q 328.505204 227.137767 328.505204 226.357767 
L 328.505204 220.066986 
Q 328.505204 219.286986 327.725204 219.286986 
L 299.643173 219.286986 
Q 298.863173 219.286986 298.863173 220.066986 
L 298.863173 226.357767 
Q 298.863173 227.137767 299.643173 227.137767 
z
" style="fill: #ffffff; opacity: 0.9"/>
    </g>
    <!-- question -->
    <g style="fill: #475569" transform="translate(299.643173 225.00597) scale(0.065 -0.065)">
     <defs>
      <path id="DejaVuSans-71" d="M 947 1747 
Q 947 1113 1208 752 
Q 1469 391 1925 391 
Q 2381 391 2643 752 
Q 2906 1113 2906 1747 
Q 2906 2381 2643 2742 
Q 2381 3103 1925 3103 
Q 1469 3103 1208 2742 
Q 947 2381 947 1747 
z
M 2906 525 
Q 2725 213 2448 61 
Q 2172 -91 1784 -91 
Q 1150 -91 751 415 
Q 353 922 353 1747 
Q 353 2572 751 3078 
Q 1150 3584 1784 3584 
Q 2172 3584 2448 3432 
Q 2725 3281 2906 2969 
L 2906 3500 
L 3481 3500 
L 3481 -1331 
L 2906 -1331 
L 2906 525 
z
" transform="scale(0.015625)"/>
      <path id="DejaVuSans-75" d="M 544 1381 
L 544 3500 
L 1119 3500 
L 1119 1403 
Q 1119 906 1312 657 
Q 1506 409 1894 409 
Q 2359 409 2629 706 
Q 2900 1003 2900 1516 
L 2900 3500 
L 3475 3500 
L 3475 0 
L 2900 0 
L 2900 538 
Q 2691 219 2414 64 
Q 2138 -91 1772 -91 
Q 1169 -91 856 284 
Q 544 659 544 1381 
z
M 1991 3584 
L 1991 3584 
z
" transform="scale(0.015625)"/>
      <path id="DejaVuSans-65" d="M 3597 1894 
L 3597 1613 
L 953 1613 
Q 991 1019 1311 708 
Q 1631 397 2203 397 
Q 2534 397 2845 478 
Q 3156 559 3463 722 
L 3463 178 
Q 3153 47 2828 -22 
Q 2503 -91 2169 -91 
Q 1331 -91 842 396 
Q 353 884 353 1716 
Q 353 2575 817 3079 
Q 1281 3584 2069 3584 
Q 2775 3584 3186 3129 
Q 3597 2675 3597 1894 
z
M 3022 2063 
Q 3016 2534 2758 2815 
Q 2500 3097 2075 3097 
Q 1594 3097 1305 2825 
Q 1016 2553 972 2059 
L 3022 2063 
z
" transform="scale(0.015625)"/>
      <path id="DejaVuSans-73" d="M 2834 3397 
L 2834 2853 
Q 2591 2978 2328 3040 
Q 2066 3103 1784 3103 
Q 1356 3103 1142 2972 
Q 928 2841 928 2578 
Q 928 2378 1081 2264 
Q 1234 2150 1697 2047 
L 1894 2003 
Q 2506 1872 2764 1633 
Q 3022 1394 3022 966 
Q 3022 478 2636 193 
Q 2250 -91 1575 -91 
Q 1294 -91 989 -36 
Q 684 19 347 128 
L 347 722 
Q 666 556 975 473 
Q 1284 391 1588 391 
Q 1994 391 2212 530 
Q 2431 669 2431 922 
Q 2431 1156 2273 1281 
Q 2116 1406 1581 1522 
L 1381 1569 
Q 847 1681 609 1914 
Q 372 2147 372 2553 
Q 372 3047 722 3315 
Q 1072 3584 1716 3584 
Q 2034 3584 2315 3537 
Q 2597 3491 2834 3397 
z
" transform="scale(0.015625)"/>
      <path id="DejaVuSans-74" d="M 1172 4494 
L 1172 3500 
L 2356 3500 
L 2356 3053 
L 1172 3053 
L 1172 1153 
Q 1172 725 1289 603 
Q 1406 481 1766 481 
L 2356 481 
L 2356 0 
L 1766 0 
Q 1100 0 847 248 
Q 594 497 594 1153 
L 594 3053 
L 172 3053 
L 172 3500 
L 594 3500 
L 594 4494 
L 1172 4494 
z
" transform="scale(0.015625)"/>
      <path id="DejaVuSans-69" d="M 603 3500 
L 1178 3500 
L 1178 0 
L 603 0 
L 603 3500 
z
M 603 4863 
L 1178 4863 
L 1178 4134 
L 603 4134 
L 603 4863 
z
" transform="scale(0.015625)"/>
      <path id="DejaVuSans-6f" d="M 1959 3097 
Q 1497 3097 1228 2736 
Q 959 2375 959 1747 
Q 959 1119 1226 758 
Q 1494 397 1959 397 
Q 2419 397 2687 759 
Q 2956 1122 2956 1747 
Q 2956 2369 2687 2733 
Q 2419 3097 1959 3097 
z
M 1959 3584 
Q 2709 3584 3137 3096 
Q 3566 2609 3566 1747 
Q 3566 888 3137 398 
Q 2709 -91 1959 -91 
Q 1206 -91 779 398 
Q 353 888 353 1747 
Q 353 2609 779 3096 
Q 1206 3584 1959 3584 
z
" transform="scale(0.015625)"/>
      <path id="DejaVuSans-6e" d="M 3513 2113 
L 3513 0 
L 2938 0 
L 2938 2094 
Q 2938 2591 2744 2837 
Q 2550 3084 2163 3084 
Q 1697 3084 1428 2787 
Q 1159 2491 1159 1978 
L 1159 0 
L 581 0 
L 581 3500 
L 1159 3500 
L 1159 2956 
Q 1366 3272 1645 3428 
Q 1925 3584 2291 3584 
Q 2894 3584 3203 3211 
Q 3513 2838 3513 2113 
z
" transform="scale(0.015625)"/>
     </defs>
     <use xlink:href="#DejaVuSans-71"/>
     <use xlink:href="#DejaVuSans-75" transform="translate(63.476562 0)"/>
     <use xlink:href="#DejaVuSans-65" transform="translate(126.855469 0)"/>
     <use xlink:href="#DejaVuSans-73" transform="translate(188.378906 0)"/>
     <use xlink:href="#DejaVuSans-74" transform="translate(240.478516 0)"/>
     <use xlink:href="#DejaVuSans-69" transform="translate(279.6875 0)"/>
     <use xlink:href="#DejaVuSans-6f" transform="translate(307.470703 0)"/>
     <use xlink:href="#DejaVuSans-6e" transform="translate(368.652344 0)"/>
    </g>
   </g>
   <g id="text_2">
    <g id="patch_9">
     <path d="M 286.376305 315.741781 
L 317.407712 315.741781 
Q 318.187712 315.741781 318.187712 314.961781 
L 318.187712 308.671 
Q 318.187712 307.891 317.407712 307.891 
L 286.376305 307.891 
Q 285.596305 307.891 285.596305 308.671 
L 285.596305 314.961781 
Q 285.596305 315.741781 286.376305 315.741781 
z
" style="fill: #ffffff; opacity: 0.9"/>
    </g>
    <!-- reference -->
    <g style="fill: #475569" transform="translate(286.376305 313.609984) scale(0.065 -0.065)">
     <defs>
      <path id="DejaVuSans-72" d="M 2631 2963 
Q 2534 3019 2420 3045 
Q 2306 3072 2169 3072 
Q 1681 3072 1420 2755 
Q 1159 2438 1159 1844 
L 1159 0 
L 581 0 
L 581 3500 
L 1159 3500 
L 1159 2956 
Q 1341 3275 1631 3429 
Q 1922 3584 2338 3584 
Q 2397 3584 2469 3576 
Q 2541 3569 2628 3553 
L 2631 2963 
z
" transform="scale(0.015625)"/>
      <path id="DejaVuSans-66" d="M 2375 4863 
L 2375 4384 
L 1825 4384 
Q 1516 4384 1395 4259 
Q 1275 4134 1275 3809 
L 1275 3500 
L 2222 3500 
L 2222 3053 
L 1275 3053 
L 1275 0 
L 697 0 
L 697 3053 
L 147 3053 
L 147 3500 
L 697 3500 
L 697 3744 
Q 697 4328 969 4595 
Q 1241 4863 1831 4863 
L 2375 4863 
z
" transform="scale(0.015625)"/>
      <path id="DejaVuSans-63" d="M 3122 3366 
L 3122 2828 
Q 2878 2963 2633 3030 
Q 2388 3097 2138 3097 
Q 1578 3097 1268 2742 
Q 959 2388 959 1747 
Q 959 1106 1268 751 
Q 1578 397 2138 397 
Q 2388 397 2633 464 
Q 2878 531 3122 666 
L 3122 134 
Q 2881 22 2623 -34 
Q 2366 -91 2075 -91 
Q 1284 -91 818 406 
Q 353 903 353 1747 
Q 353 2603 823 3093 
Q 1294 3584 2113 3584 
Q 2378 3584 2631 3529 
Q 2884 3475 3122 3366 
z
" transform="scale(0.015625)"/>
     </defs>
     <use xlink:href="#DejaVuSans-72"/>
     <use xlink:href="#DejaVuSans-65" transform="translate(38.863281 0)"/>
     <use xlink:href="#DejaVuSans-66" transform="translate(100.386719 0)"/>
     <use xlink:href="#DejaVuSans-65" transform="translate(135.591797 0)"/>
     <use xlink:href="#DejaVuSans-72" transform="translate(197.115234 0)"/>
     <use xlink:href="#DejaVuSans-65" transform="translate(235.978516 0)"/>
     <use xlink:href="#DejaVuSans-6e" transform="translate(297.501953 0)"/>
     <use xlink:href="#DejaVuSans-63" transform="translate(360.880859 0)"/>
     <use xlink:href="#DejaVuSans-65" transform="translate(415.861328 0)"/>
    </g>
   </g>
   <g id="text_3">
    <g id="patch_10">
     <path d="M 176.740424 222.433467 
L 221.110034 222.433467 
Q 221.890034 222.433467 221.890034 221.653467 
L 221.890034 215.362686 
Q 221.890034 214.582686 221.110034 214.582686 
L 176.740424 214.582686 
Q 175.960424 214.582686 175.960424 215.362686 
L 175.960424 221.653467 
Q 175.960424 222.433467 176.740424 222.433467 
z
" style="fill: #ffffff; opacity: 0.9"/>
    </g>
    <!-- judges rank 1 -->
    <g style="fill: #475569" transform="translate(176.740424 220.30167) scale(0.065 -0.065)">
     <defs>
      <path id="DejaVuSans-6a" d="M 603 3500 
L 1178 3500 
L 1178 -63 
Q 1178 -731 923 -1031 
Q 669 -1331 103 -1331 
L -116 -1331 
L -116 -844 
L 38 -844 
Q 366 -844 484 -692 
Q 603 -541 603 -63 
L 603 3500 
z
M 603 4863 
L 1178 4863 
L 1178 4134 
L 603 4134 
L 603 4863 
z
" transform="scale(0.015625)"/>
      <path id="DejaVuSans-64" d="M 2906 2969 
L 2906 4863 
L 3481 4863 
L 3481 0 
L 2906 0 
L 2906 525 
Q 2725 213 2448 61 
Q 2172 -91 1784 -91 
Q 1150 -91 751 415 
Q 353 922 353 1747 
Q 353 2572 751 3078 
Q 1150 3584 1784 3584 
Q 2172 3584 2448 3432 
Q 2725 3281 2906 2969 
z
M 947 1747 
Q 947 1113 1208 752 
Q 1469 391 1925 391 
Q 2381 391 2643 752 
Q 2906 1113 2906 1747 
Q 2906 2381 2643 2742 
Q 2381 3103 1925 3103 
Q 1469 3103 1208 2742 
Q 947 2381 947 1747 
z
" transform="scale(0.015625)"/>
      <path id="DejaVuSans-67" d="M 2906 1791 
Q 2906 2416 2648 2759 
Q 2391 3103 1925 3103 
Q 1463 3103 1205 2759 
Q 947 2416 947 1791 
Q 947 1169 1205 825 
Q 1463 481 1925 481 
Q 2391 481 2648 825 
Q 2906 1169 2906 1791 
z
M 3481 434 
Q 3481 -459 3084 -895 
Q 2688 -1331 1869 -1331 
Q 1566 -1331 1297 -1286 
Q 1028 -1241 775 -1147 
L 775 -588 
Q 1028 -725 1275 -790 
Q 1522 -856 1778 -856 
Q 2344 -856 2625 -561 
Q 2906 -266 2906 331 
L 2906 616 
Q 2728 306 2450 153 
Q 2172 0 1784 0 
Q 1141 0 747 490 
Q 353 981 353 1791 
Q 353 2603 747 3093 
Q 1141 3584 1784 3584 
Q 2172 3584 2450 3431 
Q 2728 3278 2906 2969 
L 2906 3500 
L 3481 3500 
L 3481 434 
z
" transform="scale(0.015625)"/>
      <path id="DejaVuSans-20" transform="scale(0.015625)"/>
      <path id="DejaVuSans-61" d="M 2194 1759 
Q 1497 1759 1228 1600 
Q 959 1441 959 1056 
Q 959 750 1161 570 
Q 1363 391 1709 391 
Q 2188 391 2477 730 
Q 2766 1069 2766 1631 
L 2766 1759 
L 2194 1759 
z
M 3341 1997 
L 3341 0 
L 2766 0 
L 2766 531 
Q 2569 213 2275 61 
Q 1981 -91 1556 -91 
Q 1019 -91 701 211 
Q 384 513 384 1019 
Q 384 1609 779 1909 
Q 1175 2209 1959 2209 
L 2766 2209 
L 2766 2266 
Q 2766 2663 2505 2880 
Q 2244 3097 1772 3097 
Q 1472 3097 1187 3025 
Q 903 2953 641 2809 
L 641 3341 
Q 956 3463 1253 3523 
Q 1550 3584 1831 3584 
Q 2591 3584 2966 3190 
Q 3341 2797 3341 1997 
z
" transform="scale(0.015625)"/>
      <path id="DejaVuSans-6b" d="M 581 4863 
L 1159 4863 
L 1159 1991 
L 2875 3500 
L 3609 3500 
L 1753 1863 
L 3688 0 
L 2938 0 
L 1159 1709 
L 1159 0 
L 581 0 
L 581 4863 
z
" transform="scale(0.015625)"/>
      <path id="DejaVuSans-31" d="M 794 531 
L 1825 531 
L 1825 4091 
L 703 3866 
L 703 4441 
L 1819 4666 
L 2450 4666 
L 2450 531 
L 3481 531 
L 3481 0 
L 794 0 
L 794 531 
z
" transform="scale(0.015625)"/>
     </defs>
     <use xlink:href="#DejaVuSans-6a"/>
     <use xlink:href="#DejaVuSans-75" transform="translate(27.783203 0)"/>
     <use xlink:href="#DejaVuSans-64" transform="translate(91.162109 0)"/>
     <use xlink:href="#DejaVuSans-67" transform="translate(154.638672 0)"/>
     <use xlink:href="#DejaVuSans-65" transform="translate(218.115234 0)"/>
     <use xlink:href="#DejaVuSans-73" transform="translate(279.638672 0)"/>
     <use xlink:href="#DejaVuSans-20" transform="translate(331.738281 0)"/>
     <use xlink:href="#DejaVuSans-72" transform="translate(363.525391 0)"/>
     <use xlink:href="#DejaVuSans-61" transform="translate(404.638672 0)"/>
     <use xlink:href="#DejaVuSans-6e" transform="translate(465.917969 0)"/>
     <use xlink:href="#DejaVuSans-6b" transform="translate(529.296875 0)"/>
     <use xlink:href="#DejaVuSans-20" transform="translate(587.207031 0)"/>
     <use xlink:href="#DejaVuSans-31" transform="translate(618.994141 0)"/>
    </g>
   </g>
   <g id="text_4">
    <g id="patch_11">
     <path d="M 200.797909 343.625756 
L 245.894706 343.625756 
Q 246.674706 343.625756 246.674706 342.845756 
L 246.674706 336.554975 
Q 246.674706 335.774975 245.894706 335.774975 
L 200.797909 335.774975 
Q 200.017909 335.774975 200.017909 336.554975 
L 200.017909 342.845756 
Q 200.017909 343.625756 200.797909 343.625756 
z
" style="fill: #ffffff; opacity: 0.9"/>
    </g>
    <!-- judges rank N -->
    <g style="fill: #475569" transform="translate(200.797909 341.493959) scale(0.065 -0.065)">
     <defs>
      <path id="DejaVuSans-4e" d="M 628 4666 
L 1478 4666 
L 3547 763 
L 3547 4666 
L 4159 4666 
L 4159 0 
L 3309 0 
L 1241 3903 
L 1241 0 
L 628 0 
L 628 4666 
z
" transform="scale(0.015625)"/>
     </defs>
     <use xlink:href="#DejaVuSans-6a"/>
     <use xlink:href="#DejaVuSans-75" transform="translate(27.783203 0)"/>
     <use xlink:href="#DejaVuSans-64" transform="translate(91.162109 0)"/>
     <use xlink:href="#DejaVuSans-67" transform="translate(154.638672 0)"/>
     <use xlink:href="#DejaVuSans-65" transform="translate(218.115234 0)"/>
     <use xlink:href="#DejaVuSans-73" transform="translate(279.638672 0)"/>
     <use xlink:href="#DejaVuSans-20" transform="translate(331.738281 0)"/>
     <use xlink:href="#DejaVuSans-72" transform="translate(363.525391 0)"/>
     <use xlink:href="#DejaVuSans-61" transform="translate(404.638672 0)"/>
     <use xlink:href="#DejaVuSans-6e" transform="translate(465.917969 0)"/>
     <use xlink:href="#DejaVuSans-6b" transform="translate(529.296875 0)"/>
     <use xlink:href="#DejaVuSans-20" transform="translate(587.207031 0)"/>
     <use xlink:href="#DejaVuSans-4e" transform="translate(618.994141 0)"/>
    </g>
   </g>
   <g id="text_5">
    <g id="patch_12">
     <path d="M 124.049596 253.652463 
L 162.201549 253.652463 
Q 162.981549 253.652463 162.981549 252.872463 
L 162.981549 246.581682 
Q 162.981549 245.801682 162.201549 245.801682 
L 124.049596 245.801682 
Q 123.269596 245.801682 123.269596 246.581682 
L 123.269596 252.872463 
Q 123.269596 253.652463 124.049596 253.652463 
z
" style="fill: #ffffff; opacity: 0.9"/>
    </g>
    <!-- high weight -->
    <g style="fill: #475569" transform="translate(124.049596 251.520666) scale(0.065 -0.065)">
     <defs>
      <path id="DejaVuSans-68" d="M 3513 2113 
L 3513 0 
L 2938 0 
L 2938 2094 
Q 2938 2591 2744 2837 
Q 2550 3084 2163 3084 
Q 1697 3084 1428 2787 
Q 1159 2491 1159 1978 
L 1159 0 
L 581 0 
L 581 4863 
L 1159 4863 
L 1159 2956 
Q 1366 3272 1645 3428 
Q 1925 3584 2291 3584 
Q 2894 3584 3203 3211 
Q 3513 2838 3513 2113 
z
" transform="scale(0.015625)"/>
      <path id="DejaVuSans-77" d="M 269 3500 
L 844 3500 
L 1563 769 
L 2278 3500 
L 2956 3500 
L 3675 769 
L 4391 3500 
L 4966 3500 
L 4050 0 
L 3372 0 
L 2619 2869 
L 1863 0 
L 1184 0 
L 269 3500 
z
" transform="scale(0.015625)"/>
     </defs>
     <use xlink:href="#DejaVuSans-68"/>
     <use xlink:href="#DejaVuSans-69" transform="translate(63.378906 0)"/>
     <use xlink:href="#DejaVuSans-67" transform="translate(91.162109 0)"/>
     <use xlink:href="#DejaVuSans-68" transform="translate(154.638672 0)"/>
     <use xlink:href="#DejaVuSans-20" transform="translate(218.017578 0)"/>
     <use xlink:href="#DejaVuSans-77" transform="translate(249.804688 0)"/>
     <use xlink:href="#DejaVuSans-65" transform="translate(331.591797 0)"/>
     <use xlink:href="#DejaVuSans-69" transform="translate(393.115234 0)"/>
     <use xlink:href="#DejaVuSans-67" transform="translate(420.898438 0)"/>
     <use xlink:href="#DejaVuSans-68" transform="translate(484.375 0)"/>
     <use xlink:href="#DejaVuSans-74" transform="translate(547.753906 0)"/>
    </g>
   </g>
   <g id="text_6">
    <g id="patch_13">
     <path d="M 121.962806 330.421157 
L 157.042494 330.421157 
Q 157.822494 330.421157 157.822494 329.641157 
L 157.822494 323.350375 
Q 157.822494 322.570375 157.042494 322.570375 
L 121.962806 322.570375 
Q 121.182806 322.570375 121.182806 323.350375 
L 121.182806 329.641157 
Q 121.182806 330.421157 121.962806 330.421157 
z
" style="fill: #ffffff; opacity: 0.9"/>
    </g>
    <!-- low weight -->
    <g style="fill: #475569" transform="translate(121.962806 328.28936) scale(0.065 -0.065)">
     <defs>
      <path id="DejaVuSans-6c" d="M 603 4863 
L 1178 4863 
L 1178 0 
L 603 0 
L 603 4863 
z
" transform="scale(0.015625)"/>
     </defs>
     <use xlink:href="#DejaVuSans-6c"/>
     <use xlink:href="#DejaVuSans-6f" transform="translate(27.783203 0)"/>
     <use xlink:href="#DejaVuSans-77" transform="translate(88.964844 0)"/>
     <use xlink:href="#DejaVuSans-20" transform="translate(170.751953 0)"/>
     <use xlink:href="#DejaVuSans-77" transform="translate(202.539062 0)"/>
     <use xlink:href="#DejaVuSans-65" transform="translate(284.326172 0)"/>
     <use xlink:href="#DejaVuSans-69" transform="translate(345.849609 0)"/>
     <use xlink:href="#DejaVuSans-67" transform="translate(373.632812 0)"/>
     <use xlink:href="#DejaVuSans-68" transform="translate(437.109375 0)"/>
     <use xlink:href="#DejaVuSans-74" transform="translate(500.488281 0)"/>
    </g>
   </g>
   <g id="text_7">
    <!-- Contextual Precision — How DeepEval Scores It -->
    <g transform="translate(66.324328 17.077969) scale(0.13 -0.13)">
     <defs>
      <path id="DejaVuSans-Bold-43" d="M 4288 256 
Q 3956 84 3597 -3 
Q 3238 -91 2847 -91 
Q 1681 -91 1000 561 
Q 319 1213 319 2328 
Q 319 3447 1000 4098 
Q 1681 4750 2847 4750 
Q 3238 4750 3597 4662 
Q 3956 4575 4288 4403 
L 4288 3438 
Q 3953 3666 3628 3772 
Q 3303 3878 2944 3878 
Q 2300 3878 1931 3465 
Q 1563 3053 1563 2328 
Q 1563 1606 1931 1193 
Q 2300 781 2944 781 
Q 3303 781 3628 887 
Q 3953 994 4288 1222 
L 4288 256 
z
" transform="scale(0.015625)"/>
      <path id="DejaVuSans-Bold-6f" d="M 2203 2784 
Q 1831 2784 1636 2517 
Q 1441 2250 1441 1747 
Q 1441 1244 1636 976 
Q 1831 709 2203 709 
Q 2569 709 2762 976 
Q 2956 1244 2956 1747 
Q 2956 2250 2762 2517 
Q 2569 2784 2203 2784 
z
M 2203 3584 
Q 3106 3584 3614 3096 
Q 4122 2609 4122 1747 
Q 4122 884 3614 396 
Q 3106 -91 2203 -91 
Q 1297 -91 786 396 
Q 275 884 275 1747 
Q 275 2609 786 3096 
Q 1297 3584 2203 3584 
z
" transform="scale(0.015625)"/>
      <path id="DejaVuSans-Bold-6e" d="M 4056 2131 
L 4056 0 
L 2931 0 
L 2931 347 
L 2931 1631 
Q 2931 2084 2911 2256 
Q 2891 2428 2841 2509 
Q 2775 2619 2662 2680 
Q 2550 2741 2406 2741 
Q 2056 2741 1856 2470 
Q 1656 2200 1656 1722 
L 1656 0 
L 538 0 
L 538 3500 
L 1656 3500 
L 1656 2988 
Q 1909 3294 2193 3439 
Q 2478 3584 2822 3584 
Q 3428 3584 3742 3212 
Q 4056 2841 4056 2131 
z
" transform="scale(0.015625)"/>
      <path id="DejaVuSans-Bold-74" d="M 1759 4494 
L 1759 3500 
L 2913 3500 
L 2913 2700 
L 1759 2700 
L 1759 1216 
Q 1759 972 1856 886 
Q 1953 800 2241 800 
L 2816 800 
L 2816 0 
L 1856 0 
Q 1194 0 917 276 
Q 641 553 641 1216 
L 641 2700 
L 84 2700 
L 84 3500 
L 641 3500 
L 641 4494 
L 1759 4494 
z
" transform="scale(0.015625)"/>
      <path id="DejaVuSans-Bold-65" d="M 4031 1759 
L 4031 1441 
L 1416 1441 
Q 1456 1047 1700 850 
Q 1944 653 2381 653 
Q 2734 653 3104 758 
Q 3475 863 3866 1075 
L 3866 213 
Q 3469 63 3072 -14 
Q 2675 -91 2278 -91 
Q 1328 -91 801 392 
Q 275 875 275 1747 
Q 275 2603 792 3093 
Q 1309 3584 2216 3584 
Q 3041 3584 3536 3087 
Q 4031 2591 4031 1759 
z
M 2881 2131 
Q 2881 2450 2695 2645 
Q 2509 2841 2209 2841 
Q 1884 2841 1681 2658 
Q 1478 2475 1428 2131 
L 2881 2131 
z
" transform="scale(0.015625)"/>
      <path id="DejaVuSans-Bold-78" d="M 1422 1791 
L 159 3500 
L 1344 3500 
L 2059 2463 
L 2784 3500 
L 3969 3500 
L 2706 1797 
L 4031 0 
L 2847 0 
L 2059 1106 
L 1281 0 
L 97 0 
L 1422 1791 
z
" transform="scale(0.015625)"/>
      <path id="DejaVuSans-Bold-75" d="M 500 1363 
L 500 3500 
L 1625 3500 
L 1625 3150 
Q 1625 2866 1622 2436 
Q 1619 2006 1619 1863 
Q 1619 1441 1641 1255 
Q 1663 1069 1716 984 
Q 1784 875 1895 815 
Q 2006 756 2150 756 
Q 2500 756 2700 1025 
Q 2900 1294 2900 1772 
L 2900 3500 
L 4019 3500 
L 4019 0 
L 2900 0 
L 2900 506 
Q 2647 200 2364 54 
Q 2081 -91 1741 -91 
Q 1134 -91 817 281 
Q 500 653 500 1363 
z
" transform="scale(0.015625)"/>
      <path id="DejaVuSans-Bold-61" d="M 2106 1575 
Q 1756 1575 1579 1456 
Q 1403 1338 1403 1106 
Q 1403 894 1545 773 
Q 1688 653 1941 653 
Q 2256 653 2472 879 
Q 2688 1106 2688 1447 
L 2688 1575 
L 2106 1575 
z
M 3816 1997 
L 3816 0 
L 2688 0 
L 2688 519 
Q 2463 200 2181 54 
Q 1900 -91 1497 -91 
Q 953 -91 614 226 
Q 275 544 275 1050 
Q 275 1666 698 1953 
Q 1122 2241 2028 2241 
L 2688 2241 
L 2688 2328 
Q 2688 2594 2478 2717 
Q 2269 2841 1825 2841 
Q 1466 2841 1156 2769 
Q 847 2697 581 2553 
L 581 3406 
Q 941 3494 1303 3539 
Q 1666 3584 2028 3584 
Q 2975 3584 3395 3211 
Q 3816 2838 3816 1997 
z
" transform="scale(0.015625)"/>
      <path id="DejaVuSans-Bold-6c" d="M 538 4863 
L 1656 4863 
L 1656 0 
L 538 0 
L 538 4863 
z
" transform="scale(0.015625)"/>
      <path id="DejaVuSans-Bold-20" transform="scale(0.015625)"/>
      <path id="DejaVuSans-Bold-50" d="M 588 4666 
L 2584 4666 
Q 3475 4666 3951 4270 
Q 4428 3875 4428 3144 
Q 4428 2409 3951 2014 
Q 3475 1619 2584 1619 
L 1791 1619 
L 1791 0 
L 588 0 
L 588 4666 
z
M 1791 3794 
L 1791 2491 
L 2456 2491 
Q 2806 2491 2997 2661 
Q 3188 2831 3188 3144 
Q 3188 3456 2997 3625 
Q 2806 3794 2456 3794 
L 1791 3794 
z
" transform="scale(0.015625)"/>
      <path id="DejaVuSans-Bold-72" d="M 3138 2547 
Q 2991 2616 2845 2648 
Q 2700 2681 2553 2681 
Q 2122 2681 1889 2404 
Q 1656 2128 1656 1613 
L 1656 0 
L 538 0 
L 538 3500 
L 1656 3500 
L 1656 2925 
Q 1872 3269 2151 3426 
Q 2431 3584 2822 3584 
Q 2878 3584 2943 3579 
Q 3009 3575 3134 3559 
L 3138 2547 
z
" transform="scale(0.015625)"/>
      <path id="DejaVuSans-Bold-63" d="M 3366 3391 
L 3366 2478 
Q 3138 2634 2908 2709 
Q 2678 2784 2431 2784 
Q 1963 2784 1702 2511 
Q 1441 2238 1441 1747 
Q 1441 1256 1702 982 
Q 1963 709 2431 709 
Q 2694 709 2930 787 
Q 3166 866 3366 1019 
L 3366 103 
Q 3103 6 2833 -42 
Q 2563 -91 2291 -91 
Q 1344 -91 809 395 
Q 275 881 275 1747 
Q 275 2613 809 3098 
Q 1344 3584 2291 3584 
Q 2566 3584 2833 3536 
Q 3100 3488 3366 3391 
z
" transform="scale(0.015625)"/>
      <path id="DejaVuSans-Bold-69" d="M 538 3500 
L 1656 3500 
L 1656 0 
L 538 0 
L 538 3500 
z
M 538 4863 
L 1656 4863 
L 1656 3950 
L 538 3950 
L 538 4863 
z
" transform="scale(0.015625)"/>
      <path id="DejaVuSans-Bold-73" d="M 3272 3391 
L 3272 2541 
Q 2913 2691 2578 2766 
Q 2244 2841 1947 2841 
Q 1628 2841 1473 2761 
Q 1319 2681 1319 2516 
Q 1319 2381 1436 2309 
Q 1553 2238 1856 2203 
L 2053 2175 
Q 2913 2066 3209 1816 
Q 3506 1566 3506 1031 
Q 3506 472 3093 190 
Q 2681 -91 1863 -91 
Q 1516 -91 1145 -36 
Q 775 19 384 128 
L 384 978 
Q 719 816 1070 734 
Q 1422 653 1784 653 
Q 2113 653 2278 743 
Q 2444 834 2444 1013 
Q 2444 1163 2330 1236 
Q 2216 1309 1875 1350 
L 1678 1375 
Q 931 1469 631 1722 
Q 331 1975 331 2491 
Q 331 3047 712 3315 
Q 1094 3584 1881 3584 
Q 2191 3584 2531 3537 
Q 2872 3491 3272 3391 
z
" transform="scale(0.015625)"/>
      <path id="DejaVuSans-Bold-2014" d="M 344 2156 
L 6056 2156 
L 6056 1350 
L 344 1350 
L 344 2156 
z
" transform="scale(0.015625)"/>
      <path id="DejaVuSans-Bold-48" d="M 588 4666 
L 1791 4666 
L 1791 2888 
L 3566 2888 
L 3566 4666 
L 4769 4666 
L 4769 0 
L 3566 0 
L 3566 1978 
L 1791 1978 
L 1791 0 
L 588 0 
L 588 4666 
z
" transform="scale(0.015625)"/>
      <path id="DejaVuSans-Bold-77" d="M 225 3500 
L 1313 3500 
L 1900 1088 
L 2491 3500 
L 3425 3500 
L 4013 1113 
L 4603 3500 
L 5691 3500 
L 4769 0 
L 3547 0 
L 2956 2406 
L 2369 0 
L 1147 0 
L 225 3500 
z
" transform="scale(0.015625)"/>
      <path id="DejaVuSans-Bold-44" d="M 1791 3756 
L 1791 909 
L 2222 909 
Q 2959 909 3348 1275 
Q 3738 1641 3738 2338 
Q 3738 3031 3350 3393 
Q 2963 3756 2222 3756 
L 1791 3756 
z
M 588 4666 
L 1856 4666 
Q 2919 4666 3439 4514 
Q 3959 4363 4331 4000 
Q 4659 3684 4818 3271 
Q 4978 2859 4978 2338 
Q 4978 1809 4818 1395 
Q 4659 981 4331 666 
Q 3956 303 3431 151 
Q 2906 0 1856 0 
L 588 0 
L 588 4666 
z
" transform="scale(0.015625)"/>
      <path id="DejaVuSans-Bold-70" d="M 1656 506 
L 1656 -1331 
L 538 -1331 
L 538 3500 
L 1656 3500 
L 1656 2988 
Q 1888 3294 2169 3439 
Q 2450 3584 2816 3584 
Q 3463 3584 3878 3070 
Q 4294 2556 4294 1747 
Q 4294 938 3878 423 
Q 3463 -91 2816 -91 
Q 2450 -91 2169 54 
Q 1888 200 1656 506 
z
M 2400 2772 
Q 2041 2772 1848 2508 
Q 1656 2244 1656 1747 
Q 1656 1250 1848 986 
Q 2041 722 2400 722 
Q 2759 722 2948 984 
Q 3138 1247 3138 1747 
Q 3138 2247 2948 2509 
Q 2759 2772 2400 2772 
z
" transform="scale(0.015625)"/>
      <path id="DejaVuSans-Bold-45" d="M 588 4666 
L 3834 4666 
L 3834 3756 
L 1791 3756 
L 1791 2888 
L 3713 2888 
L 3713 1978 
L 1791 1978 
L 1791 909 
L 3903 909 
L 3903 0 
L 588 0 
L 588 4666 
z
" transform="scale(0.015625)"/>
      <path id="DejaVuSans-Bold-76" d="M 97 3500 
L 1216 3500 
L 2088 1081 
L 2956 3500 
L 4078 3500 
L 2700 0 
L 1472 0 
L 97 3500 
z
" transform="scale(0.015625)"/>
      <path id="DejaVuSans-Bold-53" d="M 3834 4519 
L 3834 3531 
Q 3450 3703 3084 3790 
Q 2719 3878 2394 3878 
Q 1963 3878 1756 3759 
Q 1550 3641 1550 3391 
Q 1550 3203 1689 3098 
Q 1828 2994 2194 2919 
L 2706 2816 
Q 3484 2659 3812 2340 
Q 4141 2022 4141 1434 
Q 4141 663 3683 286 
Q 3225 -91 2284 -91 
Q 1841 -91 1394 -6 
Q 947 78 500 244 
L 500 1259 
Q 947 1022 1364 901 
Q 1781 781 2169 781 
Q 2563 781 2772 912 
Q 2981 1044 2981 1288 
Q 2981 1506 2839 1625 
Q 2697 1744 2272 1838 
L 1806 1941 
Q 1106 2091 782 2419 
Q 459 2747 459 3303 
Q 459 4000 909 4375 
Q 1359 4750 2203 4750 
Q 2588 4750 2994 4692 
Q 3400 4634 3834 4519 
z
" transform="scale(0.015625)"/>
      <path id="DejaVuSans-Bold-49" d="M 588 4666 
L 1791 4666 
L 1791 0 
L 588 0 
L 588 4666 
z
" transform="scale(0.015625)"/>
     </defs>
     <use xlink:href="#DejaVuSans-Bold-43"/>
     <use xlink:href="#DejaVuSans-Bold-6f" transform="translate(73.388672 0)"/>
     <use xlink:href="#DejaVuSans-Bold-6e" transform="translate(142.089844 0)"/>
     <use xlink:href="#DejaVuSans-Bold-74" transform="translate(213.28125 0)"/>
     <use xlink:href="#DejaVuSans-Bold-65" transform="translate(261.083984 0)"/>
     <use xlink:href="#DejaVuSans-Bold-78" transform="translate(328.90625 0)"/>
     <use xlink:href="#DejaVuSans-Bold-74" transform="translate(393.408203 0)"/>
     <use xlink:href="#DejaVuSans-Bold-75" transform="translate(441.210938 0)"/>
     <use xlink:href="#DejaVuSans-Bold-61" transform="translate(512.402344 0)"/>
     <use xlink:href="#DejaVuSans-Bold-6c" transform="translate(579.882812 0)"/>
     <use xlink:href="#DejaVuSans-Bold-20" transform="translate(614.160156 0)"/>
     <use xlink:href="#DejaVuSans-Bold-50" transform="translate(648.974609 0)"/>
     <use xlink:href="#DejaVuSans-Bold-72" transform="translate(722.265625 0)"/>
     <use xlink:href="#DejaVuSans-Bold-65" transform="translate(771.582031 0)"/>
     <use xlink:href="#DejaVuSans-Bold-63" transform="translate(839.404297 0)"/>
     <use xlink:href="#DejaVuSans-Bold-69" transform="translate(898.681641 0)"/>
     <use xlink:href="#DejaVuSans-Bold-73" transform="translate(932.958984 0)"/>
     <use xlink:href="#DejaVuSans-Bold-69" transform="translate(992.480469 0)"/>
     <use xlink:href="#DejaVuSans-Bold-6f" transform="translate(1026.757812 0)"/>
     <use xlink:href="#DejaVuSans-Bold-6e" transform="translate(1095.458984 0)"/>
     <use xlink:href="#DejaVuSans-Bold-20" transform="translate(1166.650391 0)"/>
     <use xlink:href="#DejaVuSans-Bold-2014" transform="translate(1201.464844 0)"/>
     <use xlink:href="#DejaVuSans-Bold-20" transform="translate(1301.464844 0)"/>
     <use xlink:href="#DejaVuSans-Bold-48" transform="translate(1336.279297 0)"/>
     <use xlink:href="#DejaVuSans-Bold-6f" transform="translate(1419.970703 0)"/>
     <use xlink:href="#DejaVuSans-Bold-77" transform="translate(1488.671875 0)"/>
     <use xlink:href="#DejaVuSans-Bold-20" transform="translate(1581.054688 0)"/>
     <use xlink:href="#DejaVuSans-Bold-44" transform="translate(1615.869141 0)"/>
     <use xlink:href="#DejaVuSans-Bold-65" transform="translate(1698.876953 0)"/>
     <use xlink:href="#DejaVuSans-Bold-65" transform="translate(1766.699219 0)"/>
     <use xlink:href="#DejaVuSans-Bold-70" transform="translate(1834.521484 0)"/>
     <use xlink:href="#DejaVuSans-Bold-45" transform="translate(1906.103516 0)"/>
     <use xlink:href="#DejaVuSans-Bold-76" transform="translate(1974.414062 0)"/>
     <use xlink:href="#DejaVuSans-Bold-61" transform="translate(2039.599609 0)"/>
     <use xlink:href="#DejaVuSans-Bold-6c" transform="translate(2107.080078 0)"/>
     <use xlink:href="#DejaVuSans-Bold-20" transform="translate(2141.357422 0)"/>
     <use xlink:href="#DejaVuSans-Bold-53" transform="translate(2176.171875 0)"/>
     <use xlink:href="#DejaVuSans-Bold-63" transform="translate(2248.193359 0)"/>
     <use xlink:href="#DejaVuSans-Bold-6f" transform="translate(2307.470703 0)"/>
     <use xlink:href="#DejaVuSans-Bold-72" transform="translate(2376.171875 0)"/>
     <use xlink:href="#DejaVuSans-Bold-65" transform="translate(2425.488281 0)"/>
     <use xlink:href="#DejaVuSans-Bold-73" transform="translate(2493.310547 0)"/>
     <use xlink:href="#DejaVuSans-Bold-20" transform="translate(2552.832031 0)"/>
     <use xlink:href="#DejaVuSans-Bold-49" transform="translate(2587.646484 0)"/>
     <use xlink:href="#DejaVuSans-Bold-74" transform="translate(2624.853516 0)"/>
    </g>
   </g>
   <g id="patch_14">
    <path d="M 356.472 152.940169 
C 358.444634 152.940169 360.336739 152.156433 361.731602 150.76157 
C 363.126464 149.366708 363.9102 147.474602 363.9102 145.501969 
C 363.9102 143.529335 363.126464 141.63723 361.731602 140.242367 
C 360.336739 138.847504 358.444634 138.063769 356.472 138.063769 
C 354.499366 138.063769 352.607261 138.847504 351.212398 140.242367 
C 349.817536 141.63723 349.0338 143.529335 349.0338 145.501969 
C 349.0338 147.474602 349.817536 149.366708 351.212398 150.76157 
C 352.607261 152.156433 354.499366 152.940169 356.472 152.940169 
z
" clip-path="url(#p850b3c2485)" style="fill: #2e4057; stroke: #ffffff; stroke-width: 1.2; stroke-linejoin: miter"/>
   </g>
   <g id="patch_15">
    <path d="M 356.472 385.788169 
C 358.444634 385.788169 360.336739 385.004433 361.731602 383.60957 
C 363.126464 382.214708 363.9102 380.322602 363.9102 378.349969 
C 363.9102 376.377335 363.126464 374.48523 361.731602 373.090367 
C 360.336739 371.695504 358.444634 370.911769 356.472 370.911769 
C 354.499366 370.911769 352.607261 371.695504 351.212398 373.090367 
C 349.817536 374.48523 349.0338 376.377335 349.0338 378.349969 
C 349.0338 380.322602 349.817536 382.214708 351.212398 383.60957 
C 352.607261 385.004433 354.499366 385.788169 356.472 385.788169 
z
" clip-path="url(#p850b3c2485)" style="fill: #2e4057; stroke: #ffffff; stroke-width: 1.2; stroke-linejoin: miter"/>
   </g>
   <g id="patch_16">
    <path d="M 277.883265 274.543417 
C 280.542032 274.543417 283.092261 273.487078 284.972293 271.607046 
C 286.852325 269.727013 287.908665 267.176784 287.908665 264.518017 
C 287.908665 261.85925 286.852325 259.309021 284.972293 257.428989 
C 283.092261 255.548957 280.542032 254.492617 277.883265 254.492617 
C 275.224498 254.492617 272.674269 255.548957 270.794236 257.428989 
C 268.914204 259.309021 267.857865 261.85925 267.857865 264.518017 
C 267.857865 267.176784 268.914204 269.727013 270.794236 271.607046 
C 272.674269 273.487078 275.224498 274.543417 277.883265 274.543417 
z
" clip-path="url(#p850b3c2485)" style="fill: #048a81; stroke: #ffffff; stroke-width: 1.2; stroke-linejoin: miter"/>
   </g>
   <g id="patch_17">
    <path d="M 157.063566 189.383243 
C 159.320405 189.383243 161.485114 188.486591 163.080941 186.890765 
C 164.676767 185.294938 165.573419 183.130229 165.573419 180.87339 
C 165.573419 178.61655 164.676767 176.451841 163.080941 174.856015 
C 161.485114 173.260188 159.320405 172.363537 157.063566 172.363537 
C 154.806726 172.363537 152.642017 173.260188 151.046191 174.856015 
C 149.450364 176.451841 148.553712 178.61655 148.553712 180.87339 
C 148.553712 183.130229 149.450364 185.294938 151.046191 186.890765 
C 152.642017 188.486591 154.806726 189.383243 157.063566 189.383243 
z
" clip-path="url(#p850b3c2485)" style="fill: #54c6eb; stroke: #ffffff; stroke-width: 1.2; stroke-linejoin: miter"/>
   </g>
   <g id="patch_18">
    <path d="M 181.174957 386.859822 
C 183.431796 386.859822 185.596505 385.96317 187.192332 384.367344 
C 188.788158 382.771517 189.68481 380.606808 189.68481 378.349969 
C 189.68481 376.093129 188.788158 373.92842 187.192332 372.332594 
C 185.596505 370.736767 183.431796 369.840115 181.174957 369.840115 
C 178.918117 369.840115 176.753408 370.736767 175.157582 372.332594 
C 173.561755 373.92842 172.665103 376.093129 172.665103 378.349969 
C 172.665103 380.606808 173.561755 382.771517 175.157582 384.367344 
C 176.753408 385.96317 178.918117 386.859822 181.174957 386.859822 
z
" clip-path="url(#p850b3c2485)" style="fill: #54c6eb; stroke: #ffffff; stroke-width: 1.2; stroke-linejoin: miter"/>
   </g>
   <g id="patch_19">
    <path d="M 123.624 297.033376 
C 125.880839 297.033376 128.045548 296.136725 129.641375 294.540898 
C 131.237201 292.945072 132.133853 290.780363 132.133853 288.523523 
C 132.133853 286.266684 131.237201 284.101975 129.641375 282.506148 
C 128.045548 280.910322 125.880839 280.01367 123.624 280.01367 
C 121.367161 280.01367 119.202452 280.910322 117.606625 282.506148 
C 116.010799 284.101975 115.114147 286.266684 115.114147 288.523523 
C 115.114147 290.780363 116.010799 292.945072 117.606625 294.540898 
C 119.202452 296.136725 121.367161 297.033376 123.624 297.033376 
z
" clip-path="url(#p850b3c2485)" style="fill: #ef7b45; stroke: #ffffff; stroke-width: 1.2; stroke-linejoin: miter"/>
   </g>
   <g id="legend_1">
    <g id="patch_20">
     <path d="M 12.8 85.647969 
L 80.10875 85.647969 
Q 81.70875 85.647969 81.70875 84.047969 
L 81.70875 34.677969 
Q 81.70875 33.077969 80.10875 33.077969 
L 12.8 33.077969 
Q 11.2 33.077969 11.2 34.677969 
L 11.2 84.047969 
Q 11.2 85.647969 12.8 85.647969 
z
" style="fill: #ffffff; opacity: 0.9; stroke: #cccccc; stroke-linejoin: miter"/>
    </g>
    <g id="patch_21">
     <path d="M 16 43.956719 
L 32 43.956719 
L 32 38.356719 
L 16 38.356719 
z
" style="fill: #2e4057; stroke: #2e4057; stroke-linejoin: miter"/>
    </g>
    <g id="text_8">
     <!-- Input -->
     <g transform="translate(38.4 43.956719) scale(0.08 -0.08)">
      <defs>
       <path id="DejaVuSans-49" d="M 628 4666 
L 1259 4666 
L 1259 0 
L 628 0 
L 628 4666 
z
" transform="scale(0.015625)"/>
       <path id="DejaVuSans-70" d="M 1159 525 
L 1159 -1331 
L 581 -1331 
L 581 3500 
L 1159 3500 
L 1159 2969 
Q 1341 3281 1617 3432 
Q 1894 3584 2278 3584 
Q 2916 3584 3314 3078 
Q 3713 2572 3713 1747 
Q 3713 922 3314 415 
Q 2916 -91 2278 -91 
Q 1894 -91 1617 61 
Q 1341 213 1159 525 
z
M 3116 1747 
Q 3116 2381 2855 2742 
Q 2594 3103 2138 3103 
Q 1681 3103 1420 2742 
Q 1159 2381 1159 1747 
Q 1159 1113 1420 752 
Q 1681 391 2138 391 
Q 2594 391 2855 752 
Q 3116 1113 3116 1747 
z
" transform="scale(0.015625)"/>
      </defs>
      <use xlink:href="#DejaVuSans-49"/>
      <use xlink:href="#DejaVuSans-6e" transform="translate(29.492188 0)"/>
      <use xlink:href="#DejaVuSans-70" transform="translate(92.871094 0)"/>
      <use xlink:href="#DejaVuSans-75" transform="translate(156.347656 0)"/>
      <use xlink:href="#DejaVuSans-74" transform="translate(219.726562 0)"/>
     </g>
    </g>
    <g id="patch_22">
     <path d="M 16 55.699219 
L 32 55.699219 
L 32 50.099219 
L 16 50.099219 
z
" style="fill: #048a81; stroke: #048a81; stroke-linejoin: miter"/>
    </g>
    <g id="text_9">
     <!-- Process -->
     <g transform="translate(38.4 55.699219) scale(0.08 -0.08)">
      <defs>
       <path id="DejaVuSans-50" d="M 1259 4147 
L 1259 2394 
L 2053 2394 
Q 2494 2394 2734 2622 
Q 2975 2850 2975 3272 
Q 2975 3691 2734 3919 
Q 2494 4147 2053 4147 
L 1259 4147 
z
M 628 4666 
L 2053 4666 
Q 2838 4666 3239 4311 
Q 3641 3956 3641 3272 
Q 3641 2581 3239 2228 
Q 2838 1875 2053 1875 
L 1259 1875 
L 1259 0 
L 628 0 
L 628 4666 
z
" transform="scale(0.015625)"/>
      </defs>
      <use xlink:href="#DejaVuSans-50"/>
      <use xlink:href="#DejaVuSans-72" transform="translate(58.552734 0)"/>
      <use xlink:href="#DejaVuSans-6f" transform="translate(97.416016 0)"/>
      <use xlink:href="#DejaVuSans-63" transform="translate(158.597656 0)"/>
      <use xlink:href="#DejaVuSans-65" transform="translate(213.578125 0)"/>
      <use xlink:href="#DejaVuSans-73" transform="translate(275.101562 0)"/>
      <use xlink:href="#DejaVuSans-73" transform="translate(327.201172 0)"/>
     </g>
    </g>
    <g id="patch_23">
     <path d="M 16 67.441719 
L 32 67.441719 
L 32 61.841719 
L 16 61.841719 
z
" style="fill: #54c6eb; stroke: #54c6eb; stroke-linejoin: miter"/>
    </g>
    <g id="text_10">
     <!-- Judgment -->
     <g transform="translate(38.4 67.441719) scale(0.08 -0.08)">
      <defs>
       <path id="DejaVuSans-4a" d="M 628 4666 
L 1259 4666 
L 1259 325 
Q 1259 -519 939 -900 
Q 619 -1281 -91 -1281 
L -331 -1281 
L -331 -750 
L -134 -750 
Q 284 -750 456 -515 
Q 628 -281 628 325 
L 628 4666 
z
" transform="scale(0.015625)"/>
       <path id="DejaVuSans-6d" d="M 3328 2828 
Q 3544 3216 3844 3400 
Q 4144 3584 4550 3584 
Q 5097 3584 5394 3201 
Q 5691 2819 5691 2113 
L 5691 0 
L 5113 0 
L 5113 2094 
Q 5113 2597 4934 2840 
Q 4756 3084 4391 3084 
Q 3944 3084 3684 2787 
Q 3425 2491 3425 1978 
L 3425 0 
L 2847 0 
L 2847 2094 
Q 2847 2600 2669 2842 
Q 2491 3084 2119 3084 
Q 1678 3084 1418 2786 
Q 1159 2488 1159 1978 
L 1159 0 
L 581 0 
L 581 3500 
L 1159 3500 
L 1159 2956 
Q 1356 3278 1631 3431 
Q 1906 3584 2284 3584 
Q 2666 3584 2933 3390 
Q 3200 3197 3328 2828 
z
" transform="scale(0.015625)"/>
      </defs>
      <use xlink:href="#DejaVuSans-4a"/>
      <use xlink:href="#DejaVuSans-75" transform="translate(29.492188 0)"/>
      <use xlink:href="#DejaVuSans-64" transform="translate(92.871094 0)"/>
      <use xlink:href="#DejaVuSans-67" transform="translate(156.347656 0)"/>
      <use xlink:href="#DejaVuSans-6d" transform="translate(219.824219 0)"/>
      <use xlink:href="#DejaVuSans-65" transform="translate(317.236328 0)"/>
      <use xlink:href="#DejaVuSans-6e" transform="translate(378.759766 0)"/>
      <use xlink:href="#DejaVuSans-74" transform="translate(442.138672 0)"/>
     </g>
    </g>
    <g id="patch_24">
     <path d="M 16 79.184219 
L 32 79.184219 
L 32 73.584219 
L 16 73.584219 
z
" style="fill: #ef7b45; stroke: #ef7b45; stroke-linejoin: miter"/>
    </g>
    <g id="text_11">
     <!-- Score -->
     <g transform="translate(38.4 79.184219) scale(0.08 -0.08)">
      <defs>
       <path id="DejaVuSans-53" d="M 3425 4513 
L 3425 3897 
Q 3066 4069 2747 4153 
Q 2428 4238 2131 4238 
Q 1616 4238 1336 4038 
Q 1056 3838 1056 3469 
Q 1056 3159 1242 3001 
Q 1428 2844 1947 2747 
L 2328 2669 
Q 3034 2534 3370 2195 
Q 3706 1856 3706 1288 
Q 3706 609 3251 259 
Q 2797 -91 1919 -91 
Q 1588 -91 1214 -16 
Q 841 59 441 206 
L 441 856 
Q 825 641 1194 531 
Q 1563 422 1919 422 
Q 2459 422 2753 634 
Q 3047 847 3047 1241 
Q 3047 1584 2836 1778 
Q 2625 1972 2144 2069 
L 1759 2144 
Q 1053 2284 737 2584 
Q 422 2884 422 3419 
Q 422 4038 858 4394 
Q 1294 4750 2059 4750 
Q 2388 4750 2728 4690 
Q 3069 4631 3425 4513 
z
" transform="scale(0.015625)"/>
      </defs>
      <use xlink:href="#DejaVuSans-53"/>
      <use xlink:href="#DejaVuSans-63" transform="translate(63.476562 0)"/>
      <use xlink:href="#DejaVuSans-6f" transform="translate(118.457031 0)"/>
      <use xlink:href="#DejaVuSans-72" transform="translate(179.638672 0)"/>
      <use xlink:href="#DejaVuSans-65" transform="translate(218.501953 0)"/>
     </g>
    </g>
   </g>
   <g id="text_12">
    <g id="patch_25">
     <path d="M 366.202332 135.730211 
L 419.224988 135.730211 
Q 420.274988 135.730211 420.274988 134.680211 
L 420.274988 127.421617 
Q 420.274988 126.371617 419.224988 126.371617 
L 366.202332 126.371617 
Q 365.152332 126.371617 365.152332 127.421617 
L 365.152332 134.680211 
Q 365.152332 135.730211 366.202332 135.730211 
z
" style="fill: #ffffff; opacity: 0.88"/>
    </g>
    <!-- User Question -->
    <g style="fill: #212529" transform="translate(366.202332 133.120445) scale(0.075 -0.075)">
     <defs>
      <path id="DejaVuSans-55" d="M 556 4666 
L 1191 4666 
L 1191 1831 
Q 1191 1081 1462 751 
Q 1734 422 2344 422 
Q 2950 422 3222 751 
Q 3494 1081 3494 1831 
L 3494 4666 
L 4128 4666 
L 4128 1753 
Q 4128 841 3676 375 
Q 3225 -91 2344 -91 
Q 1459 -91 1007 375 
Q 556 841 556 1753 
L 556 4666 
z
" transform="scale(0.015625)"/>
      <path id="DejaVuSans-51" d="M 2522 4238 
Q 1834 4238 1429 3725 
Q 1025 3213 1025 2328 
Q 1025 1447 1429 934 
Q 1834 422 2522 422 
Q 3209 422 3611 934 
Q 4013 1447 4013 2328 
Q 4013 3213 3611 3725 
Q 3209 4238 2522 4238 
z
M 3406 84 
L 4238 -825 
L 3475 -825 
L 2784 -78 
Q 2681 -84 2626 -87 
Q 2572 -91 2522 -91 
Q 1538 -91 948 567 
Q 359 1225 359 2328 
Q 359 3434 948 4092 
Q 1538 4750 2522 4750 
Q 3503 4750 4090 4092 
Q 4678 3434 4678 2328 
Q 4678 1516 4351 937 
Q 4025 359 3406 84 
z
" transform="scale(0.015625)"/>
     </defs>
     <use xlink:href="#DejaVuSans-55"/>
     <use xlink:href="#DejaVuSans-73" transform="translate(73.193359 0)"/>
     <use xlink:href="#DejaVuSans-65" transform="translate(125.292969 0)"/>
     <use xlink:href="#DejaVuSans-72" transform="translate(186.816406 0)"/>
     <use xlink:href="#DejaVuSans-20" transform="translate(227.929688 0)"/>
     <use xlink:href="#DejaVuSans-51" transform="translate(259.716797 0)"/>
     <use xlink:href="#DejaVuSans-75" transform="translate(338.427734 0)"/>
     <use xlink:href="#DejaVuSans-65" transform="translate(401.806641 0)"/>
     <use xlink:href="#DejaVuSans-73" transform="translate(463.330078 0)"/>
     <use xlink:href="#DejaVuSans-74" transform="translate(515.429688 0)"/>
     <use xlink:href="#DejaVuSans-69" transform="translate(554.638672 0)"/>
     <use xlink:href="#DejaVuSans-6f" transform="translate(582.421875 0)"/>
     <use xlink:href="#DejaVuSans-6e" transform="translate(643.603516 0)"/>
    </g>
   </g>
   <g id="text_13">
    <g id="patch_26">
     <path d="M 367.160772 396.534794 
L 432.161163 396.534794 
Q 433.211163 396.534794 433.211163 395.484794 
L 433.211163 388.226201 
Q 433.211163 387.176201 432.161163 387.176201 
L 367.160772 387.176201 
Q 366.110772 387.176201 366.110772 388.226201 
L 366.110772 395.484794 
Q 366.110772 396.534794 367.160772 396.534794 
z
" style="fill: #ffffff; opacity: 0.88"/>
    </g>
    <!-- Expected Answer -->
    <g style="fill: #212529" transform="translate(367.160772 393.925029) scale(0.075 -0.075)">
     <defs>
      <path id="DejaVuSans-45" d="M 628 4666 
L 3578 4666 
L 3578 4134 
L 1259 4134 
L 1259 2753 
L 3481 2753 
L 3481 2222 
L 1259 2222 
L 1259 531 
L 3634 531 
L 3634 0 
L 628 0 
L 628 4666 
z
" transform="scale(0.015625)"/>
      <path id="DejaVuSans-78" d="M 3513 3500 
L 2247 1797 
L 3578 0 
L 2900 0 
L 1881 1375 
L 863 0 
L 184 0 
L 1544 1831 
L 300 3500 
L 978 3500 
L 1906 2253 
L 2834 3500 
L 3513 3500 
z
" transform="scale(0.015625)"/>
      <path id="DejaVuSans-41" d="M 2188 4044 
L 1331 1722 
L 3047 1722 
L 2188 4044 
z
M 1831 4666 
L 2547 4666 
L 4325 0 
L 3669 0 
L 3244 1197 
L 1141 1197 
L 716 0 
L 50 0 
L 1831 4666 
z
" transform="scale(0.015625)"/>
     </defs>
     <use xlink:href="#DejaVuSans-45"/>
     <use xlink:href="#DejaVuSans-78" transform="translate(63.183594 0)"/>
     <use xlink:href="#DejaVuSans-70" transform="translate(122.363281 0)"/>
     <use xlink:href="#DejaVuSans-65" transform="translate(185.839844 0)"/>
     <use xlink:href="#DejaVuSans-63" transform="translate(247.363281 0)"/>
     <use xlink:href="#DejaVuSans-74" transform="translate(302.34375 0)"/>
     <use xlink:href="#DejaVuSans-65" transform="translate(341.552734 0)"/>
     <use xlink:href="#DejaVuSans-64" transform="translate(403.076172 0)"/>
     <use xlink:href="#DejaVuSans-20" transform="translate(466.552734 0)"/>
     <use xlink:href="#DejaVuSans-41" transform="translate(498.339844 0)"/>
     <use xlink:href="#DejaVuSans-6e" transform="translate(566.748047 0)"/>
     <use xlink:href="#DejaVuSans-73" transform="translate(630.126953 0)"/>
     <use xlink:href="#DejaVuSans-77" transform="translate(682.226562 0)"/>
     <use xlink:href="#DejaVuSans-65" transform="translate(764.013672 0)"/>
     <use xlink:href="#DejaVuSans-72" transform="translate(825.537109 0)"/>
    </g>
   </g>
   <g id="text_14">
    <g id="patch_27">
     <path d="M 294.593294 268.868204 
L 353.433138 268.868204 
Q 354.483138 268.868204 354.483138 267.818204 
L 354.483138 253.585958 
Q 354.483138 252.535958 353.433138 252.535958 
L 294.593294 252.535958 
Q 293.543294 252.535958 293.543294 253.585958 
L 293.543294 267.818204 
Q 293.543294 268.868204 294.593294 268.868204 
z
" style="fill: #ffffff; opacity: 0.88"/>
    </g>
    <!-- LLM Judge (per- -->
    <g style="fill: #212529" transform="translate(294.593294 259.284786) scale(0.075 -0.075)">
     <defs>
      <path id="DejaVuSans-4c" d="M 628 4666 
L 1259 4666 
L 1259 531 
L 3531 531 
L 3531 0 
L 628 0 
L 628 4666 
z
" transform="scale(0.015625)"/>
      <path id="DejaVuSans-4d" d="M 628 4666 
L 1569 4666 
L 2759 1491 
L 3956 4666 
L 4897 4666 
L 4897 0 
L 4281 0 
L 4281 4097 
L 3078 897 
L 2444 897 
L 1241 4097 
L 1241 0 
L 628 0 
L 628 4666 
z
" transform="scale(0.015625)"/>
      <path id="DejaVuSans-28" d="M 1984 4856 
Q 1566 4138 1362 3434 
Q 1159 2731 1159 2009 
Q 1159 1288 1364 580 
Q 1569 -128 1984 -844 
L 1484 -844 
Q 1016 -109 783 600 
Q 550 1309 550 2009 
Q 550 2706 781 3412 
Q 1013 4119 1484 4856 
L 1984 4856 
z
" transform="scale(0.015625)"/>
      <path id="DejaVuSans-2d" d="M 313 2009 
L 1997 2009 
L 1997 1497 
L 313 1497 
L 313 2009 
z
" transform="scale(0.015625)"/>
     </defs>
     <use xlink:href="#DejaVuSans-4c"/>
     <use xlink:href="#DejaVuSans-4c" transform="translate(55.712891 0)"/>
     <use xlink:href="#DejaVuSans-4d" transform="translate(111.425781 0)"/>
     <use xlink:href="#DejaVuSans-20" transform="translate(197.705078 0)"/>
     <use xlink:href="#DejaVuSans-4a" transform="translate(229.492188 0)"/>
     <use xlink:href="#DejaVuSans-75" transform="translate(258.984375 0)"/>
     <use xlink:href="#DejaVuSans-64" transform="translate(322.363281 0)"/>
     <use xlink:href="#DejaVuSans-67" transform="translate(385.839844 0)"/>
     <use xlink:href="#DejaVuSans-65" transform="translate(449.316406 0)"/>
     <use xlink:href="#DejaVuSans-20" transform="translate(510.839844 0)"/>
     <use xlink:href="#DejaVuSans-28" transform="translate(542.626953 0)"/>
     <use xlink:href="#DejaVuSans-70" transform="translate(581.640625 0)"/>
     <use xlink:href="#DejaVuSans-65" transform="translate(645.117188 0)"/>
     <use xlink:href="#DejaVuSans-72" transform="translate(706.640625 0)"/>
     <use xlink:href="#DejaVuSans-2d" transform="translate(741.378906 0)"/>
    </g>
    <!-- rank relevance) -->
    <g style="fill: #212529" transform="translate(294.593294 266.258438) scale(0.075 -0.075)">
     <defs>
      <path id="DejaVuSans-76" d="M 191 3500 
L 800 3500 
L 1894 563 
L 2988 3500 
L 3597 3500 
L 2284 0 
L 1503 0 
L 191 3500 
z
" transform="scale(0.015625)"/>
      <path id="DejaVuSans-29" d="M 513 4856 
L 1013 4856 
Q 1481 4119 1714 3412 
Q 1947 2706 1947 2009 
Q 1947 1309 1714 600 
Q 1481 -109 1013 -844 
L 513 -844 
Q 928 -128 1133 580 
Q 1338 1288 1338 2009 
Q 1338 2731 1133 3434 
Q 928 4138 513 4856 
z
" transform="scale(0.015625)"/>
     </defs>
     <use xlink:href="#DejaVuSans-72"/>
     <use xlink:href="#DejaVuSans-61" transform="translate(41.113281 0)"/>
     <use xlink:href="#DejaVuSans-6e" transform="translate(102.392578 0)"/>
     <use xlink:href="#DejaVuSans-6b" transform="translate(165.771484 0)"/>
     <use xlink:href="#DejaVuSans-20" transform="translate(223.681641 0)"/>
     <use xlink:href="#DejaVuSans-72" transform="translate(255.46875 0)"/>
     <use xlink:href="#DejaVuSans-65" transform="translate(294.332031 0)"/>
     <use xlink:href="#DejaVuSans-6c" transform="translate(355.855469 0)"/>
     <use xlink:href="#DejaVuSans-65" transform="translate(383.638672 0)"/>
     <use xlink:href="#DejaVuSans-76" transform="translate(445.162109 0)"/>
     <use xlink:href="#DejaVuSans-61" transform="translate(504.341797 0)"/>
     <use xlink:href="#DejaVuSans-6e" transform="translate(565.621094 0)"/>
     <use xlink:href="#DejaVuSans-63" transform="translate(629 0)"/>
     <use xlink:href="#DejaVuSans-65" transform="translate(683.980469 0)"/>
     <use xlink:href="#DejaVuSans-29" transform="translate(745.503906 0)"/>
    </g>
   </g>
   <g id="text_15">
    <g id="patch_28">
     <path d="M 78.980546 170.461098 
L 146.44539 170.461098 
Q 147.49539 170.461098 147.49539 169.411098 
L 147.49539 162.152505 
Q 147.49539 161.102505 146.44539 161.102505 
L 78.980546 161.102505 
Q 77.930546 161.102505 77.930546 162.152505 
L 77.930546 169.411098 
Q 77.930546 170.461098 78.980546 170.461098 
z
" style="fill: #ffffff; opacity: 0.88"/>
    </g>
    <!-- Top-ranked Chunk -->
    <g style="fill: #212529" transform="translate(78.980546 167.851333) scale(0.075 -0.075)">
     <defs>
      <path id="DejaVuSans-54" d="M -19 4666 
L 3928 4666 
L 3928 4134 
L 2272 4134 
L 2272 0 
L 1638 0 
L 1638 4134 
L -19 4134 
L -19 4666 
z
" transform="scale(0.015625)"/>
      <path id="DejaVuSans-43" d="M 4122 4306 
L 4122 3641 
Q 3803 3938 3442 4084 
Q 3081 4231 2675 4231 
Q 1875 4231 1450 3742 
Q 1025 3253 1025 2328 
Q 1025 1406 1450 917 
Q 1875 428 2675 428 
Q 3081 428 3442 575 
Q 3803 722 4122 1019 
L 4122 359 
Q 3791 134 3420 21 
Q 3050 -91 2638 -91 
Q 1578 -91 968 557 
Q 359 1206 359 2328 
Q 359 3453 968 4101 
Q 1578 4750 2638 4750 
Q 3056 4750 3426 4639 
Q 3797 4528 4122 4306 
z
" transform="scale(0.015625)"/>
     </defs>
     <use xlink:href="#DejaVuSans-54"/>
     <use xlink:href="#DejaVuSans-6f" transform="translate(44.083984 0)"/>
     <use xlink:href="#DejaVuSans-70" transform="translate(105.265625 0)"/>
     <use xlink:href="#DejaVuSans-2d" transform="translate(168.742188 0)"/>
     <use xlink:href="#DejaVuSans-72" transform="translate(204.826172 0)"/>
     <use xlink:href="#DejaVuSans-61" transform="translate(245.939453 0)"/>
     <use xlink:href="#DejaVuSans-6e" transform="translate(307.21875 0)"/>
     <use xlink:href="#DejaVuSans-6b" transform="translate(370.597656 0)"/>
     <use xlink:href="#DejaVuSans-65" transform="translate(424.882812 0)"/>
     <use xlink:href="#DejaVuSans-64" transform="translate(486.40625 0)"/>
     <use xlink:href="#DejaVuSans-20" transform="translate(549.882812 0)"/>
     <use xlink:href="#DejaVuSans-43" transform="translate(581.669922 0)"/>
     <use xlink:href="#DejaVuSans-68" transform="translate(651.494141 0)"/>
     <use xlink:href="#DejaVuSans-75" transform="translate(714.873047 0)"/>
     <use xlink:href="#DejaVuSans-6e" transform="translate(778.251953 0)"/>
     <use xlink:href="#DejaVuSans-6b" transform="translate(841.630859 0)"/>
    </g>
   </g>
   <g id="text_16">
    <g id="patch_29">
     <path d="M 96.57005 400.193515 
L 173.368878 400.193515 
Q 174.418878 400.193515 174.418878 399.143515 
L 174.418878 391.884921 
Q 174.418878 390.834921 173.368878 390.834921 
L 96.57005 390.834921 
Q 95.52005 390.834921 95.52005 391.884921 
L 95.52005 399.143515 
Q 95.52005 400.193515 96.57005 400.193515 
z
" style="fill: #ffffff; opacity: 0.88"/>
    </g>
    <!-- Lower-ranked Chunk -->
    <g style="fill: #212529" transform="translate(96.57005 397.583749) scale(0.075 -0.075)">
     <use xlink:href="#DejaVuSans-4c"/>
     <use xlink:href="#DejaVuSans-6f" transform="translate(53.962891 0)"/>
     <use xlink:href="#DejaVuSans-77" transform="translate(115.144531 0)"/>
     <use xlink:href="#DejaVuSans-65" transform="translate(196.931641 0)"/>
     <use xlink:href="#DejaVuSans-72" transform="translate(258.455078 0)"/>
     <use xlink:href="#DejaVuSans-2d" transform="translate(293.193359 0)"/>
     <use xlink:href="#DejaVuSans-72" transform="translate(329.277344 0)"/>
     <use xlink:href="#DejaVuSans-61" transform="translate(370.390625 0)"/>
     <use xlink:href="#DejaVuSans-6e" transform="translate(431.669922 0)"/>
     <use xlink:href="#DejaVuSans-6b" transform="translate(495.048828 0)"/>
     <use xlink:href="#DejaVuSans-65" transform="translate(549.333984 0)"/>
     <use xlink:href="#DejaVuSans-64" transform="translate(610.857422 0)"/>
     <use xlink:href="#DejaVuSans-20" transform="translate(674.333984 0)"/>
     <use xlink:href="#DejaVuSans-43" transform="translate(706.121094 0)"/>
     <use xlink:href="#DejaVuSans-68" transform="translate(775.945312 0)"/>
     <use xlink:href="#DejaVuSans-75" transform="translate(839.324219 0)"/>
     <use xlink:href="#DejaVuSans-6e" transform="translate(902.703125 0)"/>
     <use xlink:href="#DejaVuSans-6b" transform="translate(966.082031 0)"/>
    </g>
   </g>
   <g id="text_17">
    <g id="patch_30">
     <path d="M 51.289413 302.24644 
L 108.137069 302.24644 
Q 109.187069 302.24644 109.187069 301.19644 
L 109.187069 279.990542 
Q 109.187069 278.940542 108.137069 278.940542 
L 51.289413 278.940542 
Q 50.239413 278.940542 50.239413 279.990542 
L 50.239413 301.19644 
Q 50.239413 302.24644 51.289413 302.24644 
z
" style="fill: #ffffff; opacity: 0.88"/>
    </g>
    <!-- Precision Score -->
    <g style="fill: #212529" transform="translate(51.289413 285.68937) scale(0.075 -0.075)">
     <use xlink:href="#DejaVuSans-50"/>
     <use xlink:href="#DejaVuSans-72" transform="translate(58.552734 0)"/>
     <use xlink:href="#DejaVuSans-65" transform="translate(97.416016 0)"/>
     <use xlink:href="#DejaVuSans-63" transform="translate(158.939453 0)"/>
     <use xlink:href="#DejaVuSans-69" transform="translate(213.919922 0)"/>
     <use xlink:href="#DejaVuSans-73" transform="translate(241.703125 0)"/>
     <use xlink:href="#DejaVuSans-69" transform="translate(293.802734 0)"/>
     <use xlink:href="#DejaVuSans-6f" transform="translate(321.585938 0)"/>
     <use xlink:href="#DejaVuSans-6e" transform="translate(382.767578 0)"/>
     <use xlink:href="#DejaVuSans-20" transform="translate(446.146484 0)"/>
     <use xlink:href="#DejaVuSans-53" transform="translate(477.933594 0)"/>
     <use xlink:href="#DejaVuSans-63" transform="translate(541.410156 0)"/>
     <use xlink:href="#DejaVuSans-6f" transform="translate(596.390625 0)"/>
     <use xlink:href="#DejaVuSans-72" transform="translate(657.572266 0)"/>
     <use xlink:href="#DejaVuSans-65" transform="translate(696.435547 0)"/>
    </g>
    <!-- (higher rank = -->
    <g style="fill: #212529" transform="translate(53.334335 292.663022) scale(0.075 -0.075)">
     <defs>
      <path id="DejaVuSans-3d" d="M 678 2906 
L 4684 2906 
L 4684 2381 
L 678 2381 
L 678 2906 
z
M 678 1631 
L 4684 1631 
L 4684 1100 
L 678 1100 
L 678 1631 
z
" transform="scale(0.015625)"/>
     </defs>
     <use xlink:href="#DejaVuSans-28"/>
     <use xlink:href="#DejaVuSans-68" transform="translate(39.013672 0)"/>
     <use xlink:href="#DejaVuSans-69" transform="translate(102.392578 0)"/>
     <use xlink:href="#DejaVuSans-67" transform="translate(130.175781 0)"/>
     <use xlink:href="#DejaVuSans-68" transform="translate(193.652344 0)"/>
     <use xlink:href="#DejaVuSans-65" transform="translate(257.03125 0)"/>
     <use xlink:href="#DejaVuSans-72" transform="translate(318.554688 0)"/>
     <use xlink:href="#DejaVuSans-20" transform="translate(359.667969 0)"/>
     <use xlink:href="#DejaVuSans-72" transform="translate(391.455078 0)"/>
     <use xlink:href="#DejaVuSans-61" transform="translate(432.568359 0)"/>
     <use xlink:href="#DejaVuSans-6e" transform="translate(493.847656 0)"/>
     <use xlink:href="#DejaVuSans-6b" transform="translate(557.226562 0)"/>
     <use xlink:href="#DejaVuSans-20" transform="translate(615.136719 0)"/>
     <use xlink:href="#DejaVuSans-3d" transform="translate(646.923828 0)"/>
    </g>
    <!-- more weight) -->
    <g style="fill: #212529" transform="translate(58.116757 299.636674) scale(0.075 -0.075)">
     <use xlink:href="#DejaVuSans-6d"/>
     <use xlink:href="#DejaVuSans-6f" transform="translate(97.412109 0)"/>
     <use xlink:href="#DejaVuSans-72" transform="translate(158.59375 0)"/>
     <use xlink:href="#DejaVuSans-65" transform="translate(197.457031 0)"/>
     <use xlink:href="#DejaVuSans-20" transform="translate(258.980469 0)"/>
     <use xlink:href="#DejaVuSans-77" transform="translate(290.767578 0)"/>
     <use xlink:href="#DejaVuSans-65" transform="translate(372.554688 0)"/>
     <use xlink:href="#DejaVuSans-69" transform="translate(434.078125 0)"/>
     <use xlink:href="#DejaVuSans-67" transform="translate(461.861328 0)"/>
     <use xlink:href="#DejaVuSans-68" transform="translate(525.337891 0)"/>
     <use xlink:href="#DejaVuSans-74" transform="translate(588.716797 0)"/>
     <use xlink:href="#DejaVuSans-29" transform="translate(627.925781 0)"/>
    </g>
   </g>
  </g>
 </g>
 <defs>
  <clipPath id="p850b3c2485">
   <rect x="7.2" y="29.077969" width="465.696" height="465.696"/>
  </clipPath>
 </defs>
</svg>
