<?xml version="1.0" encoding="utf-8" standalone="no"?>
<!DOCTYPE svg PUBLIC "-//W3C//DTD SVG 1.1//EN"
  "http://www.w3.org/Graphics/SVG/1.1/DTD/svg11.dtd">
<svg xmlns:xlink="http://www.w3.org/1999/xlink" width="480.096pt" height="501.973969pt" viewBox="0 0 480.096 501.973969" xmlns="http://www.w3.org/2000/svg" version="1.1">
 <metadata>
  <rdf:RDF xmlns:dc="http://purl.org/dc/elements/1.1/" xmlns:cc="http://creativecommons.org/ns#" xmlns:rdf="http://www.w3.org/1999/02/22-rdf-syntax-ns#">
   <cc:Work>
    <dc:type rdf:resource="http://purl.org/dc/dcmitype/StillImage"/>
    <dc:date>2026-06-13T00:19:26.025355</dc:date>
    <dc:format>image/svg+xml</dc:format>
    <dc:creator>
     <cc:Agent>
      <dc:title>Matplotlib v3.10.9, https://matplotlib.org/</dc:title>
     </cc:Agent>
    </dc:creator>
   </cc:Work>
  </rdf:RDF>
 </metadata>
 <defs>
  <style type="text/css">*{stroke-linejoin: round; stroke-linecap: butt}</style>
 </defs>
 <g id="figure_1">
  <g id="patch_1">
   <path d="M 0 501.973969 
L 480.096 501.973969 
L 480.096 0 
L 0 0 
z
" style="fill: #ffffff"/>
  </g>
  <g id="axes_1">
   <g id="patch_2">
    <path d="M 350.212563 150.92368 
Q 302.4038 192.334002 255.524641 232.939131 
" clip-path="url(#p3630f5dab2)" style="fill: none; stroke: #9aa3b2; stroke-width: 1.1; stroke-linecap: round"/>
    <path d="M 260.724163 231.610606 
L 255.524641 232.939131 
L 257.581534 227.982399 
z
" clip-path="url(#p3630f5dab2)" style="fill: #9aa3b2; stroke: #9aa3b2; stroke-width: 1.1; stroke-linecap: round"/>
   </g>
   <g id="patch_3">
    <path d="M 349.832174 319.884328 
Q 302.49996 284.612402 256.153883 250.075346 
" clip-path="url(#p3630f5dab2)" style="fill: none; stroke: #9aa3b2; stroke-width: 1.1; stroke-linecap: round"/>
    <path d="M 258.568653 254.867932 
L 256.153883 250.075346 
L 261.436814 251.019081 
z
" clip-path="url(#p3630f5dab2)" style="fill: #9aa3b2; stroke: #9aa3b2; stroke-width: 1.1; stroke-linecap: round"/>
   </g>
   <g id="patch_4">
    <path d="M 264.037857 153.600705 
Q 255.910289 191.658337 248.039573 228.513252 
" clip-path="url(#p3630f5dab2)" style="fill: none; stroke: #9aa3b2; stroke-width: 1.1; stroke-linecap: round"/>
    <path d="M 251.389128 224.320343 
L 248.039573 228.513252 
L 246.694979 223.317863 
z
" clip-path="url(#p3630f5dab2)" style="fill: #9aa3b2; stroke: #9aa3b2; stroke-width: 1.1; stroke-linecap: round"/>
   </g>
   <g id="patch_5">
    <path d="M 135.530767 150.794241 
Q 185.565735 192.366352 234.654767 233.152521 
" clip-path="url(#p3630f5dab2)" style="fill: none; stroke: #9aa3b2; stroke-width: 1.1; stroke-linecap: round"/>
    <path d="M 232.496567 228.239052 
L 234.654767 233.152521 
L 229.429072 231.930999 
z
" clip-path="url(#p3630f5dab2)" style="fill: #9aa3b2; stroke: #9aa3b2; stroke-width: 1.1; stroke-linecap: round"/>
   </g>
   <g id="patch_6">
    <path d="M 242.984166 254.153556 
Q 232.688365 311.587954 222.609569 367.81181 
" clip-path="url(#p3630f5dab2)" style="fill: none; stroke: #9aa3b2; stroke-width: 1.1; stroke-linecap: round"/>
    <path d="M 225.818869 363.510602 
L 222.609569 367.81181 
L 221.094182 362.663645 
z
" clip-path="url(#p3630f5dab2)" style="fill: #9aa3b2; stroke: #9aa3b2; stroke-width: 1.1; stroke-linecap: round"/>
   </g>
   <g id="patch_7">
    <path d="M 233.588465 246.442581 
Q 183.017496 266.265917 133.591538 285.640419 
" clip-path="url(#p3630f5dab2)" style="fill: none; stroke: #9aa3b2; stroke-width: 1.1; stroke-linecap: round"/>
    <path d="M 138.93635 286.123105 
L 133.591538 285.640419 
L 137.184574 281.654181 
z
" clip-path="url(#p3630f5dab2)" style="fill: #9aa3b2; stroke: #9aa3b2; stroke-width: 1.1; stroke-linecap: round"/>
   </g>
   <g id="patch_8">
    <path d="M 211.24729 378.349969 
Q 172.172726 378.349969 134.327999 378.349969 
" clip-path="url(#p3630f5dab2)" style="fill: none; stroke: #9aa3b2; stroke-width: 1.1; stroke-linecap: round"/>
    <path d="M 139.127999 380.749969 
L 134.327999 378.349969 
L 139.127999 375.949969 
z
" clip-path="url(#p3630f5dab2)" style="fill: #9aa3b2; stroke: #9aa3b2; stroke-width: 1.1; stroke-linecap: round"/>
   </g>
   <g id="patch_9">
    <path d="M 123.624 299.019165 
Q 123.624 333.946701 123.624 367.6444 
" clip-path="url(#p3630f5dab2)" style="fill: none; stroke: #9aa3b2; stroke-width: 1.1; stroke-linecap: round"/>
    <path d="M 126.024 362.8444 
L 123.624 367.6444 
L 121.224 362.8444 
z
" clip-path="url(#p3630f5dab2)" style="fill: #9aa3b2; stroke: #9aa3b2; stroke-width: 1.1; stroke-linecap: round"/>
   </g>
   <g id="text_1">
    <g id="patch_10">
     <path d="M 278.088756 214.571056 
L 306.170787 214.571056 
Q 306.950787 214.571056 306.950787 213.791056 
L 306.950787 207.500274 
Q 306.950787 206.720274 306.170787 206.720274 
L 278.088756 206.720274 
Q 277.308756 206.720274 277.308756 207.500274 
L 277.308756 213.791056 
Q 277.308756 214.571056 278.088756 214.571056 
z
" style="fill: #ffffff; opacity: 0.9"/>
    </g>
    <!-- question -->
    <g style="fill: #475569" transform="translate(278.088756 212.439259) scale(0.065 -0.065)">
     <defs>
      <path id="DejaVuSans-71" d="M 947 1747 
Q 947 1113 1208 752 
Q 1469 391 1925 391 
Q 2381 391 2643 752 
Q 2906 1113 2906 1747 
Q 2906 2381 2643 2742 
Q 2381 3103 1925 3103 
Q 1469 3103 1208 2742 
Q 947 2381 947 1747 
z
M 2906 525 
Q 2725 213 2448 61 
Q 2172 -91 1784 -91 
Q 1150 -91 751 415 
Q 353 922 353 1747 
Q 353 2572 751 3078 
Q 1150 3584 1784 3584 
Q 2172 3584 2448 3432 
Q 2725 3281 2906 2969 
L 2906 3500 
L 3481 3500 
L 3481 -1331 
L 2906 -1331 
L 2906 525 
z
" transform="scale(0.015625)"/>
      <path id="DejaVuSans-75" d="M 544 1381 
L 544 3500 
L 1119 3500 
L 1119 1403 
Q 1119 906 1312 657 
Q 1506 409 1894 409 
Q 2359 409 2629 706 
Q 2900 1003 2900 1516 
L 2900 3500 
L 3475 3500 
L 3475 0 
L 2900 0 
L 2900 538 
Q 2691 219 2414 64 
Q 2138 -91 1772 -91 
Q 1169 -91 856 284 
Q 544 659 544 1381 
z
M 1991 3584 
L 1991 3584 
z
" transform="scale(0.015625)"/>
      <path id="DejaVuSans-65" d="M 3597 1894 
L 3597 1613 
L 953 1613 
Q 991 1019 1311 708 
Q 1631 397 2203 397 
Q 2534 397 2845 478 
Q 3156 559 3463 722 
L 3463 178 
Q 3153 47 2828 -22 
Q 2503 -91 2169 -91 
Q 1331 -91 842 396 
Q 353 884 353 1716 
Q 353 2575 817 3079 
Q 1281 3584 2069 3584 
Q 2775 3584 3186 3129 
Q 3597 2675 3597 1894 
z
M 3022 2063 
Q 3016 2534 2758 2815 
Q 2500 3097 2075 3097 
Q 1594 3097 1305 2825 
Q 1016 2553 972 2059 
L 3022 2063 
z
" transform="scale(0.015625)"/>
      <path id="DejaVuSans-73" d="M 2834 3397 
L 2834 2853 
Q 2591 2978 2328 3040 
Q 2066 3103 1784 3103 
Q 1356 3103 1142 2972 
Q 928 2841 928 2578 
Q 928 2378 1081 2264 
Q 1234 2150 1697 2047 
L 1894 2003 
Q 2506 1872 2764 1633 
Q 3022 1394 3022 966 
Q 3022 478 2636 193 
Q 2250 -91 1575 -91 
Q 1294 -91 989 -36 
Q 684 19 347 128 
L 347 722 
Q 666 556 975 473 
Q 1284 391 1588 391 
Q 1994 391 2212 530 
Q 2431 669 2431 922 
Q 2431 1156 2273 1281 
Q 2116 1406 1581 1522 
L 1381 1569 
Q 847 1681 609 1914 
Q 372 2147 372 2553 
Q 372 3047 722 3315 
Q 1072 3584 1716 3584 
Q 2034 3584 2315 3537 
Q 2597 3491 2834 3397 
z
" transform="scale(0.015625)"/>
      <path id="DejaVuSans-74" d="M 1172 4494 
L 1172 3500 
L 2356 3500 
L 2356 3053 
L 1172 3053 
L 1172 1153 
Q 1172 725 1289 603 
Q 1406 481 1766 481 
L 2356 481 
L 2356 0 
L 1766 0 
Q 1100 0 847 248 
Q 594 497 594 1153 
L 594 3053 
L 172 3053 
L 172 3500 
L 594 3500 
L 594 4494 
L 1172 4494 
z
" transform="scale(0.015625)"/>
      <path id="DejaVuSans-69" d="M 603 3500 
L 1178 3500 
L 1178 0 
L 603 0 
L 603 3500 
z
M 603 4863 
L 1178 4863 
L 1178 4134 
L 603 4134 
L 603 4863 
z
" transform="scale(0.015625)"/>
      <path id="DejaVuSans-6f" d="M 1959 3097 
Q 1497 3097 1228 2736 
Q 959 2375 959 1747 
Q 959 1119 1226 758 
Q 1494 397 1959 397 
Q 2419 397 2687 759 
Q 2956 1122 2956 1747 
Q 2956 2369 2687 2733 
Q 2419 3097 1959 3097 
z
M 1959 3584 
Q 2709 3584 3137 3096 
Q 3566 2609 3566 1747 
Q 3566 888 3137 398 
Q 2709 -91 1959 -91 
Q 1206 -91 779 398 
Q 353 888 353 1747 
Q 353 2609 779 3096 
Q 1206 3584 1959 3584 
z
" transform="scale(0.015625)"/>
      <path id="DejaVuSans-6e" d="M 3513 2113 
L 3513 0 
L 2938 0 
L 2938 2094 
Q 2938 2591 2744 2837 
Q 2550 3084 2163 3084 
Q 1697 3084 1428 2787 
Q 1159 2491 1159 1978 
L 1159 0 
L 581 0 
L 581 3500 
L 1159 3500 
L 1159 2956 
Q 1366 3272 1645 3428 
Q 1925 3584 2291 3584 
Q 2894 3584 3203 3211 
Q 3513 2838 3513 2113 
z
" transform="scale(0.015625)"/>
     </defs>
     <use xlink:href="#DejaVuSans-71"/>
     <use xlink:href="#DejaVuSans-75" transform="translate(63.476562 0)"/>
     <use xlink:href="#DejaVuSans-65" transform="translate(126.855469 0)"/>
     <use xlink:href="#DejaVuSans-73" transform="translate(188.378906 0)"/>
     <use xlink:href="#DejaVuSans-74" transform="translate(240.478516 0)"/>
     <use xlink:href="#DejaVuSans-69" transform="translate(279.6875 0)"/>
     <use xlink:href="#DejaVuSans-6f" transform="translate(307.470703 0)"/>
     <use xlink:href="#DejaVuSans-6e" transform="translate(368.652344 0)"/>
    </g>
   </g>
   <g id="text_2">
    <g id="patch_11">
     <path d="M 269.077193 283.04364 
L 297.363365 283.04364 
Q 298.143365 283.04364 298.143365 282.26364 
L 298.143365 275.972858 
Q 298.143365 275.192858 297.363365 275.192858 
L 269.077193 275.192858 
Q 268.297193 275.192858 268.297193 275.972858 
L 268.297193 282.26364 
Q 268.297193 283.04364 269.077193 283.04364 
z
" style="fill: #ffffff; opacity: 0.9"/>
    </g>
    <!-- evaluate -->
    <g style="fill: #475569" transform="translate(269.077193 280.911843) scale(0.065 -0.065)">
     <defs>
      <path id="DejaVuSans-76" d="M 191 3500 
L 800 3500 
L 1894 563 
L 2988 3500 
L 3597 3500 
L 2284 0 
L 1503 0 
L 191 3500 
z
" transform="scale(0.015625)"/>
      <path id="DejaVuSans-61" d="M 2194 1759 
Q 1497 1759 1228 1600 
Q 959 1441 959 1056 
Q 959 750 1161 570 
Q 1363 391 1709 391 
Q 2188 391 2477 730 
Q 2766 1069 2766 1631 
L 2766 1759 
L 2194 1759 
z
M 3341 1997 
L 3341 0 
L 2766 0 
L 2766 531 
Q 2569 213 2275 61 
Q 1981 -91 1556 -91 
Q 1019 -91 701 211 
Q 384 513 384 1019 
Q 384 1609 779 1909 
Q 1175 2209 1959 2209 
L 2766 2209 
L 2766 2266 
Q 2766 2663 2505 2880 
Q 2244 3097 1772 3097 
Q 1472 3097 1187 3025 
Q 903 2953 641 2809 
L 641 3341 
Q 956 3463 1253 3523 
Q 1550 3584 1831 3584 
Q 2591 3584 2966 3190 
Q 3341 2797 3341 1997 
z
" transform="scale(0.015625)"/>
      <path id="DejaVuSans-6c" d="M 603 4863 
L 1178 4863 
L 1178 0 
L 603 0 
L 603 4863 
z
" transform="scale(0.015625)"/>
     </defs>
     <use xlink:href="#DejaVuSans-65"/>
     <use xlink:href="#DejaVuSans-76" transform="translate(61.523438 0)"/>
     <use xlink:href="#DejaVuSans-61" transform="translate(120.703125 0)"/>
     <use xlink:href="#DejaVuSans-6c" transform="translate(181.982422 0)"/>
     <use xlink:href="#DejaVuSans-75" transform="translate(209.765625 0)"/>
     <use xlink:href="#DejaVuSans-61" transform="translate(273.144531 0)"/>
     <use xlink:href="#DejaVuSans-74" transform="translate(334.423828 0)"/>
     <use xlink:href="#DejaVuSans-65" transform="translate(373.632812 0)"/>
    </g>
   </g>
   <g id="text_3">
    <g id="patch_12">
     <path d="M 245.818685 210.679072 
L 274.104857 210.679072 
Q 274.884857 210.679072 274.884857 209.899072 
L 274.884857 203.608291 
Q 274.884857 202.828291 274.104857 202.828291 
L 245.818685 202.828291 
Q 245.038685 202.828291 245.038685 203.608291 
L 245.038685 209.899072 
Q 245.038685 210.679072 245.818685 210.679072 
z
" style="fill: #ffffff; opacity: 0.9"/>
    </g>
    <!-- evaluate -->
    <g style="fill: #475569" transform="translate(245.818685 208.547275) scale(0.065 -0.065)">
     <use xlink:href="#DejaVuSans-65"/>
     <use xlink:href="#DejaVuSans-76" transform="translate(61.523438 0)"/>
     <use xlink:href="#DejaVuSans-61" transform="translate(120.703125 0)"/>
     <use xlink:href="#DejaVuSans-6c" transform="translate(181.982422 0)"/>
     <use xlink:href="#DejaVuSans-75" transform="translate(209.765625 0)"/>
     <use xlink:href="#DejaVuSans-61" transform="translate(273.144531 0)"/>
     <use xlink:href="#DejaVuSans-74" transform="translate(334.423828 0)"/>
     <use xlink:href="#DejaVuSans-65" transform="translate(373.632812 0)"/>
    </g>
   </g>
   <g id="text_4">
    <g id="patch_13">
     <path d="M 191.497194 203.720758 
L 219.783366 203.720758 
Q 220.563366 203.720758 220.563366 202.940758 
L 220.563366 196.649977 
Q 220.563366 195.869977 219.783366 195.869977 
L 191.497194 195.869977 
Q 190.717194 195.869977 190.717194 196.649977 
L 190.717194 202.940758 
Q 190.717194 203.720758 191.497194 203.720758 
z
" style="fill: #ffffff; opacity: 0.9"/>
    </g>
    <!-- evaluate -->
    <g style="fill: #475569" transform="translate(191.497194 201.588961) scale(0.065 -0.065)">
     <use xlink:href="#DejaVuSans-65"/>
     <use xlink:href="#DejaVuSans-76" transform="translate(61.523438 0)"/>
     <use xlink:href="#DejaVuSans-61" transform="translate(120.703125 0)"/>
     <use xlink:href="#DejaVuSans-6c" transform="translate(181.982422 0)"/>
     <use xlink:href="#DejaVuSans-75" transform="translate(209.765625 0)"/>
     <use xlink:href="#DejaVuSans-61" transform="translate(273.144531 0)"/>
     <use xlink:href="#DejaVuSans-74" transform="translate(334.423828 0)"/>
     <use xlink:href="#DejaVuSans-65" transform="translate(373.632812 0)"/>
    </g>
   </g>
   <g id="text_5">
    <g id="patch_14">
     <path d="M 223.79624 331.679164 
L 250.241084 331.679164 
Q 251.021084 331.679164 251.021084 330.899164 
L 251.021084 324.608383 
Q 251.021084 323.828383 250.241084 323.828383 
L 223.79624 323.828383 
Q 223.01624 323.828383 223.01624 324.608383 
L 223.01624 330.899164 
Q 223.01624 331.679164 223.79624 331.679164 
z
" style="fill: #ffffff; opacity: 0.9"/>
    </g>
    <!-- extracts -->
    <g style="fill: #475569" transform="translate(223.79624 329.547367) scale(0.065 -0.065)">
     <defs>
      <path id="DejaVuSans-78" d="M 3513 3500 
L 2247 1797 
L 3578 0 
L 2900 0 
L 1881 1375 
L 863 0 
L 184 0 
L 1544 1831 
L 300 3500 
L 978 3500 
L 1906 2253 
L 2834 3500 
L 3513 3500 
z
" transform="scale(0.015625)"/>
      <path id="DejaVuSans-72" d="M 2631 2963 
Q 2534 3019 2420 3045 
Q 2306 3072 2169 3072 
Q 1681 3072 1420 2755 
Q 1159 2438 1159 1844 
L 1159 0 
L 581 0 
L 581 3500 
L 1159 3500 
L 1159 2956 
Q 1341 3275 1631 3429 
Q 1922 3584 2338 3584 
Q 2397 3584 2469 3576 
Q 2541 3569 2628 3553 
L 2631 2963 
z
" transform="scale(0.015625)"/>
      <path id="DejaVuSans-63" d="M 3122 3366 
L 3122 2828 
Q 2878 2963 2633 3030 
Q 2388 3097 2138 3097 
Q 1578 3097 1268 2742 
Q 959 2388 959 1747 
Q 959 1106 1268 751 
Q 1578 397 2138 397 
Q 2388 397 2633 464 
Q 2878 531 3122 666 
L 3122 134 
Q 2881 22 2623 -34 
Q 2366 -91 2075 -91 
Q 1284 -91 818 406 
Q 353 903 353 1747 
Q 353 2603 823 3093 
Q 1294 3584 2113 3584 
Q 2378 3584 2631 3529 
Q 2884 3475 3122 3366 
z
" transform="scale(0.015625)"/>
     </defs>
     <use xlink:href="#DejaVuSans-65"/>
     <use xlink:href="#DejaVuSans-78" transform="translate(59.773438 0)"/>
     <use xlink:href="#DejaVuSans-74" transform="translate(118.953125 0)"/>
     <use xlink:href="#DejaVuSans-72" transform="translate(158.162109 0)"/>
     <use xlink:href="#DejaVuSans-61" transform="translate(199.275391 0)"/>
     <use xlink:href="#DejaVuSans-63" transform="translate(260.554688 0)"/>
     <use xlink:href="#DejaVuSans-74" transform="translate(315.535156 0)"/>
     <use xlink:href="#DejaVuSans-73" transform="translate(354.744141 0)"/>
    </g>
   </g>
   <g id="text_6">
    <g id="patch_15">
     <path d="M 159.189826 281.990356 
L 185.634669 281.990356 
Q 186.414669 281.990356 186.414669 281.210356 
L 186.414669 274.919575 
Q 186.414669 274.139575 185.634669 274.139575 
L 159.189826 274.139575 
Q 158.409826 274.139575 158.409826 274.919575 
L 158.409826 281.210356 
Q 158.409826 281.990356 159.189826 281.990356 
z
" style="fill: #ffffff; opacity: 0.9"/>
    </g>
    <!-- extracts -->
    <g style="fill: #475569" transform="translate(159.189826 279.858559) scale(0.065 -0.065)">
     <use xlink:href="#DejaVuSans-65"/>
     <use xlink:href="#DejaVuSans-78" transform="translate(59.773438 0)"/>
     <use xlink:href="#DejaVuSans-74" transform="translate(118.953125 0)"/>
     <use xlink:href="#DejaVuSans-72" transform="translate(158.162109 0)"/>
     <use xlink:href="#DejaVuSans-61" transform="translate(199.275391 0)"/>
     <use xlink:href="#DejaVuSans-63" transform="translate(260.554688 0)"/>
     <use xlink:href="#DejaVuSans-74" transform="translate(315.535156 0)"/>
     <use xlink:href="#DejaVuSans-73" transform="translate(354.744141 0)"/>
    </g>
   </g>
   <g id="text_7">
    <g id="patch_16">
     <path d="M 157.797263 389.390159 
L 163.24406 389.390159 
Q 164.02406 389.390159 164.02406 388.610159 
L 164.02406 382.319378 
Q 164.02406 381.539378 163.24406 381.539378 
L 157.797263 381.539378 
Q 157.017263 381.539378 157.017263 382.319378 
L 157.017263 388.610159 
Q 157.017263 389.390159 157.797263 389.390159 
z
" style="fill: #ffffff; opacity: 0.9"/>
    </g>
    <!-- → -->
    <g style="fill: #475569" transform="translate(157.797263 387.258363) scale(0.065 -0.065)">
     <defs>
      <path id="DejaVuSans-2192" d="M 5050 2147 
L 5050 1866 
L 3822 638 
L 3447 1013 
L 4175 1741 
L 366 1741 
L 366 2272 
L 4175 2272 
L 3447 3000 
L 3822 3375 
L 5050 2147 
z
" transform="scale(0.015625)"/>
     </defs>
     <use xlink:href="#DejaVuSans-2192"/>
    </g>
   </g>
   <g id="text_8">
    <g id="patch_17">
     <path d="M 128.015402 348.530459 
L 133.462198 348.530459 
Q 134.242198 348.530459 134.242198 347.750459 
L 134.242198 341.459677 
Q 134.242198 340.679677 133.462198 340.679677 
L 128.015402 340.679677 
Q 127.235402 340.679677 127.235402 341.459677 
L 127.235402 347.750459 
Q 127.235402 348.530459 128.015402 348.530459 
z
" style="fill: #ffffff; opacity: 0.9"/>
    </g>
    <!-- → -->
    <g style="fill: #475569" transform="translate(128.015402 346.398662) scale(0.065 -0.065)">
     <use xlink:href="#DejaVuSans-2192"/>
    </g>
   </g>
   <g id="text_9">
    <!-- Contextual Relevancy — How DeepEval Scores It -->
    <g transform="translate(62.58175 17.077969) scale(0.13 -0.13)">
     <defs>
      <path id="DejaVuSans-Bold-43" d="M 4288 256 
Q 3956 84 3597 -3 
Q 3238 -91 2847 -91 
Q 1681 -91 1000 561 
Q 319 1213 319 2328 
Q 319 3447 1000 4098 
Q 1681 4750 2847 4750 
Q 3238 4750 3597 4662 
Q 3956 4575 4288 4403 
L 4288 3438 
Q 3953 3666 3628 3772 
Q 3303 3878 2944 3878 
Q 2300 3878 1931 3465 
Q 1563 3053 1563 2328 
Q 1563 1606 1931 1193 
Q 2300 781 2944 781 
Q 3303 781 3628 887 
Q 3953 994 4288 1222 
L 4288 256 
z
" transform="scale(0.015625)"/>
      <path id="DejaVuSans-Bold-6f" d="M 2203 2784 
Q 1831 2784 1636 2517 
Q 1441 2250 1441 1747 
Q 1441 1244 1636 976 
Q 1831 709 2203 709 
Q 2569 709 2762 976 
Q 2956 1244 2956 1747 
Q 2956 2250 2762 2517 
Q 2569 2784 2203 2784 
z
M 2203 3584 
Q 3106 3584 3614 3096 
Q 4122 2609 4122 1747 
Q 4122 884 3614 396 
Q 3106 -91 2203 -91 
Q 1297 -91 786 396 
Q 275 884 275 1747 
Q 275 2609 786 3096 
Q 1297 3584 2203 3584 
z
" transform="scale(0.015625)"/>
      <path id="DejaVuSans-Bold-6e" d="M 4056 2131 
L 4056 0 
L 2931 0 
L 2931 347 
L 2931 1631 
Q 2931 2084 2911 2256 
Q 2891 2428 2841 2509 
Q 2775 2619 2662 2680 
Q 2550 2741 2406 2741 
Q 2056 2741 1856 2470 
Q 1656 2200 1656 1722 
L 1656 0 
L 538 0 
L 538 3500 
L 1656 3500 
L 1656 2988 
Q 1909 3294 2193 3439 
Q 2478 3584 2822 3584 
Q 3428 3584 3742 3212 
Q 4056 2841 4056 2131 
z
" transform="scale(0.015625)"/>
      <path id="DejaVuSans-Bold-74" d="M 1759 4494 
L 1759 3500 
L 2913 3500 
L 2913 2700 
L 1759 2700 
L 1759 1216 
Q 1759 972 1856 886 
Q 1953 800 2241 800 
L 2816 800 
L 2816 0 
L 1856 0 
Q 1194 0 917 276 
Q 641 553 641 1216 
L 641 2700 
L 84 2700 
L 84 3500 
L 641 3500 
L 641 4494 
L 1759 4494 
z
" transform="scale(0.015625)"/>
      <path id="DejaVuSans-Bold-65" d="M 4031 1759 
L 4031 1441 
L 1416 1441 
Q 1456 1047 1700 850 
Q 1944 653 2381 653 
Q 2734 653 3104 758 
Q 3475 863 3866 1075 
L 3866 213 
Q 3469 63 3072 -14 
Q 2675 -91 2278 -91 
Q 1328 -91 801 392 
Q 275 875 275 1747 
Q 275 2603 792 3093 
Q 1309 3584 2216 3584 
Q 3041 3584 3536 3087 
Q 4031 2591 4031 1759 
z
M 2881 2131 
Q 2881 2450 2695 2645 
Q 2509 2841 2209 2841 
Q 1884 2841 1681 2658 
Q 1478 2475 1428 2131 
L 2881 2131 
z
" transform="scale(0.015625)"/>
      <path id="DejaVuSans-Bold-78" d="M 1422 1791 
L 159 3500 
L 1344 3500 
L 2059 2463 
L 2784 3500 
L 3969 3500 
L 2706 1797 
L 4031 0 
L 2847 0 
L 2059 1106 
L 1281 0 
L 97 0 
L 1422 1791 
z
" transform="scale(0.015625)"/>
      <path id="DejaVuSans-Bold-75" d="M 500 1363 
L 500 3500 
L 1625 3500 
L 1625 3150 
Q 1625 2866 1622 2436 
Q 1619 2006 1619 1863 
Q 1619 1441 1641 1255 
Q 1663 1069 1716 984 
Q 1784 875 1895 815 
Q 2006 756 2150 756 
Q 2500 756 2700 1025 
Q 2900 1294 2900 1772 
L 2900 3500 
L 4019 3500 
L 4019 0 
L 2900 0 
L 2900 506 
Q 2647 200 2364 54 
Q 2081 -91 1741 -91 
Q 1134 -91 817 281 
Q 500 653 500 1363 
z
" transform="scale(0.015625)"/>
      <path id="DejaVuSans-Bold-61" d="M 2106 1575 
Q 1756 1575 1579 1456 
Q 1403 1338 1403 1106 
Q 1403 894 1545 773 
Q 1688 653 1941 653 
Q 2256 653 2472 879 
Q 2688 1106 2688 1447 
L 2688 1575 
L 2106 1575 
z
M 3816 1997 
L 3816 0 
L 2688 0 
L 2688 519 
Q 2463 200 2181 54 
Q 1900 -91 1497 -91 
Q 953 -91 614 226 
Q 275 544 275 1050 
Q 275 1666 698 1953 
Q 1122 2241 2028 2241 
L 2688 2241 
L 2688 2328 
Q 2688 2594 2478 2717 
Q 2269 2841 1825 2841 
Q 1466 2841 1156 2769 
Q 847 2697 581 2553 
L 581 3406 
Q 941 3494 1303 3539 
Q 1666 3584 2028 3584 
Q 2975 3584 3395 3211 
Q 3816 2838 3816 1997 
z
" transform="scale(0.015625)"/>
      <path id="DejaVuSans-Bold-6c" d="M 538 4863 
L 1656 4863 
L 1656 0 
L 538 0 
L 538 4863 
z
" transform="scale(0.015625)"/>
      <path id="DejaVuSans-Bold-20" transform="scale(0.015625)"/>
      <path id="DejaVuSans-Bold-52" d="M 2297 2597 
Q 2675 2597 2839 2737 
Q 3003 2878 3003 3200 
Q 3003 3519 2839 3656 
Q 2675 3794 2297 3794 
L 1791 3794 
L 1791 2597 
L 2297 2597 
z
M 1791 1766 
L 1791 0 
L 588 0 
L 588 4666 
L 2425 4666 
Q 3347 4666 3776 4356 
Q 4206 4047 4206 3378 
Q 4206 2916 3982 2619 
Q 3759 2322 3309 2181 
Q 3556 2125 3751 1926 
Q 3947 1728 4147 1325 
L 4800 0 
L 3519 0 
L 2950 1159 
Q 2778 1509 2601 1637 
Q 2425 1766 2131 1766 
L 1791 1766 
z
" transform="scale(0.015625)"/>
      <path id="DejaVuSans-Bold-76" d="M 97 3500 
L 1216 3500 
L 2088 1081 
L 2956 3500 
L 4078 3500 
L 2700 0 
L 1472 0 
L 97 3500 
z
" transform="scale(0.015625)"/>
      <path id="DejaVuSans-Bold-63" d="M 3366 3391 
L 3366 2478 
Q 3138 2634 2908 2709 
Q 2678 2784 2431 2784 
Q 1963 2784 1702 2511 
Q 1441 2238 1441 1747 
Q 1441 1256 1702 982 
Q 1963 709 2431 709 
Q 2694 709 2930 787 
Q 3166 866 3366 1019 
L 3366 103 
Q 3103 6 2833 -42 
Q 2563 -91 2291 -91 
Q 1344 -91 809 395 
Q 275 881 275 1747 
Q 275 2613 809 3098 
Q 1344 3584 2291 3584 
Q 2566 3584 2833 3536 
Q 3100 3488 3366 3391 
z
" transform="scale(0.015625)"/>
      <path id="DejaVuSans-Bold-79" d="M 78 3500 
L 1197 3500 
L 2138 1125 
L 2938 3500 
L 4056 3500 
L 2584 -331 
Q 2363 -916 2067 -1148 
Q 1772 -1381 1288 -1381 
L 641 -1381 
L 641 -647 
L 991 -647 
Q 1275 -647 1404 -556 
Q 1534 -466 1606 -231 
L 1638 -134 
L 78 3500 
z
" transform="scale(0.015625)"/>
      <path id="DejaVuSans-Bold-2014" d="M 344 2156 
L 6056 2156 
L 6056 1350 
L 344 1350 
L 344 2156 
z
" transform="scale(0.015625)"/>
      <path id="DejaVuSans-Bold-48" d="M 588 4666 
L 1791 4666 
L 1791 2888 
L 3566 2888 
L 3566 4666 
L 4769 4666 
L 4769 0 
L 3566 0 
L 3566 1978 
L 1791 1978 
L 1791 0 
L 588 0 
L 588 4666 
z
" transform="scale(0.015625)"/>
      <path id="DejaVuSans-Bold-77" d="M 225 3500 
L 1313 3500 
L 1900 1088 
L 2491 3500 
L 3425 3500 
L 4013 1113 
L 4603 3500 
L 5691 3500 
L 4769 0 
L 3547 0 
L 2956 2406 
L 2369 0 
L 1147 0 
L 225 3500 
z
" transform="scale(0.015625)"/>
      <path id="DejaVuSans-Bold-44" d="M 1791 3756 
L 1791 909 
L 2222 909 
Q 2959 909 3348 1275 
Q 3738 1641 3738 2338 
Q 3738 3031 3350 3393 
Q 2963 3756 2222 3756 
L 1791 3756 
z
M 588 4666 
L 1856 4666 
Q 2919 4666 3439 4514 
Q 3959 4363 4331 4000 
Q 4659 3684 4818 3271 
Q 4978 2859 4978 2338 
Q 4978 1809 4818 1395 
Q 4659 981 4331 666 
Q 3956 303 3431 151 
Q 2906 0 1856 0 
L 588 0 
L 588 4666 
z
" transform="scale(0.015625)"/>
      <path id="DejaVuSans-Bold-70" d="M 1656 506 
L 1656 -1331 
L 538 -1331 
L 538 3500 
L 1656 3500 
L 1656 2988 
Q 1888 3294 2169 3439 
Q 2450 3584 2816 3584 
Q 3463 3584 3878 3070 
Q 4294 2556 4294 1747 
Q 4294 938 3878 423 
Q 3463 -91 2816 -91 
Q 2450 -91 2169 54 
Q 1888 200 1656 506 
z
M 2400 2772 
Q 2041 2772 1848 2508 
Q 1656 2244 1656 1747 
Q 1656 1250 1848 986 
Q 2041 722 2400 722 
Q 2759 722 2948 984 
Q 3138 1247 3138 1747 
Q 3138 2247 2948 2509 
Q 2759 2772 2400 2772 
z
" transform="scale(0.015625)"/>
      <path id="DejaVuSans-Bold-45" d="M 588 4666 
L 3834 4666 
L 3834 3756 
L 1791 3756 
L 1791 2888 
L 3713 2888 
L 3713 1978 
L 1791 1978 
L 1791 909 
L 3903 909 
L 3903 0 
L 588 0 
L 588 4666 
z
" transform="scale(0.015625)"/>
      <path id="DejaVuSans-Bold-53" d="M 3834 4519 
L 3834 3531 
Q 3450 3703 3084 3790 
Q 2719 3878 2394 3878 
Q 1963 3878 1756 3759 
Q 1550 3641 1550 3391 
Q 1550 3203 1689 3098 
Q 1828 2994 2194 2919 
L 2706 2816 
Q 3484 2659 3812 2340 
Q 4141 2022 4141 1434 
Q 4141 663 3683 286 
Q 3225 -91 2284 -91 
Q 1841 -91 1394 -6 
Q 947 78 500 244 
L 500 1259 
Q 947 1022 1364 901 
Q 1781 781 2169 781 
Q 2563 781 2772 912 
Q 2981 1044 2981 1288 
Q 2981 1506 2839 1625 
Q 2697 1744 2272 1838 
L 1806 1941 
Q 1106 2091 782 2419 
Q 459 2747 459 3303 
Q 459 4000 909 4375 
Q 1359 4750 2203 4750 
Q 2588 4750 2994 4692 
Q 3400 4634 3834 4519 
z
" transform="scale(0.015625)"/>
      <path id="DejaVuSans-Bold-72" d="M 3138 2547 
Q 2991 2616 2845 2648 
Q 2700 2681 2553 2681 
Q 2122 2681 1889 2404 
Q 1656 2128 1656 1613 
L 1656 0 
L 538 0 
L 538 3500 
L 1656 3500 
L 1656 2925 
Q 1872 3269 2151 3426 
Q 2431 3584 2822 3584 
Q 2878 3584 2943 3579 
Q 3009 3575 3134 3559 
L 3138 2547 
z
" transform="scale(0.015625)"/>
      <path id="DejaVuSans-Bold-73" d="M 3272 3391 
L 3272 2541 
Q 2913 2691 2578 2766 
Q 2244 2841 1947 2841 
Q 1628 2841 1473 2761 
Q 1319 2681 1319 2516 
Q 1319 2381 1436 2309 
Q 1553 2238 1856 2203 
L 2053 2175 
Q 2913 2066 3209 1816 
Q 3506 1566 3506 1031 
Q 3506 472 3093 190 
Q 2681 -91 1863 -91 
Q 1516 -91 1145 -36 
Q 775 19 384 128 
L 384 978 
Q 719 816 1070 734 
Q 1422 653 1784 653 
Q 2113 653 2278 743 
Q 2444 834 2444 1013 
Q 2444 1163 2330 1236 
Q 2216 1309 1875 1350 
L 1678 1375 
Q 931 1469 631 1722 
Q 331 1975 331 2491 
Q 331 3047 712 3315 
Q 1094 3584 1881 3584 
Q 2191 3584 2531 3537 
Q 2872 3491 3272 3391 
z
" transform="scale(0.015625)"/>
      <path id="DejaVuSans-Bold-49" d="M 588 4666 
L 1791 4666 
L 1791 0 
L 588 0 
L 588 4666 
z
" transform="scale(0.015625)"/>
     </defs>
     <use xlink:href="#DejaVuSans-Bold-43"/>
     <use xlink:href="#DejaVuSans-Bold-6f" transform="translate(73.388672 0)"/>
     <use xlink:href="#DejaVuSans-Bold-6e" transform="translate(142.089844 0)"/>
     <use xlink:href="#DejaVuSans-Bold-74" transform="translate(213.28125 0)"/>
     <use xlink:href="#DejaVuSans-Bold-65" transform="translate(261.083984 0)"/>
     <use xlink:href="#DejaVuSans-Bold-78" transform="translate(328.90625 0)"/>
     <use xlink:href="#DejaVuSans-Bold-74" transform="translate(393.408203 0)"/>
     <use xlink:href="#DejaVuSans-Bold-75" transform="translate(441.210938 0)"/>
     <use xlink:href="#DejaVuSans-Bold-61" transform="translate(512.402344 0)"/>
     <use xlink:href="#DejaVuSans-Bold-6c" transform="translate(579.882812 0)"/>
     <use xlink:href="#DejaVuSans-Bold-20" transform="translate(614.160156 0)"/>
     <use xlink:href="#DejaVuSans-Bold-52" transform="translate(648.974609 0)"/>
     <use xlink:href="#DejaVuSans-Bold-65" transform="translate(725.976562 0)"/>
     <use xlink:href="#DejaVuSans-Bold-6c" transform="translate(793.798828 0)"/>
     <use xlink:href="#DejaVuSans-Bold-65" transform="translate(828.076172 0)"/>
     <use xlink:href="#DejaVuSans-Bold-76" transform="translate(895.898438 0)"/>
     <use xlink:href="#DejaVuSans-Bold-61" transform="translate(961.083984 0)"/>
     <use xlink:href="#DejaVuSans-Bold-6e" transform="translate(1028.564453 0)"/>
     <use xlink:href="#DejaVuSans-Bold-63" transform="translate(1099.755859 0)"/>
     <use xlink:href="#DejaVuSans-Bold-79" transform="translate(1159.033203 0)"/>
     <use xlink:href="#DejaVuSans-Bold-20" transform="translate(1224.21875 0)"/>
     <use xlink:href="#DejaVuSans-Bold-2014" transform="translate(1259.033203 0)"/>
     <use xlink:href="#DejaVuSans-Bold-20" transform="translate(1359.033203 0)"/>
     <use xlink:href="#DejaVuSans-Bold-48" transform="translate(1393.847656 0)"/>
     <use xlink:href="#DejaVuSans-Bold-6f" transform="translate(1477.539062 0)"/>
     <use xlink:href="#DejaVuSans-Bold-77" transform="translate(1546.240234 0)"/>
     <use xlink:href="#DejaVuSans-Bold-20" transform="translate(1638.623047 0)"/>
     <use xlink:href="#DejaVuSans-Bold-44" transform="translate(1673.4375 0)"/>
     <use xlink:href="#DejaVuSans-Bold-65" transform="translate(1756.445312 0)"/>
     <use xlink:href="#DejaVuSans-Bold-65" transform="translate(1824.267578 0)"/>
     <use xlink:href="#DejaVuSans-Bold-70" transform="translate(1892.089844 0)"/>
     <use xlink:href="#DejaVuSans-Bold-45" transform="translate(1963.671875 0)"/>
     <use xlink:href="#DejaVuSans-Bold-76" transform="translate(2031.982422 0)"/>
     <use xlink:href="#DejaVuSans-Bold-61" transform="translate(2097.167969 0)"/>
     <use xlink:href="#DejaVuSans-Bold-6c" transform="translate(2164.648438 0)"/>
     <use xlink:href="#DejaVuSans-Bold-20" transform="translate(2198.925781 0)"/>
     <use xlink:href="#DejaVuSans-Bold-53" transform="translate(2233.740234 0)"/>
     <use xlink:href="#DejaVuSans-Bold-63" transform="translate(2305.761719 0)"/>
     <use xlink:href="#DejaVuSans-Bold-6f" transform="translate(2365.039062 0)"/>
     <use xlink:href="#DejaVuSans-Bold-72" transform="translate(2433.740234 0)"/>
     <use xlink:href="#DejaVuSans-Bold-65" transform="translate(2483.056641 0)"/>
     <use xlink:href="#DejaVuSans-Bold-73" transform="translate(2550.878906 0)"/>
     <use xlink:href="#DejaVuSans-Bold-20" transform="translate(2610.400391 0)"/>
     <use xlink:href="#DejaVuSans-Bold-49" transform="translate(2645.214844 0)"/>
     <use xlink:href="#DejaVuSans-Bold-74" transform="translate(2682.421875 0)"/>
    </g>
   </g>
   <g id="patch_18">
    <path d="M 356.472 152.940169 
C 358.444634 152.940169 360.336739 152.156433 361.731602 150.76157 
C 363.126464 149.366708 363.9102 147.474602 363.9102 145.501969 
C 363.9102 143.529335 363.126464 141.63723 361.731602 140.242367 
C 360.336739 138.847504 358.444634 138.063769 356.472 138.063769 
C 354.499366 138.063769 352.607261 138.847504 351.212398 140.242367 
C 349.817536 141.63723 349.0338 143.529335 349.0338 145.501969 
C 349.0338 147.474602 349.817536 149.366708 351.212398 150.76157 
C 352.607261 152.156433 354.499366 152.940169 356.472 152.940169 
z
" clip-path="url(#p3630f5dab2)" style="fill: #2e4057; stroke: #ffffff; stroke-width: 1.2; stroke-linejoin: miter"/>
   </g>
   <g id="patch_19">
    <path d="M 356.472 332.27052 
C 358.444634 332.27052 360.336739 331.486785 361.731602 330.091922 
C 363.126464 328.697059 363.9102 326.804954 363.9102 324.83232 
C 363.9102 322.859687 363.126464 320.967581 361.731602 319.572719 
C 360.336739 318.177856 358.444634 317.39412 356.472 317.39412 
C 354.499366 317.39412 352.607261 318.177856 351.212398 319.572719 
C 349.817536 320.967581 349.0338 322.859687 349.0338 324.83232 
C 349.0338 326.804954 349.817536 328.697059 351.212398 330.091922 
C 352.607261 331.486785 354.499366 332.27052 356.472 332.27052 
z
" clip-path="url(#p3630f5dab2)" style="fill: #048a81; stroke: #ffffff; stroke-width: 1.2; stroke-linejoin: miter"/>
   </g>
   <g id="patch_20">
    <path d="M 265.767418 152.940169 
C 267.740052 152.940169 269.632157 152.156433 271.02702 150.76157 
C 272.421883 149.366708 273.205618 147.474602 273.205618 145.501969 
C 273.205618 143.529335 272.421883 141.63723 271.02702 140.242367 
C 269.632157 138.847504 267.740052 138.063769 265.767418 138.063769 
C 263.794785 138.063769 261.902679 138.847504 260.507817 140.242367 
C 259.112954 141.63723 258.329218 143.529335 258.329218 145.501969 
C 258.329218 147.474602 259.112954 149.366708 260.507817 150.76157 
C 261.902679 152.156433 263.794785 152.940169 265.767418 152.940169 
z
" clip-path="url(#p3630f5dab2)" style="fill: #048a81; stroke: #ffffff; stroke-width: 1.2; stroke-linejoin: miter"/>
   </g>
   <g id="patch_21">
    <path d="M 129.161144 152.940169 
C 131.133778 152.940169 133.025883 152.156433 134.420746 150.76157 
C 135.815609 149.366708 136.599344 147.474602 136.599344 145.501969 
C 136.599344 143.529335 135.815609 141.63723 134.420746 140.242367 
C 133.025883 138.847504 131.133778 138.063769 129.161144 138.063769 
C 127.188511 138.063769 125.296405 138.847504 123.901543 140.242367 
C 122.50668 141.63723 121.722944 143.529335 121.722944 145.501969 
C 121.722944 147.474602 122.50668 149.366708 123.901543 150.76157 
C 125.296405 152.156433 127.188511 152.940169 129.161144 152.940169 
z
" clip-path="url(#p3630f5dab2)" style="fill: #048a81; stroke: #ffffff; stroke-width: 1.2; stroke-linejoin: miter"/>
   </g>
   <g id="patch_22">
    <path d="M 245.181048 253.086719 
C 248.148226 253.086719 250.994274 251.907847 253.092385 249.809736 
C 255.190496 247.711625 256.369368 244.865576 256.369368 241.898399 
C 256.369368 238.931222 255.190496 236.085174 253.092385 233.987062 
C 250.994274 231.888951 248.148226 230.710079 245.181048 230.710079 
C 242.213871 230.710079 239.367823 231.888951 237.269712 233.987062 
C 235.171601 236.085174 233.992729 238.931222 233.992729 241.898399 
C 233.992729 244.865576 235.171601 247.711625 237.269712 249.809736 
C 239.367823 251.907847 242.213871 253.086719 245.181048 253.086719 
z
" clip-path="url(#p3630f5dab2)" style="fill: #54c6eb; stroke: #ffffff; stroke-width: 1.2; stroke-linejoin: miter"/>
   </g>
   <g id="patch_23">
    <path d="M 220.720479 386.859822 
C 222.977318 386.859822 225.142027 385.96317 226.737854 384.367344 
C 228.33368 382.771517 229.230332 380.606808 229.230332 378.349969 
C 229.230332 376.093129 228.33368 373.92842 226.737854 372.332594 
C 225.142027 370.736767 222.977318 369.840115 220.720479 369.840115 
C 218.463639 369.840115 216.29893 370.736767 214.703104 372.332594 
C 213.107277 373.92842 212.210625 376.093129 212.210625 378.349969 
C 212.210625 380.606808 213.107277 382.771517 214.703104 384.367344 
C 216.29893 385.96317 218.463639 386.859822 220.720479 386.859822 
z
" clip-path="url(#p3630f5dab2)" style="fill: #ef7b45; stroke: #ffffff; stroke-width: 1.2; stroke-linejoin: miter"/>
   </g>
   <g id="patch_24">
    <path d="M 123.624 298.057452 
C 125.880839 298.057452 128.045548 297.1608 129.641375 295.564973 
C 131.237201 293.969147 132.133853 291.804438 132.133853 289.547598 
C 132.133853 287.290759 131.237201 285.12605 129.641375 283.530223 
C 128.045548 281.934397 125.880839 281.037745 123.624 281.037745 
C 121.367161 281.037745 119.202452 281.934397 117.606625 283.530223 
C 116.010799 285.12605 115.114147 287.290759 115.114147 289.547598 
C 115.114147 291.804438 116.010799 293.969147 117.606625 295.564973 
C 119.202452 297.1608 121.367161 298.057452 123.624 298.057452 
z
" clip-path="url(#p3630f5dab2)" style="fill: #ef7b45; stroke: #ffffff; stroke-width: 1.2; stroke-linejoin: miter"/>
   </g>
   <g id="patch_25">
    <path d="M 123.624 386.859822 
C 125.880839 386.859822 128.045548 385.96317 129.641375 384.367344 
C 131.237201 382.771517 132.133853 380.606808 132.133853 378.349969 
C 132.133853 376.093129 131.237201 373.92842 129.641375 372.332594 
C 128.045548 370.736767 125.880839 369.840115 123.624 369.840115 
C 121.367161 369.840115 119.202452 370.736767 117.606625 372.332594 
C 116.010799 373.92842 115.114147 376.093129 115.114147 378.349969 
C 115.114147 380.606808 116.010799 382.771517 117.606625 384.367344 
C 119.202452 385.96317 121.367161 386.859822 123.624 386.859822 
z
" clip-path="url(#p3630f5dab2)" style="fill: #a23b72; stroke: #ffffff; stroke-width: 1.2; stroke-linejoin: miter"/>
   </g>
   <g id="legend_1">
    <g id="patch_26">
     <path d="M 12.8 97.390469 
L 76.71 97.390469 
Q 78.31 97.390469 78.31 95.790469 
L 78.31 34.677969 
Q 78.31 33.077969 76.71 33.077969 
L 12.8 33.077969 
Q 11.2 33.077969 11.2 34.677969 
L 11.2 95.790469 
Q 11.2 97.390469 12.8 97.390469 
z
" style="fill: #ffffff; opacity: 0.9; stroke: #cccccc; stroke-linejoin: miter"/>
    </g>
    <g id="patch_27">
     <path d="M 16 43.956719 
L 32 43.956719 
L 32 38.356719 
L 16 38.356719 
z
" style="fill: #2e4057; stroke: #2e4057; stroke-linejoin: miter"/>
    </g>
    <g id="text_10">
     <!-- Input -->
     <g transform="translate(38.4 43.956719) scale(0.08 -0.08)">
      <defs>
       <path id="DejaVuSans-49" d="M 628 4666 
L 1259 4666 
L 1259 0 
L 628 0 
L 628 4666 
z
" transform="scale(0.015625)"/>
       <path id="DejaVuSans-70" d="M 1159 525 
L 1159 -1331 
L 581 -1331 
L 581 3500 
L 1159 3500 
L 1159 2969 
Q 1341 3281 1617 3432 
Q 1894 3584 2278 3584 
Q 2916 3584 3314 3078 
Q 3713 2572 3713 1747 
Q 3713 922 3314 415 
Q 2916 -91 2278 -91 
Q 1894 -91 1617 61 
Q 1341 213 1159 525 
z
M 3116 1747 
Q 3116 2381 2855 2742 
Q 2594 3103 2138 3103 
Q 1681 3103 1420 2742 
Q 1159 2381 1159 1747 
Q 1159 1113 1420 752 
Q 1681 391 2138 391 
Q 2594 391 2855 752 
Q 3116 1113 3116 1747 
z
" transform="scale(0.015625)"/>
      </defs>
      <use xlink:href="#DejaVuSans-49"/>
      <use xlink:href="#DejaVuSans-6e" transform="translate(29.492188 0)"/>
      <use xlink:href="#DejaVuSans-70" transform="translate(92.871094 0)"/>
      <use xlink:href="#DejaVuSans-75" transform="translate(156.347656 0)"/>
      <use xlink:href="#DejaVuSans-74" transform="translate(219.726562 0)"/>
     </g>
    </g>
    <g id="patch_28">
     <path d="M 16 55.699219 
L 32 55.699219 
L 32 50.099219 
L 16 50.099219 
z
" style="fill: #048a81; stroke: #048a81; stroke-linejoin: miter"/>
    </g>
    <g id="text_11">
     <!-- Context -->
     <g transform="translate(38.4 55.699219) scale(0.08 -0.08)">
      <defs>
       <path id="DejaVuSans-43" d="M 4122 4306 
L 4122 3641 
Q 3803 3938 3442 4084 
Q 3081 4231 2675 4231 
Q 1875 4231 1450 3742 
Q 1025 3253 1025 2328 
Q 1025 1406 1450 917 
Q 1875 428 2675 428 
Q 3081 428 3442 575 
Q 3803 722 4122 1019 
L 4122 359 
Q 3791 134 3420 21 
Q 3050 -91 2638 -91 
Q 1578 -91 968 557 
Q 359 1206 359 2328 
Q 359 3453 968 4101 
Q 1578 4750 2638 4750 
Q 3056 4750 3426 4639 
Q 3797 4528 4122 4306 
z
" transform="scale(0.015625)"/>
      </defs>
      <use xlink:href="#DejaVuSans-43"/>
      <use xlink:href="#DejaVuSans-6f" transform="translate(69.824219 0)"/>
      <use xlink:href="#DejaVuSans-6e" transform="translate(131.005859 0)"/>
      <use xlink:href="#DejaVuSans-74" transform="translate(194.384766 0)"/>
      <use xlink:href="#DejaVuSans-65" transform="translate(233.59375 0)"/>
      <use xlink:href="#DejaVuSans-78" transform="translate(293.367188 0)"/>
      <use xlink:href="#DejaVuSans-74" transform="translate(352.546875 0)"/>
     </g>
    </g>
    <g id="patch_29">
     <path d="M 16 67.441719 
L 32 67.441719 
L 32 61.841719 
L 16 61.841719 
z
" style="fill: #54c6eb; stroke: #54c6eb; stroke-linejoin: miter"/>
    </g>
    <g id="text_12">
     <!-- Process -->
     <g transform="translate(38.4 67.441719) scale(0.08 -0.08)">
      <defs>
       <path id="DejaVuSans-50" d="M 1259 4147 
L 1259 2394 
L 2053 2394 
Q 2494 2394 2734 2622 
Q 2975 2850 2975 3272 
Q 2975 3691 2734 3919 
Q 2494 4147 2053 4147 
L 1259 4147 
z
M 628 4666 
L 2053 4666 
Q 2838 4666 3239 4311 
Q 3641 3956 3641 3272 
Q 3641 2581 3239 2228 
Q 2838 1875 2053 1875 
L 1259 1875 
L 1259 0 
L 628 0 
L 628 4666 
z
" transform="scale(0.015625)"/>
      </defs>
      <use xlink:href="#DejaVuSans-50"/>
      <use xlink:href="#DejaVuSans-72" transform="translate(58.552734 0)"/>
      <use xlink:href="#DejaVuSans-6f" transform="translate(97.416016 0)"/>
      <use xlink:href="#DejaVuSans-63" transform="translate(158.597656 0)"/>
      <use xlink:href="#DejaVuSans-65" transform="translate(213.578125 0)"/>
      <use xlink:href="#DejaVuSans-73" transform="translate(275.101562 0)"/>
      <use xlink:href="#DejaVuSans-73" transform="translate(327.201172 0)"/>
     </g>
    </g>
    <g id="patch_30">
     <path d="M 16 79.184219 
L 32 79.184219 
L 32 73.584219 
L 16 73.584219 
z
" style="fill: #ef7b45; stroke: #ef7b45; stroke-linejoin: miter"/>
    </g>
    <g id="text_13">
     <!-- Relevant -->
     <g transform="translate(38.4 79.184219) scale(0.08 -0.08)">
      <defs>
       <path id="DejaVuSans-52" d="M 2841 2188 
Q 3044 2119 3236 1894 
Q 3428 1669 3622 1275 
L 4263 0 
L 3584 0 
L 2988 1197 
Q 2756 1666 2539 1819 
Q 2322 1972 1947 1972 
L 1259 1972 
L 1259 0 
L 628 0 
L 628 4666 
L 2053 4666 
Q 2853 4666 3247 4331 
Q 3641 3997 3641 3322 
Q 3641 2881 3436 2590 
Q 3231 2300 2841 2188 
z
M 1259 4147 
L 1259 2491 
L 2053 2491 
Q 2509 2491 2742 2702 
Q 2975 2913 2975 3322 
Q 2975 3731 2742 3939 
Q 2509 4147 2053 4147 
L 1259 4147 
z
" transform="scale(0.015625)"/>
      </defs>
      <use xlink:href="#DejaVuSans-52"/>
      <use xlink:href="#DejaVuSans-65" transform="translate(64.982422 0)"/>
      <use xlink:href="#DejaVuSans-6c" transform="translate(126.505859 0)"/>
      <use xlink:href="#DejaVuSans-65" transform="translate(154.289062 0)"/>
      <use xlink:href="#DejaVuSans-76" transform="translate(215.8125 0)"/>
      <use xlink:href="#DejaVuSans-61" transform="translate(274.992188 0)"/>
      <use xlink:href="#DejaVuSans-6e" transform="translate(336.271484 0)"/>
      <use xlink:href="#DejaVuSans-74" transform="translate(399.650391 0)"/>
     </g>
    </g>
    <g id="patch_31">
     <path d="M 16 90.926719 
L 32 90.926719 
L 32 85.326719 
L 16 85.326719 
z
" style="fill: #a23b72; stroke: #a23b72; stroke-linejoin: miter"/>
    </g>
    <g id="text_14">
     <!-- Score -->
     <g transform="translate(38.4 90.926719) scale(0.08 -0.08)">
      <defs>
       <path id="DejaVuSans-53" d="M 3425 4513 
L 3425 3897 
Q 3066 4069 2747 4153 
Q 2428 4238 2131 4238 
Q 1616 4238 1336 4038 
Q 1056 3838 1056 3469 
Q 1056 3159 1242 3001 
Q 1428 2844 1947 2747 
L 2328 2669 
Q 3034 2534 3370 2195 
Q 3706 1856 3706 1288 
Q 3706 609 3251 259 
Q 2797 -91 1919 -91 
Q 1588 -91 1214 -16 
Q 841 59 441 206 
L 441 856 
Q 825 641 1194 531 
Q 1563 422 1919 422 
Q 2459 422 2753 634 
Q 3047 847 3047 1241 
Q 3047 1584 2836 1778 
Q 2625 1972 2144 2069 
L 1759 2144 
Q 1053 2284 737 2584 
Q 422 2884 422 3419 
Q 422 4038 858 4394 
Q 1294 4750 2059 4750 
Q 2388 4750 2728 4690 
Q 3069 4631 3425 4513 
z
" transform="scale(0.015625)"/>
      </defs>
      <use xlink:href="#DejaVuSans-53"/>
      <use xlink:href="#DejaVuSans-63" transform="translate(63.476562 0)"/>
      <use xlink:href="#DejaVuSans-6f" transform="translate(118.457031 0)"/>
      <use xlink:href="#DejaVuSans-72" transform="translate(179.638672 0)"/>
      <use xlink:href="#DejaVuSans-65" transform="translate(218.501953 0)"/>
     </g>
    </g>
   </g>
   <g id="text_15">
    <g id="patch_32">
     <path d="M 367.511056 137.068876 
L 420.533712 137.068876 
Q 421.583712 137.068876 421.583712 136.018876 
L 421.583712 128.760282 
Q 421.583712 127.710282 420.533712 127.710282 
L 367.511056 127.710282 
Q 366.461056 127.710282 366.461056 128.760282 
L 366.461056 136.018876 
Q 366.461056 137.068876 367.511056 137.068876 
z
" style="fill: #ffffff; opacity: 0.88"/>
    </g>
    <!-- User Question -->
    <g style="fill: #212529" transform="translate(367.511056 134.45911) scale(0.075 -0.075)">
     <defs>
      <path id="DejaVuSans-55" d="M 556 4666 
L 1191 4666 
L 1191 1831 
Q 1191 1081 1462 751 
Q 1734 422 2344 422 
Q 2950 422 3222 751 
Q 3494 1081 3494 1831 
L 3494 4666 
L 4128 4666 
L 4128 1753 
Q 4128 841 3676 375 
Q 3225 -91 2344 -91 
Q 1459 -91 1007 375 
Q 556 841 556 1753 
L 556 4666 
z
" transform="scale(0.015625)"/>
      <path id="DejaVuSans-20" transform="scale(0.015625)"/>
      <path id="DejaVuSans-51" d="M 2522 4238 
Q 1834 4238 1429 3725 
Q 1025 3213 1025 2328 
Q 1025 1447 1429 934 
Q 1834 422 2522 422 
Q 3209 422 3611 934 
Q 4013 1447 4013 2328 
Q 4013 3213 3611 3725 
Q 3209 4238 2522 4238 
z
M 3406 84 
L 4238 -825 
L 3475 -825 
L 2784 -78 
Q 2681 -84 2626 -87 
Q 2572 -91 2522 -91 
Q 1538 -91 948 567 
Q 359 1225 359 2328 
Q 359 3434 948 4092 
Q 1538 4750 2522 4750 
Q 3503 4750 4090 4092 
Q 4678 3434 4678 2328 
Q 4678 1516 4351 937 
Q 4025 359 3406 84 
z
" transform="scale(0.015625)"/>
     </defs>
     <use xlink:href="#DejaVuSans-55"/>
     <use xlink:href="#DejaVuSans-73" transform="translate(73.193359 0)"/>
     <use xlink:href="#DejaVuSans-65" transform="translate(125.292969 0)"/>
     <use xlink:href="#DejaVuSans-72" transform="translate(186.816406 0)"/>
     <use xlink:href="#DejaVuSans-20" transform="translate(227.929688 0)"/>
     <use xlink:href="#DejaVuSans-51" transform="translate(259.716797 0)"/>
     <use xlink:href="#DejaVuSans-75" transform="translate(338.427734 0)"/>
     <use xlink:href="#DejaVuSans-65" transform="translate(401.806641 0)"/>
     <use xlink:href="#DejaVuSans-73" transform="translate(463.330078 0)"/>
     <use xlink:href="#DejaVuSans-74" transform="translate(515.429688 0)"/>
     <use xlink:href="#DejaVuSans-69" transform="translate(554.638672 0)"/>
     <use xlink:href="#DejaVuSans-6f" transform="translate(582.421875 0)"/>
     <use xlink:href="#DejaVuSans-6e" transform="translate(643.603516 0)"/>
    </g>
   </g>
   <g id="text_16">
    <g id="patch_33">
     <path d="M 369.315784 339.983942 
L 400.310706 339.983942 
Q 401.360706 339.983942 401.360706 338.933942 
L 401.360706 331.675348 
Q 401.360706 330.625348 400.310706 330.625348 
L 369.315784 330.625348 
Q 368.265784 330.625348 368.265784 331.675348 
L 368.265784 338.933942 
Q 368.265784 339.983942 369.315784 339.983942 
z
" style="fill: #ffffff; opacity: 0.88"/>
    </g>
    <!-- Chunk 1 -->
    <g style="fill: #212529" transform="translate(369.315784 337.374176) scale(0.075 -0.075)">
     <defs>
      <path id="DejaVuSans-68" d="M 3513 2113 
L 3513 0 
L 2938 0 
L 2938 2094 
Q 2938 2591 2744 2837 
Q 2550 3084 2163 3084 
Q 1697 3084 1428 2787 
Q 1159 2491 1159 1978 
L 1159 0 
L 581 0 
L 581 4863 
L 1159 4863 
L 1159 2956 
Q 1366 3272 1645 3428 
Q 1925 3584 2291 3584 
Q 2894 3584 3203 3211 
Q 3513 2838 3513 2113 
z
" transform="scale(0.015625)"/>
      <path id="DejaVuSans-6b" d="M 581 4863 
L 1159 4863 
L 1159 1991 
L 2875 3500 
L 3609 3500 
L 1753 1863 
L 3688 0 
L 2938 0 
L 1159 1709 
L 1159 0 
L 581 0 
L 581 4863 
z
" transform="scale(0.015625)"/>
      <path id="DejaVuSans-31" d="M 794 531 
L 1825 531 
L 1825 4091 
L 703 3866 
L 703 4441 
L 1819 4666 
L 2450 4666 
L 2450 531 
L 3481 531 
L 3481 0 
L 794 0 
L 794 531 
z
" transform="scale(0.015625)"/>
     </defs>
     <use xlink:href="#DejaVuSans-43"/>
     <use xlink:href="#DejaVuSans-68" transform="translate(69.824219 0)"/>
     <use xlink:href="#DejaVuSans-75" transform="translate(133.203125 0)"/>
     <use xlink:href="#DejaVuSans-6e" transform="translate(196.582031 0)"/>
     <use xlink:href="#DejaVuSans-6b" transform="translate(259.960938 0)"/>
     <use xlink:href="#DejaVuSans-20" transform="translate(317.871094 0)"/>
     <use xlink:href="#DejaVuSans-31" transform="translate(349.658203 0)"/>
    </g>
   </g>
   <g id="text_17">
    <g id="patch_34">
     <path d="M 270.508552 132.792918 
L 301.503474 132.792918 
Q 302.553474 132.792918 302.553474 131.742918 
L 302.553474 124.484325 
Q 302.553474 123.434325 301.503474 123.434325 
L 270.508552 123.434325 
Q 269.458552 123.434325 269.458552 124.484325 
L 269.458552 131.742918 
Q 269.458552 132.792918 270.508552 132.792918 
z
" style="fill: #ffffff; opacity: 0.88"/>
    </g>
    <!-- Chunk 2 -->
    <g style="fill: #212529" transform="translate(270.508552 130.183153) scale(0.075 -0.075)">
     <defs>
      <path id="DejaVuSans-32" d="M 1228 531 
L 3431 531 
L 3431 0 
L 469 0 
L 469 531 
Q 828 903 1448 1529 
Q 2069 2156 2228 2338 
Q 2531 2678 2651 2914 
Q 2772 3150 2772 3378 
Q 2772 3750 2511 3984 
Q 2250 4219 1831 4219 
Q 1534 4219 1204 4116 
Q 875 4013 500 3803 
L 500 4441 
Q 881 4594 1212 4672 
Q 1544 4750 1819 4750 
Q 2544 4750 2975 4387 
Q 3406 4025 3406 3419 
Q 3406 3131 3298 2873 
Q 3191 2616 2906 2266 
Q 2828 2175 2409 1742 
Q 1991 1309 1228 531 
z
" transform="scale(0.015625)"/>
     </defs>
     <use xlink:href="#DejaVuSans-43"/>
     <use xlink:href="#DejaVuSans-68" transform="translate(69.824219 0)"/>
     <use xlink:href="#DejaVuSans-75" transform="translate(133.203125 0)"/>
     <use xlink:href="#DejaVuSans-6e" transform="translate(196.582031 0)"/>
     <use xlink:href="#DejaVuSans-6b" transform="translate(259.960938 0)"/>
     <use xlink:href="#DejaVuSans-20" transform="translate(317.871094 0)"/>
     <use xlink:href="#DejaVuSans-32" transform="translate(349.658203 0)"/>
    </g>
   </g>
   <g id="text_18">
    <g id="patch_35">
     <path d="M 87.654216 135.678885 
L 119.4882 135.678885 
Q 120.5382 135.678885 120.5382 134.628885 
L 120.5382 127.370291 
Q 120.5382 126.320291 119.4882 126.320291 
L 87.654216 126.320291 
Q 86.604216 126.320291 86.604216 127.370291 
L 86.604216 134.628885 
Q 86.604216 135.678885 87.654216 135.678885 
z
" style="fill: #ffffff; opacity: 0.88"/>
    </g>
    <!-- Chunk N -->
    <g style="fill: #212529" transform="translate(87.654216 133.069119) scale(0.075 -0.075)">
     <defs>
      <path id="DejaVuSans-4e" d="M 628 4666 
L 1478 4666 
L 3547 763 
L 3547 4666 
L 4159 4666 
L 4159 0 
L 3309 0 
L 1241 3903 
L 1241 0 
L 628 0 
L 628 4666 
z
" transform="scale(0.015625)"/>
     </defs>
     <use xlink:href="#DejaVuSans-43"/>
     <use xlink:href="#DejaVuSans-68" transform="translate(69.824219 0)"/>
     <use xlink:href="#DejaVuSans-75" transform="translate(133.203125 0)"/>
     <use xlink:href="#DejaVuSans-6e" transform="translate(196.582031 0)"/>
     <use xlink:href="#DejaVuSans-6b" transform="translate(259.960938 0)"/>
     <use xlink:href="#DejaVuSans-20" transform="translate(317.871094 0)"/>
     <use xlink:href="#DejaVuSans-4e" transform="translate(349.658203 0)"/>
    </g>
   </g>
   <g id="text_19">
    <g id="patch_36">
     <path d="M 224.759955 275.483765 
L 265.602142 275.483765 
Q 266.652142 275.483765 266.652142 274.433765 
L 266.652142 260.201519 
Q 266.652142 259.151519 265.602142 259.151519 
L 224.759955 259.151519 
Q 223.709955 259.151519 223.709955 260.201519 
L 223.709955 274.433765 
Q 223.709955 275.483765 224.759955 275.483765 
z
" style="fill: #ffffff; opacity: 0.88"/>
    </g>
    <!-- LLM: Judge -->
    <g style="fill: #212529" transform="translate(224.759955 265.900347) scale(0.075 -0.075)">
     <defs>
      <path id="DejaVuSans-4c" d="M 628 4666 
L 1259 4666 
L 1259 531 
L 3531 531 
L 3531 0 
L 628 0 
L 628 4666 
z
" transform="scale(0.015625)"/>
      <path id="DejaVuSans-4d" d="M 628 4666 
L 1569 4666 
L 2759 1491 
L 3956 4666 
L 4897 4666 
L 4897 0 
L 4281 0 
L 4281 4097 
L 3078 897 
L 2444 897 
L 1241 4097 
L 1241 0 
L 628 0 
L 628 4666 
z
" transform="scale(0.015625)"/>
      <path id="DejaVuSans-3a" d="M 750 794 
L 1409 794 
L 1409 0 
L 750 0 
L 750 794 
z
M 750 3309 
L 1409 3309 
L 1409 2516 
L 750 2516 
L 750 3309 
z
" transform="scale(0.015625)"/>
      <path id="DejaVuSans-4a" d="M 628 4666 
L 1259 4666 
L 1259 325 
Q 1259 -519 939 -900 
Q 619 -1281 -91 -1281 
L -331 -1281 
L -331 -750 
L -134 -750 
Q 284 -750 456 -515 
Q 628 -281 628 325 
L 628 4666 
z
" transform="scale(0.015625)"/>
      <path id="DejaVuSans-64" d="M 2906 2969 
L 2906 4863 
L 3481 4863 
L 3481 0 
L 2906 0 
L 2906 525 
Q 2725 213 2448 61 
Q 2172 -91 1784 -91 
Q 1150 -91 751 415 
Q 353 922 353 1747 
Q 353 2572 751 3078 
Q 1150 3584 1784 3584 
Q 2172 3584 2448 3432 
Q 2725 3281 2906 2969 
z
M 947 1747 
Q 947 1113 1208 752 
Q 1469 391 1925 391 
Q 2381 391 2643 752 
Q 2906 1113 2906 1747 
Q 2906 2381 2643 2742 
Q 2381 3103 1925 3103 
Q 1469 3103 1208 2742 
Q 947 2381 947 1747 
z
" transform="scale(0.015625)"/>
      <path id="DejaVuSans-67" d="M 2906 1791 
Q 2906 2416 2648 2759 
Q 2391 3103 1925 3103 
Q 1463 3103 1205 2759 
Q 947 2416 947 1791 
Q 947 1169 1205 825 
Q 1463 481 1925 481 
Q 2391 481 2648 825 
Q 2906 1169 2906 1791 
z
M 3481 434 
Q 3481 -459 3084 -895 
Q 2688 -1331 1869 -1331 
Q 1566 -1331 1297 -1286 
Q 1028 -1241 775 -1147 
L 775 -588 
Q 1028 -725 1275 -790 
Q 1522 -856 1778 -856 
Q 2344 -856 2625 -561 
Q 2906 -266 2906 331 
L 2906 616 
Q 2728 306 2450 153 
Q 2172 0 1784 0 
Q 1141 0 747 490 
Q 353 981 353 1791 
Q 353 2603 747 3093 
Q 1141 3584 1784 3584 
Q 2172 3584 2450 3431 
Q 2728 3278 2906 2969 
L 2906 3500 
L 3481 3500 
L 3481 434 
z
" transform="scale(0.015625)"/>
     </defs>
     <use xlink:href="#DejaVuSans-4c"/>
     <use xlink:href="#DejaVuSans-4c" transform="translate(55.712891 0)"/>
     <use xlink:href="#DejaVuSans-4d" transform="translate(111.425781 0)"/>
     <use xlink:href="#DejaVuSans-3a" transform="translate(197.705078 0)"/>
     <use xlink:href="#DejaVuSans-20" transform="translate(231.396484 0)"/>
     <use xlink:href="#DejaVuSans-4a" transform="translate(263.183594 0)"/>
     <use xlink:href="#DejaVuSans-75" transform="translate(292.675781 0)"/>
     <use xlink:href="#DejaVuSans-64" transform="translate(356.054688 0)"/>
     <use xlink:href="#DejaVuSans-67" transform="translate(419.53125 0)"/>
     <use xlink:href="#DejaVuSans-65" transform="translate(483.007812 0)"/>
    </g>
    <!-- Relevance -->
    <g style="fill: #212529" transform="translate(225.824017 272.874) scale(0.075 -0.075)">
     <use xlink:href="#DejaVuSans-52"/>
     <use xlink:href="#DejaVuSans-65" transform="translate(64.982422 0)"/>
     <use xlink:href="#DejaVuSans-6c" transform="translate(126.505859 0)"/>
     <use xlink:href="#DejaVuSans-65" transform="translate(154.289062 0)"/>
     <use xlink:href="#DejaVuSans-76" transform="translate(215.8125 0)"/>
     <use xlink:href="#DejaVuSans-61" transform="translate(274.992188 0)"/>
     <use xlink:href="#DejaVuSans-6e" transform="translate(336.271484 0)"/>
     <use xlink:href="#DejaVuSans-63" transform="translate(399.650391 0)"/>
     <use xlink:href="#DejaVuSans-65" transform="translate(454.630859 0)"/>
    </g>
   </g>
   <g id="text_20">
    <g id="patch_37">
     <path d="M 194.574003 409.231953 
L 245.102909 409.231953 
Q 246.152909 409.231953 246.152909 408.181953 
L 246.152909 393.949707 
Q 246.152909 392.899707 245.102909 392.899707 
L 194.574003 392.899707 
Q 193.524003 392.899707 193.524003 393.949707 
L 193.524003 408.181953 
Q 193.524003 409.231953 194.574003 409.231953 
z
" style="fill: #ffffff; opacity: 0.88"/>
    </g>
    <!-- Relevant -->
    <g style="fill: #212529" transform="translate(203.380644 399.648535) scale(0.075 -0.075)">
     <use xlink:href="#DejaVuSans-52"/>
     <use xlink:href="#DejaVuSans-65" transform="translate(64.982422 0)"/>
     <use xlink:href="#DejaVuSans-6c" transform="translate(126.505859 0)"/>
     <use xlink:href="#DejaVuSans-65" transform="translate(154.289062 0)"/>
     <use xlink:href="#DejaVuSans-76" transform="translate(215.8125 0)"/>
     <use xlink:href="#DejaVuSans-61" transform="translate(274.992188 0)"/>
     <use xlink:href="#DejaVuSans-6e" transform="translate(336.271484 0)"/>
     <use xlink:href="#DejaVuSans-74" transform="translate(399.650391 0)"/>
    </g>
    <!-- Statements 1 -->
    <g style="fill: #212529" transform="translate(194.574003 406.622187) scale(0.075 -0.075)">
     <defs>
      <path id="DejaVuSans-6d" d="M 3328 2828 
Q 3544 3216 3844 3400 
Q 4144 3584 4550 3584 
Q 5097 3584 5394 3201 
Q 5691 2819 5691 2113 
L 5691 0 
L 5113 0 
L 5113 2094 
Q 5113 2597 4934 2840 
Q 4756 3084 4391 3084 
Q 3944 3084 3684 2787 
Q 3425 2491 3425 1978 
L 3425 0 
L 2847 0 
L 2847 2094 
Q 2847 2600 2669 2842 
Q 2491 3084 2119 3084 
Q 1678 3084 1418 2786 
Q 1159 2488 1159 1978 
L 1159 0 
L 581 0 
L 581 3500 
L 1159 3500 
L 1159 2956 
Q 1356 3278 1631 3431 
Q 1906 3584 2284 3584 
Q 2666 3584 2933 3390 
Q 3200 3197 3328 2828 
z
" transform="scale(0.015625)"/>
     </defs>
     <use xlink:href="#DejaVuSans-53"/>
     <use xlink:href="#DejaVuSans-74" transform="translate(63.476562 0)"/>
     <use xlink:href="#DejaVuSans-61" transform="translate(102.685547 0)"/>
     <use xlink:href="#DejaVuSans-74" transform="translate(163.964844 0)"/>
     <use xlink:href="#DejaVuSans-65" transform="translate(203.173828 0)"/>
     <use xlink:href="#DejaVuSans-6d" transform="translate(264.697266 0)"/>
     <use xlink:href="#DejaVuSans-65" transform="translate(362.109375 0)"/>
     <use xlink:href="#DejaVuSans-6e" transform="translate(423.632812 0)"/>
     <use xlink:href="#DejaVuSans-74" transform="translate(487.011719 0)"/>
     <use xlink:href="#DejaVuSans-73" transform="translate(526.220703 0)"/>
     <use xlink:href="#DejaVuSans-20" transform="translate(578.320312 0)"/>
     <use xlink:href="#DejaVuSans-31" transform="translate(610.107422 0)"/>
    </g>
   </g>
   <g id="text_21">
    <g id="patch_38">
     <path d="M 58.217159 309.602353 
L 108.746065 309.602353 
Q 109.796065 309.602353 109.796065 308.552353 
L 109.796065 294.320107 
Q 109.796065 293.270107 108.746065 293.270107 
L 58.217159 293.270107 
Q 57.167159 293.270107 57.167159 294.320107 
L 57.167159 308.552353 
Q 57.167159 309.602353 58.217159 309.602353 
z
" style="fill: #ffffff; opacity: 0.88"/>
    </g>
    <!-- Relevant -->
    <g style="fill: #212529" transform="translate(75.83044 300.018935) scale(0.075 -0.075)">
     <use xlink:href="#DejaVuSans-52"/>
     <use xlink:href="#DejaVuSans-65" transform="translate(64.982422 0)"/>
     <use xlink:href="#DejaVuSans-6c" transform="translate(126.505859 0)"/>
     <use xlink:href="#DejaVuSans-65" transform="translate(154.289062 0)"/>
     <use xlink:href="#DejaVuSans-76" transform="translate(215.8125 0)"/>
     <use xlink:href="#DejaVuSans-61" transform="translate(274.992188 0)"/>
     <use xlink:href="#DejaVuSans-6e" transform="translate(336.271484 0)"/>
     <use xlink:href="#DejaVuSans-74" transform="translate(399.650391 0)"/>
    </g>
    <!-- Statements 2 -->
    <g style="fill: #212529" transform="translate(58.217159 306.992587) scale(0.075 -0.075)">
     <use xlink:href="#DejaVuSans-53"/>
     <use xlink:href="#DejaVuSans-74" transform="translate(63.476562 0)"/>
     <use xlink:href="#DejaVuSans-61" transform="translate(102.685547 0)"/>
     <use xlink:href="#DejaVuSans-74" transform="translate(163.964844 0)"/>
     <use xlink:href="#DejaVuSans-65" transform="translate(203.173828 0)"/>
     <use xlink:href="#DejaVuSans-6d" transform="translate(264.697266 0)"/>
     <use xlink:href="#DejaVuSans-65" transform="translate(362.109375 0)"/>
     <use xlink:href="#DejaVuSans-6e" transform="translate(423.632812 0)"/>
     <use xlink:href="#DejaVuSans-74" transform="translate(487.011719 0)"/>
     <use xlink:href="#DejaVuSans-73" transform="translate(526.220703 0)"/>
     <use xlink:href="#DejaVuSans-20" transform="translate(578.320312 0)"/>
     <use xlink:href="#DejaVuSans-32" transform="translate(610.107422 0)"/>
    </g>
   </g>
   <g id="text_22">
    <g id="patch_39">
     <path d="M 44.198966 405.529369 
L 113.49545 405.529369 
Q 114.54545 405.529369 114.54545 404.479369 
L 114.54545 390.247122 
Q 114.54545 389.197122 113.49545 389.197122 
L 44.198966 389.197122 
Q 43.148966 389.197122 43.148966 390.247122 
L 43.148966 404.479369 
Q 43.148966 405.529369 44.198966 405.529369 
z
" style="fill: #ffffff; opacity: 0.88"/>
    </g>
    <!-- Score = #relevant -->
    <g style="fill: #212529" transform="translate(44.198966 395.945951) scale(0.075 -0.075)">
     <defs>
      <path id="DejaVuSans-3d" d="M 678 2906 
L 4684 2906 
L 4684 2381 
L 678 2381 
L 678 2906 
z
M 678 1631 
L 4684 1631 
L 4684 1100 
L 678 1100 
L 678 1631 
z
" transform="scale(0.015625)"/>
      <path id="DejaVuSans-23" d="M 3272 2816 
L 2363 2816 
L 2100 1772 
L 3016 1772 
L 3272 2816 
z
M 2803 4594 
L 2478 3297 
L 3391 3297 
L 3719 4594 
L 4219 4594 
L 3897 3297 
L 4872 3297 
L 4872 2816 
L 3775 2816 
L 3519 1772 
L 4513 1772 
L 4513 1294 
L 3397 1294 
L 3072 0 
L 2572 0 
L 2894 1294 
L 1978 1294 
L 1656 0 
L 1153 0 
L 1478 1294 
L 494 1294 
L 494 1772 
L 1594 1772 
L 1856 2816 
L 850 2816 
L 850 3297 
L 1978 3297 
L 2297 4594 
L 2803 4594 
z
" transform="scale(0.015625)"/>
     </defs>
     <use xlink:href="#DejaVuSans-53"/>
     <use xlink:href="#DejaVuSans-63" transform="translate(63.476562 0)"/>
     <use xlink:href="#DejaVuSans-6f" transform="translate(118.457031 0)"/>
     <use xlink:href="#DejaVuSans-72" transform="translate(179.638672 0)"/>
     <use xlink:href="#DejaVuSans-65" transform="translate(218.501953 0)"/>
     <use xlink:href="#DejaVuSans-20" transform="translate(280.025391 0)"/>
     <use xlink:href="#DejaVuSans-3d" transform="translate(311.8125 0)"/>
     <use xlink:href="#DejaVuSans-20" transform="translate(395.601562 0)"/>
     <use xlink:href="#DejaVuSans-23" transform="translate(427.388672 0)"/>
     <use xlink:href="#DejaVuSans-72" transform="translate(511.177734 0)"/>
     <use xlink:href="#DejaVuSans-65" transform="translate(550.041016 0)"/>
     <use xlink:href="#DejaVuSans-6c" transform="translate(611.564453 0)"/>
     <use xlink:href="#DejaVuSans-65" transform="translate(639.347656 0)"/>
     <use xlink:href="#DejaVuSans-76" transform="translate(700.871094 0)"/>
     <use xlink:href="#DejaVuSans-61" transform="translate(760.050781 0)"/>
     <use xlink:href="#DejaVuSans-6e" transform="translate(821.330078 0)"/>
     <use xlink:href="#DejaVuSans-74" transform="translate(884.708984 0)"/>
    </g>
    <!-- / #total -->
    <g style="fill: #212529" transform="translate(85.151309 402.919603) scale(0.075 -0.075)">
     <defs>
      <path id="DejaVuSans-2f" d="M 1625 4666 
L 2156 4666 
L 531 -594 
L 0 -594 
L 1625 4666 
z
" transform="scale(0.015625)"/>
     </defs>
     <use xlink:href="#DejaVuSans-2f"/>
     <use xlink:href="#DejaVuSans-20" transform="translate(33.691406 0)"/>
     <use xlink:href="#DejaVuSans-23" transform="translate(65.478516 0)"/>
     <use xlink:href="#DejaVuSans-74" transform="translate(149.267578 0)"/>
     <use xlink:href="#DejaVuSans-6f" transform="translate(188.476562 0)"/>
     <use xlink:href="#DejaVuSans-74" transform="translate(249.658203 0)"/>
     <use xlink:href="#DejaVuSans-61" transform="translate(288.867188 0)"/>
     <use xlink:href="#DejaVuSans-6c" transform="translate(350.146484 0)"/>
    </g>
   </g>
  </g>
 </g>
 <defs>
  <clipPath id="p3630f5dab2">
   <rect x="7.2" y="29.077969" width="465.696" height="465.696"/>
  </clipPath>
 </defs>
</svg>
