<?xml version="1.0" encoding="utf-8" standalone="no"?>
<!DOCTYPE svg PUBLIC "-//W3C//DTD SVG 1.1//EN"
  "http://www.w3.org/Graphics/SVG/1.1/DTD/svg11.dtd">
<svg xmlns:xlink="http://www.w3.org/1999/xlink" width="480.096pt" height="515.973969pt" viewBox="0 0 480.096 515.973969" xmlns="http://www.w3.org/2000/svg" version="1.1">
 <metadata>
  <rdf:RDF xmlns:dc="http://purl.org/dc/elements/1.1/" xmlns:cc="http://creativecommons.org/ns#" xmlns:rdf="http://www.w3.org/1999/02/22-rdf-syntax-ns#">
   <cc:Work>
    <dc:type rdf:resource="http://purl.org/dc/dcmitype/StillImage"/>
    <dc:date>2026-06-12T23:21:17.006132</dc:date>
    <dc:format>image/svg+xml</dc:format>
    <dc:creator>
     <cc:Agent>
      <dc:title>Matplotlib v3.10.9, https://matplotlib.org/</dc:title>
     </cc:Agent>
    </dc:creator>
   </cc:Work>
  </rdf:RDF>
 </metadata>
 <defs>
  <style type="text/css">*{stroke-linejoin: round; stroke-linecap: butt}</style>
 </defs>
 <g id="figure_1">
  <g id="patch_1">
   <path d="M 0 501.973969 
L 480.096 501.973969 
L 480.096 0 
L 0 0 
z
" style="fill: #ffffff"/>
  </g>
  <g id="axes_1">
   <g id="patch_2">
    <path d="M 356.472 260.703565 
Q 356.472 305.098009 356.472 348.262615 
" clip-path="url(#pa623c40f85)" style="fill: none; stroke: #9aa3b2; stroke-width: 1.1; stroke-linecap: round"/>
    <path d="M 358.872 343.462615 
L 356.472 348.262615 
L 354.072 343.462615 
z
" clip-path="url(#pa623c40f85)" style="fill: #9aa3b2; stroke: #9aa3b2; stroke-width: 1.1; stroke-linecap: round"/>
   </g>
   <g id="patch_3">
    <path d="M 347.171859 360.757253 
Q 306.617818 368.570839 267.271404 376.151751 
" clip-path="url(#pa623c40f85)" style="fill: none; stroke: #9aa3b2; stroke-width: 1.1; stroke-linecap: round"/>
    <path d="M 272.438777 377.600289 
L 267.271404 376.151751 
L 271.530658 372.886975 
z
" clip-path="url(#pa623c40f85)" style="fill: #9aa3b2; stroke: #9aa3b2; stroke-width: 1.1; stroke-linecap: round"/>
   </g>
   <g id="patch_4">
    <path d="M 247.096107 372.771934 
Q 193.821638 338.872441 141.584757 305.633183 
" clip-path="url(#pa623c40f85)" style="fill: none; stroke: #9aa3b2; stroke-width: 1.1; stroke-linecap: round"/>
    <path d="M 144.345981 310.234883 
L 141.584757 305.633183 
L 146.922851 306.185224 
z
" clip-path="url(#pa623c40f85)" style="fill: #9aa3b2; stroke: #9aa3b2; stroke-width: 1.1; stroke-linecap: round"/>
   </g>
   <g id="patch_5">
    <path d="M 131.033454 289.031045 
Q 127.669375 242.391867 124.393774 196.97934 
" clip-path="url(#pa623c40f85)" style="fill: none; stroke: #9aa3b2; stroke-width: 1.1; stroke-linecap: round"/>
    <path d="M 122.345319 201.939566 
L 124.393774 196.97934 
L 127.132881 201.594239 
z
" clip-path="url(#pa623c40f85)" style="fill: #9aa3b2; stroke: #9aa3b2; stroke-width: 1.1; stroke-linecap: round"/>
   </g>
   <g id="patch_6">
    <path d="M 130.713079 309.731709 
Q 127.655092 339.331291 124.723488 367.707547 
" clip-path="url(#pa623c40f85)" style="fill: none; stroke: #9aa3b2; stroke-width: 1.1; stroke-linecap: round"/>
    <path d="M 127.604053 363.179595 
L 124.723488 367.707547 
L 122.829466 362.686324 
z
" clip-path="url(#pa623c40f85)" style="fill: #9aa3b2; stroke: #9aa3b2; stroke-width: 1.1; stroke-linecap: round"/>
   </g>
   <g id="patch_7">
    <path d="M 133.094479 378.349969 
Q 155.328408 378.349969 176.3325 378.349969 
" clip-path="url(#pa623c40f85)" style="fill: none; stroke: #9aa3b2; stroke-width: 1.1; stroke-linecap: round"/>
    <path d="M 171.5325 375.949969 
L 176.3325 378.349969 
L 171.5325 380.749969 
z
" clip-path="url(#pa623c40f85)" style="fill: #9aa3b2; stroke: #9aa3b2; stroke-width: 1.1; stroke-linecap: round"/>
   </g>
   <g id="patch_8">
    <path d="M 196.50714 378.349969 
Q 220.991474 378.349969 244.245969 378.349969 
" clip-path="url(#pa623c40f85)" style="fill: none; stroke: #9aa3b2; stroke-width: 1.1; stroke-linecap: round"/>
    <path d="M 239.445969 375.949969 
L 244.245969 378.349969 
L 239.445969 380.749969 
z
" clip-path="url(#pa623c40f85)" style="fill: #9aa3b2; stroke: #9aa3b2; stroke-width: 1.1; stroke-linecap: round"/>
   </g>
   <g id="patch_9">
    <path d="M 131.494356 181.039763 
Q 154.107318 165.905183 175.698232 151.454647 
" clip-path="url(#pa623c40f85)" style="fill: none; stroke: #9aa3b2; stroke-width: 1.1; stroke-linecap: round"/>
    <path d="M 170.374325 152.129938 
L 175.698232 151.454647 
L 173.044121 156.118947 
z
" clip-path="url(#pa623c40f85)" style="fill: #9aa3b2; stroke: #9aa3b2; stroke-width: 1.1; stroke-linecap: round"/>
   </g>
   <g id="patch_10">
    <path d="M 194.063179 145.501969 
Q 234.307314 145.501969 273.321612 145.501969 
" clip-path="url(#pa623c40f85)" style="fill: none; stroke: #9aa3b2; stroke-width: 1.1; stroke-linecap: round"/>
    <path d="M 268.521612 143.101969 
L 273.321612 145.501969 
L 268.521612 147.901969 
z
" clip-path="url(#pa623c40f85)" style="fill: #9aa3b2; stroke: #9aa3b2; stroke-width: 1.1; stroke-linecap: round"/>
   </g>
   <g id="text_1">
    <g id="patch_11">
     <path d="M 274.299762 381.895526 
L 316.58023 381.895526 
Q 317.36023 381.895526 317.36023 381.115526 
L 317.36023 374.824745 
Q 317.36023 374.044745 316.58023 374.044745 
L 274.299762 374.044745 
Q 273.519762 374.044745 273.519762 374.824745 
L 273.519762 381.115526 
Q 273.519762 381.895526 274.299762 381.895526 
z
" style="fill: #ffffff; opacity: 0.9"/>
    </g>
    <!-- top-8 chunks -->
    <g style="fill: #475569" transform="translate(274.299762 379.763729) scale(0.065 -0.065)">
     <defs>
      <path id="DejaVuSans-74" d="M 1172 4494 
L 1172 3500 
L 2356 3500 
L 2356 3053 
L 1172 3053 
L 1172 1153 
Q 1172 725 1289 603 
Q 1406 481 1766 481 
L 2356 481 
L 2356 0 
L 1766 0 
Q 1100 0 847 248 
Q 594 497 594 1153 
L 594 3053 
L 172 3053 
L 172 3500 
L 594 3500 
L 594 4494 
L 1172 4494 
z
" transform="scale(0.015625)"/>
      <path id="DejaVuSans-6f" d="M 1959 3097 
Q 1497 3097 1228 2736 
Q 959 2375 959 1747 
Q 959 1119 1226 758 
Q 1494 397 1959 397 
Q 2419 397 2687 759 
Q 2956 1122 2956 1747 
Q 2956 2369 2687 2733 
Q 2419 3097 1959 3097 
z
M 1959 3584 
Q 2709 3584 3137 3096 
Q 3566 2609 3566 1747 
Q 3566 888 3137 398 
Q 2709 -91 1959 -91 
Q 1206 -91 779 398 
Q 353 888 353 1747 
Q 353 2609 779 3096 
Q 1206 3584 1959 3584 
z
" transform="scale(0.015625)"/>
      <path id="DejaVuSans-70" d="M 1159 525 
L 1159 -1331 
L 581 -1331 
L 581 3500 
L 1159 3500 
L 1159 2969 
Q 1341 3281 1617 3432 
Q 1894 3584 2278 3584 
Q 2916 3584 3314 3078 
Q 3713 2572 3713 1747 
Q 3713 922 3314 415 
Q 2916 -91 2278 -91 
Q 1894 -91 1617 61 
Q 1341 213 1159 525 
z
M 3116 1747 
Q 3116 2381 2855 2742 
Q 2594 3103 2138 3103 
Q 1681 3103 1420 2742 
Q 1159 2381 1159 1747 
Q 1159 1113 1420 752 
Q 1681 391 2138 391 
Q 2594 391 2855 752 
Q 3116 1113 3116 1747 
z
" transform="scale(0.015625)"/>
      <path id="DejaVuSans-2d" d="M 313 2009 
L 1997 2009 
L 1997 1497 
L 313 1497 
L 313 2009 
z
" transform="scale(0.015625)"/>
      <path id="DejaVuSans-38" d="M 2034 2216 
Q 1584 2216 1326 1975 
Q 1069 1734 1069 1313 
Q 1069 891 1326 650 
Q 1584 409 2034 409 
Q 2484 409 2743 651 
Q 3003 894 3003 1313 
Q 3003 1734 2745 1975 
Q 2488 2216 2034 2216 
z
M 1403 2484 
Q 997 2584 770 2862 
Q 544 3141 544 3541 
Q 544 4100 942 4425 
Q 1341 4750 2034 4750 
Q 2731 4750 3128 4425 
Q 3525 4100 3525 3541 
Q 3525 3141 3298 2862 
Q 3072 2584 2669 2484 
Q 3125 2378 3379 2068 
Q 3634 1759 3634 1313 
Q 3634 634 3220 271 
Q 2806 -91 2034 -91 
Q 1263 -91 848 271 
Q 434 634 434 1313 
Q 434 1759 690 2068 
Q 947 2378 1403 2484 
z
M 1172 3481 
Q 1172 3119 1398 2916 
Q 1625 2713 2034 2713 
Q 2441 2713 2670 2916 
Q 2900 3119 2900 3481 
Q 2900 3844 2670 4047 
Q 2441 4250 2034 4250 
Q 1625 4250 1398 4047 
Q 1172 3844 1172 3481 
z
" transform="scale(0.015625)"/>
      <path id="DejaVuSans-20" transform="scale(0.015625)"/>
      <path id="DejaVuSans-63" d="M 3122 3366 
L 3122 2828 
Q 2878 2963 2633 3030 
Q 2388 3097 2138 3097 
Q 1578 3097 1268 2742 
Q 959 2388 959 1747 
Q 959 1106 1268 751 
Q 1578 397 2138 397 
Q 2388 397 2633 464 
Q 2878 531 3122 666 
L 3122 134 
Q 2881 22 2623 -34 
Q 2366 -91 2075 -91 
Q 1284 -91 818 406 
Q 353 903 353 1747 
Q 353 2603 823 3093 
Q 1294 3584 2113 3584 
Q 2378 3584 2631 3529 
Q 2884 3475 3122 3366 
z
" transform="scale(0.015625)"/>
      <path id="DejaVuSans-68" d="M 3513 2113 
L 3513 0 
L 2938 0 
L 2938 2094 
Q 2938 2591 2744 2837 
Q 2550 3084 2163 3084 
Q 1697 3084 1428 2787 
Q 1159 2491 1159 1978 
L 1159 0 
L 581 0 
L 581 4863 
L 1159 4863 
L 1159 2956 
Q 1366 3272 1645 3428 
Q 1925 3584 2291 3584 
Q 2894 3584 3203 3211 
Q 3513 2838 3513 2113 
z
" transform="scale(0.015625)"/>
      <path id="DejaVuSans-75" d="M 544 1381 
L 544 3500 
L 1119 3500 
L 1119 1403 
Q 1119 906 1312 657 
Q 1506 409 1894 409 
Q 2359 409 2629 706 
Q 2900 1003 2900 1516 
L 2900 3500 
L 3475 3500 
L 3475 0 
L 2900 0 
L 2900 538 
Q 2691 219 2414 64 
Q 2138 -91 1772 -91 
Q 1169 -91 856 284 
Q 544 659 544 1381 
z
M 1991 3584 
L 1991 3584 
z
" transform="scale(0.015625)"/>
      <path id="DejaVuSans-6e" d="M 3513 2113 
L 3513 0 
L 2938 0 
L 2938 2094 
Q 2938 2591 2744 2837 
Q 2550 3084 2163 3084 
Q 1697 3084 1428 2787 
Q 1159 2491 1159 1978 
L 1159 0 
L 581 0 
L 581 3500 
L 1159 3500 
L 1159 2956 
Q 1366 3272 1645 3428 
Q 1925 3584 2291 3584 
Q 2894 3584 3203 3211 
Q 3513 2838 3513 2113 
z
" transform="scale(0.015625)"/>
      <path id="DejaVuSans-6b" d="M 581 4863 
L 1159 4863 
L 1159 1991 
L 2875 3500 
L 3609 3500 
L 1753 1863 
L 3688 0 
L 2938 0 
L 1159 1709 
L 1159 0 
L 581 0 
L 581 4863 
z
" transform="scale(0.015625)"/>
      <path id="DejaVuSans-73" d="M 2834 3397 
L 2834 2853 
Q 2591 2978 2328 3040 
Q 2066 3103 1784 3103 
Q 1356 3103 1142 2972 
Q 928 2841 928 2578 
Q 928 2378 1081 2264 
Q 1234 2150 1697 2047 
L 1894 2003 
Q 2506 1872 2764 1633 
Q 3022 1394 3022 966 
Q 3022 478 2636 193 
Q 2250 -91 1575 -91 
Q 1294 -91 989 -36 
Q 684 19 347 128 
L 347 722 
Q 666 556 975 473 
Q 1284 391 1588 391 
Q 1994 391 2212 530 
Q 2431 669 2431 922 
Q 2431 1156 2273 1281 
Q 2116 1406 1581 1522 
L 1381 1569 
Q 847 1681 609 1914 
Q 372 2147 372 2553 
Q 372 3047 722 3315 
Q 1072 3584 1716 3584 
Q 2034 3584 2315 3537 
Q 2597 3491 2834 3397 
z
" transform="scale(0.015625)"/>
     </defs>
     <use xlink:href="#DejaVuSans-74"/>
     <use xlink:href="#DejaVuSans-6f" transform="translate(39.208984 0)"/>
     <use xlink:href="#DejaVuSans-70" transform="translate(100.390625 0)"/>
     <use xlink:href="#DejaVuSans-2d" transform="translate(163.867188 0)"/>
     <use xlink:href="#DejaVuSans-38" transform="translate(199.951172 0)"/>
     <use xlink:href="#DejaVuSans-20" transform="translate(263.574219 0)"/>
     <use xlink:href="#DejaVuSans-63" transform="translate(295.361328 0)"/>
     <use xlink:href="#DejaVuSans-68" transform="translate(350.341797 0)"/>
     <use xlink:href="#DejaVuSans-75" transform="translate(413.720703 0)"/>
     <use xlink:href="#DejaVuSans-6e" transform="translate(477.099609 0)"/>
     <use xlink:href="#DejaVuSans-6b" transform="translate(540.478516 0)"/>
     <use xlink:href="#DejaVuSans-73" transform="translate(598.388672 0)"/>
    </g>
   </g>
   <g id="text_2">
    <g id="patch_12">
     <path d="M 164.687921 339.325809 
L 185.536671 339.325809 
Q 186.316671 339.325809 186.316671 338.545809 
L 186.316671 332.255028 
Q 186.316671 331.475028 185.536671 331.475028 
L 164.687921 331.475028 
Q 163.907921 331.475028 163.907921 332.255028 
L 163.907921 338.545809 
Q 163.907921 339.325809 164.687921 339.325809 
z
" style="fill: #ffffff; opacity: 0.9"/>
    </g>
    <!-- scores -->
    <g style="fill: #475569" transform="translate(164.687921 337.194012) scale(0.065 -0.065)">
     <defs>
      <path id="DejaVuSans-72" d="M 2631 2963 
Q 2534 3019 2420 3045 
Q 2306 3072 2169 3072 
Q 1681 3072 1420 2755 
Q 1159 2438 1159 1844 
L 1159 0 
L 581 0 
L 581 3500 
L 1159 3500 
L 1159 2956 
Q 1341 3275 1631 3429 
Q 1922 3584 2338 3584 
Q 2397 3584 2469 3576 
Q 2541 3569 2628 3553 
L 2631 2963 
z
" transform="scale(0.015625)"/>
      <path id="DejaVuSans-65" d="M 3597 1894 
L 3597 1613 
L 953 1613 
Q 991 1019 1311 708 
Q 1631 397 2203 397 
Q 2534 397 2845 478 
Q 3156 559 3463 722 
L 3463 178 
Q 3153 47 2828 -22 
Q 2503 -91 2169 -91 
Q 1331 -91 842 396 
Q 353 884 353 1716 
Q 353 2575 817 3079 
Q 1281 3584 2069 3584 
Q 2775 3584 3186 3129 
Q 3597 2675 3597 1894 
z
M 3022 2063 
Q 3016 2534 2758 2815 
Q 2500 3097 2075 3097 
Q 1594 3097 1305 2825 
Q 1016 2553 972 2059 
L 3022 2063 
z
" transform="scale(0.015625)"/>
     </defs>
     <use xlink:href="#DejaVuSans-73"/>
     <use xlink:href="#DejaVuSans-63" transform="translate(52.099609 0)"/>
     <use xlink:href="#DejaVuSans-6f" transform="translate(107.080078 0)"/>
     <use xlink:href="#DejaVuSans-72" transform="translate(168.261719 0)"/>
     <use xlink:href="#DejaVuSans-65" transform="translate(207.125 0)"/>
     <use xlink:href="#DejaVuSans-73" transform="translate(268.648438 0)"/>
    </g>
   </g>
   <g id="text_3">
    <g id="patch_13">
     <path d="M 114.010889 233.717827 
L 125.243701 233.717827 
Q 126.023701 233.717827 126.023701 232.937827 
L 126.023701 226.647046 
Q 126.023701 225.867046 125.243701 225.867046 
L 114.010889 225.867046 
Q 113.230889 225.867046 113.230889 226.647046 
L 113.230889 232.937827 
Q 113.230889 233.717827 114.010889 233.717827 
z
" style="fill: #ffffff; opacity: 0.9"/>
    </g>
    <!-- yes -->
    <g style="fill: #475569" transform="translate(114.010889 231.58603) scale(0.065 -0.065)">
     <defs>
      <path id="DejaVuSans-79" d="M 2059 -325 
Q 1816 -950 1584 -1140 
Q 1353 -1331 966 -1331 
L 506 -1331 
L 506 -850 
L 844 -850 
Q 1081 -850 1212 -737 
Q 1344 -625 1503 -206 
L 1606 56 
L 191 3500 
L 800 3500 
L 1894 763 
L 2988 3500 
L 3597 3500 
L 2059 -325 
z
" transform="scale(0.015625)"/>
     </defs>
     <use xlink:href="#DejaVuSans-79"/>
     <use xlink:href="#DejaVuSans-65" transform="translate(59.179688 0)"/>
     <use xlink:href="#DejaVuSans-73" transform="translate(120.703125 0)"/>
    </g>
   </g>
   <g id="text_4">
    <g id="patch_14">
     <path d="M 117.652353 353.003576 
L 149.949228 353.003576 
Q 150.729228 353.003576 150.729228 352.223576 
L 150.729228 345.932794 
Q 150.729228 345.152794 149.949228 345.152794 
L 117.652353 345.152794 
Q 116.872353 345.152794 116.872353 345.932794 
L 116.872353 352.223576 
Q 116.872353 353.003576 117.652353 353.003576 
z
" style="fill: #ffffff; opacity: 0.9"/>
    </g>
    <!-- no (weak) -->
    <g style="fill: #475569" transform="translate(117.652353 350.871779) scale(0.065 -0.065)">
     <defs>
      <path id="DejaVuSans-28" d="M 1984 4856 
Q 1566 4138 1362 3434 
Q 1159 2731 1159 2009 
Q 1159 1288 1364 580 
Q 1569 -128 1984 -844 
L 1484 -844 
Q 1016 -109 783 600 
Q 550 1309 550 2009 
Q 550 2706 781 3412 
Q 1013 4119 1484 4856 
L 1984 4856 
z
" transform="scale(0.015625)"/>
      <path id="DejaVuSans-77" d="M 269 3500 
L 844 3500 
L 1563 769 
L 2278 3500 
L 2956 3500 
L 3675 769 
L 4391 3500 
L 4966 3500 
L 4050 0 
L 3372 0 
L 2619 2869 
L 1863 0 
L 1184 0 
L 269 3500 
z
" transform="scale(0.015625)"/>
      <path id="DejaVuSans-61" d="M 2194 1759 
Q 1497 1759 1228 1600 
Q 959 1441 959 1056 
Q 959 750 1161 570 
Q 1363 391 1709 391 
Q 2188 391 2477 730 
Q 2766 1069 2766 1631 
L 2766 1759 
L 2194 1759 
z
M 3341 1997 
L 3341 0 
L 2766 0 
L 2766 531 
Q 2569 213 2275 61 
Q 1981 -91 1556 -91 
Q 1019 -91 701 211 
Q 384 513 384 1019 
Q 384 1609 779 1909 
Q 1175 2209 1959 2209 
L 2766 2209 
L 2766 2266 
Q 2766 2663 2505 2880 
Q 2244 3097 1772 3097 
Q 1472 3097 1187 3025 
Q 903 2953 641 2809 
L 641 3341 
Q 956 3463 1253 3523 
Q 1550 3584 1831 3584 
Q 2591 3584 2966 3190 
Q 3341 2797 3341 1997 
z
" transform="scale(0.015625)"/>
      <path id="DejaVuSans-29" d="M 513 4856 
L 1013 4856 
Q 1481 4119 1714 3412 
Q 1947 2706 1947 2009 
Q 1947 1309 1714 600 
Q 1481 -109 1013 -844 
L 513 -844 
Q 928 -128 1133 580 
Q 1338 1288 1338 2009 
Q 1338 2731 1133 3434 
Q 928 4138 513 4856 
z
" transform="scale(0.015625)"/>
     </defs>
     <use xlink:href="#DejaVuSans-6e"/>
     <use xlink:href="#DejaVuSans-6f" transform="translate(63.378906 0)"/>
     <use xlink:href="#DejaVuSans-20" transform="translate(124.560547 0)"/>
     <use xlink:href="#DejaVuSans-28" transform="translate(156.347656 0)"/>
     <use xlink:href="#DejaVuSans-77" transform="translate(195.361328 0)"/>
     <use xlink:href="#DejaVuSans-65" transform="translate(277.148438 0)"/>
     <use xlink:href="#DejaVuSans-61" transform="translate(338.671875 0)"/>
     <use xlink:href="#DejaVuSans-6b" transform="translate(399.951172 0)"/>
     <use xlink:href="#DejaVuSans-29" transform="translate(457.861328 0)"/>
    </g>
   </g>
   <g id="text_5">
    <g id="patch_15">
     <path d="M 143.895244 375.160559 
L 181.981182 375.160559 
Q 182.761182 375.160559 182.761182 374.380559 
L 182.761182 368.089778 
Q 182.761182 367.309778 181.981182 367.309778 
L 143.895244 367.309778 
Q 143.115244 367.309778 143.115244 368.089778 
L 143.115244 374.380559 
Q 143.115244 375.160559 143.895244 375.160559 
z
" style="fill: #ffffff; opacity: 0.9"/>
    </g>
    <!-- sub-queries -->
    <g style="fill: #475569" transform="translate(143.895244 373.028763) scale(0.065 -0.065)">
     <defs>
      <path id="DejaVuSans-62" d="M 3116 1747 
Q 3116 2381 2855 2742 
Q 2594 3103 2138 3103 
Q 1681 3103 1420 2742 
Q 1159 2381 1159 1747 
Q 1159 1113 1420 752 
Q 1681 391 2138 391 
Q 2594 391 2855 752 
Q 3116 1113 3116 1747 
z
M 1159 2969 
Q 1341 3281 1617 3432 
Q 1894 3584 2278 3584 
Q 2916 3584 3314 3078 
Q 3713 2572 3713 1747 
Q 3713 922 3314 415 
Q 2916 -91 2278 -91 
Q 1894 -91 1617 61 
Q 1341 213 1159 525 
L 1159 0 
L 581 0 
L 581 4863 
L 1159 4863 
L 1159 2969 
z
" transform="scale(0.015625)"/>
      <path id="DejaVuSans-71" d="M 947 1747 
Q 947 1113 1208 752 
Q 1469 391 1925 391 
Q 2381 391 2643 752 
Q 2906 1113 2906 1747 
Q 2906 2381 2643 2742 
Q 2381 3103 1925 3103 
Q 1469 3103 1208 2742 
Q 947 2381 947 1747 
z
M 2906 525 
Q 2725 213 2448 61 
Q 2172 -91 1784 -91 
Q 1150 -91 751 415 
Q 353 922 353 1747 
Q 353 2572 751 3078 
Q 1150 3584 1784 3584 
Q 2172 3584 2448 3432 
Q 2725 3281 2906 2969 
L 2906 3500 
L 3481 3500 
L 3481 -1331 
L 2906 -1331 
L 2906 525 
z
" transform="scale(0.015625)"/>
      <path id="DejaVuSans-69" d="M 603 3500 
L 1178 3500 
L 1178 0 
L 603 0 
L 603 3500 
z
M 603 4863 
L 1178 4863 
L 1178 4134 
L 603 4134 
L 603 4863 
z
" transform="scale(0.015625)"/>
     </defs>
     <use xlink:href="#DejaVuSans-73"/>
     <use xlink:href="#DejaVuSans-75" transform="translate(52.099609 0)"/>
     <use xlink:href="#DejaVuSans-62" transform="translate(115.478516 0)"/>
     <use xlink:href="#DejaVuSans-2d" transform="translate(178.955078 0)"/>
     <use xlink:href="#DejaVuSans-71" transform="translate(215.039062 0)"/>
     <use xlink:href="#DejaVuSans-75" transform="translate(278.515625 0)"/>
     <use xlink:href="#DejaVuSans-65" transform="translate(341.894531 0)"/>
     <use xlink:href="#DejaVuSans-72" transform="translate(403.417969 0)"/>
     <use xlink:href="#DejaVuSans-69" transform="translate(444.53125 0)"/>
     <use xlink:href="#DejaVuSans-65" transform="translate(472.314453 0)"/>
     <use xlink:href="#DejaVuSans-73" transform="translate(533.837891 0)"/>
    </g>
   </g>
   <g id="text_6">
    <g id="patch_16">
     <path d="M 204.131021 375.160559 
L 255.28399 375.160559 
Q 256.06399 375.160559 256.06399 374.380559 
L 256.06399 368.089778 
Q 256.06399 367.309778 255.28399 367.309778 
L 204.131021 367.309778 
Q 203.351021 367.309778 203.351021 368.089778 
L 203.351021 374.380559 
Q 203.351021 375.160559 204.131021 375.160559 
z
" style="fill: #ffffff; opacity: 0.9"/>
    </g>
    <!-- new candidates -->
    <g style="fill: #475569" transform="translate(204.131021 373.028763) scale(0.065 -0.065)">
     <defs>
      <path id="DejaVuSans-64" d="M 2906 2969 
L 2906 4863 
L 3481 4863 
L 3481 0 
L 2906 0 
L 2906 525 
Q 2725 213 2448 61 
Q 2172 -91 1784 -91 
Q 1150 -91 751 415 
Q 353 922 353 1747 
Q 353 2572 751 3078 
Q 1150 3584 1784 3584 
Q 2172 3584 2448 3432 
Q 2725 3281 2906 2969 
z
M 947 1747 
Q 947 1113 1208 752 
Q 1469 391 1925 391 
Q 2381 391 2643 752 
Q 2906 1113 2906 1747 
Q 2906 2381 2643 2742 
Q 2381 3103 1925 3103 
Q 1469 3103 1208 2742 
Q 947 2381 947 1747 
z
" transform="scale(0.015625)"/>
     </defs>
     <use xlink:href="#DejaVuSans-6e"/>
     <use xlink:href="#DejaVuSans-65" transform="translate(63.378906 0)"/>
     <use xlink:href="#DejaVuSans-77" transform="translate(124.902344 0)"/>
     <use xlink:href="#DejaVuSans-20" transform="translate(206.689453 0)"/>
     <use xlink:href="#DejaVuSans-63" transform="translate(238.476562 0)"/>
     <use xlink:href="#DejaVuSans-61" transform="translate(293.457031 0)"/>
     <use xlink:href="#DejaVuSans-6e" transform="translate(354.736328 0)"/>
     <use xlink:href="#DejaVuSans-64" transform="translate(418.115234 0)"/>
     <use xlink:href="#DejaVuSans-69" transform="translate(481.591797 0)"/>
     <use xlink:href="#DejaVuSans-64" transform="translate(509.375 0)"/>
     <use xlink:href="#DejaVuSans-61" transform="translate(572.851562 0)"/>
     <use xlink:href="#DejaVuSans-74" transform="translate(634.130859 0)"/>
     <use xlink:href="#DejaVuSans-65" transform="translate(673.339844 0)"/>
     <use xlink:href="#DejaVuSans-73" transform="translate(734.863281 0)"/>
    </g>
   </g>
   <g id="text_7">
    <g id="patch_17">
     <path d="M 145.21707 159.020675 
L 169.716991 159.020675 
Q 170.496991 159.020675 170.496991 158.240675 
L 170.496991 151.949894 
Q 170.496991 151.169894 169.716991 151.169894 
L 145.21707 151.169894 
Q 144.43707 151.169894 144.43707 151.949894 
L 144.43707 158.240675 
Q 144.43707 159.020675 145.21707 159.020675 
z
" style="fill: #ffffff; opacity: 0.9"/>
    </g>
    <!-- context -->
    <g style="fill: #475569" transform="translate(145.21707 156.888878) scale(0.065 -0.065)">
     <defs>
      <path id="DejaVuSans-78" d="M 3513 3500 
L 2247 1797 
L 3578 0 
L 2900 0 
L 1881 1375 
L 863 0 
L 184 0 
L 1544 1831 
L 300 3500 
L 978 3500 
L 1906 2253 
L 2834 3500 
L 3513 3500 
z
" transform="scale(0.015625)"/>
     </defs>
     <use xlink:href="#DejaVuSans-63"/>
     <use xlink:href="#DejaVuSans-6f" transform="translate(54.980469 0)"/>
     <use xlink:href="#DejaVuSans-6e" transform="translate(116.162109 0)"/>
     <use xlink:href="#DejaVuSans-74" transform="translate(179.541016 0)"/>
     <use xlink:href="#DejaVuSans-65" transform="translate(218.75 0)"/>
     <use xlink:href="#DejaVuSans-78" transform="translate(278.523438 0)"/>
     <use xlink:href="#DejaVuSans-74" transform="translate(337.703125 0)"/>
    </g>
   </g>
   <g id="text_8">
    <!-- Corrective RAG (CRAG) Pipeline -->
    <g style="fill: #1D4ED8" transform="translate(7.2 17.077969) scale(0.13 -0.13)">
     <defs>
      <path id="DejaVuSans-Bold-43" d="M 4288 256 
Q 3956 84 3597 -3 
Q 3238 -91 2847 -91 
Q 1681 -91 1000 561 
Q 319 1213 319 2328 
Q 319 3447 1000 4098 
Q 1681 4750 2847 4750 
Q 3238 4750 3597 4662 
Q 3956 4575 4288 4403 
L 4288 3438 
Q 3953 3666 3628 3772 
Q 3303 3878 2944 3878 
Q 2300 3878 1931 3465 
Q 1563 3053 1563 2328 
Q 1563 1606 1931 1193 
Q 2300 781 2944 781 
Q 3303 781 3628 887 
Q 3953 994 4288 1222 
L 4288 256 
z
" transform="scale(0.015625)"/>
      <path id="DejaVuSans-Bold-6f" d="M 2203 2784 
Q 1831 2784 1636 2517 
Q 1441 2250 1441 1747 
Q 1441 1244 1636 976 
Q 1831 709 2203 709 
Q 2569 709 2762 976 
Q 2956 1244 2956 1747 
Q 2956 2250 2762 2517 
Q 2569 2784 2203 2784 
z
M 2203 3584 
Q 3106 3584 3614 3096 
Q 4122 2609 4122 1747 
Q 4122 884 3614 396 
Q 3106 -91 2203 -91 
Q 1297 -91 786 396 
Q 275 884 275 1747 
Q 275 2609 786 3096 
Q 1297 3584 2203 3584 
z
" transform="scale(0.015625)"/>
      <path id="DejaVuSans-Bold-72" d="M 3138 2547 
Q 2991 2616 2845 2648 
Q 2700 2681 2553 2681 
Q 2122 2681 1889 2404 
Q 1656 2128 1656 1613 
L 1656 0 
L 538 0 
L 538 3500 
L 1656 3500 
L 1656 2925 
Q 1872 3269 2151 3426 
Q 2431 3584 2822 3584 
Q 2878 3584 2943 3579 
Q 3009 3575 3134 3559 
L 3138 2547 
z
" transform="scale(0.015625)"/>
      <path id="DejaVuSans-Bold-65" d="M 4031 1759 
L 4031 1441 
L 1416 1441 
Q 1456 1047 1700 850 
Q 1944 653 2381 653 
Q 2734 653 3104 758 
Q 3475 863 3866 1075 
L 3866 213 
Q 3469 63 3072 -14 
Q 2675 -91 2278 -91 
Q 1328 -91 801 392 
Q 275 875 275 1747 
Q 275 2603 792 3093 
Q 1309 3584 2216 3584 
Q 3041 3584 3536 3087 
Q 4031 2591 4031 1759 
z
M 2881 2131 
Q 2881 2450 2695 2645 
Q 2509 2841 2209 2841 
Q 1884 2841 1681 2658 
Q 1478 2475 1428 2131 
L 2881 2131 
z
" transform="scale(0.015625)"/>
      <path id="DejaVuSans-Bold-63" d="M 3366 3391 
L 3366 2478 
Q 3138 2634 2908 2709 
Q 2678 2784 2431 2784 
Q 1963 2784 1702 2511 
Q 1441 2238 1441 1747 
Q 1441 1256 1702 982 
Q 1963 709 2431 709 
Q 2694 709 2930 787 
Q 3166 866 3366 1019 
L 3366 103 
Q 3103 6 2833 -42 
Q 2563 -91 2291 -91 
Q 1344 -91 809 395 
Q 275 881 275 1747 
Q 275 2613 809 3098 
Q 1344 3584 2291 3584 
Q 2566 3584 2833 3536 
Q 3100 3488 3366 3391 
z
" transform="scale(0.015625)"/>
      <path id="DejaVuSans-Bold-74" d="M 1759 4494 
L 1759 3500 
L 2913 3500 
L 2913 2700 
L 1759 2700 
L 1759 1216 
Q 1759 972 1856 886 
Q 1953 800 2241 800 
L 2816 800 
L 2816 0 
L 1856 0 
Q 1194 0 917 276 
Q 641 553 641 1216 
L 641 2700 
L 84 2700 
L 84 3500 
L 641 3500 
L 641 4494 
L 1759 4494 
z
" transform="scale(0.015625)"/>
      <path id="DejaVuSans-Bold-69" d="M 538 3500 
L 1656 3500 
L 1656 0 
L 538 0 
L 538 3500 
z
M 538 4863 
L 1656 4863 
L 1656 3950 
L 538 3950 
L 538 4863 
z
" transform="scale(0.015625)"/>
      <path id="DejaVuSans-Bold-76" d="M 97 3500 
L 1216 3500 
L 2088 1081 
L 2956 3500 
L 4078 3500 
L 2700 0 
L 1472 0 
L 97 3500 
z
" transform="scale(0.015625)"/>
      <path id="DejaVuSans-Bold-20" transform="scale(0.015625)"/>
      <path id="DejaVuSans-Bold-52" d="M 2297 2597 
Q 2675 2597 2839 2737 
Q 3003 2878 3003 3200 
Q 3003 3519 2839 3656 
Q 2675 3794 2297 3794 
L 1791 3794 
L 1791 2597 
L 2297 2597 
z
M 1791 1766 
L 1791 0 
L 588 0 
L 588 4666 
L 2425 4666 
Q 3347 4666 3776 4356 
Q 4206 4047 4206 3378 
Q 4206 2916 3982 2619 
Q 3759 2322 3309 2181 
Q 3556 2125 3751 1926 
Q 3947 1728 4147 1325 
L 4800 0 
L 3519 0 
L 2950 1159 
Q 2778 1509 2601 1637 
Q 2425 1766 2131 1766 
L 1791 1766 
z
" transform="scale(0.015625)"/>
      <path id="DejaVuSans-Bold-41" d="M 3419 850 
L 1538 850 
L 1241 0 
L 31 0 
L 1759 4666 
L 3194 4666 
L 4922 0 
L 3713 0 
L 3419 850 
z
M 1838 1716 
L 3116 1716 
L 2478 3572 
L 1838 1716 
z
" transform="scale(0.015625)"/>
      <path id="DejaVuSans-Bold-47" d="M 4781 347 
Q 4331 128 3847 18 
Q 3363 -91 2847 -91 
Q 1681 -91 1000 561 
Q 319 1213 319 2328 
Q 319 3456 1012 4103 
Q 1706 4750 2913 4750 
Q 3378 4750 3804 4662 
Q 4231 4575 4609 4403 
L 4609 3438 
Q 4219 3659 3833 3768 
Q 3447 3878 3059 3878 
Q 2341 3878 1952 3476 
Q 1563 3075 1563 2328 
Q 1563 1588 1938 1184 
Q 2313 781 3003 781 
Q 3191 781 3352 804 
Q 3513 828 3641 878 
L 3641 1784 
L 2906 1784 
L 2906 2591 
L 4781 2591 
L 4781 347 
z
" transform="scale(0.015625)"/>
      <path id="DejaVuSans-Bold-28" d="M 2413 -844 
L 1484 -844 
Q 1006 -72 778 623 
Q 550 1319 550 2003 
Q 550 2688 779 3389 
Q 1009 4091 1484 4856 
L 2413 4856 
Q 2013 4116 1813 3408 
Q 1613 2700 1613 2009 
Q 1613 1319 1811 609 
Q 2009 -100 2413 -844 
z
" transform="scale(0.015625)"/>
      <path id="DejaVuSans-Bold-29" d="M 513 -844 
Q 913 -100 1113 609 
Q 1313 1319 1313 2009 
Q 1313 2700 1113 3408 
Q 913 4116 513 4856 
L 1441 4856 
Q 1916 4091 2145 3389 
Q 2375 2688 2375 2003 
Q 2375 1319 2147 623 
Q 1919 -72 1441 -844 
L 513 -844 
z
" transform="scale(0.015625)"/>
      <path id="DejaVuSans-Bold-50" d="M 588 4666 
L 2584 4666 
Q 3475 4666 3951 4270 
Q 4428 3875 4428 3144 
Q 4428 2409 3951 2014 
Q 3475 1619 2584 1619 
L 1791 1619 
L 1791 0 
L 588 0 
L 588 4666 
z
M 1791 3794 
L 1791 2491 
L 2456 2491 
Q 2806 2491 2997 2661 
Q 3188 2831 3188 3144 
Q 3188 3456 2997 3625 
Q 2806 3794 2456 3794 
L 1791 3794 
z
" transform="scale(0.015625)"/>
      <path id="DejaVuSans-Bold-70" d="M 1656 506 
L 1656 -1331 
L 538 -1331 
L 538 3500 
L 1656 3500 
L 1656 2988 
Q 1888 3294 2169 3439 
Q 2450 3584 2816 3584 
Q 3463 3584 3878 3070 
Q 4294 2556 4294 1747 
Q 4294 938 3878 423 
Q 3463 -91 2816 -91 
Q 2450 -91 2169 54 
Q 1888 200 1656 506 
z
M 2400 2772 
Q 2041 2772 1848 2508 
Q 1656 2244 1656 1747 
Q 1656 1250 1848 986 
Q 2041 722 2400 722 
Q 2759 722 2948 984 
Q 3138 1247 3138 1747 
Q 3138 2247 2948 2509 
Q 2759 2772 2400 2772 
z
" transform="scale(0.015625)"/>
      <path id="DejaVuSans-Bold-6c" d="M 538 4863 
L 1656 4863 
L 1656 0 
L 538 0 
L 538 4863 
z
" transform="scale(0.015625)"/>
      <path id="DejaVuSans-Bold-6e" d="M 4056 2131 
L 4056 0 
L 2931 0 
L 2931 347 
L 2931 1631 
Q 2931 2084 2911 2256 
Q 2891 2428 2841 2509 
Q 2775 2619 2662 2680 
Q 2550 2741 2406 2741 
Q 2056 2741 1856 2470 
Q 1656 2200 1656 1722 
L 1656 0 
L 538 0 
L 538 3500 
L 1656 3500 
L 1656 2988 
Q 1909 3294 2193 3439 
Q 2478 3584 2822 3584 
Q 3428 3584 3742 3212 
Q 4056 2841 4056 2131 
z
" transform="scale(0.015625)"/>
     </defs>
     <use xlink:href="#DejaVuSans-Bold-43"/>
     <use xlink:href="#DejaVuSans-Bold-6f" transform="translate(73.388672 0)"/>
     <use xlink:href="#DejaVuSans-Bold-72" transform="translate(142.089844 0)"/>
     <use xlink:href="#DejaVuSans-Bold-72" transform="translate(191.40625 0)"/>
     <use xlink:href="#DejaVuSans-Bold-65" transform="translate(240.722656 0)"/>
     <use xlink:href="#DejaVuSans-Bold-63" transform="translate(308.544922 0)"/>
     <use xlink:href="#DejaVuSans-Bold-74" transform="translate(367.822266 0)"/>
     <use xlink:href="#DejaVuSans-Bold-69" transform="translate(415.625 0)"/>
     <use xlink:href="#DejaVuSans-Bold-76" transform="translate(449.902344 0)"/>
     <use xlink:href="#DejaVuSans-Bold-65" transform="translate(515.087891 0)"/>
     <use xlink:href="#DejaVuSans-Bold-20" transform="translate(582.910156 0)"/>
     <use xlink:href="#DejaVuSans-Bold-52" transform="translate(617.724609 0)"/>
     <use xlink:href="#DejaVuSans-Bold-41" transform="translate(694.726562 0)"/>
     <use xlink:href="#DejaVuSans-Bold-47" transform="translate(772.119141 0)"/>
     <use xlink:href="#DejaVuSans-Bold-20" transform="translate(854.199219 0)"/>
     <use xlink:href="#DejaVuSans-Bold-28" transform="translate(889.013672 0)"/>
     <use xlink:href="#DejaVuSans-Bold-43" transform="translate(934.716797 0)"/>
     <use xlink:href="#DejaVuSans-Bold-52" transform="translate(1008.105469 0)"/>
     <use xlink:href="#DejaVuSans-Bold-41" transform="translate(1085.107422 0)"/>
     <use xlink:href="#DejaVuSans-Bold-47" transform="translate(1162.5 0)"/>
     <use xlink:href="#DejaVuSans-Bold-29" transform="translate(1244.580078 0)"/>
     <use xlink:href="#DejaVuSans-Bold-20" transform="translate(1290.283203 0)"/>
     <use xlink:href="#DejaVuSans-Bold-50" transform="translate(1325.097656 0)"/>
     <use xlink:href="#DejaVuSans-Bold-69" transform="translate(1398.388672 0)"/>
     <use xlink:href="#DejaVuSans-Bold-70" transform="translate(1432.666016 0)"/>
     <use xlink:href="#DejaVuSans-Bold-65" transform="translate(1504.248047 0)"/>
     <use xlink:href="#DejaVuSans-Bold-6c" transform="translate(1572.070312 0)"/>
     <use xlink:href="#DejaVuSans-Bold-69" transform="translate(1606.347656 0)"/>
     <use xlink:href="#DejaVuSans-Bold-6e" transform="translate(1640.625 0)"/>
     <use xlink:href="#DejaVuSans-Bold-65" transform="translate(1711.816406 0)"/>
    </g>
   </g>
   <g id="patch_18">
    <path d="M 356.472 259.860343 
C 358.444634 259.860343 360.336739 259.076608 361.731602 257.681745 
C 363.126464 256.286882 363.9102 254.394777 363.9102 252.422143 
C 363.9102 250.44951 363.126464 248.557404 361.731602 247.162542 
C 360.336739 245.767679 358.444634 244.983943 356.472 244.983943 
C 354.499366 244.983943 352.607261 245.767679 351.212398 247.162542 
C 349.817536 248.557404 349.0338 250.44951 349.0338 252.422143 
C 349.0338 254.394777 349.817536 256.286882 351.212398 257.681745 
C 352.607261 259.076608 354.499366 259.860343 356.472 259.860343 
z
" clip-path="url(#pa623c40f85)" style="fill: #D97706; stroke: #ffffff; stroke-width: 1.2; stroke-linejoin: miter"/>
   </g>
   <g id="patch_19">
    <path d="M 356.472 367.475239 
C 358.728839 367.475239 360.893548 366.578587 362.489375 364.982761 
C 364.085201 363.386934 364.981853 361.222225 364.981853 358.965386 
C 364.981853 356.708546 364.085201 354.543837 362.489375 352.948011 
C 360.893548 351.352184 358.728839 350.455533 356.472 350.455533 
C 354.215161 350.455533 352.050452 351.352184 350.454625 352.948011 
C 348.858799 354.543837 347.962147 356.708546 347.962147 358.965386 
C 347.962147 361.222225 348.858799 363.386934 350.454625 364.982761 
C 352.050452 366.578587 354.215161 367.475239 356.472 367.475239 
z
" clip-path="url(#pa623c40f85)" style="fill: #1D4ED8; stroke: #ffffff; stroke-width: 1.2; stroke-linejoin: miter"/>
   </g>
   <g id="patch_20">
    <path d="M 255.862221 387.682131 
C 258.33714 387.682131 260.711025 386.698835 262.461056 384.948804 
C 264.211088 383.198772 265.194383 380.824887 265.194383 378.349969 
C 265.194383 375.87505 264.211088 373.501165 262.461056 371.751134 
C 260.711025 370.001102 258.33714 369.017807 255.862221 369.017807 
C 253.387303 369.017807 251.013418 370.001102 249.263386 371.751134 
C 247.513355 373.501165 246.53006 375.87505 246.53006 378.349969 
C 246.53006 380.824887 247.513355 383.198772 249.263386 384.948804 
C 251.013418 386.698835 253.387303 387.682131 255.862221 387.682131 
z
" clip-path="url(#pa623c40f85)" style="fill: #059669; stroke: #ffffff; stroke-width: 1.2; stroke-linejoin: miter"/>
   </g>
   <g id="patch_21">
    <path d="M 131.780997 308.727038 
C 134.255915 308.727038 136.6298 307.743742 138.379831 305.993711 
C 140.129863 304.243679 141.113158 301.869794 141.113158 299.394876 
C 141.113158 296.919957 140.129863 294.546072 138.379831 292.796041 
C 136.6298 291.046009 134.255915 290.062714 131.780997 290.062714 
C 129.306078 290.062714 126.932193 291.046009 125.182162 292.796041 
C 123.43213 294.546072 122.448835 296.919957 122.448835 299.394876 
C 122.448835 301.869794 123.43213 304.243679 125.182162 305.993711 
C 126.932193 307.743742 129.306078 308.727038 131.780997 308.727038 
z
" clip-path="url(#pa623c40f85)" style="fill: #059669; stroke: #ffffff; stroke-width: 1.2; stroke-linejoin: miter"/>
   </g>
   <g id="patch_22">
    <path d="M 123.624 386.859822 
C 125.880839 386.859822 128.045548 385.96317 129.641375 384.367344 
C 131.237201 382.771517 132.133853 380.606808 132.133853 378.349969 
C 132.133853 376.093129 131.237201 373.92842 129.641375 372.332594 
C 128.045548 370.736767 125.880839 369.840115 123.624 369.840115 
C 121.367161 369.840115 119.202452 370.736767 117.606625 372.332594 
C 116.010799 373.92842 115.114147 376.093129 115.114147 378.349969 
C 115.114147 380.606808 116.010799 382.771517 117.606625 384.367344 
C 119.202452 385.96317 121.367161 386.859822 123.624 386.859822 
z
" clip-path="url(#pa623c40f85)" style="fill: #B91C1C; stroke: #ffffff; stroke-width: 1.2; stroke-linejoin: miter"/>
   </g>
   <g id="patch_23">
    <path d="M 187.034021 386.859822 
C 189.29086 386.859822 191.455569 385.96317 193.051396 384.367344 
C 194.647222 382.771517 195.543874 380.606808 195.543874 378.349969 
C 195.543874 376.093129 194.647222 373.92842 193.051396 372.332594 
C 191.455569 370.736767 189.29086 369.840115 187.034021 369.840115 
C 184.777181 369.840115 182.612472 370.736767 181.016646 372.332594 
C 179.420819 373.92842 178.524167 376.093129 178.524167 378.349969 
C 178.524167 380.606808 179.420819 382.771517 181.016646 384.367344 
C 182.612472 385.96317 184.777181 386.859822 187.034021 386.859822 
z
" clip-path="url(#pa623c40f85)" style="fill: #1D4ED8; stroke: #ffffff; stroke-width: 1.2; stroke-linejoin: miter"/>
   </g>
   <g id="patch_24">
    <path d="M 123.624 194.81715 
C 125.880839 194.81715 128.045548 193.920498 129.641375 192.324671 
C 131.237201 190.728845 132.133853 188.564136 132.133853 186.307296 
C 132.133853 184.050457 131.237201 181.885748 129.641375 180.289921 
C 128.045548 178.694095 125.880839 177.797443 123.624 177.797443 
C 121.367161 177.797443 119.202452 178.694095 117.606625 180.289921 
C 116.010799 181.885748 115.114147 184.050457 115.114147 186.307296 
C 115.114147 188.564136 116.010799 190.728845 117.606625 192.324671 
C 119.202452 193.920498 121.367161 194.81715 123.624 194.81715 
z
" clip-path="url(#pa623c40f85)" style="fill: #1D4ED8; stroke: #ffffff; stroke-width: 1.2; stroke-linejoin: miter"/>
   </g>
   <g id="patch_25">
    <path d="M 184.592281 154.011822 
C 186.849121 154.011822 189.01383 153.11517 190.609656 151.519344 
C 192.205483 149.923517 193.102135 147.758808 193.102135 145.501969 
C 193.102135 143.245129 192.205483 141.08042 190.609656 139.484594 
C 189.01383 137.888767 186.849121 136.992115 184.592281 136.992115 
C 182.335442 136.992115 180.170733 137.888767 178.574906 139.484594 
C 176.97908 141.08042 176.082428 143.245129 176.082428 145.501969 
C 176.082428 147.758808 176.97908 149.923517 178.574906 151.519344 
C 180.170733 153.11517 182.335442 154.011822 184.592281 154.011822 
z
" clip-path="url(#pa623c40f85)" style="fill: #7C3AED; stroke: #ffffff; stroke-width: 1.2; stroke-linejoin: miter"/>
   </g>
   <g id="patch_26">
    <path d="M 282.832983 152.940169 
C 284.805617 152.940169 286.697722 152.156433 288.092585 150.76157 
C 289.487447 149.366708 290.271183 147.474602 290.271183 145.501969 
C 290.271183 143.529335 289.487447 141.63723 288.092585 140.242367 
C 286.697722 138.847504 284.805617 138.063769 282.832983 138.063769 
C 280.860349 138.063769 278.968244 138.847504 277.573381 140.242367 
C 276.178519 141.63723 275.394783 143.529335 275.394783 145.501969 
C 275.394783 147.474602 276.178519 149.366708 277.573381 150.76157 
C 278.968244 152.156433 280.860349 152.940169 282.832983 152.940169 
z
" clip-path="url(#pa623c40f85)" style="fill: #D97706; stroke: #ffffff; stroke-width: 1.2; stroke-linejoin: miter"/>
   </g>
   <g id="legend_1">
    <g id="patch_27">
     <path d="M 12.8 109.132969 
L 85.10875 109.132969 
Q 86.70875 109.132969 86.70875 107.532969 
L 86.70875 34.677969 
Q 86.70875 33.077969 85.10875 33.077969 
L 12.8 33.077969 
Q 11.2 33.077969 11.2 34.677969 
L 11.2 107.532969 
Q 11.2 109.132969 12.8 109.132969 
z
" style="fill: #ffffff; opacity: 0.9; stroke: #cccccc; stroke-linejoin: miter"/>
    </g>
    <g id="patch_28">
     <path d="M 16 43.956719 
L 32 43.956719 
L 32 38.356719 
L 16 38.356719 
z
" style="fill: #D97706; stroke: #D97706; stroke-linejoin: miter"/>
    </g>
    <g id="text_9">
     <!-- input -->
     <g transform="translate(38.4 43.956719) scale(0.08 -0.08)">
      <use xlink:href="#DejaVuSans-69"/>
      <use xlink:href="#DejaVuSans-6e" transform="translate(27.783203 0)"/>
      <use xlink:href="#DejaVuSans-70" transform="translate(91.162109 0)"/>
      <use xlink:href="#DejaVuSans-75" transform="translate(154.638672 0)"/>
      <use xlink:href="#DejaVuSans-74" transform="translate(218.017578 0)"/>
     </g>
    </g>
    <g id="patch_29">
     <path d="M 16 55.699219 
L 32 55.699219 
L 32 50.099219 
L 16 50.099219 
z
" style="fill: #1D4ED8; stroke: #1D4ED8; stroke-linejoin: miter"/>
    </g>
    <g id="text_10">
     <!-- retrieval -->
     <g transform="translate(38.4 55.699219) scale(0.08 -0.08)">
      <defs>
       <path id="DejaVuSans-76" d="M 191 3500 
L 800 3500 
L 1894 563 
L 2988 3500 
L 3597 3500 
L 2284 0 
L 1503 0 
L 191 3500 
z
" transform="scale(0.015625)"/>
       <path id="DejaVuSans-6c" d="M 603 4863 
L 1178 4863 
L 1178 0 
L 603 0 
L 603 4863 
z
" transform="scale(0.015625)"/>
      </defs>
      <use xlink:href="#DejaVuSans-72"/>
      <use xlink:href="#DejaVuSans-65" transform="translate(38.863281 0)"/>
      <use xlink:href="#DejaVuSans-74" transform="translate(100.386719 0)"/>
      <use xlink:href="#DejaVuSans-72" transform="translate(139.595703 0)"/>
      <use xlink:href="#DejaVuSans-69" transform="translate(180.708984 0)"/>
      <use xlink:href="#DejaVuSans-65" transform="translate(208.492188 0)"/>
      <use xlink:href="#DejaVuSans-76" transform="translate(270.015625 0)"/>
      <use xlink:href="#DejaVuSans-61" transform="translate(329.195312 0)"/>
      <use xlink:href="#DejaVuSans-6c" transform="translate(390.474609 0)"/>
     </g>
    </g>
    <g id="patch_30">
     <path d="M 16 67.441719 
L 32 67.441719 
L 32 61.841719 
L 16 61.841719 
z
" style="fill: #059669; stroke: #059669; stroke-linejoin: miter"/>
    </g>
    <g id="text_11">
     <!-- decision -->
     <g transform="translate(38.4 67.441719) scale(0.08 -0.08)">
      <use xlink:href="#DejaVuSans-64"/>
      <use xlink:href="#DejaVuSans-65" transform="translate(63.476562 0)"/>
      <use xlink:href="#DejaVuSans-63" transform="translate(125 0)"/>
      <use xlink:href="#DejaVuSans-69" transform="translate(179.980469 0)"/>
      <use xlink:href="#DejaVuSans-73" transform="translate(207.763672 0)"/>
      <use xlink:href="#DejaVuSans-69" transform="translate(259.863281 0)"/>
      <use xlink:href="#DejaVuSans-6f" transform="translate(287.646484 0)"/>
      <use xlink:href="#DejaVuSans-6e" transform="translate(348.828125 0)"/>
     </g>
    </g>
    <g id="patch_31">
     <path d="M 16 79.184219 
L 32 79.184219 
L 32 73.584219 
L 16 73.584219 
z
" style="fill: #B91C1C; stroke: #B91C1C; stroke-linejoin: miter"/>
    </g>
    <g id="text_12">
     <!-- correction -->
     <g transform="translate(38.4 79.184219) scale(0.08 -0.08)">
      <use xlink:href="#DejaVuSans-63"/>
      <use xlink:href="#DejaVuSans-6f" transform="translate(54.980469 0)"/>
      <use xlink:href="#DejaVuSans-72" transform="translate(116.162109 0)"/>
      <use xlink:href="#DejaVuSans-72" transform="translate(155.525391 0)"/>
      <use xlink:href="#DejaVuSans-65" transform="translate(194.388672 0)"/>
      <use xlink:href="#DejaVuSans-63" transform="translate(255.912109 0)"/>
      <use xlink:href="#DejaVuSans-74" transform="translate(310.892578 0)"/>
      <use xlink:href="#DejaVuSans-69" transform="translate(350.101562 0)"/>
      <use xlink:href="#DejaVuSans-6f" transform="translate(377.884766 0)"/>
      <use xlink:href="#DejaVuSans-6e" transform="translate(439.066406 0)"/>
     </g>
    </g>
    <g id="patch_32">
     <path d="M 16 90.926719 
L 32 90.926719 
L 32 85.326719 
L 16 85.326719 
z
" style="fill: #7C3AED; stroke: #7C3AED; stroke-linejoin: miter"/>
    </g>
    <g id="text_13">
     <!-- generation -->
     <g transform="translate(38.4 90.926719) scale(0.08 -0.08)">
      <defs>
       <path id="DejaVuSans-67" d="M 2906 1791 
Q 2906 2416 2648 2759 
Q 2391 3103 1925 3103 
Q 1463 3103 1205 2759 
Q 947 2416 947 1791 
Q 947 1169 1205 825 
Q 1463 481 1925 481 
Q 2391 481 2648 825 
Q 2906 1169 2906 1791 
z
M 3481 434 
Q 3481 -459 3084 -895 
Q 2688 -1331 1869 -1331 
Q 1566 -1331 1297 -1286 
Q 1028 -1241 775 -1147 
L 775 -588 
Q 1028 -725 1275 -790 
Q 1522 -856 1778 -856 
Q 2344 -856 2625 -561 
Q 2906 -266 2906 331 
L 2906 616 
Q 2728 306 2450 153 
Q 2172 0 1784 0 
Q 1141 0 747 490 
Q 353 981 353 1791 
Q 353 2603 747 3093 
Q 1141 3584 1784 3584 
Q 2172 3584 2450 3431 
Q 2728 3278 2906 2969 
L 2906 3500 
L 3481 3500 
L 3481 434 
z
" transform="scale(0.015625)"/>
      </defs>
      <use xlink:href="#DejaVuSans-67"/>
      <use xlink:href="#DejaVuSans-65" transform="translate(63.476562 0)"/>
      <use xlink:href="#DejaVuSans-6e" transform="translate(125 0)"/>
      <use xlink:href="#DejaVuSans-65" transform="translate(188.378906 0)"/>
      <use xlink:href="#DejaVuSans-72" transform="translate(249.902344 0)"/>
      <use xlink:href="#DejaVuSans-61" transform="translate(291.015625 0)"/>
      <use xlink:href="#DejaVuSans-74" transform="translate(352.294922 0)"/>
      <use xlink:href="#DejaVuSans-69" transform="translate(391.503906 0)"/>
      <use xlink:href="#DejaVuSans-6f" transform="translate(419.287109 0)"/>
      <use xlink:href="#DejaVuSans-6e" transform="translate(480.46875 0)"/>
     </g>
    </g>
    <g id="patch_33">
     <path d="M 16 102.669219 
L 32 102.669219 
L 32 97.069219 
L 16 97.069219 
z
" style="fill: #D97706; stroke: #D97706; stroke-linejoin: miter"/>
    </g>
    <g id="text_14">
     <!-- output -->
     <g transform="translate(38.4 102.669219) scale(0.08 -0.08)">
      <use xlink:href="#DejaVuSans-6f"/>
      <use xlink:href="#DejaVuSans-75" transform="translate(61.181641 0)"/>
      <use xlink:href="#DejaVuSans-74" transform="translate(124.560547 0)"/>
      <use xlink:href="#DejaVuSans-70" transform="translate(163.769531 0)"/>
      <use xlink:href="#DejaVuSans-75" transform="translate(227.246094 0)"/>
      <use xlink:href="#DejaVuSans-74" transform="translate(290.625 0)"/>
     </g>
    </g>
   </g>
   <g id="text_15">
    <g id="patch_34">
     <path d="M 370.718857 254.132117 
L 393.512997 254.132117 
Q 394.562997 254.132117 394.562997 253.082117 
L 394.562997 245.823523 
Q 394.562997 244.773523 393.512997 244.773523 
L 370.718857 244.773523 
Q 369.668857 244.773523 369.668857 245.823523 
L 369.668857 253.082117 
Q 369.668857 254.132117 370.718857 254.132117 
z
" style="fill: #ffffff; opacity: 0.88"/>
    </g>
    <!-- Query -->
    <g style="fill: #212529" transform="translate(370.718857 251.522351) scale(0.075 -0.075)">
     <defs>
      <path id="DejaVuSans-51" d="M 2522 4238 
Q 1834 4238 1429 3725 
Q 1025 3213 1025 2328 
Q 1025 1447 1429 934 
Q 1834 422 2522 422 
Q 3209 422 3611 934 
Q 4013 1447 4013 2328 
Q 4013 3213 3611 3725 
Q 3209 4238 2522 4238 
z
M 3406 84 
L 4238 -825 
L 3475 -825 
L 2784 -78 
Q 2681 -84 2626 -87 
Q 2572 -91 2522 -91 
Q 1538 -91 948 567 
Q 359 1225 359 2328 
Q 359 3434 948 4092 
Q 1538 4750 2522 4750 
Q 3503 4750 4090 4092 
Q 4678 3434 4678 2328 
Q 4678 1516 4351 937 
Q 4025 359 3406 84 
z
" transform="scale(0.015625)"/>
     </defs>
     <use xlink:href="#DejaVuSans-51"/>
     <use xlink:href="#DejaVuSans-75" transform="translate(78.710938 0)"/>
     <use xlink:href="#DejaVuSans-65" transform="translate(142.089844 0)"/>
     <use xlink:href="#DejaVuSans-72" transform="translate(203.613281 0)"/>
     <use xlink:href="#DejaVuSans-79" transform="translate(244.726562 0)"/>
    </g>
   </g>
   <g id="text_16">
    <g id="patch_35">
     <path d="M 369.948398 382.154369 
L 426.414023 382.154369 
Q 427.464023 382.154369 427.464023 381.104369 
L 427.464023 366.872123 
Q 427.464023 365.822123 426.414023 365.822123 
L 369.948398 365.822123 
Q 368.898398 365.822123 368.898398 366.872123 
L 368.898398 381.104369 
Q 368.898398 382.154369 369.948398 382.154369 
z
" style="fill: #ffffff; opacity: 0.88"/>
    </g>
    <!-- Initial Retrieval -->
    <g style="fill: #212529" transform="translate(369.948398 372.570951) scale(0.075 -0.075)">
     <defs>
      <path id="DejaVuSans-49" d="M 628 4666 
L 1259 4666 
L 1259 0 
L 628 0 
L 628 4666 
z
" transform="scale(0.015625)"/>
      <path id="DejaVuSans-52" d="M 2841 2188 
Q 3044 2119 3236 1894 
Q 3428 1669 3622 1275 
L 4263 0 
L 3584 0 
L 2988 1197 
Q 2756 1666 2539 1819 
Q 2322 1972 1947 1972 
L 1259 1972 
L 1259 0 
L 628 0 
L 628 4666 
L 2053 4666 
Q 2853 4666 3247 4331 
Q 3641 3997 3641 3322 
Q 3641 2881 3436 2590 
Q 3231 2300 2841 2188 
z
M 1259 4147 
L 1259 2491 
L 2053 2491 
Q 2509 2491 2742 2702 
Q 2975 2913 2975 3322 
Q 2975 3731 2742 3939 
Q 2509 4147 2053 4147 
L 1259 4147 
z
" transform="scale(0.015625)"/>
     </defs>
     <use xlink:href="#DejaVuSans-49"/>
     <use xlink:href="#DejaVuSans-6e" transform="translate(29.492188 0)"/>
     <use xlink:href="#DejaVuSans-69" transform="translate(92.871094 0)"/>
     <use xlink:href="#DejaVuSans-74" transform="translate(120.654297 0)"/>
     <use xlink:href="#DejaVuSans-69" transform="translate(159.863281 0)"/>
     <use xlink:href="#DejaVuSans-61" transform="translate(187.646484 0)"/>
     <use xlink:href="#DejaVuSans-6c" transform="translate(248.925781 0)"/>
     <use xlink:href="#DejaVuSans-20" transform="translate(276.708984 0)"/>
     <use xlink:href="#DejaVuSans-52" transform="translate(308.496094 0)"/>
     <use xlink:href="#DejaVuSans-65" transform="translate(373.478516 0)"/>
     <use xlink:href="#DejaVuSans-74" transform="translate(435.001953 0)"/>
     <use xlink:href="#DejaVuSans-72" transform="translate(474.210938 0)"/>
     <use xlink:href="#DejaVuSans-69" transform="translate(515.324219 0)"/>
     <use xlink:href="#DejaVuSans-65" transform="translate(543.107422 0)"/>
     <use xlink:href="#DejaVuSans-76" transform="translate(604.630859 0)"/>
     <use xlink:href="#DejaVuSans-61" transform="translate(663.810547 0)"/>
     <use xlink:href="#DejaVuSans-6c" transform="translate(725.089844 0)"/>
    </g>
    <!-- (hybrid, k=20) -->
    <g style="fill: #212529" transform="translate(369.948398 379.544603) scale(0.075 -0.075)">
     <defs>
      <path id="DejaVuSans-2c" d="M 750 794 
L 1409 794 
L 1409 256 
L 897 -744 
L 494 -744 
L 750 256 
L 750 794 
z
" transform="scale(0.015625)"/>
      <path id="DejaVuSans-3d" d="M 678 2906 
L 4684 2906 
L 4684 2381 
L 678 2381 
L 678 2906 
z
M 678 1631 
L 4684 1631 
L 4684 1100 
L 678 1100 
L 678 1631 
z
" transform="scale(0.015625)"/>
      <path id="DejaVuSans-32" d="M 1228 531 
L 3431 531 
L 3431 0 
L 469 0 
L 469 531 
Q 828 903 1448 1529 
Q 2069 2156 2228 2338 
Q 2531 2678 2651 2914 
Q 2772 3150 2772 3378 
Q 2772 3750 2511 3984 
Q 2250 4219 1831 4219 
Q 1534 4219 1204 4116 
Q 875 4013 500 3803 
L 500 4441 
Q 881 4594 1212 4672 
Q 1544 4750 1819 4750 
Q 2544 4750 2975 4387 
Q 3406 4025 3406 3419 
Q 3406 3131 3298 2873 
Q 3191 2616 2906 2266 
Q 2828 2175 2409 1742 
Q 1991 1309 1228 531 
z
" transform="scale(0.015625)"/>
      <path id="DejaVuSans-30" d="M 2034 4250 
Q 1547 4250 1301 3770 
Q 1056 3291 1056 2328 
Q 1056 1369 1301 889 
Q 1547 409 2034 409 
Q 2525 409 2770 889 
Q 3016 1369 3016 2328 
Q 3016 3291 2770 3770 
Q 2525 4250 2034 4250 
z
M 2034 4750 
Q 2819 4750 3233 4129 
Q 3647 3509 3647 2328 
Q 3647 1150 3233 529 
Q 2819 -91 2034 -91 
Q 1250 -91 836 529 
Q 422 1150 422 2328 
Q 422 3509 836 4129 
Q 1250 4750 2034 4750 
z
" transform="scale(0.015625)"/>
     </defs>
     <use xlink:href="#DejaVuSans-28"/>
     <use xlink:href="#DejaVuSans-68" transform="translate(39.013672 0)"/>
     <use xlink:href="#DejaVuSans-79" transform="translate(102.392578 0)"/>
     <use xlink:href="#DejaVuSans-62" transform="translate(161.572266 0)"/>
     <use xlink:href="#DejaVuSans-72" transform="translate(225.048828 0)"/>
     <use xlink:href="#DejaVuSans-69" transform="translate(266.162109 0)"/>
     <use xlink:href="#DejaVuSans-64" transform="translate(293.945312 0)"/>
     <use xlink:href="#DejaVuSans-2c" transform="translate(357.421875 0)"/>
     <use xlink:href="#DejaVuSans-20" transform="translate(389.208984 0)"/>
     <use xlink:href="#DejaVuSans-6b" transform="translate(420.996094 0)"/>
     <use xlink:href="#DejaVuSans-3d" transform="translate(478.90625 0)"/>
     <use xlink:href="#DejaVuSans-32" transform="translate(562.695312 0)"/>
     <use xlink:href="#DejaVuSans-30" transform="translate(626.318359 0)"/>
     <use xlink:href="#DejaVuSans-29" transform="translate(689.941406 0)"/>
    </g>
   </g>
   <g id="text_17">
    <g id="patch_36">
     <path d="M 261.165773 409.200609 
L 321.409523 409.200609 
Q 322.459523 409.200609 322.459523 408.150609 
L 322.459523 393.918363 
Q 322.459523 392.868363 321.409523 392.868363 
L 261.165773 392.868363 
Q 260.115773 392.868363 260.115773 393.918363 
L 260.115773 408.150609 
Q 260.115773 409.200609 261.165773 409.200609 
z
" style="fill: #ffffff; opacity: 0.88"/>
    </g>
    <!-- LLM: Grade -->
    <g style="fill: #212529" transform="translate(261.165773 399.617191) scale(0.075 -0.075)">
     <defs>
      <path id="DejaVuSans-4c" d="M 628 4666 
L 1259 4666 
L 1259 531 
L 3531 531 
L 3531 0 
L 628 0 
L 628 4666 
z
" transform="scale(0.015625)"/>
      <path id="DejaVuSans-4d" d="M 628 4666 
L 1569 4666 
L 2759 1491 
L 3956 4666 
L 4897 4666 
L 4897 0 
L 4281 0 
L 4281 4097 
L 3078 897 
L 2444 897 
L 1241 4097 
L 1241 0 
L 628 0 
L 628 4666 
z
" transform="scale(0.015625)"/>
      <path id="DejaVuSans-3a" d="M 750 794 
L 1409 794 
L 1409 0 
L 750 0 
L 750 794 
z
M 750 3309 
L 1409 3309 
L 1409 2516 
L 750 2516 
L 750 3309 
z
" transform="scale(0.015625)"/>
      <path id="DejaVuSans-47" d="M 3809 666 
L 3809 1919 
L 2778 1919 
L 2778 2438 
L 4434 2438 
L 4434 434 
Q 4069 175 3628 42 
Q 3188 -91 2688 -91 
Q 1594 -91 976 548 
Q 359 1188 359 2328 
Q 359 3472 976 4111 
Q 1594 4750 2688 4750 
Q 3144 4750 3555 4637 
Q 3966 4525 4313 4306 
L 4313 3634 
Q 3963 3931 3569 4081 
Q 3175 4231 2741 4231 
Q 1884 4231 1454 3753 
Q 1025 3275 1025 2328 
Q 1025 1384 1454 906 
Q 1884 428 2741 428 
Q 3075 428 3337 486 
Q 3600 544 3809 666 
z
" transform="scale(0.015625)"/>
     </defs>
     <use xlink:href="#DejaVuSans-4c"/>
     <use xlink:href="#DejaVuSans-4c" transform="translate(55.712891 0)"/>
     <use xlink:href="#DejaVuSans-4d" transform="translate(111.425781 0)"/>
     <use xlink:href="#DejaVuSans-3a" transform="translate(197.705078 0)"/>
     <use xlink:href="#DejaVuSans-20" transform="translate(231.396484 0)"/>
     <use xlink:href="#DejaVuSans-47" transform="translate(263.183594 0)"/>
     <use xlink:href="#DejaVuSans-72" transform="translate(340.673828 0)"/>
     <use xlink:href="#DejaVuSans-61" transform="translate(381.787109 0)"/>
     <use xlink:href="#DejaVuSans-64" transform="translate(443.066406 0)"/>
     <use xlink:href="#DejaVuSans-65" transform="translate(506.542969 0)"/>
    </g>
    <!-- Relevance (0–1) -->
    <g style="fill: #212529" transform="translate(261.165773 406.590843) scale(0.075 -0.075)">
     <defs>
      <path id="DejaVuSans-2013" d="M 313 1978 
L 2888 1978 
L 2888 1528 
L 313 1528 
L 313 1978 
z
" transform="scale(0.015625)"/>
      <path id="DejaVuSans-31" d="M 794 531 
L 1825 531 
L 1825 4091 
L 703 3866 
L 703 4441 
L 1819 4666 
L 2450 4666 
L 2450 531 
L 3481 531 
L 3481 0 
L 794 0 
L 794 531 
z
" transform="scale(0.015625)"/>
     </defs>
     <use xlink:href="#DejaVuSans-52"/>
     <use xlink:href="#DejaVuSans-65" transform="translate(64.982422 0)"/>
     <use xlink:href="#DejaVuSans-6c" transform="translate(126.505859 0)"/>
     <use xlink:href="#DejaVuSans-65" transform="translate(154.289062 0)"/>
     <use xlink:href="#DejaVuSans-76" transform="translate(215.8125 0)"/>
     <use xlink:href="#DejaVuSans-61" transform="translate(274.992188 0)"/>
     <use xlink:href="#DejaVuSans-6e" transform="translate(336.271484 0)"/>
     <use xlink:href="#DejaVuSans-63" transform="translate(399.650391 0)"/>
     <use xlink:href="#DejaVuSans-65" transform="translate(454.630859 0)"/>
     <use xlink:href="#DejaVuSans-20" transform="translate(516.154297 0)"/>
     <use xlink:href="#DejaVuSans-28" transform="translate(547.941406 0)"/>
     <use xlink:href="#DejaVuSans-30" transform="translate(586.955078 0)"/>
     <use xlink:href="#DejaVuSans-2013" transform="translate(650.578125 0)"/>
     <use xlink:href="#DejaVuSans-31" transform="translate(700.578125 0)"/>
     <use xlink:href="#DejaVuSans-29" transform="translate(764.201172 0)"/>
    </g>
   </g>
   <g id="text_18">
    <g id="patch_37">
     <path d="M 59.943692 310.94103 
L 115.685098 310.94103 
Q 116.735098 310.94103 116.735098 309.89103 
L 116.735098 295.658784 
Q 116.735098 294.608784 115.685098 294.608784 
L 59.943692 294.608784 
Q 58.893692 294.608784 58.893692 295.658784 
L 58.893692 309.89103 
Q 58.893692 310.94103 59.943692 310.94103 
z
" style="fill: #ffffff; opacity: 0.88"/>
    </g>
    <!-- Sufficient? (≥3 -->
    <g style="fill: #212529" transform="translate(59.943692 301.357612) scale(0.075 -0.075)">
     <defs>
      <path id="DejaVuSans-53" d="M 3425 4513 
L 3425 3897 
Q 3066 4069 2747 4153 
Q 2428 4238 2131 4238 
Q 1616 4238 1336 4038 
Q 1056 3838 1056 3469 
Q 1056 3159 1242 3001 
Q 1428 2844 1947 2747 
L 2328 2669 
Q 3034 2534 3370 2195 
Q 3706 1856 3706 1288 
Q 3706 609 3251 259 
Q 2797 -91 1919 -91 
Q 1588 -91 1214 -16 
Q 841 59 441 206 
L 441 856 
Q 825 641 1194 531 
Q 1563 422 1919 422 
Q 2459 422 2753 634 
Q 3047 847 3047 1241 
Q 3047 1584 2836 1778 
Q 2625 1972 2144 2069 
L 1759 2144 
Q 1053 2284 737 2584 
Q 422 2884 422 3419 
Q 422 4038 858 4394 
Q 1294 4750 2059 4750 
Q 2388 4750 2728 4690 
Q 3069 4631 3425 4513 
z
" transform="scale(0.015625)"/>
      <path id="DejaVuSans-66" d="M 2375 4863 
L 2375 4384 
L 1825 4384 
Q 1516 4384 1395 4259 
Q 1275 4134 1275 3809 
L 1275 3500 
L 2222 3500 
L 2222 3053 
L 1275 3053 
L 1275 0 
L 697 0 
L 697 3053 
L 147 3053 
L 147 3500 
L 697 3500 
L 697 3744 
Q 697 4328 969 4595 
Q 1241 4863 1831 4863 
L 2375 4863 
z
" transform="scale(0.015625)"/>
      <path id="DejaVuSans-3f" d="M 1222 794 
L 1856 794 
L 1856 0 
L 1222 0 
L 1222 794 
z
M 1838 1253 
L 1241 1253 
L 1241 1734 
Q 1241 2050 1328 2253 
Q 1416 2456 1697 2725 
L 1978 3003 
Q 2156 3169 2236 3316 
Q 2316 3463 2316 3616 
Q 2316 3894 2111 4066 
Q 1906 4238 1569 4238 
Q 1322 4238 1042 4128 
Q 763 4019 459 3809 
L 459 4397 
Q 753 4575 1054 4662 
Q 1356 4750 1678 4750 
Q 2253 4750 2601 4447 
Q 2950 4144 2950 3647 
Q 2950 3409 2837 3195 
Q 2725 2981 2444 2713 
L 2169 2444 
Q 2022 2297 1961 2214 
Q 1900 2131 1875 2053 
Q 1856 1988 1847 1894 
Q 1838 1800 1838 1638 
L 1838 1253 
z
" transform="scale(0.015625)"/>
      <path id="DejaVuSans-2265" d="M 678 3175 
L 678 3725 
L 4684 2578 
L 4684 2047 
L 678 897 
L 678 1453 
L 3681 2309 
L 678 3175 
z
M 4684 531 
L 4684 0 
L 678 0 
L 678 531 
L 4684 531 
z
" transform="scale(0.015625)"/>
      <path id="DejaVuSans-33" d="M 2597 2516 
Q 3050 2419 3304 2112 
Q 3559 1806 3559 1356 
Q 3559 666 3084 287 
Q 2609 -91 1734 -91 
Q 1441 -91 1130 -33 
Q 819 25 488 141 
L 488 750 
Q 750 597 1062 519 
Q 1375 441 1716 441 
Q 2309 441 2620 675 
Q 2931 909 2931 1356 
Q 2931 1769 2642 2001 
Q 2353 2234 1838 2234 
L 1294 2234 
L 1294 2753 
L 1863 2753 
Q 2328 2753 2575 2939 
Q 2822 3125 2822 3475 
Q 2822 3834 2567 4026 
Q 2313 4219 1838 4219 
Q 1578 4219 1281 4162 
Q 984 4106 628 3988 
L 628 4550 
Q 988 4650 1302 4700 
Q 1616 4750 1894 4750 
Q 2613 4750 3031 4423 
Q 3450 4097 3450 3541 
Q 3450 3153 3228 2886 
Q 3006 2619 2597 2516 
z
" transform="scale(0.015625)"/>
     </defs>
     <use xlink:href="#DejaVuSans-53"/>
     <use xlink:href="#DejaVuSans-75" transform="translate(63.476562 0)"/>
     <use xlink:href="#DejaVuSans-66" transform="translate(126.855469 0)"/>
     <use xlink:href="#DejaVuSans-66" transform="translate(162.060547 0)"/>
     <use xlink:href="#DejaVuSans-69" transform="translate(197.265625 0)"/>
     <use xlink:href="#DejaVuSans-63" transform="translate(225.048828 0)"/>
     <use xlink:href="#DejaVuSans-69" transform="translate(280.029297 0)"/>
     <use xlink:href="#DejaVuSans-65" transform="translate(307.8125 0)"/>
     <use xlink:href="#DejaVuSans-6e" transform="translate(369.335938 0)"/>
     <use xlink:href="#DejaVuSans-74" transform="translate(432.714844 0)"/>
     <use xlink:href="#DejaVuSans-3f" transform="translate(471.923828 0)"/>
     <use xlink:href="#DejaVuSans-20" transform="translate(525 0)"/>
     <use xlink:href="#DejaVuSans-28" transform="translate(556.787109 0)"/>
     <use xlink:href="#DejaVuSans-2265" transform="translate(595.800781 0)"/>
     <use xlink:href="#DejaVuSans-33" transform="translate(679.589844 0)"/>
    </g>
    <!-- chunks &gt; 0.5) -->
    <g style="fill: #212529" transform="translate(63.146426 308.331265) scale(0.075 -0.075)">
     <defs>
      <path id="DejaVuSans-3e" d="M 678 3150 
L 678 3719 
L 4684 2266 
L 4684 1747 
L 678 294 
L 678 863 
L 3897 2003 
L 678 3150 
z
" transform="scale(0.015625)"/>
      <path id="DejaVuSans-2e" d="M 684 794 
L 1344 794 
L 1344 0 
L 684 0 
L 684 794 
z
" transform="scale(0.015625)"/>
      <path id="DejaVuSans-35" d="M 691 4666 
L 3169 4666 
L 3169 4134 
L 1269 4134 
L 1269 2991 
Q 1406 3038 1543 3061 
Q 1681 3084 1819 3084 
Q 2600 3084 3056 2656 
Q 3513 2228 3513 1497 
Q 3513 744 3044 326 
Q 2575 -91 1722 -91 
Q 1428 -91 1123 -41 
Q 819 9 494 109 
L 494 744 
Q 775 591 1075 516 
Q 1375 441 1709 441 
Q 2250 441 2565 725 
Q 2881 1009 2881 1497 
Q 2881 1984 2565 2268 
Q 2250 2553 1709 2553 
Q 1456 2553 1204 2497 
Q 953 2441 691 2322 
L 691 4666 
z
" transform="scale(0.015625)"/>
     </defs>
     <use xlink:href="#DejaVuSans-63"/>
     <use xlink:href="#DejaVuSans-68" transform="translate(54.980469 0)"/>
     <use xlink:href="#DejaVuSans-75" transform="translate(118.359375 0)"/>
     <use xlink:href="#DejaVuSans-6e" transform="translate(181.738281 0)"/>
     <use xlink:href="#DejaVuSans-6b" transform="translate(245.117188 0)"/>
     <use xlink:href="#DejaVuSans-73" transform="translate(303.027344 0)"/>
     <use xlink:href="#DejaVuSans-20" transform="translate(355.126953 0)"/>
     <use xlink:href="#DejaVuSans-3e" transform="translate(386.914062 0)"/>
     <use xlink:href="#DejaVuSans-20" transform="translate(470.703125 0)"/>
     <use xlink:href="#DejaVuSans-30" transform="translate(502.490234 0)"/>
     <use xlink:href="#DejaVuSans-2e" transform="translate(566.113281 0)"/>
     <use xlink:href="#DejaVuSans-35" transform="translate(597.900391 0)"/>
     <use xlink:href="#DejaVuSans-29" transform="translate(661.523438 0)"/>
    </g>
   </g>
   <g id="text_19">
    <g id="patch_38">
     <path d="M 47.695148 404.632565 
L 112.527961 404.632565 
Q 113.577961 404.632565 113.577961 403.582565 
L 113.577961 389.350319 
Q 113.577961 388.300319 112.527961 388.300319 
L 47.695148 388.300319 
Q 46.645148 388.300319 46.645148 389.350319 
L 46.645148 403.582565 
Q 46.645148 404.632565 47.695148 404.632565 
z
" style="fill: #ffffff; opacity: 0.88"/>
    </g>
    <!-- LLM: Rewrite into -->
    <g style="fill: #212529" transform="translate(47.695148 395.049147) scale(0.075 -0.075)">
     <use xlink:href="#DejaVuSans-4c"/>
     <use xlink:href="#DejaVuSans-4c" transform="translate(55.712891 0)"/>
     <use xlink:href="#DejaVuSans-4d" transform="translate(111.425781 0)"/>
     <use xlink:href="#DejaVuSans-3a" transform="translate(197.705078 0)"/>
     <use xlink:href="#DejaVuSans-20" transform="translate(231.396484 0)"/>
     <use xlink:href="#DejaVuSans-52" transform="translate(263.183594 0)"/>
     <use xlink:href="#DejaVuSans-65" transform="translate(328.166016 0)"/>
     <use xlink:href="#DejaVuSans-77" transform="translate(389.689453 0)"/>
     <use xlink:href="#DejaVuSans-72" transform="translate(471.476562 0)"/>
     <use xlink:href="#DejaVuSans-69" transform="translate(512.589844 0)"/>
     <use xlink:href="#DejaVuSans-74" transform="translate(540.373047 0)"/>
     <use xlink:href="#DejaVuSans-65" transform="translate(579.582031 0)"/>
     <use xlink:href="#DejaVuSans-20" transform="translate(641.105469 0)"/>
     <use xlink:href="#DejaVuSans-69" transform="translate(672.892578 0)"/>
     <use xlink:href="#DejaVuSans-6e" transform="translate(700.675781 0)"/>
     <use xlink:href="#DejaVuSans-74" transform="translate(764.054688 0)"/>
     <use xlink:href="#DejaVuSans-6f" transform="translate(803.263672 0)"/>
    </g>
    <!-- 3 Sub-queries -->
    <g style="fill: #212529" transform="translate(60.572883 402.022799) scale(0.075 -0.075)">
     <use xlink:href="#DejaVuSans-33"/>
     <use xlink:href="#DejaVuSans-20" transform="translate(63.623047 0)"/>
     <use xlink:href="#DejaVuSans-53" transform="translate(95.410156 0)"/>
     <use xlink:href="#DejaVuSans-75" transform="translate(158.886719 0)"/>
     <use xlink:href="#DejaVuSans-62" transform="translate(222.265625 0)"/>
     <use xlink:href="#DejaVuSans-2d" transform="translate(285.742188 0)"/>
     <use xlink:href="#DejaVuSans-71" transform="translate(321.826172 0)"/>
     <use xlink:href="#DejaVuSans-75" transform="translate(385.302734 0)"/>
     <use xlink:href="#DejaVuSans-65" transform="translate(448.681641 0)"/>
     <use xlink:href="#DejaVuSans-72" transform="translate(510.205078 0)"/>
     <use xlink:href="#DejaVuSans-69" transform="translate(551.318359 0)"/>
     <use xlink:href="#DejaVuSans-65" transform="translate(579.101562 0)"/>
     <use xlink:href="#DejaVuSans-73" transform="translate(640.625 0)"/>
    </g>
   </g>
   <g id="text_20">
    <g id="patch_39">
     <path d="M 122.451281 408.325455 
L 181.720031 408.325455 
Q 182.770031 408.325455 182.770031 407.275455 
L 182.770031 393.043209 
Q 182.770031 391.993209 181.720031 391.993209 
L 122.451281 391.993209 
Q 121.401281 391.993209 121.401281 393.043209 
L 121.401281 407.275455 
Q 121.401281 408.325455 122.451281 408.325455 
z
" style="fill: #ffffff; opacity: 0.88"/>
    </g>
    <!-- Re-retrieve (per -->
    <g style="fill: #212529" transform="translate(122.451281 398.742037) scale(0.075 -0.075)">
     <use xlink:href="#DejaVuSans-52"/>
     <use xlink:href="#DejaVuSans-65" transform="translate(64.982422 0)"/>
     <use xlink:href="#DejaVuSans-2d" transform="translate(126.505859 0)"/>
     <use xlink:href="#DejaVuSans-72" transform="translate(162.589844 0)"/>
     <use xlink:href="#DejaVuSans-65" transform="translate(201.453125 0)"/>
     <use xlink:href="#DejaVuSans-74" transform="translate(262.976562 0)"/>
     <use xlink:href="#DejaVuSans-72" transform="translate(302.185547 0)"/>
     <use xlink:href="#DejaVuSans-69" transform="translate(343.298828 0)"/>
     <use xlink:href="#DejaVuSans-65" transform="translate(371.082031 0)"/>
     <use xlink:href="#DejaVuSans-76" transform="translate(432.605469 0)"/>
     <use xlink:href="#DejaVuSans-65" transform="translate(491.785156 0)"/>
     <use xlink:href="#DejaVuSans-20" transform="translate(553.308594 0)"/>
     <use xlink:href="#DejaVuSans-28" transform="translate(585.095703 0)"/>
     <use xlink:href="#DejaVuSans-70" transform="translate(624.109375 0)"/>
     <use xlink:href="#DejaVuSans-65" transform="translate(687.585938 0)"/>
     <use xlink:href="#DejaVuSans-72" transform="translate(749.109375 0)"/>
    </g>
    <!-- sub-query) -->
    <g style="fill: #212529" transform="translate(141.014953 405.715689) scale(0.075 -0.075)">
     <use xlink:href="#DejaVuSans-73"/>
     <use xlink:href="#DejaVuSans-75" transform="translate(52.099609 0)"/>
     <use xlink:href="#DejaVuSans-62" transform="translate(115.478516 0)"/>
     <use xlink:href="#DejaVuSans-2d" transform="translate(178.955078 0)"/>
     <use xlink:href="#DejaVuSans-71" transform="translate(215.039062 0)"/>
     <use xlink:href="#DejaVuSans-75" transform="translate(278.515625 0)"/>
     <use xlink:href="#DejaVuSans-65" transform="translate(341.894531 0)"/>
     <use xlink:href="#DejaVuSans-72" transform="translate(403.417969 0)"/>
     <use xlink:href="#DejaVuSans-79" transform="translate(444.53125 0)"/>
     <use xlink:href="#DejaVuSans-29" transform="translate(503.710938 0)"/>
    </g>
   </g>
   <g id="text_21">
    <g id="patch_40">
     <path d="M 42.877094 176.587913 
L 112.303656 176.587913 
Q 113.353656 176.587913 113.353656 175.537913 
L 113.353656 161.305667 
Q 113.353656 160.255667 112.303656 160.255667 
L 42.877094 160.255667 
Q 41.827094 160.255667 41.827094 161.305667 
L 41.827094 175.537913 
Q 41.827094 176.587913 42.877094 176.587913 
z
" style="fill: #ffffff; opacity: 0.88"/>
    </g>
    <!-- Knowledge Filter -->
    <g style="fill: #212529" transform="translate(50.114594 167.004495) scale(0.075 -0.075)">
     <defs>
      <path id="DejaVuSans-4b" d="M 628 4666 
L 1259 4666 
L 1259 2694 
L 3353 4666 
L 4166 4666 
L 1850 2491 
L 4331 0 
L 3500 0 
L 1259 2247 
L 1259 0 
L 628 0 
L 628 4666 
z
" transform="scale(0.015625)"/>
      <path id="DejaVuSans-46" d="M 628 4666 
L 3309 4666 
L 3309 4134 
L 1259 4134 
L 1259 2759 
L 3109 2759 
L 3109 2228 
L 1259 2228 
L 1259 0 
L 628 0 
L 628 4666 
z
" transform="scale(0.015625)"/>
     </defs>
     <use xlink:href="#DejaVuSans-4b"/>
     <use xlink:href="#DejaVuSans-6e" transform="translate(65.576172 0)"/>
     <use xlink:href="#DejaVuSans-6f" transform="translate(128.955078 0)"/>
     <use xlink:href="#DejaVuSans-77" transform="translate(190.136719 0)"/>
     <use xlink:href="#DejaVuSans-6c" transform="translate(271.923828 0)"/>
     <use xlink:href="#DejaVuSans-65" transform="translate(299.707031 0)"/>
     <use xlink:href="#DejaVuSans-64" transform="translate(361.230469 0)"/>
     <use xlink:href="#DejaVuSans-67" transform="translate(424.707031 0)"/>
     <use xlink:href="#DejaVuSans-65" transform="translate(488.183594 0)"/>
     <use xlink:href="#DejaVuSans-20" transform="translate(549.707031 0)"/>
     <use xlink:href="#DejaVuSans-46" transform="translate(581.494141 0)"/>
     <use xlink:href="#DejaVuSans-69" transform="translate(631.763672 0)"/>
     <use xlink:href="#DejaVuSans-6c" transform="translate(659.546875 0)"/>
     <use xlink:href="#DejaVuSans-74" transform="translate(687.330078 0)"/>
     <use xlink:href="#DejaVuSans-65" transform="translate(726.539062 0)"/>
     <use xlink:href="#DejaVuSans-72" transform="translate(788.0625 0)"/>
    </g>
    <!-- (keep score ≥ 0.5) -->
    <g style="fill: #212529" transform="translate(42.877094 173.978148) scale(0.075 -0.075)">
     <use xlink:href="#DejaVuSans-28"/>
     <use xlink:href="#DejaVuSans-6b" transform="translate(39.013672 0)"/>
     <use xlink:href="#DejaVuSans-65" transform="translate(93.298828 0)"/>
     <use xlink:href="#DejaVuSans-65" transform="translate(154.822266 0)"/>
     <use xlink:href="#DejaVuSans-70" transform="translate(216.345703 0)"/>
     <use xlink:href="#DejaVuSans-20" transform="translate(279.822266 0)"/>
     <use xlink:href="#DejaVuSans-73" transform="translate(311.609375 0)"/>
     <use xlink:href="#DejaVuSans-63" transform="translate(363.708984 0)"/>
     <use xlink:href="#DejaVuSans-6f" transform="translate(418.689453 0)"/>
     <use xlink:href="#DejaVuSans-72" transform="translate(479.871094 0)"/>
     <use xlink:href="#DejaVuSans-65" transform="translate(518.734375 0)"/>
     <use xlink:href="#DejaVuSans-20" transform="translate(580.257812 0)"/>
     <use xlink:href="#DejaVuSans-2265" transform="translate(612.044922 0)"/>
     <use xlink:href="#DejaVuSans-20" transform="translate(695.833984 0)"/>
     <use xlink:href="#DejaVuSans-30" transform="translate(727.621094 0)"/>
     <use xlink:href="#DejaVuSans-2e" transform="translate(791.244141 0)"/>
     <use xlink:href="#DejaVuSans-35" transform="translate(823.03125 0)"/>
     <use xlink:href="#DejaVuSans-29" transform="translate(886.654297 0)"/>
    </g>
   </g>
   <g id="text_22">
    <g id="patch_41">
     <path d="M 156.477534 131.509692 
L 204.254878 131.509692 
Q 205.304878 131.509692 205.304878 130.459692 
L 205.304878 116.227446 
Q 205.304878 115.177446 204.254878 115.177446 
L 156.477534 115.177446 
Q 155.427534 115.177446 155.427534 116.227446 
L 155.427534 130.459692 
Q 155.427534 131.509692 156.477534 131.509692 
z
" style="fill: #ffffff; opacity: 0.88"/>
    </g>
    <!-- LLM (claude- -->
    <g style="fill: #212529" transform="translate(156.477534 121.926274) scale(0.075 -0.075)">
     <use xlink:href="#DejaVuSans-4c"/>
     <use xlink:href="#DejaVuSans-4c" transform="translate(55.712891 0)"/>
     <use xlink:href="#DejaVuSans-4d" transform="translate(111.425781 0)"/>
     <use xlink:href="#DejaVuSans-20" transform="translate(197.705078 0)"/>
     <use xlink:href="#DejaVuSans-28" transform="translate(229.492188 0)"/>
     <use xlink:href="#DejaVuSans-63" transform="translate(268.505859 0)"/>
     <use xlink:href="#DejaVuSans-6c" transform="translate(323.486328 0)"/>
     <use xlink:href="#DejaVuSans-61" transform="translate(351.269531 0)"/>
     <use xlink:href="#DejaVuSans-75" transform="translate(412.548828 0)"/>
     <use xlink:href="#DejaVuSans-64" transform="translate(475.927734 0)"/>
     <use xlink:href="#DejaVuSans-65" transform="translate(539.404297 0)"/>
     <use xlink:href="#DejaVuSans-2d" transform="translate(600.927734 0)"/>
    </g>
    <!-- sonnet-4-6) -->
    <g style="fill: #212529" transform="translate(158.646675 128.899927) scale(0.075 -0.075)">
     <defs>
      <path id="DejaVuSans-34" d="M 2419 4116 
L 825 1625 
L 2419 1625 
L 2419 4116 
z
M 2253 4666 
L 3047 4666 
L 3047 1625 
L 3713 1625 
L 3713 1100 
L 3047 1100 
L 3047 0 
L 2419 0 
L 2419 1100 
L 313 1100 
L 313 1709 
L 2253 4666 
z
" transform="scale(0.015625)"/>
      <path id="DejaVuSans-36" d="M 2113 2584 
Q 1688 2584 1439 2293 
Q 1191 2003 1191 1497 
Q 1191 994 1439 701 
Q 1688 409 2113 409 
Q 2538 409 2786 701 
Q 3034 994 3034 1497 
Q 3034 2003 2786 2293 
Q 2538 2584 2113 2584 
z
M 3366 4563 
L 3366 3988 
Q 3128 4100 2886 4159 
Q 2644 4219 2406 4219 
Q 1781 4219 1451 3797 
Q 1122 3375 1075 2522 
Q 1259 2794 1537 2939 
Q 1816 3084 2150 3084 
Q 2853 3084 3261 2657 
Q 3669 2231 3669 1497 
Q 3669 778 3244 343 
Q 2819 -91 2113 -91 
Q 1303 -91 875 529 
Q 447 1150 447 2328 
Q 447 3434 972 4092 
Q 1497 4750 2381 4750 
Q 2619 4750 2861 4703 
Q 3103 4656 3366 4563 
z
" transform="scale(0.015625)"/>
     </defs>
     <use xlink:href="#DejaVuSans-73"/>
     <use xlink:href="#DejaVuSans-6f" transform="translate(52.099609 0)"/>
     <use xlink:href="#DejaVuSans-6e" transform="translate(113.28125 0)"/>
     <use xlink:href="#DejaVuSans-6e" transform="translate(176.660156 0)"/>
     <use xlink:href="#DejaVuSans-65" transform="translate(240.039062 0)"/>
     <use xlink:href="#DejaVuSans-74" transform="translate(301.5625 0)"/>
     <use xlink:href="#DejaVuSans-2d" transform="translate(340.771484 0)"/>
     <use xlink:href="#DejaVuSans-34" transform="translate(376.855469 0)"/>
     <use xlink:href="#DejaVuSans-2d" transform="translate(440.478516 0)"/>
     <use xlink:href="#DejaVuSans-36" transform="translate(476.5625 0)"/>
     <use xlink:href="#DejaVuSans-29" transform="translate(540.185547 0)"/>
    </g>
   </g>
   <g id="text_23">
    <g id="patch_42">
     <path d="M 288.778346 133.268804 
L 343.160377 133.268804 
Q 344.210377 133.268804 344.210377 132.218804 
L 344.210377 124.96021 
Q 344.210377 123.91021 343.160377 123.91021 
L 288.778346 123.91021 
Q 287.728346 123.91021 287.728346 124.96021 
L 287.728346 132.218804 
Q 287.728346 133.268804 288.778346 133.268804 
z
" style="fill: #ffffff; opacity: 0.88"/>
    </g>
    <!-- Answer (cited) -->
    <g style="fill: #212529" transform="translate(288.778346 130.659038) scale(0.075 -0.075)">
     <defs>
      <path id="DejaVuSans-41" d="M 2188 4044 
L 1331 1722 
L 3047 1722 
L 2188 4044 
z
M 1831 4666 
L 2547 4666 
L 4325 0 
L 3669 0 
L 3244 1197 
L 1141 1197 
L 716 0 
L 50 0 
L 1831 4666 
z
" transform="scale(0.015625)"/>
     </defs>
     <use xlink:href="#DejaVuSans-41"/>
     <use xlink:href="#DejaVuSans-6e" transform="translate(68.408203 0)"/>
     <use xlink:href="#DejaVuSans-73" transform="translate(131.787109 0)"/>
     <use xlink:href="#DejaVuSans-77" transform="translate(183.886719 0)"/>
     <use xlink:href="#DejaVuSans-65" transform="translate(265.673828 0)"/>
     <use xlink:href="#DejaVuSans-72" transform="translate(327.197266 0)"/>
     <use xlink:href="#DejaVuSans-20" transform="translate(368.310547 0)"/>
     <use xlink:href="#DejaVuSans-28" transform="translate(400.097656 0)"/>
     <use xlink:href="#DejaVuSans-63" transform="translate(439.111328 0)"/>
     <use xlink:href="#DejaVuSans-69" transform="translate(494.091797 0)"/>
     <use xlink:href="#DejaVuSans-74" transform="translate(521.875 0)"/>
     <use xlink:href="#DejaVuSans-65" transform="translate(561.083984 0)"/>
     <use xlink:href="#DejaVuSans-64" transform="translate(622.607422 0)"/>
     <use xlink:href="#DejaVuSans-29" transform="translate(686.083984 0)"/>
    </g>
   </g>
  </g>
 </g>
 <defs>
  <clipPath id="pa623c40f85">
   <rect x="7.2" y="29.077969" width="465.696" height="465.696"/>
  </clipPath>
 </defs>
  <g id="branding_footer">
    <line x1="12" y1="489" x2="468" y2="489" stroke="#cccccc" stroke-width="0.5"/>
    <text x="240.048" y="497.5" text-anchor="middle"
          font-family="DejaVu Sans, Arial, sans-serif" font-size="7.5"
          fill="#888888">AI &amp; SAP Consulting Paul Oesterwitz | oesterwitz-consulting.de</text>
  </g>
</svg>
