<?xml version="1.0" encoding="utf-8" standalone="no"?>
<!DOCTYPE svg PUBLIC "-//W3C//DTD SVG 1.1//EN"
  "http://www.w3.org/Graphics/SVG/1.1/DTD/svg11.dtd">
<svg xmlns:xlink="http://www.w3.org/1999/xlink" width="480.096pt" height="515.973969pt" viewBox="0 0 480.096 515.973969" xmlns="http://www.w3.org/2000/svg" version="1.1">
 <metadata>
  <rdf:RDF xmlns:dc="http://purl.org/dc/elements/1.1/" xmlns:cc="http://creativecommons.org/ns#" xmlns:rdf="http://www.w3.org/1999/02/22-rdf-syntax-ns#">
   <cc:Work>
    <dc:type rdf:resource="http://purl.org/dc/dcmitype/StillImage"/>
    <dc:date>2026-06-12T23:21:44.273766</dc:date>
    <dc:format>image/svg+xml</dc:format>
    <dc:creator>
     <cc:Agent>
      <dc:title>Matplotlib v3.10.9, https://matplotlib.org/</dc:title>
     </cc:Agent>
    </dc:creator>
   </cc:Work>
  </rdf:RDF>
 </metadata>
 <defs>
  <style type="text/css">*{stroke-linejoin: round; stroke-linecap: butt}</style>
 </defs>
 <g id="figure_1">
  <g id="patch_1">
   <path d="M 0 501.973969 
L 480.096 501.973969 
L 480.096 0 
L 0 0 
z
" style="fill: #ffffff"/>
  </g>
  <g id="axes_1">
   <g id="patch_2">
    <path d="M 356.472 268.139628 
Q 356.472 219.705837 356.472 172.501884 
" clip-path="url(#p5a0422bb9b)" style="fill: none; stroke: #9aa3b2; stroke-width: 1.1; stroke-linecap: round"/>
    <path d="M 354.072 177.301884 
L 356.472 172.501884 
L 358.872 177.301884 
z
" clip-path="url(#p5a0422bb9b)" style="fill: #9aa3b2; stroke: #9aa3b2; stroke-width: 1.1; stroke-linecap: round"/>
   </g>
   <g id="patch_3">
    <path d="M 354.687801 286.920967 
Q 346.814786 327.982823 339.173356 367.836843 
" clip-path="url(#p5a0422bb9b)" style="fill: none; stroke: #9aa3b2; stroke-width: 1.1; stroke-linecap: round"/>
    <path d="M 342.434287 363.574646 
L 339.173356 367.836843 
L 337.720156 362.67078 
z
" clip-path="url(#p5a0422bb9b)" style="fill: #9aa3b2; stroke: #9aa3b2; stroke-width: 1.1; stroke-linecap: round"/>
   </g>
   <g id="patch_4">
    <path d="M 347.307123 159.38899 
Q 325.485324 153.650338 304.852921 148.224471 
" clip-path="url(#p5a0422bb9b)" style="fill: none; stroke: #9aa3b2; stroke-width: 1.1; stroke-linecap: round"/>
    <path d="M 308.884691 151.766339 
L 304.852921 148.224471 
L 310.105478 147.124176 
z
" clip-path="url(#p5a0422bb9b)" style="fill: #9aa3b2; stroke: #9aa3b2; stroke-width: 1.1; stroke-linecap: round"/>
   </g>
   <g id="patch_5">
    <path d="M 285.789478 149.221797 
Q 251.074955 164.046065 217.49146 178.387346 
" clip-path="url(#p5a0422bb9b)" style="fill: none; stroke: #9aa3b2; stroke-width: 1.1; stroke-linecap: round"/>
    <path d="M 222.848348 178.709445 
L 217.49146 178.387346 
L 220.963272 174.295095 
z
" clip-path="url(#p5a0422bb9b)" style="fill: #9aa3b2; stroke: #9aa3b2; stroke-width: 1.1; stroke-linecap: round"/>
   </g>
   <g id="patch_6">
    <path d="M 197.336902 178.685583 
Q 164.797317 164.037115 133.379174 149.893492 
" clip-path="url(#p5a0422bb9b)" style="fill: none; stroke: #9aa3b2; stroke-width: 1.1; stroke-linecap: round"/>
    <path d="M 136.770921 154.052344 
L 133.379174 149.893492 
L 138.741304 149.675406 
z
" clip-path="url(#p5a0422bb9b)" style="fill: #9aa3b2; stroke: #9aa3b2; stroke-width: 1.1; stroke-linecap: round"/>
   </g>
   <g id="patch_7">
    <path d="M 207.738068 193.294345 
Q 212.963206 251.435287 218.078262 308.351328 
" clip-path="url(#p5a0422bb9b)" style="fill: none; stroke: #9aa3b2; stroke-width: 1.1; stroke-linecap: round"/>
    <path d="M 220.038983 303.355773 
L 218.078262 308.351328 
L 215.25825 303.785418 
z
" clip-path="url(#p5a0422bb9b)" style="fill: #9aa3b2; stroke: #9aa3b2; stroke-width: 1.1; stroke-linecap: round"/>
   </g>
   <g id="patch_8">
    <path d="M 328.650417 374.192049 
Q 278.931346 349.891701 230.317201 326.131389 
" clip-path="url(#p5a0422bb9b)" style="fill: none; stroke: #9aa3b2; stroke-width: 1.1; stroke-linecap: round"/>
    <path d="M 233.575809 330.395363 
L 230.317201 326.131389 
L 235.683545 326.082887 
z
" clip-path="url(#p5a0422bb9b)" style="fill: #9aa3b2; stroke: #9aa3b2; stroke-width: 1.1; stroke-linecap: round"/>
   </g>
   <g id="patch_9">
    <path d="M 209.630373 326.457797 
Q 170.68367 349.956393 132.789983 372.819649 
" clip-path="url(#p5a0422bb9b)" style="fill: none; stroke: #9aa3b2; stroke-width: 1.1; stroke-linecap: round"/>
    <path d="M 138.13971 372.394882 
L 132.789983 372.819649 
L 135.660006 368.285008 
z
" clip-path="url(#p5a0422bb9b)" style="fill: #9aa3b2; stroke: #9aa3b2; stroke-width: 1.1; stroke-linecap: round"/>
   </g>
   <g id="patch_10">
    <path d="M 209.385399 315.352703 
Q 171.405463 294.665733 134.505547 274.56703 
" clip-path="url(#p5a0422bb9b)" style="fill: none; stroke: #9aa3b2; stroke-width: 1.1; stroke-linecap: round"/>
    <path d="M 137.572825 278.970642 
L 134.505547 274.56703 
L 139.868804 274.755374 
z
" clip-path="url(#p5a0422bb9b)" style="fill: #9aa3b2; stroke: #9aa3b2; stroke-width: 1.1; stroke-linecap: round"/>
   </g>
   <g id="patch_11">
    <path d="M 123.624 154.975574 
Q 123.624 206.228305 123.624 256.251199 
" clip-path="url(#p5a0422bb9b)" style="fill: none; stroke: #9aa3b2; stroke-width: 1.1; stroke-linecap: round"/>
    <path d="M 126.024 251.451199 
L 123.624 256.251199 
L 121.224 251.451199 
z
" clip-path="url(#p5a0422bb9b)" style="fill: #9aa3b2; stroke: #9aa3b2; stroke-width: 1.1; stroke-linecap: round"/>
   </g>
   <g id="patch_12">
    <path d="M 123.624 368.878248 
Q 123.624 324.340345 123.624 281.032279 
" clip-path="url(#p5a0422bb9b)" style="fill: none; stroke: #9aa3b2; stroke-width: 1.1; stroke-linecap: round"/>
    <path d="M 121.224 285.832279 
L 123.624 281.032279 
L 126.024 285.832279 
z
" clip-path="url(#p5a0422bb9b)" style="fill: #9aa3b2; stroke: #9aa3b2; stroke-width: 1.1; stroke-linecap: round"/>
   </g>
   <g id="patch_13">
    <path d="M 123.624 279.799632 
Q 123.624 304.202978 123.624 327.376486 
" clip-path="url(#p5a0422bb9b)" style="fill: none; stroke: #9aa3b2; stroke-width: 1.1; stroke-linecap: round"/>
    <path d="M 126.024 322.576486 
L 123.624 327.376486 
L 121.224 322.576486 
z
" clip-path="url(#p5a0422bb9b)" style="fill: #9aa3b2; stroke: #9aa3b2; stroke-width: 1.1; stroke-linecap: round"/>
   </g>
   <g id="text_1">
    <g id="patch_14">
     <path d="M 294.863182 162.501135 
L 337.616932 162.501135 
Q 338.396932 162.501135 338.396932 161.721135 
L 338.396932 155.430354 
Q 338.396932 154.650354 337.616932 154.650354 
L 294.863182 154.650354 
Q 294.083182 154.650354 294.083182 155.430354 
L 294.083182 161.721135 
Q 294.083182 162.501135 294.863182 162.501135 
z
" style="fill: #ffffff; opacity: 0.9"/>
    </g>
    <!-- entity names -->
    <g style="fill: #475569" transform="translate(294.863182 160.369338) scale(0.065 -0.065)">
     <defs>
      <path id="DejaVuSans-65" d="M 3597 1894 
L 3597 1613 
L 953 1613 
Q 991 1019 1311 708 
Q 1631 397 2203 397 
Q 2534 397 2845 478 
Q 3156 559 3463 722 
L 3463 178 
Q 3153 47 2828 -22 
Q 2503 -91 2169 -91 
Q 1331 -91 842 396 
Q 353 884 353 1716 
Q 353 2575 817 3079 
Q 1281 3584 2069 3584 
Q 2775 3584 3186 3129 
Q 3597 2675 3597 1894 
z
M 3022 2063 
Q 3016 2534 2758 2815 
Q 2500 3097 2075 3097 
Q 1594 3097 1305 2825 
Q 1016 2553 972 2059 
L 3022 2063 
z
" transform="scale(0.015625)"/>
      <path id="DejaVuSans-6e" d="M 3513 2113 
L 3513 0 
L 2938 0 
L 2938 2094 
Q 2938 2591 2744 2837 
Q 2550 3084 2163 3084 
Q 1697 3084 1428 2787 
Q 1159 2491 1159 1978 
L 1159 0 
L 581 0 
L 581 3500 
L 1159 3500 
L 1159 2956 
Q 1366 3272 1645 3428 
Q 1925 3584 2291 3584 
Q 2894 3584 3203 3211 
Q 3513 2838 3513 2113 
z
" transform="scale(0.015625)"/>
      <path id="DejaVuSans-74" d="M 1172 4494 
L 1172 3500 
L 2356 3500 
L 2356 3053 
L 1172 3053 
L 1172 1153 
Q 1172 725 1289 603 
Q 1406 481 1766 481 
L 2356 481 
L 2356 0 
L 1766 0 
Q 1100 0 847 248 
Q 594 497 594 1153 
L 594 3053 
L 172 3053 
L 172 3500 
L 594 3500 
L 594 4494 
L 1172 4494 
z
" transform="scale(0.015625)"/>
      <path id="DejaVuSans-69" d="M 603 3500 
L 1178 3500 
L 1178 0 
L 603 0 
L 603 3500 
z
M 603 4863 
L 1178 4863 
L 1178 4134 
L 603 4134 
L 603 4863 
z
" transform="scale(0.015625)"/>
      <path id="DejaVuSans-79" d="M 2059 -325 
Q 1816 -950 1584 -1140 
Q 1353 -1331 966 -1331 
L 506 -1331 
L 506 -850 
L 844 -850 
Q 1081 -850 1212 -737 
Q 1344 -625 1503 -206 
L 1606 56 
L 191 3500 
L 800 3500 
L 1894 763 
L 2988 3500 
L 3597 3500 
L 2059 -325 
z
" transform="scale(0.015625)"/>
      <path id="DejaVuSans-20" transform="scale(0.015625)"/>
      <path id="DejaVuSans-61" d="M 2194 1759 
Q 1497 1759 1228 1600 
Q 959 1441 959 1056 
Q 959 750 1161 570 
Q 1363 391 1709 391 
Q 2188 391 2477 730 
Q 2766 1069 2766 1631 
L 2766 1759 
L 2194 1759 
z
M 3341 1997 
L 3341 0 
L 2766 0 
L 2766 531 
Q 2569 213 2275 61 
Q 1981 -91 1556 -91 
Q 1019 -91 701 211 
Q 384 513 384 1019 
Q 384 1609 779 1909 
Q 1175 2209 1959 2209 
L 2766 2209 
L 2766 2266 
Q 2766 2663 2505 2880 
Q 2244 3097 1772 3097 
Q 1472 3097 1187 3025 
Q 903 2953 641 2809 
L 641 3341 
Q 956 3463 1253 3523 
Q 1550 3584 1831 3584 
Q 2591 3584 2966 3190 
Q 3341 2797 3341 1997 
z
" transform="scale(0.015625)"/>
      <path id="DejaVuSans-6d" d="M 3328 2828 
Q 3544 3216 3844 3400 
Q 4144 3584 4550 3584 
Q 5097 3584 5394 3201 
Q 5691 2819 5691 2113 
L 5691 0 
L 5113 0 
L 5113 2094 
Q 5113 2597 4934 2840 
Q 4756 3084 4391 3084 
Q 3944 3084 3684 2787 
Q 3425 2491 3425 1978 
L 3425 0 
L 2847 0 
L 2847 2094 
Q 2847 2600 2669 2842 
Q 2491 3084 2119 3084 
Q 1678 3084 1418 2786 
Q 1159 2488 1159 1978 
L 1159 0 
L 581 0 
L 581 3500 
L 1159 3500 
L 1159 2956 
Q 1356 3278 1631 3431 
Q 1906 3584 2284 3584 
Q 2666 3584 2933 3390 
Q 3200 3197 3328 2828 
z
" transform="scale(0.015625)"/>
      <path id="DejaVuSans-73" d="M 2834 3397 
L 2834 2853 
Q 2591 2978 2328 3040 
Q 2066 3103 1784 3103 
Q 1356 3103 1142 2972 
Q 928 2841 928 2578 
Q 928 2378 1081 2264 
Q 1234 2150 1697 2047 
L 1894 2003 
Q 2506 1872 2764 1633 
Q 3022 1394 3022 966 
Q 3022 478 2636 193 
Q 2250 -91 1575 -91 
Q 1294 -91 989 -36 
Q 684 19 347 128 
L 347 722 
Q 666 556 975 473 
Q 1284 391 1588 391 
Q 1994 391 2212 530 
Q 2431 669 2431 922 
Q 2431 1156 2273 1281 
Q 2116 1406 1581 1522 
L 1381 1569 
Q 847 1681 609 1914 
Q 372 2147 372 2553 
Q 372 3047 722 3315 
Q 1072 3584 1716 3584 
Q 2034 3584 2315 3537 
Q 2597 3491 2834 3397 
z
" transform="scale(0.015625)"/>
     </defs>
     <use xlink:href="#DejaVuSans-65"/>
     <use xlink:href="#DejaVuSans-6e" transform="translate(61.523438 0)"/>
     <use xlink:href="#DejaVuSans-74" transform="translate(124.902344 0)"/>
     <use xlink:href="#DejaVuSans-69" transform="translate(164.111328 0)"/>
     <use xlink:href="#DejaVuSans-74" transform="translate(191.894531 0)"/>
     <use xlink:href="#DejaVuSans-79" transform="translate(231.103516 0)"/>
     <use xlink:href="#DejaVuSans-20" transform="translate(290.283203 0)"/>
     <use xlink:href="#DejaVuSans-6e" transform="translate(322.070312 0)"/>
     <use xlink:href="#DejaVuSans-61" transform="translate(385.449219 0)"/>
     <use xlink:href="#DejaVuSans-6d" transform="translate(446.728516 0)"/>
     <use xlink:href="#DejaVuSans-65" transform="translate(544.140625 0)"/>
     <use xlink:href="#DejaVuSans-73" transform="translate(605.664062 0)"/>
    </g>
   </g>
   <g id="text_2">
    <g id="patch_15">
     <path d="M 224.33242 179.187929 
L 261.518514 179.187929 
Q 262.298514 179.187929 262.298514 178.407929 
L 262.298514 172.117148 
Q 262.298514 171.337148 261.518514 171.337148 
L 224.33242 171.337148 
Q 223.55242 171.337148 223.55242 172.117148 
L 223.55242 178.407929 
Q 223.55242 179.187929 224.33242 179.187929 
z
" style="fill: #ffffff; opacity: 0.9"/>
    </g>
    <!-- seed nodes -->
    <g style="fill: #475569" transform="translate(224.33242 177.056132) scale(0.065 -0.065)">
     <defs>
      <path id="DejaVuSans-64" d="M 2906 2969 
L 2906 4863 
L 3481 4863 
L 3481 0 
L 2906 0 
L 2906 525 
Q 2725 213 2448 61 
Q 2172 -91 1784 -91 
Q 1150 -91 751 415 
Q 353 922 353 1747 
Q 353 2572 751 3078 
Q 1150 3584 1784 3584 
Q 2172 3584 2448 3432 
Q 2725 3281 2906 2969 
z
M 947 1747 
Q 947 1113 1208 752 
Q 1469 391 1925 391 
Q 2381 391 2643 752 
Q 2906 1113 2906 1747 
Q 2906 2381 2643 2742 
Q 2381 3103 1925 3103 
Q 1469 3103 1208 2742 
Q 947 2381 947 1747 
z
" transform="scale(0.015625)"/>
      <path id="DejaVuSans-6f" d="M 1959 3097 
Q 1497 3097 1228 2736 
Q 959 2375 959 1747 
Q 959 1119 1226 758 
Q 1494 397 1959 397 
Q 2419 397 2687 759 
Q 2956 1122 2956 1747 
Q 2956 2369 2687 2733 
Q 2419 3097 1959 3097 
z
M 1959 3584 
Q 2709 3584 3137 3096 
Q 3566 2609 3566 1747 
Q 3566 888 3137 398 
Q 2709 -91 1959 -91 
Q 1206 -91 779 398 
Q 353 888 353 1747 
Q 353 2609 779 3096 
Q 1206 3584 1959 3584 
z
" transform="scale(0.015625)"/>
     </defs>
     <use xlink:href="#DejaVuSans-73"/>
     <use xlink:href="#DejaVuSans-65" transform="translate(52.099609 0)"/>
     <use xlink:href="#DejaVuSans-65" transform="translate(113.623047 0)"/>
     <use xlink:href="#DejaVuSans-64" transform="translate(175.146484 0)"/>
     <use xlink:href="#DejaVuSans-20" transform="translate(238.623047 0)"/>
     <use xlink:href="#DejaVuSans-6e" transform="translate(270.410156 0)"/>
     <use xlink:href="#DejaVuSans-6f" transform="translate(333.789062 0)"/>
     <use xlink:href="#DejaVuSans-64" transform="translate(394.970703 0)"/>
     <use xlink:href="#DejaVuSans-65" transform="translate(458.447266 0)"/>
     <use xlink:href="#DejaVuSans-73" transform="translate(519.970703 0)"/>
    </g>
   </g>
   <g id="text_3">
    <g id="patch_16">
     <path d="M 128.294435 170.145095 
L 176.332482 170.145095 
Q 177.112482 170.145095 177.112482 169.365095 
L 177.112482 163.074314 
Q 177.112482 162.294314 176.332482 162.294314 
L 128.294435 162.294314 
Q 127.514435 162.294314 127.514435 163.074314 
L 127.514435 169.365095 
Q 127.514435 170.145095 128.294435 170.145095 
z
" style="fill: #ffffff; opacity: 0.9"/>
    </g>
    <!-- community ids -->
    <g style="fill: #475569" transform="translate(128.294435 168.013298) scale(0.065 -0.065)">
     <defs>
      <path id="DejaVuSans-63" d="M 3122 3366 
L 3122 2828 
Q 2878 2963 2633 3030 
Q 2388 3097 2138 3097 
Q 1578 3097 1268 2742 
Q 959 2388 959 1747 
Q 959 1106 1268 751 
Q 1578 397 2138 397 
Q 2388 397 2633 464 
Q 2878 531 3122 666 
L 3122 134 
Q 2881 22 2623 -34 
Q 2366 -91 2075 -91 
Q 1284 -91 818 406 
Q 353 903 353 1747 
Q 353 2603 823 3093 
Q 1294 3584 2113 3584 
Q 2378 3584 2631 3529 
Q 2884 3475 3122 3366 
z
" transform="scale(0.015625)"/>
      <path id="DejaVuSans-75" d="M 544 1381 
L 544 3500 
L 1119 3500 
L 1119 1403 
Q 1119 906 1312 657 
Q 1506 409 1894 409 
Q 2359 409 2629 706 
Q 2900 1003 2900 1516 
L 2900 3500 
L 3475 3500 
L 3475 0 
L 2900 0 
L 2900 538 
Q 2691 219 2414 64 
Q 2138 -91 1772 -91 
Q 1169 -91 856 284 
Q 544 659 544 1381 
z
M 1991 3584 
L 1991 3584 
z
" transform="scale(0.015625)"/>
     </defs>
     <use xlink:href="#DejaVuSans-63"/>
     <use xlink:href="#DejaVuSans-6f" transform="translate(54.980469 0)"/>
     <use xlink:href="#DejaVuSans-6d" transform="translate(116.162109 0)"/>
     <use xlink:href="#DejaVuSans-6d" transform="translate(213.574219 0)"/>
     <use xlink:href="#DejaVuSans-75" transform="translate(310.986328 0)"/>
     <use xlink:href="#DejaVuSans-6e" transform="translate(374.365234 0)"/>
     <use xlink:href="#DejaVuSans-69" transform="translate(437.744141 0)"/>
     <use xlink:href="#DejaVuSans-74" transform="translate(465.527344 0)"/>
     <use xlink:href="#DejaVuSans-79" transform="translate(504.736328 0)"/>
     <use xlink:href="#DejaVuSans-20" transform="translate(563.916016 0)"/>
     <use xlink:href="#DejaVuSans-69" transform="translate(595.703125 0)"/>
     <use xlink:href="#DejaVuSans-64" transform="translate(623.486328 0)"/>
     <use xlink:href="#DejaVuSans-73" transform="translate(686.962891 0)"/>
    </g>
   </g>
   <g id="text_4">
    <g id="patch_17">
     <path d="M 191.310513 271.638113 
L 251.82856 271.638113 
Q 252.60856 271.638113 252.60856 270.858113 
L 252.60856 264.567332 
Q 252.60856 263.787332 251.82856 263.787332 
L 191.310513 263.787332 
Q 190.530513 263.787332 190.530513 264.567332 
L 190.530513 270.858113 
Q 190.530513 271.638113 191.310513 271.638113 
z
" style="fill: #ffffff; opacity: 0.9"/>
    </g>
    <!-- entity→chunk map -->
    <g style="fill: #475569" transform="translate(191.310513 269.506316) scale(0.065 -0.065)">
     <defs>
      <path id="DejaVuSans-2192" d="M 5050 2147 
L 5050 1866 
L 3822 638 
L 3447 1013 
L 4175 1741 
L 366 1741 
L 366 2272 
L 4175 2272 
L 3447 3000 
L 3822 3375 
L 5050 2147 
z
" transform="scale(0.015625)"/>
      <path id="DejaVuSans-68" d="M 3513 2113 
L 3513 0 
L 2938 0 
L 2938 2094 
Q 2938 2591 2744 2837 
Q 2550 3084 2163 3084 
Q 1697 3084 1428 2787 
Q 1159 2491 1159 1978 
L 1159 0 
L 581 0 
L 581 4863 
L 1159 4863 
L 1159 2956 
Q 1366 3272 1645 3428 
Q 1925 3584 2291 3584 
Q 2894 3584 3203 3211 
Q 3513 2838 3513 2113 
z
" transform="scale(0.015625)"/>
      <path id="DejaVuSans-6b" d="M 581 4863 
L 1159 4863 
L 1159 1991 
L 2875 3500 
L 3609 3500 
L 1753 1863 
L 3688 0 
L 2938 0 
L 1159 1709 
L 1159 0 
L 581 0 
L 581 4863 
z
" transform="scale(0.015625)"/>
      <path id="DejaVuSans-70" d="M 1159 525 
L 1159 -1331 
L 581 -1331 
L 581 3500 
L 1159 3500 
L 1159 2969 
Q 1341 3281 1617 3432 
Q 1894 3584 2278 3584 
Q 2916 3584 3314 3078 
Q 3713 2572 3713 1747 
Q 3713 922 3314 415 
Q 2916 -91 2278 -91 
Q 1894 -91 1617 61 
Q 1341 213 1159 525 
z
M 3116 1747 
Q 3116 2381 2855 2742 
Q 2594 3103 2138 3103 
Q 1681 3103 1420 2742 
Q 1159 2381 1159 1747 
Q 1159 1113 1420 752 
Q 1681 391 2138 391 
Q 2594 391 2855 752 
Q 3116 1113 3116 1747 
z
" transform="scale(0.015625)"/>
     </defs>
     <use xlink:href="#DejaVuSans-65"/>
     <use xlink:href="#DejaVuSans-6e" transform="translate(61.523438 0)"/>
     <use xlink:href="#DejaVuSans-74" transform="translate(124.902344 0)"/>
     <use xlink:href="#DejaVuSans-69" transform="translate(164.111328 0)"/>
     <use xlink:href="#DejaVuSans-74" transform="translate(191.894531 0)"/>
     <use xlink:href="#DejaVuSans-79" transform="translate(231.103516 0)"/>
     <use xlink:href="#DejaVuSans-2192" transform="translate(290.283203 0)"/>
     <use xlink:href="#DejaVuSans-63" transform="translate(374.072266 0)"/>
     <use xlink:href="#DejaVuSans-68" transform="translate(429.052734 0)"/>
     <use xlink:href="#DejaVuSans-75" transform="translate(492.431641 0)"/>
     <use xlink:href="#DejaVuSans-6e" transform="translate(555.810547 0)"/>
     <use xlink:href="#DejaVuSans-6b" transform="translate(619.189453 0)"/>
     <use xlink:href="#DejaVuSans-20" transform="translate(677.099609 0)"/>
     <use xlink:href="#DejaVuSans-6d" transform="translate(708.886719 0)"/>
     <use xlink:href="#DejaVuSans-61" transform="translate(806.298828 0)"/>
     <use xlink:href="#DejaVuSans-70" transform="translate(867.578125 0)"/>
    </g>
   </g>
   <g id="text_5">
    <g id="patch_18">
     <path d="M 239.619046 352.919344 
L 282.164593 352.919344 
Q 282.944593 352.919344 282.944593 352.139344 
L 282.944593 345.848563 
Q 282.944593 345.068563 282.164593 345.068563 
L 239.619046 345.068563 
Q 238.839046 345.068563 238.839046 345.848563 
L 238.839046 352.139344 
Q 238.839046 352.919344 239.619046 352.919344 
z
" style="fill: #ffffff; opacity: 0.9"/>
    </g>
    <!-- dense scores -->
    <g style="fill: #475569" transform="translate(239.619046 350.787547) scale(0.065 -0.065)">
     <defs>
      <path id="DejaVuSans-72" d="M 2631 2963 
Q 2534 3019 2420 3045 
Q 2306 3072 2169 3072 
Q 1681 3072 1420 2755 
Q 1159 2438 1159 1844 
L 1159 0 
L 581 0 
L 581 3500 
L 1159 3500 
L 1159 2956 
Q 1341 3275 1631 3429 
Q 1922 3584 2338 3584 
Q 2397 3584 2469 3576 
Q 2541 3569 2628 3553 
L 2631 2963 
z
" transform="scale(0.015625)"/>
     </defs>
     <use xlink:href="#DejaVuSans-64"/>
     <use xlink:href="#DejaVuSans-65" transform="translate(63.476562 0)"/>
     <use xlink:href="#DejaVuSans-6e" transform="translate(125 0)"/>
     <use xlink:href="#DejaVuSans-73" transform="translate(188.378906 0)"/>
     <use xlink:href="#DejaVuSans-65" transform="translate(240.478516 0)"/>
     <use xlink:href="#DejaVuSans-20" transform="translate(302.001953 0)"/>
     <use xlink:href="#DejaVuSans-73" transform="translate(333.789062 0)"/>
     <use xlink:href="#DejaVuSans-63" transform="translate(385.888672 0)"/>
     <use xlink:href="#DejaVuSans-6f" transform="translate(440.869141 0)"/>
     <use xlink:href="#DejaVuSans-72" transform="translate(502.050781 0)"/>
     <use xlink:href="#DejaVuSans-65" transform="translate(540.914062 0)"/>
     <use xlink:href="#DejaVuSans-73" transform="translate(602.4375 0)"/>
    </g>
   </g>
   <g id="text_6">
    <g id="patch_19">
     <path d="M 142.321519 366.457044 
L 184.90566 366.457044 
Q 185.68566 366.457044 185.68566 365.677044 
L 185.68566 359.386263 
Q 185.68566 358.606263 184.90566 358.606263 
L 142.321519 358.606263 
Q 141.541519 358.606263 141.541519 359.386263 
L 141.541519 365.677044 
Q 141.541519 366.457044 142.321519 366.457044 
z
" style="fill: #ffffff; opacity: 0.9"/>
    </g>
    <!-- if &lt; k chunks -->
    <g style="fill: #475569" transform="translate(142.321519 364.325247) scale(0.065 -0.065)">
     <defs>
      <path id="DejaVuSans-66" d="M 2375 4863 
L 2375 4384 
L 1825 4384 
Q 1516 4384 1395 4259 
Q 1275 4134 1275 3809 
L 1275 3500 
L 2222 3500 
L 2222 3053 
L 1275 3053 
L 1275 0 
L 697 0 
L 697 3053 
L 147 3053 
L 147 3500 
L 697 3500 
L 697 3744 
Q 697 4328 969 4595 
Q 1241 4863 1831 4863 
L 2375 4863 
z
" transform="scale(0.015625)"/>
      <path id="DejaVuSans-3c" d="M 4684 3150 
L 1459 2003 
L 4684 863 
L 4684 294 
L 678 1747 
L 678 2266 
L 4684 3719 
L 4684 3150 
z
" transform="scale(0.015625)"/>
     </defs>
     <use xlink:href="#DejaVuSans-69"/>
     <use xlink:href="#DejaVuSans-66" transform="translate(27.783203 0)"/>
     <use xlink:href="#DejaVuSans-20" transform="translate(62.988281 0)"/>
     <use xlink:href="#DejaVuSans-3c" transform="translate(94.775391 0)"/>
     <use xlink:href="#DejaVuSans-20" transform="translate(178.564453 0)"/>
     <use xlink:href="#DejaVuSans-6b" transform="translate(210.351562 0)"/>
     <use xlink:href="#DejaVuSans-20" transform="translate(268.261719 0)"/>
     <use xlink:href="#DejaVuSans-63" transform="translate(300.048828 0)"/>
     <use xlink:href="#DejaVuSans-68" transform="translate(355.029297 0)"/>
     <use xlink:href="#DejaVuSans-75" transform="translate(418.408203 0)"/>
     <use xlink:href="#DejaVuSans-6e" transform="translate(481.787109 0)"/>
     <use xlink:href="#DejaVuSans-6b" transform="translate(545.166016 0)"/>
     <use xlink:href="#DejaVuSans-73" transform="translate(603.076172 0)"/>
    </g>
   </g>
   <g id="text_7">
    <g id="patch_20">
     <path d="M 134.871553 298.593115 
L 178.198115 298.593115 
Q 178.978115 298.593115 178.978115 297.813115 
L 178.978115 291.522334 
Q 178.978115 290.742334 178.198115 290.742334 
L 134.871553 290.742334 
Q 134.091553 290.742334 134.091553 291.522334 
L 134.091553 297.813115 
Q 134.091553 298.593115 134.871553 298.593115 
z
" style="fill: #ffffff; opacity: 0.9"/>
    </g>
    <!-- top-k context -->
    <g style="fill: #475569" transform="translate(134.871553 296.461318) scale(0.065 -0.065)">
     <defs>
      <path id="DejaVuSans-2d" d="M 313 2009 
L 1997 2009 
L 1997 1497 
L 313 1497 
L 313 2009 
z
" transform="scale(0.015625)"/>
      <path id="DejaVuSans-78" d="M 3513 3500 
L 2247 1797 
L 3578 0 
L 2900 0 
L 1881 1375 
L 863 0 
L 184 0 
L 1544 1831 
L 300 3500 
L 978 3500 
L 1906 2253 
L 2834 3500 
L 3513 3500 
z
" transform="scale(0.015625)"/>
     </defs>
     <use xlink:href="#DejaVuSans-74"/>
     <use xlink:href="#DejaVuSans-6f" transform="translate(39.208984 0)"/>
     <use xlink:href="#DejaVuSans-70" transform="translate(100.390625 0)"/>
     <use xlink:href="#DejaVuSans-2d" transform="translate(163.867188 0)"/>
     <use xlink:href="#DejaVuSans-6b" transform="translate(199.951172 0)"/>
     <use xlink:href="#DejaVuSans-20" transform="translate(257.861328 0)"/>
     <use xlink:href="#DejaVuSans-63" transform="translate(289.648438 0)"/>
     <use xlink:href="#DejaVuSans-6f" transform="translate(344.628906 0)"/>
     <use xlink:href="#DejaVuSans-6e" transform="translate(405.810547 0)"/>
     <use xlink:href="#DejaVuSans-74" transform="translate(469.189453 0)"/>
     <use xlink:href="#DejaVuSans-65" transform="translate(508.398438 0)"/>
     <use xlink:href="#DejaVuSans-78" transform="translate(568.171875 0)"/>
     <use xlink:href="#DejaVuSans-74" transform="translate(627.351562 0)"/>
    </g>
   </g>
   <g id="text_8">
    <g id="patch_21">
     <path d="M 100.7738 225.772971 
L 160.7038 225.772971 
Q 161.4838 225.772971 161.4838 224.992971 
L 161.4838 218.70219 
Q 161.4838 217.92219 160.7038 217.92219 
L 100.7738 217.92219 
Q 99.9938 217.92219 99.9938 218.70219 
L 99.9938 224.992971 
Q 99.9938 225.772971 100.7738 225.772971 
z
" style="fill: #ffffff; opacity: 0.9"/>
    </g>
    <!-- summaries (trace) -->
    <g style="fill: #475569" transform="translate(100.7738 223.641174) scale(0.065 -0.065)">
     <defs>
      <path id="DejaVuSans-28" d="M 1984 4856 
Q 1566 4138 1362 3434 
Q 1159 2731 1159 2009 
Q 1159 1288 1364 580 
Q 1569 -128 1984 -844 
L 1484 -844 
Q 1016 -109 783 600 
Q 550 1309 550 2009 
Q 550 2706 781 3412 
Q 1013 4119 1484 4856 
L 1984 4856 
z
" transform="scale(0.015625)"/>
      <path id="DejaVuSans-29" d="M 513 4856 
L 1013 4856 
Q 1481 4119 1714 3412 
Q 1947 2706 1947 2009 
Q 1947 1309 1714 600 
Q 1481 -109 1013 -844 
L 513 -844 
Q 928 -128 1133 580 
Q 1338 1288 1338 2009 
Q 1338 2731 1133 3434 
Q 928 4138 513 4856 
z
" transform="scale(0.015625)"/>
     </defs>
     <use xlink:href="#DejaVuSans-73"/>
     <use xlink:href="#DejaVuSans-75" transform="translate(52.099609 0)"/>
     <use xlink:href="#DejaVuSans-6d" transform="translate(115.478516 0)"/>
     <use xlink:href="#DejaVuSans-6d" transform="translate(212.890625 0)"/>
     <use xlink:href="#DejaVuSans-61" transform="translate(310.302734 0)"/>
     <use xlink:href="#DejaVuSans-72" transform="translate(371.582031 0)"/>
     <use xlink:href="#DejaVuSans-69" transform="translate(412.695312 0)"/>
     <use xlink:href="#DejaVuSans-65" transform="translate(440.478516 0)"/>
     <use xlink:href="#DejaVuSans-73" transform="translate(502.001953 0)"/>
     <use xlink:href="#DejaVuSans-20" transform="translate(554.101562 0)"/>
     <use xlink:href="#DejaVuSans-28" transform="translate(585.888672 0)"/>
     <use xlink:href="#DejaVuSans-74" transform="translate(624.902344 0)"/>
     <use xlink:href="#DejaVuSans-72" transform="translate(664.111328 0)"/>
     <use xlink:href="#DejaVuSans-61" transform="translate(705.224609 0)"/>
     <use xlink:href="#DejaVuSans-63" transform="translate(766.503906 0)"/>
     <use xlink:href="#DejaVuSans-65" transform="translate(821.484375 0)"/>
     <use xlink:href="#DejaVuSans-29" transform="translate(883.007812 0)"/>
    </g>
   </g>
   <g id="text_9">
    <g id="patch_22">
     <path d="M 94.787013 314.255211 
L 138.231388 314.255211 
Q 139.011388 314.255211 139.011388 313.475211 
L 139.011388 307.18443 
Q 139.011388 306.40443 138.231388 306.40443 
L 94.787013 306.40443 
Q 94.007013 306.40443 94.007013 307.18443 
L 94.007013 313.475211 
Q 94.007013 314.255211 94.787013 314.255211 
z
" style="fill: #ffffff; opacity: 0.9"/>
    </g>
    <!-- fill-up chunks -->
    <g style="fill: #475569" transform="translate(94.787013 312.123414) scale(0.065 -0.065)">
     <defs>
      <path id="DejaVuSans-6c" d="M 603 4863 
L 1178 4863 
L 1178 0 
L 603 0 
L 603 4863 
z
" transform="scale(0.015625)"/>
     </defs>
     <use xlink:href="#DejaVuSans-66"/>
     <use xlink:href="#DejaVuSans-69" transform="translate(35.205078 0)"/>
     <use xlink:href="#DejaVuSans-6c" transform="translate(62.988281 0)"/>
     <use xlink:href="#DejaVuSans-6c" transform="translate(90.771484 0)"/>
     <use xlink:href="#DejaVuSans-2d" transform="translate(118.554688 0)"/>
     <use xlink:href="#DejaVuSans-75" transform="translate(154.638672 0)"/>
     <use xlink:href="#DejaVuSans-70" transform="translate(218.017578 0)"/>
     <use xlink:href="#DejaVuSans-20" transform="translate(281.494141 0)"/>
     <use xlink:href="#DejaVuSans-63" transform="translate(313.28125 0)"/>
     <use xlink:href="#DejaVuSans-68" transform="translate(368.261719 0)"/>
     <use xlink:href="#DejaVuSans-75" transform="translate(431.640625 0)"/>
     <use xlink:href="#DejaVuSans-6e" transform="translate(495.019531 0)"/>
     <use xlink:href="#DejaVuSans-6b" transform="translate(558.398438 0)"/>
     <use xlink:href="#DejaVuSans-73" transform="translate(616.308594 0)"/>
    </g>
   </g>
   <g id="text_10">
    <!-- GraphRAG Pipeline -->
    <g style="fill: #1D4ED8" transform="translate(7.2 17.077969) scale(0.13 -0.13)">
     <defs>
      <path id="DejaVuSans-Bold-47" d="M 4781 347 
Q 4331 128 3847 18 
Q 3363 -91 2847 -91 
Q 1681 -91 1000 561 
Q 319 1213 319 2328 
Q 319 3456 1012 4103 
Q 1706 4750 2913 4750 
Q 3378 4750 3804 4662 
Q 4231 4575 4609 4403 
L 4609 3438 
Q 4219 3659 3833 3768 
Q 3447 3878 3059 3878 
Q 2341 3878 1952 3476 
Q 1563 3075 1563 2328 
Q 1563 1588 1938 1184 
Q 2313 781 3003 781 
Q 3191 781 3352 804 
Q 3513 828 3641 878 
L 3641 1784 
L 2906 1784 
L 2906 2591 
L 4781 2591 
L 4781 347 
z
" transform="scale(0.015625)"/>
      <path id="DejaVuSans-Bold-72" d="M 3138 2547 
Q 2991 2616 2845 2648 
Q 2700 2681 2553 2681 
Q 2122 2681 1889 2404 
Q 1656 2128 1656 1613 
L 1656 0 
L 538 0 
L 538 3500 
L 1656 3500 
L 1656 2925 
Q 1872 3269 2151 3426 
Q 2431 3584 2822 3584 
Q 2878 3584 2943 3579 
Q 3009 3575 3134 3559 
L 3138 2547 
z
" transform="scale(0.015625)"/>
      <path id="DejaVuSans-Bold-61" d="M 2106 1575 
Q 1756 1575 1579 1456 
Q 1403 1338 1403 1106 
Q 1403 894 1545 773 
Q 1688 653 1941 653 
Q 2256 653 2472 879 
Q 2688 1106 2688 1447 
L 2688 1575 
L 2106 1575 
z
M 3816 1997 
L 3816 0 
L 2688 0 
L 2688 519 
Q 2463 200 2181 54 
Q 1900 -91 1497 -91 
Q 953 -91 614 226 
Q 275 544 275 1050 
Q 275 1666 698 1953 
Q 1122 2241 2028 2241 
L 2688 2241 
L 2688 2328 
Q 2688 2594 2478 2717 
Q 2269 2841 1825 2841 
Q 1466 2841 1156 2769 
Q 847 2697 581 2553 
L 581 3406 
Q 941 3494 1303 3539 
Q 1666 3584 2028 3584 
Q 2975 3584 3395 3211 
Q 3816 2838 3816 1997 
z
" transform="scale(0.015625)"/>
      <path id="DejaVuSans-Bold-70" d="M 1656 506 
L 1656 -1331 
L 538 -1331 
L 538 3500 
L 1656 3500 
L 1656 2988 
Q 1888 3294 2169 3439 
Q 2450 3584 2816 3584 
Q 3463 3584 3878 3070 
Q 4294 2556 4294 1747 
Q 4294 938 3878 423 
Q 3463 -91 2816 -91 
Q 2450 -91 2169 54 
Q 1888 200 1656 506 
z
M 2400 2772 
Q 2041 2772 1848 2508 
Q 1656 2244 1656 1747 
Q 1656 1250 1848 986 
Q 2041 722 2400 722 
Q 2759 722 2948 984 
Q 3138 1247 3138 1747 
Q 3138 2247 2948 2509 
Q 2759 2772 2400 2772 
z
" transform="scale(0.015625)"/>
      <path id="DejaVuSans-Bold-68" d="M 4056 2131 
L 4056 0 
L 2931 0 
L 2931 347 
L 2931 1625 
Q 2931 2084 2911 2256 
Q 2891 2428 2841 2509 
Q 2775 2619 2662 2680 
Q 2550 2741 2406 2741 
Q 2056 2741 1856 2470 
Q 1656 2200 1656 1722 
L 1656 0 
L 538 0 
L 538 4863 
L 1656 4863 
L 1656 2988 
Q 1909 3294 2193 3439 
Q 2478 3584 2822 3584 
Q 3428 3584 3742 3212 
Q 4056 2841 4056 2131 
z
" transform="scale(0.015625)"/>
      <path id="DejaVuSans-Bold-52" d="M 2297 2597 
Q 2675 2597 2839 2737 
Q 3003 2878 3003 3200 
Q 3003 3519 2839 3656 
Q 2675 3794 2297 3794 
L 1791 3794 
L 1791 2597 
L 2297 2597 
z
M 1791 1766 
L 1791 0 
L 588 0 
L 588 4666 
L 2425 4666 
Q 3347 4666 3776 4356 
Q 4206 4047 4206 3378 
Q 4206 2916 3982 2619 
Q 3759 2322 3309 2181 
Q 3556 2125 3751 1926 
Q 3947 1728 4147 1325 
L 4800 0 
L 3519 0 
L 2950 1159 
Q 2778 1509 2601 1637 
Q 2425 1766 2131 1766 
L 1791 1766 
z
" transform="scale(0.015625)"/>
      <path id="DejaVuSans-Bold-41" d="M 3419 850 
L 1538 850 
L 1241 0 
L 31 0 
L 1759 4666 
L 3194 4666 
L 4922 0 
L 3713 0 
L 3419 850 
z
M 1838 1716 
L 3116 1716 
L 2478 3572 
L 1838 1716 
z
" transform="scale(0.015625)"/>
      <path id="DejaVuSans-Bold-20" transform="scale(0.015625)"/>
      <path id="DejaVuSans-Bold-50" d="M 588 4666 
L 2584 4666 
Q 3475 4666 3951 4270 
Q 4428 3875 4428 3144 
Q 4428 2409 3951 2014 
Q 3475 1619 2584 1619 
L 1791 1619 
L 1791 0 
L 588 0 
L 588 4666 
z
M 1791 3794 
L 1791 2491 
L 2456 2491 
Q 2806 2491 2997 2661 
Q 3188 2831 3188 3144 
Q 3188 3456 2997 3625 
Q 2806 3794 2456 3794 
L 1791 3794 
z
" transform="scale(0.015625)"/>
      <path id="DejaVuSans-Bold-69" d="M 538 3500 
L 1656 3500 
L 1656 0 
L 538 0 
L 538 3500 
z
M 538 4863 
L 1656 4863 
L 1656 3950 
L 538 3950 
L 538 4863 
z
" transform="scale(0.015625)"/>
      <path id="DejaVuSans-Bold-65" d="M 4031 1759 
L 4031 1441 
L 1416 1441 
Q 1456 1047 1700 850 
Q 1944 653 2381 653 
Q 2734 653 3104 758 
Q 3475 863 3866 1075 
L 3866 213 
Q 3469 63 3072 -14 
Q 2675 -91 2278 -91 
Q 1328 -91 801 392 
Q 275 875 275 1747 
Q 275 2603 792 3093 
Q 1309 3584 2216 3584 
Q 3041 3584 3536 3087 
Q 4031 2591 4031 1759 
z
M 2881 2131 
Q 2881 2450 2695 2645 
Q 2509 2841 2209 2841 
Q 1884 2841 1681 2658 
Q 1478 2475 1428 2131 
L 2881 2131 
z
" transform="scale(0.015625)"/>
      <path id="DejaVuSans-Bold-6c" d="M 538 4863 
L 1656 4863 
L 1656 0 
L 538 0 
L 538 4863 
z
" transform="scale(0.015625)"/>
      <path id="DejaVuSans-Bold-6e" d="M 4056 2131 
L 4056 0 
L 2931 0 
L 2931 347 
L 2931 1631 
Q 2931 2084 2911 2256 
Q 2891 2428 2841 2509 
Q 2775 2619 2662 2680 
Q 2550 2741 2406 2741 
Q 2056 2741 1856 2470 
Q 1656 2200 1656 1722 
L 1656 0 
L 538 0 
L 538 3500 
L 1656 3500 
L 1656 2988 
Q 1909 3294 2193 3439 
Q 2478 3584 2822 3584 
Q 3428 3584 3742 3212 
Q 4056 2841 4056 2131 
z
" transform="scale(0.015625)"/>
     </defs>
     <use xlink:href="#DejaVuSans-Bold-47"/>
     <use xlink:href="#DejaVuSans-Bold-72" transform="translate(82.080078 0)"/>
     <use xlink:href="#DejaVuSans-Bold-61" transform="translate(131.396484 0)"/>
     <use xlink:href="#DejaVuSans-Bold-70" transform="translate(198.876953 0)"/>
     <use xlink:href="#DejaVuSans-Bold-68" transform="translate(270.458984 0)"/>
     <use xlink:href="#DejaVuSans-Bold-52" transform="translate(341.650391 0)"/>
     <use xlink:href="#DejaVuSans-Bold-41" transform="translate(418.652344 0)"/>
     <use xlink:href="#DejaVuSans-Bold-47" transform="translate(496.044922 0)"/>
     <use xlink:href="#DejaVuSans-Bold-20" transform="translate(578.125 0)"/>
     <use xlink:href="#DejaVuSans-Bold-50" transform="translate(612.939453 0)"/>
     <use xlink:href="#DejaVuSans-Bold-69" transform="translate(686.230469 0)"/>
     <use xlink:href="#DejaVuSans-Bold-70" transform="translate(720.507812 0)"/>
     <use xlink:href="#DejaVuSans-Bold-65" transform="translate(792.089844 0)"/>
     <use xlink:href="#DejaVuSans-Bold-6c" transform="translate(859.912109 0)"/>
     <use xlink:href="#DejaVuSans-Bold-69" transform="translate(894.189453 0)"/>
     <use xlink:href="#DejaVuSans-Bold-6e" transform="translate(928.466797 0)"/>
     <use xlink:href="#DejaVuSans-Bold-65" transform="translate(999.658203 0)"/>
    </g>
   </g>
   <g id="patch_23">
    <path d="M 356.472 286.125296 
C 358.728839 286.125296 360.893548 285.228644 362.489375 283.632818 
C 364.085201 282.036991 364.981853 279.872282 364.981853 277.615443 
C 364.981853 275.358603 364.085201 273.193894 362.489375 271.598068 
C 360.893548 270.002241 358.728839 269.105589 356.472 269.105589 
C 354.215161 269.105589 352.050452 270.002241 350.454625 271.598068 
C 348.858799 273.193894 347.962147 275.358603 347.962147 277.615443 
C 347.962147 279.872282 348.858799 282.036991 350.454625 283.632818 
C 352.050452 285.228644 354.215161 286.125296 356.472 286.125296 
z
" clip-path="url(#p5a0422bb9b)" style="fill: #D97706; stroke: #ffffff; stroke-width: 1.2; stroke-linejoin: miter"/>
   </g>
   <g id="patch_24">
    <path d="M 356.472 170.309004 
C 358.728839 170.309004 360.893548 169.412352 362.489375 167.816525 
C 364.085201 166.220699 364.981853 164.05599 364.981853 161.79915 
C 364.981853 159.542311 364.085201 157.377602 362.489375 155.781775 
C 360.893548 154.185949 358.728839 153.289297 356.472 153.289297 
C 354.215161 153.289297 352.050452 154.185949 350.454625 155.781775 
C 348.858799 157.377602 347.962147 159.542311 347.962147 161.79915 
C 347.962147 164.05599 348.858799 166.220699 350.454625 167.816525 
C 352.050452 169.412352 354.215161 170.309004 356.472 170.309004 
z
" clip-path="url(#p5a0422bb9b)" style="fill: #1D4ED8; stroke: #ffffff; stroke-width: 1.2; stroke-linejoin: miter"/>
   </g>
   <g id="patch_25">
    <path d="M 294.500335 154.011822 
C 296.757174 154.011822 298.921883 153.11517 300.51771 151.519344 
C 302.113536 149.923517 303.010188 147.758808 303.010188 145.501969 
C 303.010188 143.245129 302.113536 141.08042 300.51771 139.484594 
C 298.921883 137.888767 296.757174 136.992115 294.500335 136.992115 
C 292.243495 136.992115 290.078786 137.888767 288.48296 139.484594 
C 286.887133 141.08042 285.990481 143.245129 285.990481 145.501969 
C 285.990481 147.758808 286.887133 149.923517 288.48296 151.519344 
C 290.078786 153.11517 292.243495 154.011822 294.500335 154.011822 
z
" clip-path="url(#p5a0422bb9b)" style="fill: #1D4ED8; stroke: #ffffff; stroke-width: 1.2; stroke-linejoin: miter"/>
   </g>
   <g id="patch_26">
    <path d="M 206.808364 192.281548 
C 209.283283 192.281548 211.657168 191.298253 213.407199 189.548221 
C 215.157231 187.79819 216.140526 185.424305 216.140526 182.949386 
C 216.140526 180.474468 215.157231 178.100583 213.407199 176.350551 
C 211.657168 174.60052 209.283283 173.617225 206.808364 173.617225 
C 204.333446 173.617225 201.959561 174.60052 200.209529 176.350551 
C 198.459498 178.100583 197.476203 180.474468 197.476203 182.949386 
C 197.476203 185.424305 198.459498 187.79819 200.209529 189.548221 
C 201.959561 191.298253 204.333446 192.281548 206.808364 192.281548 
z
" clip-path="url(#p5a0422bb9b)" style="fill: #1D4ED8; stroke: #ffffff; stroke-width: 1.2; stroke-linejoin: miter"/>
   </g>
   <g id="patch_27">
    <path d="M 123.624 154.011822 
C 125.880839 154.011822 128.045548 153.11517 129.641375 151.519344 
C 131.237201 149.923517 132.133853 147.758808 132.133853 145.501969 
C 132.133853 143.245129 131.237201 141.08042 129.641375 139.484594 
C 128.045548 137.888767 125.880839 136.992115 123.624 136.992115 
C 121.367161 136.992115 119.202452 137.888767 117.606625 139.484594 
C 116.010799 141.08042 115.114147 143.245129 115.114147 145.501969 
C 115.114147 147.758808 116.010799 149.923517 117.606625 151.519344 
C 119.202452 153.11517 121.367161 154.011822 123.624 154.011822 
z
" clip-path="url(#p5a0422bb9b)" style="fill: #1D4ED8; stroke: #ffffff; stroke-width: 1.2; stroke-linejoin: miter"/>
   </g>
   <g id="patch_28">
    <path d="M 219.187285 330.717009 
C 221.846052 330.717009 224.396281 329.66067 226.276314 327.780637 
C 228.156346 325.900605 229.212685 323.350376 229.212685 320.691609 
C 229.212685 318.032842 228.156346 315.482613 226.276314 313.602581 
C 224.396281 311.722548 221.846052 310.666209 219.187285 310.666209 
C 216.528518 310.666209 213.978289 311.722548 212.098257 313.602581 
C 210.218225 315.482613 209.161885 318.032842 209.161885 320.691609 
C 209.161885 323.350376 210.218225 325.900605 212.098257 327.780637 
C 213.978289 329.66067 216.528518 330.717009 219.187285 330.717009 
z
" clip-path="url(#p5a0422bb9b)" style="fill: #059669; stroke: #ffffff; stroke-width: 1.2; stroke-linejoin: miter"/>
   </g>
   <g id="patch_29">
    <path d="M 123.624 386.859822 
C 125.880839 386.859822 128.045548 385.96317 129.641375 384.367344 
C 131.237201 382.771517 132.133853 380.606808 132.133853 378.349969 
C 132.133853 376.093129 131.237201 373.92842 129.641375 372.332594 
C 128.045548 370.736767 125.880839 369.840115 123.624 369.840115 
C 121.367161 369.840115 119.202452 370.736767 117.606625 372.332594 
C 116.010799 373.92842 115.114147 376.093129 115.114147 378.349969 
C 115.114147 380.606808 116.010799 382.771517 117.606625 384.367344 
C 119.202452 385.96317 121.367161 386.859822 123.624 386.859822 
z
" clip-path="url(#p5a0422bb9b)" style="fill: #059669; stroke: #ffffff; stroke-width: 1.2; stroke-linejoin: miter"/>
   </g>
   <g id="patch_30">
    <path d="M 337.157616 386.859822 
C 339.414456 386.859822 341.579165 385.96317 343.174991 384.367344 
C 344.770818 382.771517 345.66747 380.606808 345.66747 378.349969 
C 345.66747 376.093129 344.770818 373.92842 343.174991 372.332594 
C 341.579165 370.736767 339.414456 369.840115 337.157616 369.840115 
C 334.900777 369.840115 332.736068 370.736767 331.140241 372.332594 
C 329.544415 373.92842 328.647763 376.093129 328.647763 378.349969 
C 328.647763 380.606808 329.544415 382.771517 331.140241 384.367344 
C 332.736068 385.96317 334.900777 386.859822 337.157616 386.859822 
z
" clip-path="url(#p5a0422bb9b)" style="fill: #059669; stroke: #ffffff; stroke-width: 1.2; stroke-linejoin: miter"/>
   </g>
   <g id="patch_31">
    <path d="M 123.624 278.665452 
C 126.282767 278.665452 128.832996 277.609113 130.713028 275.72908 
C 132.593061 273.849048 133.6494 271.298819 133.6494 268.640052 
C 133.6494 265.981285 132.593061 263.431056 130.713028 261.551024 
C 128.832996 259.670991 126.282767 258.614652 123.624 258.614652 
C 120.965233 258.614652 118.415004 259.670991 116.534972 261.551024 
C 114.654939 263.431056 113.5986 265.981285 113.5986 268.640052 
C 113.5986 271.298819 114.654939 273.849048 116.534972 275.72908 
C 118.415004 277.609113 120.965233 278.665452 123.624 278.665452 
z
" clip-path="url(#p5a0422bb9b)" style="fill: #B91C1C; stroke: #ffffff; stroke-width: 1.2; stroke-linejoin: miter"/>
   </g>
   <g id="patch_32">
    <path d="M 123.624 344.327061 
C 125.596634 344.327061 127.488739 343.543326 128.883602 342.148463 
C 130.278464 340.7536 131.0622 338.861495 131.0622 336.888861 
C 131.0622 334.916228 130.278464 333.024122 128.883602 331.62926 
C 127.488739 330.234397 125.596634 329.450661 123.624 329.450661 
C 121.651366 329.450661 119.759261 330.234397 118.364398 331.62926 
C 116.969536 333.024122 116.1858 334.916228 116.1858 336.888861 
C 116.1858 338.861495 116.969536 340.7536 118.364398 342.148463 
C 119.759261 343.543326 121.651366 344.327061 123.624 344.327061 
z
" clip-path="url(#p5a0422bb9b)" style="fill: #7C3AED; stroke: #ffffff; stroke-width: 1.2; stroke-linejoin: miter"/>
   </g>
   <g id="legend_1">
    <g id="patch_33">
     <path d="M 12.8 97.390469 
L 85.10875 97.390469 
Q 86.70875 97.390469 86.70875 95.790469 
L 86.70875 34.677969 
Q 86.70875 33.077969 85.10875 33.077969 
L 12.8 33.077969 
Q 11.2 33.077969 11.2 34.677969 
L 11.2 95.790469 
Q 11.2 97.390469 12.8 97.390469 
z
" style="fill: #ffffff; opacity: 0.9; stroke: #cccccc; stroke-linejoin: miter"/>
    </g>
    <g id="patch_34">
     <path d="M 16 43.956719 
L 32 43.956719 
L 32 38.356719 
L 16 38.356719 
z
" style="fill: #D97706; stroke: #D97706; stroke-linejoin: miter"/>
    </g>
    <g id="text_11">
     <!-- input -->
     <g transform="translate(38.4 43.956719) scale(0.08 -0.08)">
      <use xlink:href="#DejaVuSans-69"/>
      <use xlink:href="#DejaVuSans-6e" transform="translate(27.783203 0)"/>
      <use xlink:href="#DejaVuSans-70" transform="translate(91.162109 0)"/>
      <use xlink:href="#DejaVuSans-75" transform="translate(154.638672 0)"/>
      <use xlink:href="#DejaVuSans-74" transform="translate(218.017578 0)"/>
     </g>
    </g>
    <g id="patch_35">
     <path d="M 16 55.699219 
L 32 55.699219 
L 32 50.099219 
L 16 50.099219 
z
" style="fill: #1D4ED8; stroke: #1D4ED8; stroke-linejoin: miter"/>
    </g>
    <g id="text_12">
     <!-- graph -->
     <g transform="translate(38.4 55.699219) scale(0.08 -0.08)">
      <defs>
       <path id="DejaVuSans-67" d="M 2906 1791 
Q 2906 2416 2648 2759 
Q 2391 3103 1925 3103 
Q 1463 3103 1205 2759 
Q 947 2416 947 1791 
Q 947 1169 1205 825 
Q 1463 481 1925 481 
Q 2391 481 2648 825 
Q 2906 1169 2906 1791 
z
M 3481 434 
Q 3481 -459 3084 -895 
Q 2688 -1331 1869 -1331 
Q 1566 -1331 1297 -1286 
Q 1028 -1241 775 -1147 
L 775 -588 
Q 1028 -725 1275 -790 
Q 1522 -856 1778 -856 
Q 2344 -856 2625 -561 
Q 2906 -266 2906 331 
L 2906 616 
Q 2728 306 2450 153 
Q 2172 0 1784 0 
Q 1141 0 747 490 
Q 353 981 353 1791 
Q 353 2603 747 3093 
Q 1141 3584 1784 3584 
Q 2172 3584 2450 3431 
Q 2728 3278 2906 2969 
L 2906 3500 
L 3481 3500 
L 3481 434 
z
" transform="scale(0.015625)"/>
      </defs>
      <use xlink:href="#DejaVuSans-67"/>
      <use xlink:href="#DejaVuSans-72" transform="translate(63.476562 0)"/>
      <use xlink:href="#DejaVuSans-61" transform="translate(104.589844 0)"/>
      <use xlink:href="#DejaVuSans-70" transform="translate(165.869141 0)"/>
      <use xlink:href="#DejaVuSans-68" transform="translate(229.345703 0)"/>
     </g>
    </g>
    <g id="patch_36">
     <path d="M 16 67.441719 
L 32 67.441719 
L 32 61.841719 
L 16 61.841719 
z
" style="fill: #059669; stroke: #059669; stroke-linejoin: miter"/>
    </g>
    <g id="text_13">
     <!-- retrieval -->
     <g transform="translate(38.4 67.441719) scale(0.08 -0.08)">
      <defs>
       <path id="DejaVuSans-76" d="M 191 3500 
L 800 3500 
L 1894 563 
L 2988 3500 
L 3597 3500 
L 2284 0 
L 1503 0 
L 191 3500 
z
" transform="scale(0.015625)"/>
      </defs>
      <use xlink:href="#DejaVuSans-72"/>
      <use xlink:href="#DejaVuSans-65" transform="translate(38.863281 0)"/>
      <use xlink:href="#DejaVuSans-74" transform="translate(100.386719 0)"/>
      <use xlink:href="#DejaVuSans-72" transform="translate(139.595703 0)"/>
      <use xlink:href="#DejaVuSans-69" transform="translate(180.708984 0)"/>
      <use xlink:href="#DejaVuSans-65" transform="translate(208.492188 0)"/>
      <use xlink:href="#DejaVuSans-76" transform="translate(270.015625 0)"/>
      <use xlink:href="#DejaVuSans-61" transform="translate(329.195312 0)"/>
      <use xlink:href="#DejaVuSans-6c" transform="translate(390.474609 0)"/>
     </g>
    </g>
    <g id="patch_37">
     <path d="M 16 79.184219 
L 32 79.184219 
L 32 73.584219 
L 16 73.584219 
z
" style="fill: #B91C1C; stroke: #B91C1C; stroke-linejoin: miter"/>
    </g>
    <g id="text_14">
     <!-- generation -->
     <g transform="translate(38.4 79.184219) scale(0.08 -0.08)">
      <use xlink:href="#DejaVuSans-67"/>
      <use xlink:href="#DejaVuSans-65" transform="translate(63.476562 0)"/>
      <use xlink:href="#DejaVuSans-6e" transform="translate(125 0)"/>
      <use xlink:href="#DejaVuSans-65" transform="translate(188.378906 0)"/>
      <use xlink:href="#DejaVuSans-72" transform="translate(249.902344 0)"/>
      <use xlink:href="#DejaVuSans-61" transform="translate(291.015625 0)"/>
      <use xlink:href="#DejaVuSans-74" transform="translate(352.294922 0)"/>
      <use xlink:href="#DejaVuSans-69" transform="translate(391.503906 0)"/>
      <use xlink:href="#DejaVuSans-6f" transform="translate(419.287109 0)"/>
      <use xlink:href="#DejaVuSans-6e" transform="translate(480.46875 0)"/>
     </g>
    </g>
    <g id="patch_38">
     <path d="M 16 90.926719 
L 32 90.926719 
L 32 85.326719 
L 16 85.326719 
z
" style="fill: #7C3AED; stroke: #7C3AED; stroke-linejoin: miter"/>
    </g>
    <g id="text_15">
     <!-- output -->
     <g transform="translate(38.4 90.926719) scale(0.08 -0.08)">
      <use xlink:href="#DejaVuSans-6f"/>
      <use xlink:href="#DejaVuSans-75" transform="translate(61.181641 0)"/>
      <use xlink:href="#DejaVuSans-74" transform="translate(124.560547 0)"/>
      <use xlink:href="#DejaVuSans-70" transform="translate(163.769531 0)"/>
      <use xlink:href="#DejaVuSans-75" transform="translate(227.246094 0)"/>
      <use xlink:href="#DejaVuSans-74" transform="translate(290.625 0)"/>
     </g>
    </g>
   </g>
   <g id="text_16">
    <g id="patch_39">
     <path d="M 371.949131 284.436748 
L 394.743272 284.436748 
Q 395.793272 284.436748 395.793272 283.386748 
L 395.793272 276.128154 
Q 395.793272 275.078154 394.743272 275.078154 
L 371.949131 275.078154 
Q 370.899131 275.078154 370.899131 276.128154 
L 370.899131 283.386748 
Q 370.899131 284.436748 371.949131 284.436748 
z
" style="fill: #ffffff; opacity: 0.88"/>
    </g>
    <!-- Query -->
    <g style="fill: #212529" transform="translate(371.949131 281.826982) scale(0.075 -0.075)">
     <defs>
      <path id="DejaVuSans-51" d="M 2522 4238 
Q 1834 4238 1429 3725 
Q 1025 3213 1025 2328 
Q 1025 1447 1429 934 
Q 1834 422 2522 422 
Q 3209 422 3611 934 
Q 4013 1447 4013 2328 
Q 4013 3213 3611 3725 
Q 3209 4238 2522 4238 
z
M 3406 84 
L 4238 -825 
L 3475 -825 
L 2784 -78 
Q 2681 -84 2626 -87 
Q 2572 -91 2522 -91 
Q 1538 -91 948 567 
Q 359 1225 359 2328 
Q 359 3434 948 4092 
Q 1538 4750 2522 4750 
Q 3503 4750 4090 4092 
Q 4678 3434 4678 2328 
Q 4678 1516 4351 937 
Q 4025 359 3406 84 
z
" transform="scale(0.015625)"/>
     </defs>
     <use xlink:href="#DejaVuSans-51"/>
     <use xlink:href="#DejaVuSans-75" transform="translate(78.710938 0)"/>
     <use xlink:href="#DejaVuSans-65" transform="translate(142.089844 0)"/>
     <use xlink:href="#DejaVuSans-72" transform="translate(203.613281 0)"/>
     <use xlink:href="#DejaVuSans-79" transform="translate(244.726562 0)"/>
    </g>
   </g>
   <g id="text_17">
    <g id="patch_40">
     <path d="M 368.955211 153.452383 
L 440.733727 153.452383 
Q 441.783727 153.452383 441.783727 152.402383 
L 441.783727 138.170137 
Q 441.783727 137.120137 440.733727 137.120137 
L 368.955211 137.120137 
Q 367.905211 137.120137 367.905211 138.170137 
L 367.905211 152.402383 
Q 367.905211 153.452383 368.955211 153.452383 
z
" style="fill: #ffffff; opacity: 0.88"/>
    </g>
    <!-- LLM: Extract Query -->
    <g style="fill: #212529" transform="translate(368.955211 143.868965) scale(0.075 -0.075)">
     <defs>
      <path id="DejaVuSans-4c" d="M 628 4666 
L 1259 4666 
L 1259 531 
L 3531 531 
L 3531 0 
L 628 0 
L 628 4666 
z
" transform="scale(0.015625)"/>
      <path id="DejaVuSans-4d" d="M 628 4666 
L 1569 4666 
L 2759 1491 
L 3956 4666 
L 4897 4666 
L 4897 0 
L 4281 0 
L 4281 4097 
L 3078 897 
L 2444 897 
L 1241 4097 
L 1241 0 
L 628 0 
L 628 4666 
z
" transform="scale(0.015625)"/>
      <path id="DejaVuSans-3a" d="M 750 794 
L 1409 794 
L 1409 0 
L 750 0 
L 750 794 
z
M 750 3309 
L 1409 3309 
L 1409 2516 
L 750 2516 
L 750 3309 
z
" transform="scale(0.015625)"/>
      <path id="DejaVuSans-45" d="M 628 4666 
L 3578 4666 
L 3578 4134 
L 1259 4134 
L 1259 2753 
L 3481 2753 
L 3481 2222 
L 1259 2222 
L 1259 531 
L 3634 531 
L 3634 0 
L 628 0 
L 628 4666 
z
" transform="scale(0.015625)"/>
     </defs>
     <use xlink:href="#DejaVuSans-4c"/>
     <use xlink:href="#DejaVuSans-4c" transform="translate(55.712891 0)"/>
     <use xlink:href="#DejaVuSans-4d" transform="translate(111.425781 0)"/>
     <use xlink:href="#DejaVuSans-3a" transform="translate(197.705078 0)"/>
     <use xlink:href="#DejaVuSans-20" transform="translate(231.396484 0)"/>
     <use xlink:href="#DejaVuSans-45" transform="translate(263.183594 0)"/>
     <use xlink:href="#DejaVuSans-78" transform="translate(326.367188 0)"/>
     <use xlink:href="#DejaVuSans-74" transform="translate(385.546875 0)"/>
     <use xlink:href="#DejaVuSans-72" transform="translate(424.755859 0)"/>
     <use xlink:href="#DejaVuSans-61" transform="translate(465.869141 0)"/>
     <use xlink:href="#DejaVuSans-63" transform="translate(527.148438 0)"/>
     <use xlink:href="#DejaVuSans-74" transform="translate(582.128906 0)"/>
     <use xlink:href="#DejaVuSans-20" transform="translate(621.337891 0)"/>
     <use xlink:href="#DejaVuSans-51" transform="translate(653.125 0)"/>
     <use xlink:href="#DejaVuSans-75" transform="translate(731.835938 0)"/>
     <use xlink:href="#DejaVuSans-65" transform="translate(795.214844 0)"/>
     <use xlink:href="#DejaVuSans-72" transform="translate(856.738281 0)"/>
     <use xlink:href="#DejaVuSans-79" transform="translate(897.851562 0)"/>
    </g>
    <!-- Entities -->
    <g style="fill: #212529" transform="translate(368.955211 150.842618) scale(0.075 -0.075)">
     <use xlink:href="#DejaVuSans-45"/>
     <use xlink:href="#DejaVuSans-6e" transform="translate(63.183594 0)"/>
     <use xlink:href="#DejaVuSans-74" transform="translate(126.5625 0)"/>
     <use xlink:href="#DejaVuSans-69" transform="translate(165.771484 0)"/>
     <use xlink:href="#DejaVuSans-74" transform="translate(193.554688 0)"/>
     <use xlink:href="#DejaVuSans-69" transform="translate(232.763672 0)"/>
     <use xlink:href="#DejaVuSans-65" transform="translate(260.546875 0)"/>
     <use xlink:href="#DejaVuSans-73" transform="translate(322.070312 0)"/>
    </g>
   </g>
   <g id="text_18">
    <g id="patch_41">
     <path d="M 302.497156 133.128831 
L 369.115906 133.128831 
Q 370.165906 133.128831 370.165906 132.078831 
L 370.165906 117.846585 
Q 370.165906 116.796585 369.115906 116.796585 
L 302.497156 116.796585 
Q 301.447156 116.796585 301.447156 117.846585 
L 301.447156 132.078831 
Q 301.447156 133.128831 302.497156 133.128831 
z
" style="fill: #ffffff; opacity: 0.88"/>
    </g>
    <!-- Match Nodes in -->
    <g style="fill: #212529" transform="translate(302.497156 123.545413) scale(0.075 -0.075)">
     <defs>
      <path id="DejaVuSans-4e" d="M 628 4666 
L 1478 4666 
L 3547 763 
L 3547 4666 
L 4159 4666 
L 4159 0 
L 3309 0 
L 1241 3903 
L 1241 0 
L 628 0 
L 628 4666 
z
" transform="scale(0.015625)"/>
     </defs>
     <use xlink:href="#DejaVuSans-4d"/>
     <use xlink:href="#DejaVuSans-61" transform="translate(86.279297 0)"/>
     <use xlink:href="#DejaVuSans-74" transform="translate(147.558594 0)"/>
     <use xlink:href="#DejaVuSans-63" transform="translate(186.767578 0)"/>
     <use xlink:href="#DejaVuSans-68" transform="translate(241.748047 0)"/>
     <use xlink:href="#DejaVuSans-20" transform="translate(305.126953 0)"/>
     <use xlink:href="#DejaVuSans-4e" transform="translate(336.914062 0)"/>
     <use xlink:href="#DejaVuSans-6f" transform="translate(411.71875 0)"/>
     <use xlink:href="#DejaVuSans-64" transform="translate(472.900391 0)"/>
     <use xlink:href="#DejaVuSans-65" transform="translate(536.376953 0)"/>
     <use xlink:href="#DejaVuSans-73" transform="translate(597.900391 0)"/>
     <use xlink:href="#DejaVuSans-20" transform="translate(650 0)"/>
     <use xlink:href="#DejaVuSans-69" transform="translate(681.787109 0)"/>
     <use xlink:href="#DejaVuSans-6e" transform="translate(709.570312 0)"/>
    </g>
    <!-- Knowledge Graph -->
    <g style="fill: #212529" transform="translate(302.497156 130.519065) scale(0.075 -0.075)">
     <defs>
      <path id="DejaVuSans-4b" d="M 628 4666 
L 1259 4666 
L 1259 2694 
L 3353 4666 
L 4166 4666 
L 1850 2491 
L 4331 0 
L 3500 0 
L 1259 2247 
L 1259 0 
L 628 0 
L 628 4666 
z
" transform="scale(0.015625)"/>
      <path id="DejaVuSans-77" d="M 269 3500 
L 844 3500 
L 1563 769 
L 2278 3500 
L 2956 3500 
L 3675 769 
L 4391 3500 
L 4966 3500 
L 4050 0 
L 3372 0 
L 2619 2869 
L 1863 0 
L 1184 0 
L 269 3500 
z
" transform="scale(0.015625)"/>
      <path id="DejaVuSans-47" d="M 3809 666 
L 3809 1919 
L 2778 1919 
L 2778 2438 
L 4434 2438 
L 4434 434 
Q 4069 175 3628 42 
Q 3188 -91 2688 -91 
Q 1594 -91 976 548 
Q 359 1188 359 2328 
Q 359 3472 976 4111 
Q 1594 4750 2688 4750 
Q 3144 4750 3555 4637 
Q 3966 4525 4313 4306 
L 4313 3634 
Q 3963 3931 3569 4081 
Q 3175 4231 2741 4231 
Q 1884 4231 1454 3753 
Q 1025 3275 1025 2328 
Q 1025 1384 1454 906 
Q 1884 428 2741 428 
Q 3075 428 3337 486 
Q 3600 544 3809 666 
z
" transform="scale(0.015625)"/>
     </defs>
     <use xlink:href="#DejaVuSans-4b"/>
     <use xlink:href="#DejaVuSans-6e" transform="translate(65.576172 0)"/>
     <use xlink:href="#DejaVuSans-6f" transform="translate(128.955078 0)"/>
     <use xlink:href="#DejaVuSans-77" transform="translate(190.136719 0)"/>
     <use xlink:href="#DejaVuSans-6c" transform="translate(271.923828 0)"/>
     <use xlink:href="#DejaVuSans-65" transform="translate(299.707031 0)"/>
     <use xlink:href="#DejaVuSans-64" transform="translate(361.230469 0)"/>
     <use xlink:href="#DejaVuSans-67" transform="translate(424.707031 0)"/>
     <use xlink:href="#DejaVuSans-65" transform="translate(488.183594 0)"/>
     <use xlink:href="#DejaVuSans-20" transform="translate(549.707031 0)"/>
     <use xlink:href="#DejaVuSans-47" transform="translate(581.494141 0)"/>
     <use xlink:href="#DejaVuSans-72" transform="translate(658.984375 0)"/>
     <use xlink:href="#DejaVuSans-61" transform="translate(700.097656 0)"/>
     <use xlink:href="#DejaVuSans-70" transform="translate(761.376953 0)"/>
     <use xlink:href="#DejaVuSans-68" transform="translate(824.853516 0)"/>
    </g>
   </g>
   <g id="text_19">
    <g id="patch_42">
     <path d="M 176.708204 168.06979 
L 228.723048 168.06979 
Q 229.773048 168.06979 229.773048 167.01979 
L 229.773048 152.787544 
Q 229.773048 151.737544 228.723048 151.737544 
L 176.708204 151.737544 
Q 175.658204 151.737544 175.658204 152.787544 
L 175.658204 167.01979 
Q 175.658204 168.06979 176.708204 168.06979 
z
" style="fill: #ffffff; opacity: 0.88"/>
    </g>
    <!-- Expand 1-hop -->
    <g style="fill: #212529" transform="translate(176.708204 158.486372) scale(0.075 -0.075)">
     <defs>
      <path id="DejaVuSans-31" d="M 794 531 
L 1825 531 
L 1825 4091 
L 703 3866 
L 703 4441 
L 1819 4666 
L 2450 4666 
L 2450 531 
L 3481 531 
L 3481 0 
L 794 0 
L 794 531 
z
" transform="scale(0.015625)"/>
     </defs>
     <use xlink:href="#DejaVuSans-45"/>
     <use xlink:href="#DejaVuSans-78" transform="translate(63.183594 0)"/>
     <use xlink:href="#DejaVuSans-70" transform="translate(122.363281 0)"/>
     <use xlink:href="#DejaVuSans-61" transform="translate(185.839844 0)"/>
     <use xlink:href="#DejaVuSans-6e" transform="translate(247.119141 0)"/>
     <use xlink:href="#DejaVuSans-64" transform="translate(310.498047 0)"/>
     <use xlink:href="#DejaVuSans-20" transform="translate(373.974609 0)"/>
     <use xlink:href="#DejaVuSans-31" transform="translate(405.761719 0)"/>
     <use xlink:href="#DejaVuSans-2d" transform="translate(469.384766 0)"/>
     <use xlink:href="#DejaVuSans-68" transform="translate(505.46875 0)"/>
     <use xlink:href="#DejaVuSans-6f" transform="translate(568.847656 0)"/>
     <use xlink:href="#DejaVuSans-70" transform="translate(630.029297 0)"/>
    </g>
    <!-- Neighbours -->
    <g style="fill: #212529" transform="translate(181.256837 165.460024) scale(0.075 -0.075)">
     <defs>
      <path id="DejaVuSans-62" d="M 3116 1747 
Q 3116 2381 2855 2742 
Q 2594 3103 2138 3103 
Q 1681 3103 1420 2742 
Q 1159 2381 1159 1747 
Q 1159 1113 1420 752 
Q 1681 391 2138 391 
Q 2594 391 2855 752 
Q 3116 1113 3116 1747 
z
M 1159 2969 
Q 1341 3281 1617 3432 
Q 1894 3584 2278 3584 
Q 2916 3584 3314 3078 
Q 3713 2572 3713 1747 
Q 3713 922 3314 415 
Q 2916 -91 2278 -91 
Q 1894 -91 1617 61 
Q 1341 213 1159 525 
L 1159 0 
L 581 0 
L 581 4863 
L 1159 4863 
L 1159 2969 
z
" transform="scale(0.015625)"/>
     </defs>
     <use xlink:href="#DejaVuSans-4e"/>
     <use xlink:href="#DejaVuSans-65" transform="translate(74.804688 0)"/>
     <use xlink:href="#DejaVuSans-69" transform="translate(136.328125 0)"/>
     <use xlink:href="#DejaVuSans-67" transform="translate(164.111328 0)"/>
     <use xlink:href="#DejaVuSans-68" transform="translate(227.587891 0)"/>
     <use xlink:href="#DejaVuSans-62" transform="translate(290.966797 0)"/>
     <use xlink:href="#DejaVuSans-6f" transform="translate(354.443359 0)"/>
     <use xlink:href="#DejaVuSans-75" transform="translate(415.625 0)"/>
     <use xlink:href="#DejaVuSans-72" transform="translate(479.003906 0)"/>
     <use xlink:href="#DejaVuSans-73" transform="translate(520.117188 0)"/>
    </g>
   </g>
   <g id="text_20">
    <g id="patch_43">
     <path d="M 69.755795 134.946914 
L 113.162045 134.946914 
Q 114.212045 134.946914 114.212045 133.896914 
L 114.212045 112.691016 
Q 114.212045 111.641016 113.162045 111.641016 
L 69.755795 111.641016 
Q 68.705795 111.641016 68.705795 112.691016 
L 68.705795 133.896914 
Q 68.705795 134.946914 69.755795 134.946914 
z
" style="fill: #ffffff; opacity: 0.88"/>
    </g>
    <!-- Community -->
    <g style="fill: #212529" transform="translate(69.755795 118.389844) scale(0.075 -0.075)">
     <defs>
      <path id="DejaVuSans-43" d="M 4122 4306 
L 4122 3641 
Q 3803 3938 3442 4084 
Q 3081 4231 2675 4231 
Q 1875 4231 1450 3742 
Q 1025 3253 1025 2328 
Q 1025 1406 1450 917 
Q 1875 428 2675 428 
Q 3081 428 3442 575 
Q 3803 722 4122 1019 
L 4122 359 
Q 3791 134 3420 21 
Q 3050 -91 2638 -91 
Q 1578 -91 968 557 
Q 359 1206 359 2328 
Q 359 3453 968 4101 
Q 1578 4750 2638 4750 
Q 3056 4750 3426 4639 
Q 3797 4528 4122 4306 
z
" transform="scale(0.015625)"/>
     </defs>
     <use xlink:href="#DejaVuSans-43"/>
     <use xlink:href="#DejaVuSans-6f" transform="translate(69.824219 0)"/>
     <use xlink:href="#DejaVuSans-6d" transform="translate(131.005859 0)"/>
     <use xlink:href="#DejaVuSans-6d" transform="translate(228.417969 0)"/>
     <use xlink:href="#DejaVuSans-75" transform="translate(325.830078 0)"/>
     <use xlink:href="#DejaVuSans-6e" transform="translate(389.208984 0)"/>
     <use xlink:href="#DejaVuSans-69" transform="translate(452.587891 0)"/>
     <use xlink:href="#DejaVuSans-74" transform="translate(480.371094 0)"/>
     <use xlink:href="#DejaVuSans-79" transform="translate(519.580078 0)"/>
    </g>
    <!-- Summaries -->
    <g style="fill: #212529" transform="translate(70.751889 125.363496) scale(0.075 -0.075)">
     <defs>
      <path id="DejaVuSans-53" d="M 3425 4513 
L 3425 3897 
Q 3066 4069 2747 4153 
Q 2428 4238 2131 4238 
Q 1616 4238 1336 4038 
Q 1056 3838 1056 3469 
Q 1056 3159 1242 3001 
Q 1428 2844 1947 2747 
L 2328 2669 
Q 3034 2534 3370 2195 
Q 3706 1856 3706 1288 
Q 3706 609 3251 259 
Q 2797 -91 1919 -91 
Q 1588 -91 1214 -16 
Q 841 59 441 206 
L 441 856 
Q 825 641 1194 531 
Q 1563 422 1919 422 
Q 2459 422 2753 634 
Q 3047 847 3047 1241 
Q 3047 1584 2836 1778 
Q 2625 1972 2144 2069 
L 1759 2144 
Q 1053 2284 737 2584 
Q 422 2884 422 3419 
Q 422 4038 858 4394 
Q 1294 4750 2059 4750 
Q 2388 4750 2728 4690 
Q 3069 4631 3425 4513 
z
" transform="scale(0.015625)"/>
     </defs>
     <use xlink:href="#DejaVuSans-53"/>
     <use xlink:href="#DejaVuSans-75" transform="translate(63.476562 0)"/>
     <use xlink:href="#DejaVuSans-6d" transform="translate(126.855469 0)"/>
     <use xlink:href="#DejaVuSans-6d" transform="translate(224.267578 0)"/>
     <use xlink:href="#DejaVuSans-61" transform="translate(321.679688 0)"/>
     <use xlink:href="#DejaVuSans-72" transform="translate(382.958984 0)"/>
     <use xlink:href="#DejaVuSans-69" transform="translate(424.072266 0)"/>
     <use xlink:href="#DejaVuSans-65" transform="translate(451.855469 0)"/>
     <use xlink:href="#DejaVuSans-73" transform="translate(513.378906 0)"/>
    </g>
    <!-- (context) -->
    <g style="fill: #212529" transform="translate(79.04056 132.337149) scale(0.075 -0.075)">
     <use xlink:href="#DejaVuSans-28"/>
     <use xlink:href="#DejaVuSans-63" transform="translate(39.013672 0)"/>
     <use xlink:href="#DejaVuSans-6f" transform="translate(93.994141 0)"/>
     <use xlink:href="#DejaVuSans-6e" transform="translate(155.175781 0)"/>
     <use xlink:href="#DejaVuSans-74" transform="translate(218.554688 0)"/>
     <use xlink:href="#DejaVuSans-65" transform="translate(257.763672 0)"/>
     <use xlink:href="#DejaVuSans-78" transform="translate(317.537109 0)"/>
     <use xlink:href="#DejaVuSans-74" transform="translate(376.716797 0)"/>
     <use xlink:href="#DejaVuSans-29" transform="translate(415.925781 0)"/>
    </g>
   </g>
   <g id="text_21">
    <g id="patch_44">
     <path d="M 191.579815 359.965795 
L 242.713409 359.965795 
Q 243.763409 359.965795 243.763409 358.915795 
L 243.763409 337.709896 
Q 243.763409 336.659896 242.713409 336.659896 
L 191.579815 336.659896 
Q 190.529815 336.659896 190.529815 337.709896 
L 190.529815 358.915795 
Q 190.529815 359.965795 191.579815 359.965795 
z
" style="fill: #ffffff; opacity: 0.88"/>
    </g>
    <!-- Score Chunks -->
    <g style="fill: #212529" transform="translate(191.579815 343.408725) scale(0.075 -0.075)">
     <use xlink:href="#DejaVuSans-53"/>
     <use xlink:href="#DejaVuSans-63" transform="translate(63.476562 0)"/>
     <use xlink:href="#DejaVuSans-6f" transform="translate(118.457031 0)"/>
     <use xlink:href="#DejaVuSans-72" transform="translate(179.638672 0)"/>
     <use xlink:href="#DejaVuSans-65" transform="translate(218.501953 0)"/>
     <use xlink:href="#DejaVuSans-20" transform="translate(280.025391 0)"/>
     <use xlink:href="#DejaVuSans-43" transform="translate(311.8125 0)"/>
     <use xlink:href="#DejaVuSans-68" transform="translate(381.636719 0)"/>
     <use xlink:href="#DejaVuSans-75" transform="translate(445.015625 0)"/>
     <use xlink:href="#DejaVuSans-6e" transform="translate(508.394531 0)"/>
     <use xlink:href="#DejaVuSans-6b" transform="translate(571.773438 0)"/>
     <use xlink:href="#DejaVuSans-73" transform="translate(629.683594 0)"/>
    </g>
    <!-- (0.6·dense + -->
    <g style="fill: #212529" transform="translate(192.868292 350.382377) scale(0.075 -0.075)">
     <defs>
      <path id="DejaVuSans-30" d="M 2034 4250 
Q 1547 4250 1301 3770 
Q 1056 3291 1056 2328 
Q 1056 1369 1301 889 
Q 1547 409 2034 409 
Q 2525 409 2770 889 
Q 3016 1369 3016 2328 
Q 3016 3291 2770 3770 
Q 2525 4250 2034 4250 
z
M 2034 4750 
Q 2819 4750 3233 4129 
Q 3647 3509 3647 2328 
Q 3647 1150 3233 529 
Q 2819 -91 2034 -91 
Q 1250 -91 836 529 
Q 422 1150 422 2328 
Q 422 3509 836 4129 
Q 1250 4750 2034 4750 
z
" transform="scale(0.015625)"/>
      <path id="DejaVuSans-2e" d="M 684 794 
L 1344 794 
L 1344 0 
L 684 0 
L 684 794 
z
" transform="scale(0.015625)"/>
      <path id="DejaVuSans-36" d="M 2113 2584 
Q 1688 2584 1439 2293 
Q 1191 2003 1191 1497 
Q 1191 994 1439 701 
Q 1688 409 2113 409 
Q 2538 409 2786 701 
Q 3034 994 3034 1497 
Q 3034 2003 2786 2293 
Q 2538 2584 2113 2584 
z
M 3366 4563 
L 3366 3988 
Q 3128 4100 2886 4159 
Q 2644 4219 2406 4219 
Q 1781 4219 1451 3797 
Q 1122 3375 1075 2522 
Q 1259 2794 1537 2939 
Q 1816 3084 2150 3084 
Q 2853 3084 3261 2657 
Q 3669 2231 3669 1497 
Q 3669 778 3244 343 
Q 2819 -91 2113 -91 
Q 1303 -91 875 529 
Q 447 1150 447 2328 
Q 447 3434 972 4092 
Q 1497 4750 2381 4750 
Q 2619 4750 2861 4703 
Q 3103 4656 3366 4563 
z
" transform="scale(0.015625)"/>
      <path id="DejaVuSans-b7" d="M 684 2619 
L 1344 2619 
L 1344 1825 
L 684 1825 
L 684 2619 
z
" transform="scale(0.015625)"/>
      <path id="DejaVuSans-2b" d="M 2944 4013 
L 2944 2272 
L 4684 2272 
L 4684 1741 
L 2944 1741 
L 2944 0 
L 2419 0 
L 2419 1741 
L 678 1741 
L 678 2272 
L 2419 2272 
L 2419 4013 
L 2944 4013 
z
" transform="scale(0.015625)"/>
     </defs>
     <use xlink:href="#DejaVuSans-28"/>
     <use xlink:href="#DejaVuSans-30" transform="translate(39.013672 0)"/>
     <use xlink:href="#DejaVuSans-2e" transform="translate(102.636719 0)"/>
     <use xlink:href="#DejaVuSans-36" transform="translate(134.423828 0)"/>
     <use xlink:href="#DejaVuSans-b7" transform="translate(198.046875 0)"/>
     <use xlink:href="#DejaVuSans-64" transform="translate(229.833984 0)"/>
     <use xlink:href="#DejaVuSans-65" transform="translate(293.310547 0)"/>
     <use xlink:href="#DejaVuSans-6e" transform="translate(354.833984 0)"/>
     <use xlink:href="#DejaVuSans-73" transform="translate(418.212891 0)"/>
     <use xlink:href="#DejaVuSans-65" transform="translate(470.3125 0)"/>
     <use xlink:href="#DejaVuSans-20" transform="translate(531.835938 0)"/>
     <use xlink:href="#DejaVuSans-2b" transform="translate(563.623047 0)"/>
    </g>
    <!-- 0.4·overlap) -->
    <g style="fill: #212529" transform="translate(194.444463 357.356029) scale(0.075 -0.075)">
     <defs>
      <path id="DejaVuSans-34" d="M 2419 4116 
L 825 1625 
L 2419 1625 
L 2419 4116 
z
M 2253 4666 
L 3047 4666 
L 3047 1625 
L 3713 1625 
L 3713 1100 
L 3047 1100 
L 3047 0 
L 2419 0 
L 2419 1100 
L 313 1100 
L 313 1709 
L 2253 4666 
z
" transform="scale(0.015625)"/>
     </defs>
     <use xlink:href="#DejaVuSans-30"/>
     <use xlink:href="#DejaVuSans-2e" transform="translate(63.623047 0)"/>
     <use xlink:href="#DejaVuSans-34" transform="translate(95.410156 0)"/>
     <use xlink:href="#DejaVuSans-b7" transform="translate(159.033203 0)"/>
     <use xlink:href="#DejaVuSans-6f" transform="translate(190.820312 0)"/>
     <use xlink:href="#DejaVuSans-76" transform="translate(252.001953 0)"/>
     <use xlink:href="#DejaVuSans-65" transform="translate(311.181641 0)"/>
     <use xlink:href="#DejaVuSans-72" transform="translate(372.705078 0)"/>
     <use xlink:href="#DejaVuSans-6c" transform="translate(413.818359 0)"/>
     <use xlink:href="#DejaVuSans-61" transform="translate(441.601562 0)"/>
     <use xlink:href="#DejaVuSans-70" transform="translate(502.880859 0)"/>
     <use xlink:href="#DejaVuSans-29" transform="translate(566.357422 0)"/>
    </g>
   </g>
   <g id="text_22">
    <g id="patch_45">
     <path d="M 51.223326 405.439904 
L 113.391294 405.439904 
Q 114.441294 405.439904 114.441294 404.389904 
L 114.441294 390.157658 
Q 114.441294 389.107658 113.391294 389.107658 
L 51.223326 389.107658 
Q 50.173326 389.107658 50.173326 390.157658 
L 50.173326 404.389904 
Q 50.173326 405.439904 51.223326 405.439904 
z
" style="fill: #ffffff; opacity: 0.88"/>
    </g>
    <!-- Hybrid Backfill -->
    <g style="fill: #212529" transform="translate(59.139341 395.856486) scale(0.075 -0.075)">
     <defs>
      <path id="DejaVuSans-48" d="M 628 4666 
L 1259 4666 
L 1259 2753 
L 3553 2753 
L 3553 4666 
L 4184 4666 
L 4184 0 
L 3553 0 
L 3553 2222 
L 1259 2222 
L 1259 0 
L 628 0 
L 628 4666 
z
" transform="scale(0.015625)"/>
      <path id="DejaVuSans-42" d="M 1259 2228 
L 1259 519 
L 2272 519 
Q 2781 519 3026 730 
Q 3272 941 3272 1375 
Q 3272 1813 3026 2020 
Q 2781 2228 2272 2228 
L 1259 2228 
z
M 1259 4147 
L 1259 2741 
L 2194 2741 
Q 2656 2741 2882 2914 
Q 3109 3088 3109 3444 
Q 3109 3797 2882 3972 
Q 2656 4147 2194 4147 
L 1259 4147 
z
M 628 4666 
L 2241 4666 
Q 2963 4666 3353 4366 
Q 3744 4066 3744 3513 
Q 3744 3084 3544 2831 
Q 3344 2578 2956 2516 
Q 3422 2416 3680 2098 
Q 3938 1781 3938 1306 
Q 3938 681 3513 340 
Q 3088 0 2303 0 
L 628 0 
L 628 4666 
z
" transform="scale(0.015625)"/>
     </defs>
     <use xlink:href="#DejaVuSans-48"/>
     <use xlink:href="#DejaVuSans-79" transform="translate(75.195312 0)"/>
     <use xlink:href="#DejaVuSans-62" transform="translate(134.375 0)"/>
     <use xlink:href="#DejaVuSans-72" transform="translate(197.851562 0)"/>
     <use xlink:href="#DejaVuSans-69" transform="translate(238.964844 0)"/>
     <use xlink:href="#DejaVuSans-64" transform="translate(266.748047 0)"/>
     <use xlink:href="#DejaVuSans-20" transform="translate(330.224609 0)"/>
     <use xlink:href="#DejaVuSans-42" transform="translate(362.011719 0)"/>
     <use xlink:href="#DejaVuSans-61" transform="translate(430.615234 0)"/>
     <use xlink:href="#DejaVuSans-63" transform="translate(491.894531 0)"/>
     <use xlink:href="#DejaVuSans-6b" transform="translate(546.875 0)"/>
     <use xlink:href="#DejaVuSans-66" transform="translate(604.785156 0)"/>
     <use xlink:href="#DejaVuSans-69" transform="translate(639.990234 0)"/>
     <use xlink:href="#DejaVuSans-6c" transform="translate(667.773438 0)"/>
     <use xlink:href="#DejaVuSans-6c" transform="translate(695.556641 0)"/>
    </g>
    <!-- (if graph sparse) -->
    <g style="fill: #212529" transform="translate(51.223326 402.830139) scale(0.075 -0.075)">
     <use xlink:href="#DejaVuSans-28"/>
     <use xlink:href="#DejaVuSans-69" transform="translate(39.013672 0)"/>
     <use xlink:href="#DejaVuSans-66" transform="translate(66.796875 0)"/>
     <use xlink:href="#DejaVuSans-20" transform="translate(102.001953 0)"/>
     <use xlink:href="#DejaVuSans-67" transform="translate(133.789062 0)"/>
     <use xlink:href="#DejaVuSans-72" transform="translate(197.265625 0)"/>
     <use xlink:href="#DejaVuSans-61" transform="translate(238.378906 0)"/>
     <use xlink:href="#DejaVuSans-70" transform="translate(299.658203 0)"/>
     <use xlink:href="#DejaVuSans-68" transform="translate(363.134766 0)"/>
     <use xlink:href="#DejaVuSans-20" transform="translate(426.513672 0)"/>
     <use xlink:href="#DejaVuSans-73" transform="translate(458.300781 0)"/>
     <use xlink:href="#DejaVuSans-70" transform="translate(510.400391 0)"/>
     <use xlink:href="#DejaVuSans-61" transform="translate(573.876953 0)"/>
     <use xlink:href="#DejaVuSans-72" transform="translate(635.15625 0)"/>
     <use xlink:href="#DejaVuSans-73" transform="translate(676.269531 0)"/>
     <use xlink:href="#DejaVuSans-65" transform="translate(728.369141 0)"/>
     <use xlink:href="#DejaVuSans-29" transform="translate(789.892578 0)"/>
    </g>
   </g>
   <g id="text_23">
    <g id="patch_46">
     <path d="M 347.810463 405.062291 
L 427.131166 405.062291 
Q 428.181166 405.062291 428.181166 404.012291 
L 428.181166 389.780045 
Q 428.181166 388.730045 427.131166 388.730045 
L 347.810463 388.730045 
Q 346.760463 388.730045 346.760463 389.780045 
L 346.760463 404.012291 
Q 346.760463 405.062291 347.810463 405.062291 
z
" style="fill: #ffffff; opacity: 0.88"/>
    </g>
    <!-- Embed Query (dense -->
    <g style="fill: #212529" transform="translate(347.810463 395.478873) scale(0.075 -0.075)">
     <use xlink:href="#DejaVuSans-45"/>
     <use xlink:href="#DejaVuSans-6d" transform="translate(63.183594 0)"/>
     <use xlink:href="#DejaVuSans-62" transform="translate(160.595703 0)"/>
     <use xlink:href="#DejaVuSans-65" transform="translate(224.072266 0)"/>
     <use xlink:href="#DejaVuSans-64" transform="translate(285.595703 0)"/>
     <use xlink:href="#DejaVuSans-20" transform="translate(349.072266 0)"/>
     <use xlink:href="#DejaVuSans-51" transform="translate(380.859375 0)"/>
     <use xlink:href="#DejaVuSans-75" transform="translate(459.570312 0)"/>
     <use xlink:href="#DejaVuSans-65" transform="translate(522.949219 0)"/>
     <use xlink:href="#DejaVuSans-72" transform="translate(584.472656 0)"/>
     <use xlink:href="#DejaVuSans-79" transform="translate(625.585938 0)"/>
     <use xlink:href="#DejaVuSans-20" transform="translate(684.765625 0)"/>
     <use xlink:href="#DejaVuSans-28" transform="translate(716.552734 0)"/>
     <use xlink:href="#DejaVuSans-64" transform="translate(755.566406 0)"/>
     <use xlink:href="#DejaVuSans-65" transform="translate(819.042969 0)"/>
     <use xlink:href="#DejaVuSans-6e" transform="translate(880.566406 0)"/>
     <use xlink:href="#DejaVuSans-73" transform="translate(943.945312 0)"/>
     <use xlink:href="#DejaVuSans-65" transform="translate(996.044922 0)"/>
    </g>
    <!-- scores) -->
    <g style="fill: #212529" transform="translate(347.810463 402.452526) scale(0.075 -0.075)">
     <use xlink:href="#DejaVuSans-73"/>
     <use xlink:href="#DejaVuSans-63" transform="translate(52.099609 0)"/>
     <use xlink:href="#DejaVuSans-6f" transform="translate(107.080078 0)"/>
     <use xlink:href="#DejaVuSans-72" transform="translate(168.261719 0)"/>
     <use xlink:href="#DejaVuSans-65" transform="translate(207.125 0)"/>
     <use xlink:href="#DejaVuSans-73" transform="translate(268.648438 0)"/>
     <use xlink:href="#DejaVuSans-29" transform="translate(320.748047 0)"/>
    </g>
   </g>
   <g id="text_24">
    <g id="patch_47">
     <path d="M 58.771823 278.301674 
L 106.549167 278.301674 
Q 107.599167 278.301674 107.599167 277.251674 
L 107.599167 263.019428 
Q 107.599167 261.969428 106.549167 261.969428 
L 58.771823 261.969428 
Q 57.721823 261.969428 57.721823 263.019428 
L 57.721823 277.251674 
Q 57.721823 278.301674 58.771823 278.301674 
z
" style="fill: #ffffff; opacity: 0.88"/>
    </g>
    <!-- LLM (claude- -->
    <g style="fill: #212529" transform="translate(58.771823 268.718256) scale(0.075 -0.075)">
     <use xlink:href="#DejaVuSans-4c"/>
     <use xlink:href="#DejaVuSans-4c" transform="translate(55.712891 0)"/>
     <use xlink:href="#DejaVuSans-4d" transform="translate(111.425781 0)"/>
     <use xlink:href="#DejaVuSans-20" transform="translate(197.705078 0)"/>
     <use xlink:href="#DejaVuSans-28" transform="translate(229.492188 0)"/>
     <use xlink:href="#DejaVuSans-63" transform="translate(268.505859 0)"/>
     <use xlink:href="#DejaVuSans-6c" transform="translate(323.486328 0)"/>
     <use xlink:href="#DejaVuSans-61" transform="translate(351.269531 0)"/>
     <use xlink:href="#DejaVuSans-75" transform="translate(412.548828 0)"/>
     <use xlink:href="#DejaVuSans-64" transform="translate(475.927734 0)"/>
     <use xlink:href="#DejaVuSans-65" transform="translate(539.404297 0)"/>
     <use xlink:href="#DejaVuSans-2d" transform="translate(600.927734 0)"/>
    </g>
    <!-- sonnet-4-6) -->
    <g style="fill: #212529" transform="translate(63.110104 275.691909) scale(0.075 -0.075)">
     <use xlink:href="#DejaVuSans-73"/>
     <use xlink:href="#DejaVuSans-6f" transform="translate(52.099609 0)"/>
     <use xlink:href="#DejaVuSans-6e" transform="translate(113.28125 0)"/>
     <use xlink:href="#DejaVuSans-6e" transform="translate(176.660156 0)"/>
     <use xlink:href="#DejaVuSans-65" transform="translate(240.039062 0)"/>
     <use xlink:href="#DejaVuSans-74" transform="translate(301.5625 0)"/>
     <use xlink:href="#DejaVuSans-2d" transform="translate(340.771484 0)"/>
     <use xlink:href="#DejaVuSans-34" transform="translate(376.855469 0)"/>
     <use xlink:href="#DejaVuSans-2d" transform="translate(440.478516 0)"/>
     <use xlink:href="#DejaVuSans-36" transform="translate(476.5625 0)"/>
     <use xlink:href="#DejaVuSans-29" transform="translate(540.185547 0)"/>
    </g>
   </g>
   <g id="text_25">
    <g id="patch_48">
     <path d="M 57.604783 353.936203 
L 111.986814 353.936203 
Q 113.036814 353.936203 113.036814 352.886203 
L 113.036814 345.627609 
Q 113.036814 344.577609 111.986814 344.577609 
L 57.604783 344.577609 
Q 56.554783 344.577609 56.554783 345.627609 
L 56.554783 352.886203 
Q 56.554783 353.936203 57.604783 353.936203 
z
" style="fill: #ffffff; opacity: 0.88"/>
    </g>
    <!-- Answer (cited) -->
    <g style="fill: #212529" transform="translate(57.604783 351.326438) scale(0.075 -0.075)">
     <defs>
      <path id="DejaVuSans-41" d="M 2188 4044 
L 1331 1722 
L 3047 1722 
L 2188 4044 
z
M 1831 4666 
L 2547 4666 
L 4325 0 
L 3669 0 
L 3244 1197 
L 1141 1197 
L 716 0 
L 50 0 
L 1831 4666 
z
" transform="scale(0.015625)"/>
     </defs>
     <use xlink:href="#DejaVuSans-41"/>
     <use xlink:href="#DejaVuSans-6e" transform="translate(68.408203 0)"/>
     <use xlink:href="#DejaVuSans-73" transform="translate(131.787109 0)"/>
     <use xlink:href="#DejaVuSans-77" transform="translate(183.886719 0)"/>
     <use xlink:href="#DejaVuSans-65" transform="translate(265.673828 0)"/>
     <use xlink:href="#DejaVuSans-72" transform="translate(327.197266 0)"/>
     <use xlink:href="#DejaVuSans-20" transform="translate(368.310547 0)"/>
     <use xlink:href="#DejaVuSans-28" transform="translate(400.097656 0)"/>
     <use xlink:href="#DejaVuSans-63" transform="translate(439.111328 0)"/>
     <use xlink:href="#DejaVuSans-69" transform="translate(494.091797 0)"/>
     <use xlink:href="#DejaVuSans-74" transform="translate(521.875 0)"/>
     <use xlink:href="#DejaVuSans-65" transform="translate(561.083984 0)"/>
     <use xlink:href="#DejaVuSans-64" transform="translate(622.607422 0)"/>
     <use xlink:href="#DejaVuSans-29" transform="translate(686.083984 0)"/>
    </g>
   </g>
  </g>
 </g>
 <defs>
  <clipPath id="p5a0422bb9b">
   <rect x="7.2" y="29.077969" width="465.696" height="465.696"/>
  </clipPath>
 </defs>
  <g id="branding_footer">
    <line x1="12" y1="489" x2="468" y2="489" stroke="#cccccc" stroke-width="0.5"/>
    <text x="240.048" y="497.5" text-anchor="middle"
          font-family="DejaVu Sans, Arial, sans-serif" font-size="7.5"
          fill="#888888">AI &amp; SAP Consulting Paul Oesterwitz | oesterwitz-consulting.de</text>
  </g>
</svg>
