<?xml version="1.0" encoding="utf-8" standalone="no"?>
<!DOCTYPE svg PUBLIC "-//W3C//DTD SVG 1.1//EN"
  "http://www.w3.org/Graphics/SVG/1.1/DTD/svg11.dtd">
<svg xmlns:xlink="http://www.w3.org/1999/xlink" width="480.096pt" height="501.973969pt" viewBox="0 0 480.096 501.973969" xmlns="http://www.w3.org/2000/svg" version="1.1">
 <metadata>
  <rdf:RDF xmlns:dc="http://purl.org/dc/elements/1.1/" xmlns:cc="http://creativecommons.org/ns#" xmlns:rdf="http://www.w3.org/1999/02/22-rdf-syntax-ns#">
   <cc:Work>
    <dc:type rdf:resource="http://purl.org/dc/dcmitype/StillImage"/>
    <dc:date>2026-06-12T23:21:01.628911</dc:date>
    <dc:format>image/svg+xml</dc:format>
    <dc:creator>
     <cc:Agent>
      <dc:title>Matplotlib v3.10.9, https://matplotlib.org/</dc:title>
     </cc:Agent>
    </dc:creator>
   </cc:Work>
  </rdf:RDF>
 </metadata>
 <defs>
  <style type="text/css">*{stroke-linejoin: round; stroke-linecap: butt}</style>
 </defs>
 <g id="figure_1">
  <g id="patch_1">
   <path d="M 0 501.973969 
L 480.096 501.973969 
L 480.096 0 
L 0 0 
z
" style="fill: #ffffff"/>
  </g>
  <g id="axes_1">
   <g id="patch_2">
    <path d="M 356.472 154.978653 
Q 356.472 213.157614 356.472 270.106737 
" clip-path="url(#p3a921c324f)" style="fill: none; stroke: #9aa3b2; stroke-width: 1.1; stroke-linecap: round"/>
    <path d="M 358.872 265.306737 
L 356.472 270.106737 
L 354.072 265.306737 
z
" clip-path="url(#p3a921c324f)" style="fill: #9aa3b2; stroke: #9aa3b2; stroke-width: 1.1; stroke-linecap: round"/>
   </g>
   <g id="patch_3">
    <path d="M 356.472 271.333747 
Q 356.472 251.122757 356.472 232.141603 
" clip-path="url(#p3a921c324f)" style="fill: none; stroke: #9aa3b2; stroke-width: 1.1; stroke-linecap: round"/>
    <path d="M 354.072 236.941603 
L 356.472 232.141603 
L 358.872 236.941603 
z
" clip-path="url(#p3a921c324f)" style="fill: #9aa3b2; stroke: #9aa3b2; stroke-width: 1.1; stroke-linecap: round"/>
   </g>
   <g id="patch_4">
    <path d="M 346.996721 145.501969 
Q 303.06736 145.501969 260.367836 145.501969 
" clip-path="url(#p3a921c324f)" style="fill: none; stroke: #9aa3b2; stroke-width: 1.1; stroke-linecap: round"/>
    <path d="M 265.167836 147.901969 
L 260.367836 145.501969 
L 265.167836 143.101969 
z
" clip-path="url(#p3a921c324f)" style="fill: #9aa3b2; stroke: #9aa3b2; stroke-width: 1.1; stroke-linecap: round"/>
   </g>
   <g id="patch_5">
    <path d="M 347.468282 224.392505 
Q 303.974559 238.667386 261.649347 252.558755 
" clip-path="url(#p3a921c324f)" style="fill: none; stroke: #9aa3b2; stroke-width: 1.1; stroke-linecap: round"/>
    <path d="M 266.958409 253.342249 
L 261.649347 252.558755 
L 265.46158 248.781602 
z
" clip-path="url(#p3a921c324f)" style="fill: #9aa3b2; stroke: #9aa3b2; stroke-width: 1.1; stroke-linecap: round"/>
   </g>
   <g id="patch_6">
    <path d="M 249.746633 154.976337 
Q 250.134588 200.385549 250.512036 244.564967 
" clip-path="url(#p3a921c324f)" style="fill: none; stroke: #9aa3b2; stroke-width: 1.1; stroke-linecap: round"/>
    <path d="M 252.870941 239.744639 
L 250.512036 244.564967 
L 248.071117 239.785646 
z
" clip-path="url(#p3a921c324f)" style="fill: #9aa3b2; stroke: #9aa3b2; stroke-width: 1.1; stroke-linecap: round"/>
   </g>
   <g id="patch_7">
    <path d="M 247.655605 266.139759 
Q 232.350436 317.705843 217.395203 368.092926 
" clip-path="url(#p3a921c324f)" style="fill: none; stroke: #9aa3b2; stroke-width: 1.1; stroke-linecap: round"/>
    <path d="M 221.061782 364.174227 
L 217.395203 368.092926 
L 216.460191 362.808443 
z
" clip-path="url(#p3a921c324f)" style="fill: #9aa3b2; stroke: #9aa3b2; stroke-width: 1.1; stroke-linecap: round"/>
   </g>
   <g id="patch_8">
    <path d="M 204.878902 378.349969 
Q 168.990163 378.349969 134.331262 378.349969 
" clip-path="url(#p3a921c324f)" style="fill: none; stroke: #9aa3b2; stroke-width: 1.1; stroke-linecap: round"/>
    <path d="M 139.131262 380.749969 
L 134.331262 378.349969 
L 139.131262 375.949969 
z
" clip-path="url(#p3a921c324f)" style="fill: #9aa3b2; stroke: #9aa3b2; stroke-width: 1.1; stroke-linecap: round"/>
   </g>
   <g id="patch_9">
    <path d="M 123.624 368.875209 
Q 123.624 336.565615 123.624 305.485858 
" clip-path="url(#p3a921c324f)" style="fill: none; stroke: #9aa3b2; stroke-width: 1.1; stroke-linecap: round"/>
    <path d="M 121.224 310.285858 
L 123.624 305.485858 
L 126.024 310.285858 
z
" clip-path="url(#p3a921c324f)" style="fill: #9aa3b2; stroke: #9aa3b2; stroke-width: 1.1; stroke-linecap: round"/>
   </g>
   <g id="text_1">
    <g id="patch_10">
     <path d="M 348.862777 233.318354 
L 378.310823 233.318354 
Q 379.090823 233.318354 379.090823 232.538354 
L 379.090823 226.247573 
Q 379.090823 225.467573 378.310823 225.467573 
L 348.862777 225.467573 
Q 348.082777 225.467573 348.082777 226.247573 
L 348.082777 232.538354 
Q 348.082777 233.318354 348.862777 233.318354 
z
" style="fill: #ffffff; opacity: 0.9"/>
    </g>
    <!-- generate -->
    <g style="fill: #475569" transform="translate(348.862777 231.186557) scale(0.065 -0.065)">
     <defs>
      <path id="DejaVuSans-67" d="M 2906 1791 
Q 2906 2416 2648 2759 
Q 2391 3103 1925 3103 
Q 1463 3103 1205 2759 
Q 947 2416 947 1791 
Q 947 1169 1205 825 
Q 1463 481 1925 481 
Q 2391 481 2648 825 
Q 2906 1169 2906 1791 
z
M 3481 434 
Q 3481 -459 3084 -895 
Q 2688 -1331 1869 -1331 
Q 1566 -1331 1297 -1286 
Q 1028 -1241 775 -1147 
L 775 -588 
Q 1028 -725 1275 -790 
Q 1522 -856 1778 -856 
Q 2344 -856 2625 -561 
Q 2906 -266 2906 331 
L 2906 616 
Q 2728 306 2450 153 
Q 2172 0 1784 0 
Q 1141 0 747 490 
Q 353 981 353 1791 
Q 353 2603 747 3093 
Q 1141 3584 1784 3584 
Q 2172 3584 2450 3431 
Q 2728 3278 2906 2969 
L 2906 3500 
L 3481 3500 
L 3481 434 
z
" transform="scale(0.015625)"/>
      <path id="DejaVuSans-65" d="M 3597 1894 
L 3597 1613 
L 953 1613 
Q 991 1019 1311 708 
Q 1631 397 2203 397 
Q 2534 397 2845 478 
Q 3156 559 3463 722 
L 3463 178 
Q 3153 47 2828 -22 
Q 2503 -91 2169 -91 
Q 1331 -91 842 396 
Q 353 884 353 1716 
Q 353 2575 817 3079 
Q 1281 3584 2069 3584 
Q 2775 3584 3186 3129 
Q 3597 2675 3597 1894 
z
M 3022 2063 
Q 3016 2534 2758 2815 
Q 2500 3097 2075 3097 
Q 1594 3097 1305 2825 
Q 1016 2553 972 2059 
L 3022 2063 
z
" transform="scale(0.015625)"/>
      <path id="DejaVuSans-6e" d="M 3513 2113 
L 3513 0 
L 2938 0 
L 2938 2094 
Q 2938 2591 2744 2837 
Q 2550 3084 2163 3084 
Q 1697 3084 1428 2787 
Q 1159 2491 1159 1978 
L 1159 0 
L 581 0 
L 581 3500 
L 1159 3500 
L 1159 2956 
Q 1366 3272 1645 3428 
Q 1925 3584 2291 3584 
Q 2894 3584 3203 3211 
Q 3513 2838 3513 2113 
z
" transform="scale(0.015625)"/>
      <path id="DejaVuSans-72" d="M 2631 2963 
Q 2534 3019 2420 3045 
Q 2306 3072 2169 3072 
Q 1681 3072 1420 2755 
Q 1159 2438 1159 1844 
L 1159 0 
L 581 0 
L 581 3500 
L 1159 3500 
L 1159 2956 
Q 1341 3275 1631 3429 
Q 1922 3584 2338 3584 
Q 2397 3584 2469 3576 
Q 2541 3569 2628 3553 
L 2631 2963 
z
" transform="scale(0.015625)"/>
      <path id="DejaVuSans-61" d="M 2194 1759 
Q 1497 1759 1228 1600 
Q 959 1441 959 1056 
Q 959 750 1161 570 
Q 1363 391 1709 391 
Q 2188 391 2477 730 
Q 2766 1069 2766 1631 
L 2766 1759 
L 2194 1759 
z
M 3341 1997 
L 3341 0 
L 2766 0 
L 2766 531 
Q 2569 213 2275 61 
Q 1981 -91 1556 -91 
Q 1019 -91 701 211 
Q 384 513 384 1019 
Q 384 1609 779 1909 
Q 1175 2209 1959 2209 
L 2766 2209 
L 2766 2266 
Q 2766 2663 2505 2880 
Q 2244 3097 1772 3097 
Q 1472 3097 1187 3025 
Q 903 2953 641 2809 
L 641 3341 
Q 956 3463 1253 3523 
Q 1550 3584 1831 3584 
Q 2591 3584 2966 3190 
Q 3341 2797 3341 1997 
z
" transform="scale(0.015625)"/>
      <path id="DejaVuSans-74" d="M 1172 4494 
L 1172 3500 
L 2356 3500 
L 2356 3053 
L 1172 3053 
L 1172 1153 
Q 1172 725 1289 603 
Q 1406 481 1766 481 
L 2356 481 
L 2356 0 
L 1766 0 
Q 1100 0 847 248 
Q 594 497 594 1153 
L 594 3053 
L 172 3053 
L 172 3500 
L 594 3500 
L 594 4494 
L 1172 4494 
z
" transform="scale(0.015625)"/>
     </defs>
     <use xlink:href="#DejaVuSans-67"/>
     <use xlink:href="#DejaVuSans-65" transform="translate(63.476562 0)"/>
     <use xlink:href="#DejaVuSans-6e" transform="translate(125 0)"/>
     <use xlink:href="#DejaVuSans-65" transform="translate(188.378906 0)"/>
     <use xlink:href="#DejaVuSans-72" transform="translate(249.902344 0)"/>
     <use xlink:href="#DejaVuSans-61" transform="translate(291.015625 0)"/>
     <use xlink:href="#DejaVuSans-74" transform="translate(352.294922 0)"/>
     <use xlink:href="#DejaVuSans-65" transform="translate(391.503906 0)"/>
    </g>
   </g>
   <g id="text_2">
    <g id="patch_11">
     <path d="M 328.413997 247.92441 
L 370.300403 247.92441 
Q 371.080403 247.92441 371.080403 247.14441 
L 371.080403 240.853629 
Q 371.080403 240.073629 370.300403 240.073629 
L 328.413997 240.073629 
Q 327.633997 240.073629 327.633997 240.853629 
L 327.633997 247.14441 
Q 327.633997 247.92441 328.413997 247.92441 
z
" style="fill: #ffffff; opacity: 0.9"/>
    </g>
    <!-- passage text -->
    <g style="fill: #475569" transform="translate(328.413997 245.792613) scale(0.065 -0.065)">
     <defs>
      <path id="DejaVuSans-70" d="M 1159 525 
L 1159 -1331 
L 581 -1331 
L 581 3500 
L 1159 3500 
L 1159 2969 
Q 1341 3281 1617 3432 
Q 1894 3584 2278 3584 
Q 2916 3584 3314 3078 
Q 3713 2572 3713 1747 
Q 3713 922 3314 415 
Q 2916 -91 2278 -91 
Q 1894 -91 1617 61 
Q 1341 213 1159 525 
z
M 3116 1747 
Q 3116 2381 2855 2742 
Q 2594 3103 2138 3103 
Q 1681 3103 1420 2742 
Q 1159 2381 1159 1747 
Q 1159 1113 1420 752 
Q 1681 391 2138 391 
Q 2594 391 2855 752 
Q 3116 1113 3116 1747 
z
" transform="scale(0.015625)"/>
      <path id="DejaVuSans-73" d="M 2834 3397 
L 2834 2853 
Q 2591 2978 2328 3040 
Q 2066 3103 1784 3103 
Q 1356 3103 1142 2972 
Q 928 2841 928 2578 
Q 928 2378 1081 2264 
Q 1234 2150 1697 2047 
L 1894 2003 
Q 2506 1872 2764 1633 
Q 3022 1394 3022 966 
Q 3022 478 2636 193 
Q 2250 -91 1575 -91 
Q 1294 -91 989 -36 
Q 684 19 347 128 
L 347 722 
Q 666 556 975 473 
Q 1284 391 1588 391 
Q 1994 391 2212 530 
Q 2431 669 2431 922 
Q 2431 1156 2273 1281 
Q 2116 1406 1581 1522 
L 1381 1569 
Q 847 1681 609 1914 
Q 372 2147 372 2553 
Q 372 3047 722 3315 
Q 1072 3584 1716 3584 
Q 2034 3584 2315 3537 
Q 2597 3491 2834 3397 
z
" transform="scale(0.015625)"/>
      <path id="DejaVuSans-20" transform="scale(0.015625)"/>
      <path id="DejaVuSans-78" d="M 3513 3500 
L 2247 1797 
L 3578 0 
L 2900 0 
L 1881 1375 
L 863 0 
L 184 0 
L 1544 1831 
L 300 3500 
L 978 3500 
L 1906 2253 
L 2834 3500 
L 3513 3500 
z
" transform="scale(0.015625)"/>
     </defs>
     <use xlink:href="#DejaVuSans-70"/>
     <use xlink:href="#DejaVuSans-61" transform="translate(63.476562 0)"/>
     <use xlink:href="#DejaVuSans-73" transform="translate(124.755859 0)"/>
     <use xlink:href="#DejaVuSans-73" transform="translate(176.855469 0)"/>
     <use xlink:href="#DejaVuSans-61" transform="translate(228.955078 0)"/>
     <use xlink:href="#DejaVuSans-67" transform="translate(290.234375 0)"/>
     <use xlink:href="#DejaVuSans-65" transform="translate(353.710938 0)"/>
     <use xlink:href="#DejaVuSans-20" transform="translate(415.234375 0)"/>
     <use xlink:href="#DejaVuSans-74" transform="translate(447.021484 0)"/>
     <use xlink:href="#DejaVuSans-65" transform="translate(486.230469 0)"/>
     <use xlink:href="#DejaVuSans-78" transform="translate(546.003906 0)"/>
     <use xlink:href="#DejaVuSans-74" transform="translate(605.183594 0)"/>
    </g>
   </g>
   <g id="text_3">
    <g id="patch_12">
     <path d="M 274.882634 156.542159 
L 305.62154 156.542159 
Q 306.40154 156.542159 306.40154 155.762159 
L 306.40154 149.471378 
Q 306.40154 148.691378 305.62154 148.691378 
L 274.882634 148.691378 
Q 274.102634 148.691378 274.102634 149.471378 
L 274.102634 155.762159 
Q 274.102634 156.542159 274.882634 156.542159 
z
" style="fill: #ffffff; opacity: 0.9"/>
    </g>
    <!-- keywords -->
    <g style="fill: #475569" transform="translate(274.882634 154.410363) scale(0.065 -0.065)">
     <defs>
      <path id="DejaVuSans-6b" d="M 581 4863 
L 1159 4863 
L 1159 1991 
L 2875 3500 
L 3609 3500 
L 1753 1863 
L 3688 0 
L 2938 0 
L 1159 1709 
L 1159 0 
L 581 0 
L 581 4863 
z
" transform="scale(0.015625)"/>
      <path id="DejaVuSans-79" d="M 2059 -325 
Q 1816 -950 1584 -1140 
Q 1353 -1331 966 -1331 
L 506 -1331 
L 506 -850 
L 844 -850 
Q 1081 -850 1212 -737 
Q 1344 -625 1503 -206 
L 1606 56 
L 191 3500 
L 800 3500 
L 1894 763 
L 2988 3500 
L 3597 3500 
L 2059 -325 
z
" transform="scale(0.015625)"/>
      <path id="DejaVuSans-77" d="M 269 3500 
L 844 3500 
L 1563 769 
L 2278 3500 
L 2956 3500 
L 3675 769 
L 4391 3500 
L 4966 3500 
L 4050 0 
L 3372 0 
L 2619 2869 
L 1863 0 
L 1184 0 
L 269 3500 
z
" transform="scale(0.015625)"/>
      <path id="DejaVuSans-6f" d="M 1959 3097 
Q 1497 3097 1228 2736 
Q 959 2375 959 1747 
Q 959 1119 1226 758 
Q 1494 397 1959 397 
Q 2419 397 2687 759 
Q 2956 1122 2956 1747 
Q 2956 2369 2687 2733 
Q 2419 3097 1959 3097 
z
M 1959 3584 
Q 2709 3584 3137 3096 
Q 3566 2609 3566 1747 
Q 3566 888 3137 398 
Q 2709 -91 1959 -91 
Q 1206 -91 779 398 
Q 353 888 353 1747 
Q 353 2609 779 3096 
Q 1206 3584 1959 3584 
z
" transform="scale(0.015625)"/>
      <path id="DejaVuSans-64" d="M 2906 2969 
L 2906 4863 
L 3481 4863 
L 3481 0 
L 2906 0 
L 2906 525 
Q 2725 213 2448 61 
Q 2172 -91 1784 -91 
Q 1150 -91 751 415 
Q 353 922 353 1747 
Q 353 2572 751 3078 
Q 1150 3584 1784 3584 
Q 2172 3584 2448 3432 
Q 2725 3281 2906 2969 
z
M 947 1747 
Q 947 1113 1208 752 
Q 1469 391 1925 391 
Q 2381 391 2643 752 
Q 2906 1113 2906 1747 
Q 2906 2381 2643 2742 
Q 2381 3103 1925 3103 
Q 1469 3103 1208 2742 
Q 947 2381 947 1747 
z
" transform="scale(0.015625)"/>
     </defs>
     <use xlink:href="#DejaVuSans-6b"/>
     <use xlink:href="#DejaVuSans-65" transform="translate(54.285156 0)"/>
     <use xlink:href="#DejaVuSans-79" transform="translate(115.808594 0)"/>
     <use xlink:href="#DejaVuSans-77" transform="translate(174.988281 0)"/>
     <use xlink:href="#DejaVuSans-6f" transform="translate(256.775391 0)"/>
     <use xlink:href="#DejaVuSans-72" transform="translate(317.957031 0)"/>
     <use xlink:href="#DejaVuSans-64" transform="translate(357.320312 0)"/>
     <use xlink:href="#DejaVuSans-73" transform="translate(420.796875 0)"/>
    </g>
   </g>
   <g id="text_4">
    <g id="patch_13">
     <path d="M 271.784258 253.664171 
L 314.329804 253.664171 
Q 315.109804 253.664171 315.109804 252.884171 
L 315.109804 246.593389 
Q 315.109804 245.813389 314.329804 245.813389 
L 271.784258 245.813389 
Q 271.004258 245.813389 271.004258 246.593389 
L 271.004258 252.884171 
Q 271.004258 253.664171 271.784258 253.664171 
z
" style="fill: #ffffff; opacity: 0.9"/>
    </g>
    <!-- dense scores -->
    <g style="fill: #475569" transform="translate(271.784258 251.532374) scale(0.065 -0.065)">
     <defs>
      <path id="DejaVuSans-63" d="M 3122 3366 
L 3122 2828 
Q 2878 2963 2633 3030 
Q 2388 3097 2138 3097 
Q 1578 3097 1268 2742 
Q 959 2388 959 1747 
Q 959 1106 1268 751 
Q 1578 397 2138 397 
Q 2388 397 2633 464 
Q 2878 531 3122 666 
L 3122 134 
Q 2881 22 2623 -34 
Q 2366 -91 2075 -91 
Q 1284 -91 818 406 
Q 353 903 353 1747 
Q 353 2603 823 3093 
Q 1294 3584 2113 3584 
Q 2378 3584 2631 3529 
Q 2884 3475 3122 3366 
z
" transform="scale(0.015625)"/>
     </defs>
     <use xlink:href="#DejaVuSans-64"/>
     <use xlink:href="#DejaVuSans-65" transform="translate(63.476562 0)"/>
     <use xlink:href="#DejaVuSans-6e" transform="translate(125 0)"/>
     <use xlink:href="#DejaVuSans-73" transform="translate(188.378906 0)"/>
     <use xlink:href="#DejaVuSans-65" transform="translate(240.478516 0)"/>
     <use xlink:href="#DejaVuSans-20" transform="translate(302.001953 0)"/>
     <use xlink:href="#DejaVuSans-73" transform="translate(333.789062 0)"/>
     <use xlink:href="#DejaVuSans-63" transform="translate(385.888672 0)"/>
     <use xlink:href="#DejaVuSans-6f" transform="translate(440.869141 0)"/>
     <use xlink:href="#DejaVuSans-72" transform="translate(502.050781 0)"/>
     <use xlink:href="#DejaVuSans-65" transform="translate(540.914062 0)"/>
     <use xlink:href="#DejaVuSans-73" transform="translate(602.4375 0)"/>
    </g>
   </g>
   <g id="text_5">
    <g id="patch_14">
     <path d="M 235.132435 217.987891 
L 279.60056 217.987891 
Q 280.38056 217.987891 280.38056 217.207891 
L 280.38056 210.91711 
Q 280.38056 210.13711 279.60056 210.13711 
L 235.132435 210.13711 
Q 234.352435 210.13711 234.352435 210.91711 
L 234.352435 217.207891 
Q 234.352435 217.987891 235.132435 217.987891 
z
" style="fill: #ffffff; opacity: 0.9"/>
    </g>
    <!-- sparse scores -->
    <g style="fill: #475569" transform="translate(235.132435 215.856094) scale(0.065 -0.065)">
     <use xlink:href="#DejaVuSans-73"/>
     <use xlink:href="#DejaVuSans-70" transform="translate(52.099609 0)"/>
     <use xlink:href="#DejaVuSans-61" transform="translate(115.576172 0)"/>
     <use xlink:href="#DejaVuSans-72" transform="translate(176.855469 0)"/>
     <use xlink:href="#DejaVuSans-73" transform="translate(217.96875 0)"/>
     <use xlink:href="#DejaVuSans-65" transform="translate(270.068359 0)"/>
     <use xlink:href="#DejaVuSans-20" transform="translate(331.591797 0)"/>
     <use xlink:href="#DejaVuSans-73" transform="translate(363.378906 0)"/>
     <use xlink:href="#DejaVuSans-63" transform="translate(415.478516 0)"/>
     <use xlink:href="#DejaVuSans-6f" transform="translate(470.458984 0)"/>
     <use xlink:href="#DejaVuSans-72" transform="translate(531.640625 0)"/>
     <use xlink:href="#DejaVuSans-65" transform="translate(570.503906 0)"/>
     <use xlink:href="#DejaVuSans-73" transform="translate(632.027344 0)"/>
    </g>
   </g>
   <g id="text_6">
    <g id="patch_15">
     <path d="M 145.850239 389.390159 
L 170.350161 389.390159 
Q 171.130161 389.390159 171.130161 388.610159 
L 171.130161 382.319378 
Q 171.130161 381.539378 170.350161 381.539378 
L 145.850239 381.539378 
Q 145.070239 381.539378 145.070239 382.319378 
L 145.070239 388.610159 
Q 145.070239 389.390159 145.850239 389.390159 
z
" style="fill: #ffffff; opacity: 0.9"/>
    </g>
    <!-- context -->
    <g style="fill: #475569" transform="translate(145.850239 387.258363) scale(0.065 -0.065)">
     <use xlink:href="#DejaVuSans-63"/>
     <use xlink:href="#DejaVuSans-6f" transform="translate(54.980469 0)"/>
     <use xlink:href="#DejaVuSans-6e" transform="translate(116.162109 0)"/>
     <use xlink:href="#DejaVuSans-74" transform="translate(179.541016 0)"/>
     <use xlink:href="#DejaVuSans-65" transform="translate(218.75 0)"/>
     <use xlink:href="#DejaVuSans-78" transform="translate(278.523438 0)"/>
     <use xlink:href="#DejaVuSans-74" transform="translate(337.703125 0)"/>
    </g>
   </g>
   <g id="text_7">
    <!-- HyDE Pipeline -->
    <g style="fill: #222a3a" transform="translate(7.2 17.077969) scale(0.13 -0.13)">
     <defs>
      <path id="DejaVuSans-Bold-48" d="M 588 4666 
L 1791 4666 
L 1791 2888 
L 3566 2888 
L 3566 4666 
L 4769 4666 
L 4769 0 
L 3566 0 
L 3566 1978 
L 1791 1978 
L 1791 0 
L 588 0 
L 588 4666 
z
" transform="scale(0.015625)"/>
      <path id="DejaVuSans-Bold-79" d="M 78 3500 
L 1197 3500 
L 2138 1125 
L 2938 3500 
L 4056 3500 
L 2584 -331 
Q 2363 -916 2067 -1148 
Q 1772 -1381 1288 -1381 
L 641 -1381 
L 641 -647 
L 991 -647 
Q 1275 -647 1404 -556 
Q 1534 -466 1606 -231 
L 1638 -134 
L 78 3500 
z
" transform="scale(0.015625)"/>
      <path id="DejaVuSans-Bold-44" d="M 1791 3756 
L 1791 909 
L 2222 909 
Q 2959 909 3348 1275 
Q 3738 1641 3738 2338 
Q 3738 3031 3350 3393 
Q 2963 3756 2222 3756 
L 1791 3756 
z
M 588 4666 
L 1856 4666 
Q 2919 4666 3439 4514 
Q 3959 4363 4331 4000 
Q 4659 3684 4818 3271 
Q 4978 2859 4978 2338 
Q 4978 1809 4818 1395 
Q 4659 981 4331 666 
Q 3956 303 3431 151 
Q 2906 0 1856 0 
L 588 0 
L 588 4666 
z
" transform="scale(0.015625)"/>
      <path id="DejaVuSans-Bold-45" d="M 588 4666 
L 3834 4666 
L 3834 3756 
L 1791 3756 
L 1791 2888 
L 3713 2888 
L 3713 1978 
L 1791 1978 
L 1791 909 
L 3903 909 
L 3903 0 
L 588 0 
L 588 4666 
z
" transform="scale(0.015625)"/>
      <path id="DejaVuSans-Bold-20" transform="scale(0.015625)"/>
      <path id="DejaVuSans-Bold-50" d="M 588 4666 
L 2584 4666 
Q 3475 4666 3951 4270 
Q 4428 3875 4428 3144 
Q 4428 2409 3951 2014 
Q 3475 1619 2584 1619 
L 1791 1619 
L 1791 0 
L 588 0 
L 588 4666 
z
M 1791 3794 
L 1791 2491 
L 2456 2491 
Q 2806 2491 2997 2661 
Q 3188 2831 3188 3144 
Q 3188 3456 2997 3625 
Q 2806 3794 2456 3794 
L 1791 3794 
z
" transform="scale(0.015625)"/>
      <path id="DejaVuSans-Bold-69" d="M 538 3500 
L 1656 3500 
L 1656 0 
L 538 0 
L 538 3500 
z
M 538 4863 
L 1656 4863 
L 1656 3950 
L 538 3950 
L 538 4863 
z
" transform="scale(0.015625)"/>
      <path id="DejaVuSans-Bold-70" d="M 1656 506 
L 1656 -1331 
L 538 -1331 
L 538 3500 
L 1656 3500 
L 1656 2988 
Q 1888 3294 2169 3439 
Q 2450 3584 2816 3584 
Q 3463 3584 3878 3070 
Q 4294 2556 4294 1747 
Q 4294 938 3878 423 
Q 3463 -91 2816 -91 
Q 2450 -91 2169 54 
Q 1888 200 1656 506 
z
M 2400 2772 
Q 2041 2772 1848 2508 
Q 1656 2244 1656 1747 
Q 1656 1250 1848 986 
Q 2041 722 2400 722 
Q 2759 722 2948 984 
Q 3138 1247 3138 1747 
Q 3138 2247 2948 2509 
Q 2759 2772 2400 2772 
z
" transform="scale(0.015625)"/>
      <path id="DejaVuSans-Bold-65" d="M 4031 1759 
L 4031 1441 
L 1416 1441 
Q 1456 1047 1700 850 
Q 1944 653 2381 653 
Q 2734 653 3104 758 
Q 3475 863 3866 1075 
L 3866 213 
Q 3469 63 3072 -14 
Q 2675 -91 2278 -91 
Q 1328 -91 801 392 
Q 275 875 275 1747 
Q 275 2603 792 3093 
Q 1309 3584 2216 3584 
Q 3041 3584 3536 3087 
Q 4031 2591 4031 1759 
z
M 2881 2131 
Q 2881 2450 2695 2645 
Q 2509 2841 2209 2841 
Q 1884 2841 1681 2658 
Q 1478 2475 1428 2131 
L 2881 2131 
z
" transform="scale(0.015625)"/>
      <path id="DejaVuSans-Bold-6c" d="M 538 4863 
L 1656 4863 
L 1656 0 
L 538 0 
L 538 4863 
z
" transform="scale(0.015625)"/>
      <path id="DejaVuSans-Bold-6e" d="M 4056 2131 
L 4056 0 
L 2931 0 
L 2931 347 
L 2931 1631 
Q 2931 2084 2911 2256 
Q 2891 2428 2841 2509 
Q 2775 2619 2662 2680 
Q 2550 2741 2406 2741 
Q 2056 2741 1856 2470 
Q 1656 2200 1656 1722 
L 1656 0 
L 538 0 
L 538 3500 
L 1656 3500 
L 1656 2988 
Q 1909 3294 2193 3439 
Q 2478 3584 2822 3584 
Q 3428 3584 3742 3212 
Q 4056 2841 4056 2131 
z
" transform="scale(0.015625)"/>
     </defs>
     <use xlink:href="#DejaVuSans-Bold-48"/>
     <use xlink:href="#DejaVuSans-Bold-79" transform="translate(83.691406 0)"/>
     <use xlink:href="#DejaVuSans-Bold-44" transform="translate(148.876953 0)"/>
     <use xlink:href="#DejaVuSans-Bold-45" transform="translate(231.884766 0)"/>
     <use xlink:href="#DejaVuSans-Bold-20" transform="translate(300.195312 0)"/>
     <use xlink:href="#DejaVuSans-Bold-50" transform="translate(335.009766 0)"/>
     <use xlink:href="#DejaVuSans-Bold-69" transform="translate(408.300781 0)"/>
     <use xlink:href="#DejaVuSans-Bold-70" transform="translate(442.578125 0)"/>
     <use xlink:href="#DejaVuSans-Bold-65" transform="translate(514.160156 0)"/>
     <use xlink:href="#DejaVuSans-Bold-6c" transform="translate(581.982422 0)"/>
     <use xlink:href="#DejaVuSans-Bold-69" transform="translate(616.259766 0)"/>
     <use xlink:href="#DejaVuSans-Bold-6e" transform="translate(650.537109 0)"/>
     <use xlink:href="#DejaVuSans-Bold-65" transform="translate(721.728516 0)"/>
    </g>
   </g>
   <g id="patch_16">
    <path d="M 356.472 154.011822 
C 358.728839 154.011822 360.893548 153.11517 362.489375 151.519344 
C 364.085201 149.923517 364.981853 147.758808 364.981853 145.501969 
C 364.981853 143.245129 364.085201 141.08042 362.489375 139.484594 
C 360.893548 137.888767 358.728839 136.992115 356.472 136.992115 
C 354.215161 136.992115 352.050452 137.888767 350.454625 139.484594 
C 348.858799 141.08042 347.962147 143.245129 347.962147 145.501969 
C 347.962147 147.758808 348.858799 149.923517 350.454625 151.519344 
C 352.050452 153.11517 354.215161 154.011822 356.472 154.011822 
z
" clip-path="url(#p3a921c324f)" style="fill: #7a0a6e; stroke: #ffffff; stroke-width: 1.2; stroke-linejoin: miter"/>
   </g>
   <g id="patch_17">
    <path d="M 356.472 289.319878 
C 358.728839 289.319878 360.893548 288.423226 362.489375 286.827399 
C 364.085201 285.231573 364.981853 283.066864 364.981853 280.810024 
C 364.981853 278.553185 364.085201 276.388476 362.489375 274.792649 
C 360.893548 273.196823 358.728839 272.300171 356.472 272.300171 
C 354.215161 272.300171 352.050452 273.196823 350.454625 274.792649 
C 348.858799 276.388476 347.962147 278.553185 347.962147 280.810024 
C 347.962147 283.066864 348.858799 285.231573 350.454625 286.827399 
C 352.050452 288.423226 354.215161 289.319878 356.472 289.319878 
z
" clip-path="url(#p3a921c324f)" style="fill: #222a3a; stroke: #ffffff; stroke-width: 1.2; stroke-linejoin: miter"/>
   </g>
   <g id="patch_18">
    <path d="M 356.472 229.947289 
C 358.728839 229.947289 360.893548 229.050637 362.489375 227.45481 
C 364.085201 225.858984 364.981853 223.694275 364.981853 221.437435 
C 364.981853 219.180596 364.085201 217.015887 362.489375 215.42006 
C 360.893548 213.824234 358.728839 212.927582 356.472 212.927582 
C 354.215161 212.927582 352.050452 213.824234 350.454625 215.42006 
C 348.858799 217.015887 347.962147 219.180596 347.962147 221.437435 
C 347.962147 223.694275 348.858799 225.858984 350.454625 227.45481 
C 352.050452 229.050637 354.215161 229.947289 356.472 229.947289 
z
" clip-path="url(#p3a921c324f)" style="fill: #b5179e; stroke: #ffffff; stroke-width: 1.2; stroke-linejoin: miter"/>
   </g>
   <g id="patch_19">
    <path d="M 249.665688 154.011822 
C 251.922528 154.011822 254.087237 153.11517 255.683063 151.519344 
C 257.27889 149.923517 258.175542 147.758808 258.175542 145.501969 
C 258.175542 143.245129 257.27889 141.08042 255.683063 139.484594 
C 254.087237 137.888767 251.922528 136.992115 249.665688 136.992115 
C 247.408849 136.992115 245.24414 137.888767 243.648313 139.484594 
C 242.052487 141.08042 241.155835 143.245129 241.155835 145.501969 
C 241.155835 147.758808 242.052487 149.923517 243.648313 151.519344 
C 245.24414 153.11517 247.408849 154.011822 249.665688 154.011822 
z
" clip-path="url(#p3a921c324f)" style="fill: #b5179e; stroke: #ffffff; stroke-width: 1.2; stroke-linejoin: miter"/>
   </g>
   <g id="patch_20">
    <path d="M 250.611283 265.513671 
C 253.086201 265.513671 255.460086 264.530375 257.210118 262.780344 
C 258.960149 261.030312 259.943445 258.656427 259.943445 256.181509 
C 259.943445 253.706591 258.960149 251.332705 257.210118 249.582674 
C 255.460086 247.832642 253.086201 246.849347 250.611283 246.849347 
C 248.136364 246.849347 245.762479 247.832642 244.012448 249.582674 
C 242.262416 251.332705 241.279121 253.706591 241.279121 256.181509 
C 241.279121 258.656427 242.262416 261.030312 244.012448 262.780344 
C 245.762479 264.530375 248.136364 265.513671 250.611283 265.513671 
z
" clip-path="url(#p3a921c324f)" style="fill: #b5179e; stroke: #ffffff; stroke-width: 1.2; stroke-linejoin: miter"/>
   </g>
   <g id="patch_21">
    <path d="M 214.350842 386.859822 
C 216.607681 386.859822 218.77239 385.96317 220.368217 384.367344 
C 221.964043 382.771517 222.860695 380.606808 222.860695 378.349969 
C 222.860695 376.093129 221.964043 373.92842 220.368217 372.332594 
C 218.77239 370.736767 216.607681 369.840115 214.350842 369.840115 
C 212.094002 369.840115 209.929293 370.736767 208.333467 372.332594 
C 206.73764 373.92842 205.840988 376.093129 205.840988 378.349969 
C 205.840988 380.606808 206.73764 382.771517 208.333467 384.367344 
C 209.929293 385.96317 212.094002 386.859822 214.350842 386.859822 
z
" clip-path="url(#p3a921c324f)" style="fill: #b5179e; stroke: #ffffff; stroke-width: 1.2; stroke-linejoin: miter"/>
   </g>
   <g id="patch_22">
    <path d="M 123.624 386.859822 
C 125.880839 386.859822 128.045548 385.96317 129.641375 384.367344 
C 131.237201 382.771517 132.133853 380.606808 132.133853 378.349969 
C 132.133853 376.093129 131.237201 373.92842 129.641375 372.332594 
C 128.045548 370.736767 125.880839 369.840115 123.624 369.840115 
C 121.367161 369.840115 119.202452 370.736767 117.606625 372.332594 
C 116.010799 373.92842 115.114147 376.093129 115.114147 378.349969 
C 115.114147 380.606808 116.010799 382.771517 117.606625 384.367344 
C 119.202452 385.96317 121.367161 386.859822 123.624 386.859822 
z
" clip-path="url(#p3a921c324f)" style="fill: #222a3a; stroke: #ffffff; stroke-width: 1.2; stroke-linejoin: miter"/>
   </g>
   <g id="patch_23">
    <path d="M 123.624 303.413817 
C 125.596634 303.413817 127.488739 302.630081 128.883602 301.235218 
C 130.278464 299.840356 131.0622 297.94825 131.0622 295.975617 
C 131.0622 294.002983 130.278464 292.110878 128.883602 290.716015 
C 127.488739 289.321152 125.596634 288.537417 123.624 288.537417 
C 121.651366 288.537417 119.759261 289.321152 118.364398 290.716015 
C 116.969536 292.110878 116.1858 294.002983 116.1858 295.975617 
C 116.1858 297.94825 116.969536 299.840356 118.364398 301.235218 
C 119.759261 302.630081 121.651366 303.413817 123.624 303.413817 
z
" clip-path="url(#p3a921c324f)" style="fill: #343f57; stroke: #ffffff; stroke-width: 1.2; stroke-linejoin: miter"/>
   </g>
   <g id="legend_1">
    <g id="patch_24">
     <path d="M 12.8 85.647969 
L 85.10875 85.647969 
Q 86.70875 85.647969 86.70875 84.047969 
L 86.70875 34.677969 
Q 86.70875 33.077969 85.10875 33.077969 
L 12.8 33.077969 
Q 11.2 33.077969 11.2 34.677969 
L 11.2 84.047969 
Q 11.2 85.647969 12.8 85.647969 
z
" style="fill: #ffffff; opacity: 0.9; stroke: #cccccc; stroke-linejoin: miter"/>
    </g>
    <g id="patch_25">
     <path d="M 16 43.956719 
L 32 43.956719 
L 32 38.356719 
L 16 38.356719 
z
" style="fill: #7a0a6e; stroke: #7a0a6e; stroke-linejoin: miter"/>
    </g>
    <g id="text_8">
     <!-- input -->
     <g transform="translate(38.4 43.956719) scale(0.08 -0.08)">
      <defs>
       <path id="DejaVuSans-69" d="M 603 3500 
L 1178 3500 
L 1178 0 
L 603 0 
L 603 3500 
z
M 603 4863 
L 1178 4863 
L 1178 4134 
L 603 4134 
L 603 4863 
z
" transform="scale(0.015625)"/>
       <path id="DejaVuSans-75" d="M 544 1381 
L 544 3500 
L 1119 3500 
L 1119 1403 
Q 1119 906 1312 657 
Q 1506 409 1894 409 
Q 2359 409 2629 706 
Q 2900 1003 2900 1516 
L 2900 3500 
L 3475 3500 
L 3475 0 
L 2900 0 
L 2900 538 
Q 2691 219 2414 64 
Q 2138 -91 1772 -91 
Q 1169 -91 856 284 
Q 544 659 544 1381 
z
M 1991 3584 
L 1991 3584 
z
" transform="scale(0.015625)"/>
      </defs>
      <use xlink:href="#DejaVuSans-69"/>
      <use xlink:href="#DejaVuSans-6e" transform="translate(27.783203 0)"/>
      <use xlink:href="#DejaVuSans-70" transform="translate(91.162109 0)"/>
      <use xlink:href="#DejaVuSans-75" transform="translate(154.638672 0)"/>
      <use xlink:href="#DejaVuSans-74" transform="translate(218.017578 0)"/>
     </g>
    </g>
    <g id="patch_26">
     <path d="M 16 55.699219 
L 32 55.699219 
L 32 50.099219 
L 16 50.099219 
z
" style="fill: #222a3a; stroke: #222a3a; stroke-linejoin: miter"/>
    </g>
    <g id="text_9">
     <!-- generation -->
     <g transform="translate(38.4 55.699219) scale(0.08 -0.08)">
      <use xlink:href="#DejaVuSans-67"/>
      <use xlink:href="#DejaVuSans-65" transform="translate(63.476562 0)"/>
      <use xlink:href="#DejaVuSans-6e" transform="translate(125 0)"/>
      <use xlink:href="#DejaVuSans-65" transform="translate(188.378906 0)"/>
      <use xlink:href="#DejaVuSans-72" transform="translate(249.902344 0)"/>
      <use xlink:href="#DejaVuSans-61" transform="translate(291.015625 0)"/>
      <use xlink:href="#DejaVuSans-74" transform="translate(352.294922 0)"/>
      <use xlink:href="#DejaVuSans-69" transform="translate(391.503906 0)"/>
      <use xlink:href="#DejaVuSans-6f" transform="translate(419.287109 0)"/>
      <use xlink:href="#DejaVuSans-6e" transform="translate(480.46875 0)"/>
     </g>
    </g>
    <g id="patch_27">
     <path d="M 16 67.441719 
L 32 67.441719 
L 32 61.841719 
L 16 61.841719 
z
" style="fill: #b5179e; stroke: #b5179e; stroke-linejoin: miter"/>
    </g>
    <g id="text_10">
     <!-- retrieval -->
     <g transform="translate(38.4 67.441719) scale(0.08 -0.08)">
      <defs>
       <path id="DejaVuSans-76" d="M 191 3500 
L 800 3500 
L 1894 563 
L 2988 3500 
L 3597 3500 
L 2284 0 
L 1503 0 
L 191 3500 
z
" transform="scale(0.015625)"/>
       <path id="DejaVuSans-6c" d="M 603 4863 
L 1178 4863 
L 1178 0 
L 603 0 
L 603 4863 
z
" transform="scale(0.015625)"/>
      </defs>
      <use xlink:href="#DejaVuSans-72"/>
      <use xlink:href="#DejaVuSans-65" transform="translate(38.863281 0)"/>
      <use xlink:href="#DejaVuSans-74" transform="translate(100.386719 0)"/>
      <use xlink:href="#DejaVuSans-72" transform="translate(139.595703 0)"/>
      <use xlink:href="#DejaVuSans-69" transform="translate(180.708984 0)"/>
      <use xlink:href="#DejaVuSans-65" transform="translate(208.492188 0)"/>
      <use xlink:href="#DejaVuSans-76" transform="translate(270.015625 0)"/>
      <use xlink:href="#DejaVuSans-61" transform="translate(329.195312 0)"/>
      <use xlink:href="#DejaVuSans-6c" transform="translate(390.474609 0)"/>
     </g>
    </g>
    <g id="patch_28">
     <path d="M 16 79.184219 
L 32 79.184219 
L 32 73.584219 
L 16 73.584219 
z
" style="fill: #343f57; stroke: #343f57; stroke-linejoin: miter"/>
    </g>
    <g id="text_11">
     <!-- output -->
     <g transform="translate(38.4 79.184219) scale(0.08 -0.08)">
      <use xlink:href="#DejaVuSans-6f"/>
      <use xlink:href="#DejaVuSans-75" transform="translate(61.181641 0)"/>
      <use xlink:href="#DejaVuSans-74" transform="translate(124.560547 0)"/>
      <use xlink:href="#DejaVuSans-70" transform="translate(163.769531 0)"/>
      <use xlink:href="#DejaVuSans-75" transform="translate(227.246094 0)"/>
      <use xlink:href="#DejaVuSans-74" transform="translate(290.625 0)"/>
     </g>
    </g>
   </g>
   <g id="text_12">
    <g id="patch_29">
     <path d="M 366.758443 134.791064 
L 389.552583 134.791064 
Q 390.602583 134.791064 390.602583 133.741064 
L 390.602583 126.48247 
Q 390.602583 125.43247 389.552583 125.43247 
L 366.758443 125.43247 
Q 365.708443 125.43247 365.708443 126.48247 
L 365.708443 133.741064 
Q 365.708443 134.791064 366.758443 134.791064 
z
" style="fill: #ffffff; opacity: 0.88"/>
    </g>
    <!-- Query -->
    <g style="fill: #212529" transform="translate(366.758443 132.181298) scale(0.075 -0.075)">
     <defs>
      <path id="DejaVuSans-51" d="M 2522 4238 
Q 1834 4238 1429 3725 
Q 1025 3213 1025 2328 
Q 1025 1447 1429 934 
Q 1834 422 2522 422 
Q 3209 422 3611 934 
Q 4013 1447 4013 2328 
Q 4013 3213 3611 3725 
Q 3209 4238 2522 4238 
z
M 3406 84 
L 4238 -825 
L 3475 -825 
L 2784 -78 
Q 2681 -84 2626 -87 
Q 2572 -91 2522 -91 
Q 1538 -91 948 567 
Q 359 1225 359 2328 
Q 359 3434 948 4092 
Q 1538 4750 2522 4750 
Q 3503 4750 4090 4092 
Q 4678 3434 4678 2328 
Q 4678 1516 4351 937 
Q 4025 359 3406 84 
z
" transform="scale(0.015625)"/>
     </defs>
     <use xlink:href="#DejaVuSans-51"/>
     <use xlink:href="#DejaVuSans-75" transform="translate(78.710938 0)"/>
     <use xlink:href="#DejaVuSans-65" transform="translate(142.089844 0)"/>
     <use xlink:href="#DejaVuSans-72" transform="translate(203.613281 0)"/>
     <use xlink:href="#DejaVuSans-79" transform="translate(244.726562 0)"/>
    </g>
   </g>
   <g id="text_13">
    <g id="patch_30">
     <path d="M 371.860247 295.170677 
L 426.627825 295.170677 
Q 427.677825 295.170677 427.677825 294.120677 
L 427.677825 272.914778 
Q 427.677825 271.864778 426.627825 271.864778 
L 371.860247 271.864778 
Q 370.810247 271.864778 370.810247 272.914778 
L 370.810247 294.120677 
Q 370.810247 295.170677 371.860247 295.170677 
z
" style="fill: #ffffff; opacity: 0.88"/>
    </g>
    <!-- LLM: Generate -->
    <g style="fill: #212529" transform="translate(371.860247 278.613607) scale(0.075 -0.075)">
     <defs>
      <path id="DejaVuSans-4c" d="M 628 4666 
L 1259 4666 
L 1259 531 
L 3531 531 
L 3531 0 
L 628 0 
L 628 4666 
z
" transform="scale(0.015625)"/>
      <path id="DejaVuSans-4d" d="M 628 4666 
L 1569 4666 
L 2759 1491 
L 3956 4666 
L 4897 4666 
L 4897 0 
L 4281 0 
L 4281 4097 
L 3078 897 
L 2444 897 
L 1241 4097 
L 1241 0 
L 628 0 
L 628 4666 
z
" transform="scale(0.015625)"/>
      <path id="DejaVuSans-3a" d="M 750 794 
L 1409 794 
L 1409 0 
L 750 0 
L 750 794 
z
M 750 3309 
L 1409 3309 
L 1409 2516 
L 750 2516 
L 750 3309 
z
" transform="scale(0.015625)"/>
      <path id="DejaVuSans-47" d="M 3809 666 
L 3809 1919 
L 2778 1919 
L 2778 2438 
L 4434 2438 
L 4434 434 
Q 4069 175 3628 42 
Q 3188 -91 2688 -91 
Q 1594 -91 976 548 
Q 359 1188 359 2328 
Q 359 3472 976 4111 
Q 1594 4750 2688 4750 
Q 3144 4750 3555 4637 
Q 3966 4525 4313 4306 
L 4313 3634 
Q 3963 3931 3569 4081 
Q 3175 4231 2741 4231 
Q 1884 4231 1454 3753 
Q 1025 3275 1025 2328 
Q 1025 1384 1454 906 
Q 1884 428 2741 428 
Q 3075 428 3337 486 
Q 3600 544 3809 666 
z
" transform="scale(0.015625)"/>
     </defs>
     <use xlink:href="#DejaVuSans-4c"/>
     <use xlink:href="#DejaVuSans-4c" transform="translate(55.712891 0)"/>
     <use xlink:href="#DejaVuSans-4d" transform="translate(111.425781 0)"/>
     <use xlink:href="#DejaVuSans-3a" transform="translate(197.705078 0)"/>
     <use xlink:href="#DejaVuSans-20" transform="translate(231.396484 0)"/>
     <use xlink:href="#DejaVuSans-47" transform="translate(263.183594 0)"/>
     <use xlink:href="#DejaVuSans-65" transform="translate(340.673828 0)"/>
     <use xlink:href="#DejaVuSans-6e" transform="translate(402.197266 0)"/>
     <use xlink:href="#DejaVuSans-65" transform="translate(465.576172 0)"/>
     <use xlink:href="#DejaVuSans-72" transform="translate(527.099609 0)"/>
     <use xlink:href="#DejaVuSans-61" transform="translate(568.212891 0)"/>
     <use xlink:href="#DejaVuSans-74" transform="translate(629.492188 0)"/>
     <use xlink:href="#DejaVuSans-65" transform="translate(668.701172 0)"/>
    </g>
    <!-- Hypothetical -->
    <g style="fill: #212529" transform="translate(371.860247 285.587259) scale(0.075 -0.075)">
     <defs>
      <path id="DejaVuSans-48" d="M 628 4666 
L 1259 4666 
L 1259 2753 
L 3553 2753 
L 3553 4666 
L 4184 4666 
L 4184 0 
L 3553 0 
L 3553 2222 
L 1259 2222 
L 1259 0 
L 628 0 
L 628 4666 
z
" transform="scale(0.015625)"/>
      <path id="DejaVuSans-68" d="M 3513 2113 
L 3513 0 
L 2938 0 
L 2938 2094 
Q 2938 2591 2744 2837 
Q 2550 3084 2163 3084 
Q 1697 3084 1428 2787 
Q 1159 2491 1159 1978 
L 1159 0 
L 581 0 
L 581 4863 
L 1159 4863 
L 1159 2956 
Q 1366 3272 1645 3428 
Q 1925 3584 2291 3584 
Q 2894 3584 3203 3211 
Q 3513 2838 3513 2113 
z
" transform="scale(0.015625)"/>
     </defs>
     <use xlink:href="#DejaVuSans-48"/>
     <use xlink:href="#DejaVuSans-79" transform="translate(75.195312 0)"/>
     <use xlink:href="#DejaVuSans-70" transform="translate(134.375 0)"/>
     <use xlink:href="#DejaVuSans-6f" transform="translate(197.851562 0)"/>
     <use xlink:href="#DejaVuSans-74" transform="translate(259.033203 0)"/>
     <use xlink:href="#DejaVuSans-68" transform="translate(298.242188 0)"/>
     <use xlink:href="#DejaVuSans-65" transform="translate(361.621094 0)"/>
     <use xlink:href="#DejaVuSans-74" transform="translate(423.144531 0)"/>
     <use xlink:href="#DejaVuSans-69" transform="translate(462.353516 0)"/>
     <use xlink:href="#DejaVuSans-63" transform="translate(490.136719 0)"/>
     <use xlink:href="#DejaVuSans-61" transform="translate(545.117188 0)"/>
     <use xlink:href="#DejaVuSans-6c" transform="translate(606.396484 0)"/>
    </g>
    <!-- Passage -->
    <g style="fill: #212529" transform="translate(371.860247 292.560911) scale(0.075 -0.075)">
     <defs>
      <path id="DejaVuSans-50" d="M 1259 4147 
L 1259 2394 
L 2053 2394 
Q 2494 2394 2734 2622 
Q 2975 2850 2975 3272 
Q 2975 3691 2734 3919 
Q 2494 4147 2053 4147 
L 1259 4147 
z
M 628 4666 
L 2053 4666 
Q 2838 4666 3239 4311 
Q 3641 3956 3641 3272 
Q 3641 2581 3239 2228 
Q 2838 1875 2053 1875 
L 1259 1875 
L 1259 0 
L 628 0 
L 628 4666 
z
" transform="scale(0.015625)"/>
     </defs>
     <use xlink:href="#DejaVuSans-50"/>
     <use xlink:href="#DejaVuSans-61" transform="translate(55.802734 0)"/>
     <use xlink:href="#DejaVuSans-73" transform="translate(117.082031 0)"/>
     <use xlink:href="#DejaVuSans-73" transform="translate(169.181641 0)"/>
     <use xlink:href="#DejaVuSans-61" transform="translate(221.28125 0)"/>
     <use xlink:href="#DejaVuSans-67" transform="translate(282.560547 0)"/>
     <use xlink:href="#DejaVuSans-65" transform="translate(346.037109 0)"/>
    </g>
   </g>
   <g id="text_14">
    <g id="patch_31">
     <path d="M 370.964369 216.647826 
L 447.095228 216.647826 
Q 448.145228 216.647826 448.145228 215.597826 
L 448.145228 201.36558 
Q 448.145228 200.31558 447.095228 200.31558 
L 370.964369 200.31558 
Q 369.914369 200.31558 369.914369 201.36558 
L 369.914369 215.597826 
Q 369.914369 216.647826 370.964369 216.647826 
z
" style="fill: #ffffff; opacity: 0.88"/>
    </g>
    <!-- Embed Hypothetical -->
    <g style="fill: #212529" transform="translate(370.964369 207.064408) scale(0.075 -0.075)">
     <defs>
      <path id="DejaVuSans-45" d="M 628 4666 
L 3578 4666 
L 3578 4134 
L 1259 4134 
L 1259 2753 
L 3481 2753 
L 3481 2222 
L 1259 2222 
L 1259 531 
L 3634 531 
L 3634 0 
L 628 0 
L 628 4666 
z
" transform="scale(0.015625)"/>
      <path id="DejaVuSans-6d" d="M 3328 2828 
Q 3544 3216 3844 3400 
Q 4144 3584 4550 3584 
Q 5097 3584 5394 3201 
Q 5691 2819 5691 2113 
L 5691 0 
L 5113 0 
L 5113 2094 
Q 5113 2597 4934 2840 
Q 4756 3084 4391 3084 
Q 3944 3084 3684 2787 
Q 3425 2491 3425 1978 
L 3425 0 
L 2847 0 
L 2847 2094 
Q 2847 2600 2669 2842 
Q 2491 3084 2119 3084 
Q 1678 3084 1418 2786 
Q 1159 2488 1159 1978 
L 1159 0 
L 581 0 
L 581 3500 
L 1159 3500 
L 1159 2956 
Q 1356 3278 1631 3431 
Q 1906 3584 2284 3584 
Q 2666 3584 2933 3390 
Q 3200 3197 3328 2828 
z
" transform="scale(0.015625)"/>
      <path id="DejaVuSans-62" d="M 3116 1747 
Q 3116 2381 2855 2742 
Q 2594 3103 2138 3103 
Q 1681 3103 1420 2742 
Q 1159 2381 1159 1747 
Q 1159 1113 1420 752 
Q 1681 391 2138 391 
Q 2594 391 2855 752 
Q 3116 1113 3116 1747 
z
M 1159 2969 
Q 1341 3281 1617 3432 
Q 1894 3584 2278 3584 
Q 2916 3584 3314 3078 
Q 3713 2572 3713 1747 
Q 3713 922 3314 415 
Q 2916 -91 2278 -91 
Q 1894 -91 1617 61 
Q 1341 213 1159 525 
L 1159 0 
L 581 0 
L 581 4863 
L 1159 4863 
L 1159 2969 
z
" transform="scale(0.015625)"/>
     </defs>
     <use xlink:href="#DejaVuSans-45"/>
     <use xlink:href="#DejaVuSans-6d" transform="translate(63.183594 0)"/>
     <use xlink:href="#DejaVuSans-62" transform="translate(160.595703 0)"/>
     <use xlink:href="#DejaVuSans-65" transform="translate(224.072266 0)"/>
     <use xlink:href="#DejaVuSans-64" transform="translate(285.595703 0)"/>
     <use xlink:href="#DejaVuSans-20" transform="translate(349.072266 0)"/>
     <use xlink:href="#DejaVuSans-48" transform="translate(380.859375 0)"/>
     <use xlink:href="#DejaVuSans-79" transform="translate(456.054688 0)"/>
     <use xlink:href="#DejaVuSans-70" transform="translate(515.234375 0)"/>
     <use xlink:href="#DejaVuSans-6f" transform="translate(578.710938 0)"/>
     <use xlink:href="#DejaVuSans-74" transform="translate(639.892578 0)"/>
     <use xlink:href="#DejaVuSans-68" transform="translate(679.101562 0)"/>
     <use xlink:href="#DejaVuSans-65" transform="translate(742.480469 0)"/>
     <use xlink:href="#DejaVuSans-74" transform="translate(804.003906 0)"/>
     <use xlink:href="#DejaVuSans-69" transform="translate(843.212891 0)"/>
     <use xlink:href="#DejaVuSans-63" transform="translate(870.996094 0)"/>
     <use xlink:href="#DejaVuSans-61" transform="translate(925.976562 0)"/>
     <use xlink:href="#DejaVuSans-6c" transform="translate(987.255859 0)"/>
    </g>
    <!-- (document role) -->
    <g style="fill: #212529" transform="translate(370.964369 214.03806) scale(0.075 -0.075)">
     <defs>
      <path id="DejaVuSans-28" d="M 1984 4856 
Q 1566 4138 1362 3434 
Q 1159 2731 1159 2009 
Q 1159 1288 1364 580 
Q 1569 -128 1984 -844 
L 1484 -844 
Q 1016 -109 783 600 
Q 550 1309 550 2009 
Q 550 2706 781 3412 
Q 1013 4119 1484 4856 
L 1984 4856 
z
" transform="scale(0.015625)"/>
      <path id="DejaVuSans-29" d="M 513 4856 
L 1013 4856 
Q 1481 4119 1714 3412 
Q 1947 2706 1947 2009 
Q 1947 1309 1714 600 
Q 1481 -109 1013 -844 
L 513 -844 
Q 928 -128 1133 580 
Q 1338 1288 1338 2009 
Q 1338 2731 1133 3434 
Q 928 4138 513 4856 
z
" transform="scale(0.015625)"/>
     </defs>
     <use xlink:href="#DejaVuSans-28"/>
     <use xlink:href="#DejaVuSans-64" transform="translate(39.013672 0)"/>
     <use xlink:href="#DejaVuSans-6f" transform="translate(102.490234 0)"/>
     <use xlink:href="#DejaVuSans-63" transform="translate(163.671875 0)"/>
     <use xlink:href="#DejaVuSans-75" transform="translate(218.652344 0)"/>
     <use xlink:href="#DejaVuSans-6d" transform="translate(282.03125 0)"/>
     <use xlink:href="#DejaVuSans-65" transform="translate(379.443359 0)"/>
     <use xlink:href="#DejaVuSans-6e" transform="translate(440.966797 0)"/>
     <use xlink:href="#DejaVuSans-74" transform="translate(504.345703 0)"/>
     <use xlink:href="#DejaVuSans-20" transform="translate(543.554688 0)"/>
     <use xlink:href="#DejaVuSans-72" transform="translate(575.341797 0)"/>
     <use xlink:href="#DejaVuSans-6f" transform="translate(614.205078 0)"/>
     <use xlink:href="#DejaVuSans-6c" transform="translate(675.386719 0)"/>
     <use xlink:href="#DejaVuSans-65" transform="translate(703.169922 0)"/>
     <use xlink:href="#DejaVuSans-29" transform="translate(764.693359 0)"/>
    </g>
   </g>
   <g id="text_15">
    <g id="patch_32">
     <path d="M 219.675128 130.937547 
L 278.525519 130.937547 
Q 279.575519 130.937547 279.575519 129.887547 
L 279.575519 115.655301 
Q 279.575519 114.605301 278.525519 114.605301 
L 219.675128 114.605301 
Q 218.625128 114.605301 218.625128 115.655301 
L 218.625128 129.887547 
Q 218.625128 130.937547 219.675128 130.937547 
z
" style="fill: #ffffff; opacity: 0.88"/>
    </g>
    <!-- BM25 on Literal -->
    <g style="fill: #212529" transform="translate(219.675128 121.354129) scale(0.075 -0.075)">
     <defs>
      <path id="DejaVuSans-42" d="M 1259 2228 
L 1259 519 
L 2272 519 
Q 2781 519 3026 730 
Q 3272 941 3272 1375 
Q 3272 1813 3026 2020 
Q 2781 2228 2272 2228 
L 1259 2228 
z
M 1259 4147 
L 1259 2741 
L 2194 2741 
Q 2656 2741 2882 2914 
Q 3109 3088 3109 3444 
Q 3109 3797 2882 3972 
Q 2656 4147 2194 4147 
L 1259 4147 
z
M 628 4666 
L 2241 4666 
Q 2963 4666 3353 4366 
Q 3744 4066 3744 3513 
Q 3744 3084 3544 2831 
Q 3344 2578 2956 2516 
Q 3422 2416 3680 2098 
Q 3938 1781 3938 1306 
Q 3938 681 3513 340 
Q 3088 0 2303 0 
L 628 0 
L 628 4666 
z
" transform="scale(0.015625)"/>
      <path id="DejaVuSans-32" d="M 1228 531 
L 3431 531 
L 3431 0 
L 469 0 
L 469 531 
Q 828 903 1448 1529 
Q 2069 2156 2228 2338 
Q 2531 2678 2651 2914 
Q 2772 3150 2772 3378 
Q 2772 3750 2511 3984 
Q 2250 4219 1831 4219 
Q 1534 4219 1204 4116 
Q 875 4013 500 3803 
L 500 4441 
Q 881 4594 1212 4672 
Q 1544 4750 1819 4750 
Q 2544 4750 2975 4387 
Q 3406 4025 3406 3419 
Q 3406 3131 3298 2873 
Q 3191 2616 2906 2266 
Q 2828 2175 2409 1742 
Q 1991 1309 1228 531 
z
" transform="scale(0.015625)"/>
      <path id="DejaVuSans-35" d="M 691 4666 
L 3169 4666 
L 3169 4134 
L 1269 4134 
L 1269 2991 
Q 1406 3038 1543 3061 
Q 1681 3084 1819 3084 
Q 2600 3084 3056 2656 
Q 3513 2228 3513 1497 
Q 3513 744 3044 326 
Q 2575 -91 1722 -91 
Q 1428 -91 1123 -41 
Q 819 9 494 109 
L 494 744 
Q 775 591 1075 516 
Q 1375 441 1709 441 
Q 2250 441 2565 725 
Q 2881 1009 2881 1497 
Q 2881 1984 2565 2268 
Q 2250 2553 1709 2553 
Q 1456 2553 1204 2497 
Q 953 2441 691 2322 
L 691 4666 
z
" transform="scale(0.015625)"/>
     </defs>
     <use xlink:href="#DejaVuSans-42"/>
     <use xlink:href="#DejaVuSans-4d" transform="translate(68.603516 0)"/>
     <use xlink:href="#DejaVuSans-32" transform="translate(154.882812 0)"/>
     <use xlink:href="#DejaVuSans-35" transform="translate(218.505859 0)"/>
     <use xlink:href="#DejaVuSans-20" transform="translate(282.128906 0)"/>
     <use xlink:href="#DejaVuSans-6f" transform="translate(313.916016 0)"/>
     <use xlink:href="#DejaVuSans-6e" transform="translate(375.097656 0)"/>
     <use xlink:href="#DejaVuSans-20" transform="translate(438.476562 0)"/>
     <use xlink:href="#DejaVuSans-4c" transform="translate(470.263672 0)"/>
     <use xlink:href="#DejaVuSans-69" transform="translate(525.976562 0)"/>
     <use xlink:href="#DejaVuSans-74" transform="translate(553.759766 0)"/>
     <use xlink:href="#DejaVuSans-65" transform="translate(592.96875 0)"/>
     <use xlink:href="#DejaVuSans-72" transform="translate(654.492188 0)"/>
     <use xlink:href="#DejaVuSans-61" transform="translate(695.605469 0)"/>
     <use xlink:href="#DejaVuSans-6c" transform="translate(756.884766 0)"/>
    </g>
    <!-- Query -->
    <g style="fill: #212529" transform="translate(237.703253 128.327782) scale(0.075 -0.075)">
     <use xlink:href="#DejaVuSans-51"/>
     <use xlink:href="#DejaVuSans-75" transform="translate(78.710938 0)"/>
     <use xlink:href="#DejaVuSans-65" transform="translate(142.089844 0)"/>
     <use xlink:href="#DejaVuSans-72" transform="translate(203.613281 0)"/>
     <use xlink:href="#DejaVuSans-79" transform="translate(244.726562 0)"/>
    </g>
   </g>
   <g id="text_16">
    <g id="patch_33">
     <path d="M 225.041556 280.937064 
L 276.181009 280.937064 
Q 277.231009 280.937064 277.231009 279.887064 
L 277.231009 272.628471 
Q 277.231009 271.578471 276.181009 271.578471 
L 225.041556 271.578471 
Q 223.991556 271.578471 223.991556 272.628471 
L 223.991556 279.887064 
Q 223.991556 280.937064 225.041556 280.937064 
z
" style="fill: #ffffff; opacity: 0.88"/>
    </g>
    <!-- Hybrid Fusion -->
    <g style="fill: #212529" transform="translate(225.041556 278.327299) scale(0.075 -0.075)">
     <defs>
      <path id="DejaVuSans-46" d="M 628 4666 
L 3309 4666 
L 3309 4134 
L 1259 4134 
L 1259 2759 
L 3109 2759 
L 3109 2228 
L 1259 2228 
L 1259 0 
L 628 0 
L 628 4666 
z
" transform="scale(0.015625)"/>
     </defs>
     <use xlink:href="#DejaVuSans-48"/>
     <use xlink:href="#DejaVuSans-79" transform="translate(75.195312 0)"/>
     <use xlink:href="#DejaVuSans-62" transform="translate(134.375 0)"/>
     <use xlink:href="#DejaVuSans-72" transform="translate(197.851562 0)"/>
     <use xlink:href="#DejaVuSans-69" transform="translate(238.964844 0)"/>
     <use xlink:href="#DejaVuSans-64" transform="translate(266.748047 0)"/>
     <use xlink:href="#DejaVuSans-20" transform="translate(330.224609 0)"/>
     <use xlink:href="#DejaVuSans-46" transform="translate(362.011719 0)"/>
     <use xlink:href="#DejaVuSans-75" transform="translate(414.03125 0)"/>
     <use xlink:href="#DejaVuSans-73" transform="translate(477.410156 0)"/>
     <use xlink:href="#DejaVuSans-69" transform="translate(529.509766 0)"/>
     <use xlink:href="#DejaVuSans-6f" transform="translate(557.292969 0)"/>
     <use xlink:href="#DejaVuSans-6e" transform="translate(618.474609 0)"/>
    </g>
   </g>
   <g id="text_17">
    <g id="patch_34">
     <path d="M 135.245189 401.441345 
L 209.291283 401.441345 
Q 210.341283 401.441345 210.341283 400.391345 
L 210.341283 393.132751 
Q 210.341283 392.082751 209.291283 392.082751 
L 135.245189 392.082751 
Q 134.195189 392.082751 134.195189 393.132751 
L 134.195189 400.391345 
Q 134.195189 401.441345 135.245189 401.441345 
z
" style="fill: #ffffff; opacity: 0.88"/>
    </g>
    <!-- Top-K Chunks (k=5) -->
    <g style="fill: #212529" transform="translate(135.245189 398.831579) scale(0.075 -0.075)">
     <defs>
      <path id="DejaVuSans-54" d="M -19 4666 
L 3928 4666 
L 3928 4134 
L 2272 4134 
L 2272 0 
L 1638 0 
L 1638 4134 
L -19 4134 
L -19 4666 
z
" transform="scale(0.015625)"/>
      <path id="DejaVuSans-2d" d="M 313 2009 
L 1997 2009 
L 1997 1497 
L 313 1497 
L 313 2009 
z
" transform="scale(0.015625)"/>
      <path id="DejaVuSans-4b" d="M 628 4666 
L 1259 4666 
L 1259 2694 
L 3353 4666 
L 4166 4666 
L 1850 2491 
L 4331 0 
L 3500 0 
L 1259 2247 
L 1259 0 
L 628 0 
L 628 4666 
z
" transform="scale(0.015625)"/>
      <path id="DejaVuSans-43" d="M 4122 4306 
L 4122 3641 
Q 3803 3938 3442 4084 
Q 3081 4231 2675 4231 
Q 1875 4231 1450 3742 
Q 1025 3253 1025 2328 
Q 1025 1406 1450 917 
Q 1875 428 2675 428 
Q 3081 428 3442 575 
Q 3803 722 4122 1019 
L 4122 359 
Q 3791 134 3420 21 
Q 3050 -91 2638 -91 
Q 1578 -91 968 557 
Q 359 1206 359 2328 
Q 359 3453 968 4101 
Q 1578 4750 2638 4750 
Q 3056 4750 3426 4639 
Q 3797 4528 4122 4306 
z
" transform="scale(0.015625)"/>
      <path id="DejaVuSans-3d" d="M 678 2906 
L 4684 2906 
L 4684 2381 
L 678 2381 
L 678 2906 
z
M 678 1631 
L 4684 1631 
L 4684 1100 
L 678 1100 
L 678 1631 
z
" transform="scale(0.015625)"/>
     </defs>
     <use xlink:href="#DejaVuSans-54"/>
     <use xlink:href="#DejaVuSans-6f" transform="translate(44.083984 0)"/>
     <use xlink:href="#DejaVuSans-70" transform="translate(105.265625 0)"/>
     <use xlink:href="#DejaVuSans-2d" transform="translate(168.742188 0)"/>
     <use xlink:href="#DejaVuSans-4b" transform="translate(204.826172 0)"/>
     <use xlink:href="#DejaVuSans-20" transform="translate(270.402344 0)"/>
     <use xlink:href="#DejaVuSans-43" transform="translate(302.189453 0)"/>
     <use xlink:href="#DejaVuSans-68" transform="translate(372.013672 0)"/>
     <use xlink:href="#DejaVuSans-75" transform="translate(435.392578 0)"/>
     <use xlink:href="#DejaVuSans-6e" transform="translate(498.771484 0)"/>
     <use xlink:href="#DejaVuSans-6b" transform="translate(562.150391 0)"/>
     <use xlink:href="#DejaVuSans-73" transform="translate(620.060547 0)"/>
     <use xlink:href="#DejaVuSans-20" transform="translate(672.160156 0)"/>
     <use xlink:href="#DejaVuSans-28" transform="translate(703.947266 0)"/>
     <use xlink:href="#DejaVuSans-6b" transform="translate(742.960938 0)"/>
     <use xlink:href="#DejaVuSans-3d" transform="translate(800.871094 0)"/>
     <use xlink:href="#DejaVuSans-35" transform="translate(884.660156 0)"/>
     <use xlink:href="#DejaVuSans-29" transform="translate(948.283203 0)"/>
    </g>
   </g>
   <g id="text_18">
    <g id="patch_35">
     <path d="M 64.158642 404.001405 
L 111.935986 404.001405 
Q 112.985986 404.001405 112.985986 402.951405 
L 112.985986 388.719159 
Q 112.985986 387.669159 111.935986 387.669159 
L 64.158642 387.669159 
Q 63.108642 387.669159 63.108642 388.719159 
L 63.108642 402.951405 
Q 63.108642 404.001405 64.158642 404.001405 
z
" style="fill: #ffffff; opacity: 0.88"/>
    </g>
    <!-- LLM (claude- -->
    <g style="fill: #212529" transform="translate(64.158642 394.417987) scale(0.075 -0.075)">
     <use xlink:href="#DejaVuSans-4c"/>
     <use xlink:href="#DejaVuSans-4c" transform="translate(55.712891 0)"/>
     <use xlink:href="#DejaVuSans-4d" transform="translate(111.425781 0)"/>
     <use xlink:href="#DejaVuSans-20" transform="translate(197.705078 0)"/>
     <use xlink:href="#DejaVuSans-28" transform="translate(229.492188 0)"/>
     <use xlink:href="#DejaVuSans-63" transform="translate(268.505859 0)"/>
     <use xlink:href="#DejaVuSans-6c" transform="translate(323.486328 0)"/>
     <use xlink:href="#DejaVuSans-61" transform="translate(351.269531 0)"/>
     <use xlink:href="#DejaVuSans-75" transform="translate(412.548828 0)"/>
     <use xlink:href="#DejaVuSans-64" transform="translate(475.927734 0)"/>
     <use xlink:href="#DejaVuSans-65" transform="translate(539.404297 0)"/>
     <use xlink:href="#DejaVuSans-2d" transform="translate(600.927734 0)"/>
    </g>
    <!-- sonnet-4-6) -->
    <g style="fill: #212529" transform="translate(68.496923 401.39164) scale(0.075 -0.075)">
     <defs>
      <path id="DejaVuSans-34" d="M 2419 4116 
L 825 1625 
L 2419 1625 
L 2419 4116 
z
M 2253 4666 
L 3047 4666 
L 3047 1625 
L 3713 1625 
L 3713 1100 
L 3047 1100 
L 3047 0 
L 2419 0 
L 2419 1100 
L 313 1100 
L 313 1709 
L 2253 4666 
z
" transform="scale(0.015625)"/>
      <path id="DejaVuSans-36" d="M 2113 2584 
Q 1688 2584 1439 2293 
Q 1191 2003 1191 1497 
Q 1191 994 1439 701 
Q 1688 409 2113 409 
Q 2538 409 2786 701 
Q 3034 994 3034 1497 
Q 3034 2003 2786 2293 
Q 2538 2584 2113 2584 
z
M 3366 4563 
L 3366 3988 
Q 3128 4100 2886 4159 
Q 2644 4219 2406 4219 
Q 1781 4219 1451 3797 
Q 1122 3375 1075 2522 
Q 1259 2794 1537 2939 
Q 1816 3084 2150 3084 
Q 2853 3084 3261 2657 
Q 3669 2231 3669 1497 
Q 3669 778 3244 343 
Q 2819 -91 2113 -91 
Q 1303 -91 875 529 
Q 447 1150 447 2328 
Q 447 3434 972 4092 
Q 1497 4750 2381 4750 
Q 2619 4750 2861 4703 
Q 3103 4656 3366 4563 
z
" transform="scale(0.015625)"/>
     </defs>
     <use xlink:href="#DejaVuSans-73"/>
     <use xlink:href="#DejaVuSans-6f" transform="translate(52.099609 0)"/>
     <use xlink:href="#DejaVuSans-6e" transform="translate(113.28125 0)"/>
     <use xlink:href="#DejaVuSans-6e" transform="translate(176.660156 0)"/>
     <use xlink:href="#DejaVuSans-65" transform="translate(240.039062 0)"/>
     <use xlink:href="#DejaVuSans-74" transform="translate(301.5625 0)"/>
     <use xlink:href="#DejaVuSans-2d" transform="translate(340.771484 0)"/>
     <use xlink:href="#DejaVuSans-34" transform="translate(376.855469 0)"/>
     <use xlink:href="#DejaVuSans-2d" transform="translate(440.478516 0)"/>
     <use xlink:href="#DejaVuSans-36" transform="translate(476.5625 0)"/>
     <use xlink:href="#DejaVuSans-29" transform="translate(540.185547 0)"/>
    </g>
   </g>
   <g id="text_19">
    <g id="patch_36">
     <path d="M 55.13994 304.249713 
L 109.521971 304.249713 
Q 110.571971 304.249713 110.571971 303.199713 
L 110.571971 295.94112 
Q 110.571971 294.89112 109.521971 294.89112 
L 55.13994 294.89112 
Q 54.08994 294.89112 54.08994 295.94112 
L 54.08994 303.199713 
Q 54.08994 304.249713 55.13994 304.249713 
z
" style="fill: #ffffff; opacity: 0.88"/>
    </g>
    <!-- Answer (cited) -->
    <g style="fill: #212529" transform="translate(55.13994 301.639948) scale(0.075 -0.075)">
     <defs>
      <path id="DejaVuSans-41" d="M 2188 4044 
L 1331 1722 
L 3047 1722 
L 2188 4044 
z
M 1831 4666 
L 2547 4666 
L 4325 0 
L 3669 0 
L 3244 1197 
L 1141 1197 
L 716 0 
L 50 0 
L 1831 4666 
z
" transform="scale(0.015625)"/>
     </defs>
     <use xlink:href="#DejaVuSans-41"/>
     <use xlink:href="#DejaVuSans-6e" transform="translate(68.408203 0)"/>
     <use xlink:href="#DejaVuSans-73" transform="translate(131.787109 0)"/>
     <use xlink:href="#DejaVuSans-77" transform="translate(183.886719 0)"/>
     <use xlink:href="#DejaVuSans-65" transform="translate(265.673828 0)"/>
     <use xlink:href="#DejaVuSans-72" transform="translate(327.197266 0)"/>
     <use xlink:href="#DejaVuSans-20" transform="translate(368.310547 0)"/>
     <use xlink:href="#DejaVuSans-28" transform="translate(400.097656 0)"/>
     <use xlink:href="#DejaVuSans-63" transform="translate(439.111328 0)"/>
     <use xlink:href="#DejaVuSans-69" transform="translate(494.091797 0)"/>
     <use xlink:href="#DejaVuSans-74" transform="translate(521.875 0)"/>
     <use xlink:href="#DejaVuSans-65" transform="translate(561.083984 0)"/>
     <use xlink:href="#DejaVuSans-64" transform="translate(622.607422 0)"/>
     <use xlink:href="#DejaVuSans-29" transform="translate(686.083984 0)"/>
    </g>
   </g>
  </g>
 </g>
 <defs>
  <clipPath id="p3a921c324f">
   <rect x="7.2" y="29.077969" width="465.696" height="465.696"/>
  </clipPath>
 </defs>
</svg>
