<?xml version="1.0" encoding="utf-8" standalone="no"?>
<!DOCTYPE svg PUBLIC "-//W3C//DTD SVG 1.1//EN"
  "http://www.w3.org/Graphics/SVG/1.1/DTD/svg11.dtd">
<svg xmlns:xlink="http://www.w3.org/1999/xlink" width="480.096pt" height="515.973969pt" viewBox="0 0 480.096 515.973969" xmlns="http://www.w3.org/2000/svg" version="1.1">
 <metadata>
  <rdf:RDF xmlns:dc="http://purl.org/dc/elements/1.1/" xmlns:cc="http://creativecommons.org/ns#" xmlns:rdf="http://www.w3.org/1999/02/22-rdf-syntax-ns#">
   <cc:Work>
    <dc:type rdf:resource="http://purl.org/dc/dcmitype/StillImage"/>
    <dc:date>2026-06-12T23:20:32.239797</dc:date>
    <dc:format>image/svg+xml</dc:format>
    <dc:creator>
     <cc:Agent>
      <dc:title>Matplotlib v3.10.9, https://matplotlib.org/</dc:title>
     </cc:Agent>
    </dc:creator>
   </cc:Work>
  </rdf:RDF>
 </metadata>
 <defs>
  <style type="text/css">*{stroke-linejoin: round; stroke-linecap: butt}</style>
 </defs>
 <g id="figure_1">
  <g id="patch_1">
   <path d="M 0 501.973969 
L 480.096 501.973969 
L 480.096 0 
L 0 0 
z
" style="fill: #ffffff"/>
  </g>
  <g id="axes_1">
   <g id="patch_2">
    <path d="M 356.472 154.977229 
Q 356.472 181.2233 356.472 206.239534 
" clip-path="url(#p89e23a477b)" style="fill: none; stroke: #9aa3b2; stroke-width: 1.1; stroke-linecap: round"/>
    <path d="M 358.872 201.439534 
L 356.472 206.239534 
L 354.072 201.439534 
z
" clip-path="url(#p89e23a477b)" style="fill: #9aa3b2; stroke: #9aa3b2; stroke-width: 1.1; stroke-linecap: round"/>
   </g>
   <g id="patch_3">
    <path d="M 346.99879 145.501969 
Q 300.380343 145.501969 254.991734 145.501969 
" clip-path="url(#p89e23a477b)" style="fill: none; stroke: #9aa3b2; stroke-width: 1.1; stroke-linecap: round"/>
    <path d="M 259.791734 147.901969 
L 254.991734 145.501969 
L 259.791734 143.101969 
z
" clip-path="url(#p89e23a477b)" style="fill: #9aa3b2; stroke: #9aa3b2; stroke-width: 1.1; stroke-linecap: round"/>
   </g>
   <g id="patch_4">
    <path d="M 348.254876 221.661795 
Q 319.207833 238.340336 291.227317 254.406487 
" clip-path="url(#p89e23a477b)" style="fill: none; stroke: #9aa3b2; stroke-width: 1.1; stroke-linecap: round"/>
    <path d="M 296.584987 254.09766 
L 291.227317 254.406487 
L 294.194858 249.935055 
z
" clip-path="url(#p89e23a477b)" style="fill: #9aa3b2; stroke: #9aa3b2; stroke-width: 1.1; stroke-linecap: round"/>
   </g>
   <g id="patch_5">
    <path d="M 247.185676 154.52147 
Q 262.580562 202.410579 277.599062 249.128862 
" clip-path="url(#p89e23a477b)" style="fill: none; stroke: #9aa3b2; stroke-width: 1.1; stroke-linecap: round"/>
    <path d="M 278.41489 243.824673 
L 277.599062 249.128862 
L 273.845208 245.293686 
z
" clip-path="url(#p89e23a477b)" style="fill: #9aa3b2; stroke: #9aa3b2; stroke-width: 1.1; stroke-linecap: round"/>
   </g>
   <g id="patch_6">
    <path d="M 283.668192 270.268636 
Q 295.998146 319.713009 308.030529 367.964088 
" clip-path="url(#p89e23a477b)" style="fill: none; stroke: #9aa3b2; stroke-width: 1.1; stroke-linecap: round"/>
    <path d="M 309.197806 362.72601 
L 308.030529 367.964088 
L 304.540432 363.88742 
z
" clip-path="url(#p89e23a477b)" style="fill: #9aa3b2; stroke: #9aa3b2; stroke-width: 1.1; stroke-linecap: round"/>
   </g>
   <g id="patch_7">
    <path d="M 301.148207 378.349969 
Q 255.683946 378.349969 211.449523 378.349969 
" clip-path="url(#p89e23a477b)" style="fill: none; stroke: #9aa3b2; stroke-width: 1.1; stroke-linecap: round"/>
    <path d="M 216.249523 380.749969 
L 211.449523 378.349969 
L 216.249523 375.949969 
z
" clip-path="url(#p89e23a477b)" style="fill: #9aa3b2; stroke: #9aa3b2; stroke-width: 1.1; stroke-linecap: round"/>
   </g>
   <g id="patch_8">
    <path d="M 191.273175 378.349969 
Q 161.587888 378.349969 133.132438 378.349969 
" clip-path="url(#p89e23a477b)" style="fill: none; stroke: #9aa3b2; stroke-width: 1.1; stroke-linecap: round"/>
    <path d="M 137.932438 380.749969 
L 133.132438 378.349969 
L 137.932438 375.949969 
z
" clip-path="url(#p89e23a477b)" style="fill: #9aa3b2; stroke: #9aa3b2; stroke-width: 1.1; stroke-linecap: round"/>
   </g>
   <g id="text_1">
    <g id="patch_9">
     <path d="M 292.045379 253.851773 
L 334.590926 253.851773 
Q 335.370926 253.851773 335.370926 253.071773 
L 335.370926 246.780992 
Q 335.370926 246.000992 334.590926 246.000992 
L 292.045379 246.000992 
Q 291.265379 246.000992 291.265379 246.780992 
L 291.265379 253.071773 
Q 291.265379 253.851773 292.045379 253.851773 
z
" style="fill: #ffffff; opacity: 0.9"/>
    </g>
    <!-- dense scores -->
    <g style="fill: #475569" transform="translate(292.045379 251.719976) scale(0.065 -0.065)">
     <defs>
      <path id="DejaVuSans-64" d="M 2906 2969 
L 2906 4863 
L 3481 4863 
L 3481 0 
L 2906 0 
L 2906 525 
Q 2725 213 2448 61 
Q 2172 -91 1784 -91 
Q 1150 -91 751 415 
Q 353 922 353 1747 
Q 353 2572 751 3078 
Q 1150 3584 1784 3584 
Q 2172 3584 2448 3432 
Q 2725 3281 2906 2969 
z
M 947 1747 
Q 947 1113 1208 752 
Q 1469 391 1925 391 
Q 2381 391 2643 752 
Q 2906 1113 2906 1747 
Q 2906 2381 2643 2742 
Q 2381 3103 1925 3103 
Q 1469 3103 1208 2742 
Q 947 2381 947 1747 
z
" transform="scale(0.015625)"/>
      <path id="DejaVuSans-65" d="M 3597 1894 
L 3597 1613 
L 953 1613 
Q 991 1019 1311 708 
Q 1631 397 2203 397 
Q 2534 397 2845 478 
Q 3156 559 3463 722 
L 3463 178 
Q 3153 47 2828 -22 
Q 2503 -91 2169 -91 
Q 1331 -91 842 396 
Q 353 884 353 1716 
Q 353 2575 817 3079 
Q 1281 3584 2069 3584 
Q 2775 3584 3186 3129 
Q 3597 2675 3597 1894 
z
M 3022 2063 
Q 3016 2534 2758 2815 
Q 2500 3097 2075 3097 
Q 1594 3097 1305 2825 
Q 1016 2553 972 2059 
L 3022 2063 
z
" transform="scale(0.015625)"/>
      <path id="DejaVuSans-6e" d="M 3513 2113 
L 3513 0 
L 2938 0 
L 2938 2094 
Q 2938 2591 2744 2837 
Q 2550 3084 2163 3084 
Q 1697 3084 1428 2787 
Q 1159 2491 1159 1978 
L 1159 0 
L 581 0 
L 581 3500 
L 1159 3500 
L 1159 2956 
Q 1366 3272 1645 3428 
Q 1925 3584 2291 3584 
Q 2894 3584 3203 3211 
Q 3513 2838 3513 2113 
z
" transform="scale(0.015625)"/>
      <path id="DejaVuSans-73" d="M 2834 3397 
L 2834 2853 
Q 2591 2978 2328 3040 
Q 2066 3103 1784 3103 
Q 1356 3103 1142 2972 
Q 928 2841 928 2578 
Q 928 2378 1081 2264 
Q 1234 2150 1697 2047 
L 1894 2003 
Q 2506 1872 2764 1633 
Q 3022 1394 3022 966 
Q 3022 478 2636 193 
Q 2250 -91 1575 -91 
Q 1294 -91 989 -36 
Q 684 19 347 128 
L 347 722 
Q 666 556 975 473 
Q 1284 391 1588 391 
Q 1994 391 2212 530 
Q 2431 669 2431 922 
Q 2431 1156 2273 1281 
Q 2116 1406 1581 1522 
L 1381 1569 
Q 847 1681 609 1914 
Q 372 2147 372 2553 
Q 372 3047 722 3315 
Q 1072 3584 1716 3584 
Q 2034 3584 2315 3537 
Q 2597 3491 2834 3397 
z
" transform="scale(0.015625)"/>
      <path id="DejaVuSans-20" transform="scale(0.015625)"/>
      <path id="DejaVuSans-63" d="M 3122 3366 
L 3122 2828 
Q 2878 2963 2633 3030 
Q 2388 3097 2138 3097 
Q 1578 3097 1268 2742 
Q 959 2388 959 1747 
Q 959 1106 1268 751 
Q 1578 397 2138 397 
Q 2388 397 2633 464 
Q 2878 531 3122 666 
L 3122 134 
Q 2881 22 2623 -34 
Q 2366 -91 2075 -91 
Q 1284 -91 818 406 
Q 353 903 353 1747 
Q 353 2603 823 3093 
Q 1294 3584 2113 3584 
Q 2378 3584 2631 3529 
Q 2884 3475 3122 3366 
z
" transform="scale(0.015625)"/>
      <path id="DejaVuSans-6f" d="M 1959 3097 
Q 1497 3097 1228 2736 
Q 959 2375 959 1747 
Q 959 1119 1226 758 
Q 1494 397 1959 397 
Q 2419 397 2687 759 
Q 2956 1122 2956 1747 
Q 2956 2369 2687 2733 
Q 2419 3097 1959 3097 
z
M 1959 3584 
Q 2709 3584 3137 3096 
Q 3566 2609 3566 1747 
Q 3566 888 3137 398 
Q 2709 -91 1959 -91 
Q 1206 -91 779 398 
Q 353 888 353 1747 
Q 353 2609 779 3096 
Q 1206 3584 1959 3584 
z
" transform="scale(0.015625)"/>
      <path id="DejaVuSans-72" d="M 2631 2963 
Q 2534 3019 2420 3045 
Q 2306 3072 2169 3072 
Q 1681 3072 1420 2755 
Q 1159 2438 1159 1844 
L 1159 0 
L 581 0 
L 581 3500 
L 1159 3500 
L 1159 2956 
Q 1341 3275 1631 3429 
Q 1922 3584 2338 3584 
Q 2397 3584 2469 3576 
Q 2541 3569 2628 3553 
L 2631 2963 
z
" transform="scale(0.015625)"/>
     </defs>
     <use xlink:href="#DejaVuSans-64"/>
     <use xlink:href="#DejaVuSans-65" transform="translate(63.476562 0)"/>
     <use xlink:href="#DejaVuSans-6e" transform="translate(125 0)"/>
     <use xlink:href="#DejaVuSans-73" transform="translate(188.378906 0)"/>
     <use xlink:href="#DejaVuSans-65" transform="translate(240.478516 0)"/>
     <use xlink:href="#DejaVuSans-20" transform="translate(302.001953 0)"/>
     <use xlink:href="#DejaVuSans-73" transform="translate(333.789062 0)"/>
     <use xlink:href="#DejaVuSans-63" transform="translate(385.888672 0)"/>
     <use xlink:href="#DejaVuSans-6f" transform="translate(440.869141 0)"/>
     <use xlink:href="#DejaVuSans-72" transform="translate(502.050781 0)"/>
     <use xlink:href="#DejaVuSans-65" transform="translate(540.914062 0)"/>
     <use xlink:href="#DejaVuSans-73" transform="translate(602.4375 0)"/>
    </g>
   </g>
   <g id="text_2">
    <g id="patch_10">
     <path d="M 251.684122 218.356486 
L 296.152247 218.356486 
Q 296.932247 218.356486 296.932247 217.576486 
L 296.932247 211.285705 
Q 296.932247 210.505705 296.152247 210.505705 
L 251.684122 210.505705 
Q 250.904122 210.505705 250.904122 211.285705 
L 250.904122 217.576486 
Q 250.904122 218.356486 251.684122 218.356486 
z
" style="fill: #ffffff; opacity: 0.9"/>
    </g>
    <!-- sparse scores -->
    <g style="fill: #475569" transform="translate(251.684122 216.224689) scale(0.065 -0.065)">
     <defs>
      <path id="DejaVuSans-70" d="M 1159 525 
L 1159 -1331 
L 581 -1331 
L 581 3500 
L 1159 3500 
L 1159 2969 
Q 1341 3281 1617 3432 
Q 1894 3584 2278 3584 
Q 2916 3584 3314 3078 
Q 3713 2572 3713 1747 
Q 3713 922 3314 415 
Q 2916 -91 2278 -91 
Q 1894 -91 1617 61 
Q 1341 213 1159 525 
z
M 3116 1747 
Q 3116 2381 2855 2742 
Q 2594 3103 2138 3103 
Q 1681 3103 1420 2742 
Q 1159 2381 1159 1747 
Q 1159 1113 1420 752 
Q 1681 391 2138 391 
Q 2594 391 2855 752 
Q 3116 1113 3116 1747 
z
" transform="scale(0.015625)"/>
      <path id="DejaVuSans-61" d="M 2194 1759 
Q 1497 1759 1228 1600 
Q 959 1441 959 1056 
Q 959 750 1161 570 
Q 1363 391 1709 391 
Q 2188 391 2477 730 
Q 2766 1069 2766 1631 
L 2766 1759 
L 2194 1759 
z
M 3341 1997 
L 3341 0 
L 2766 0 
L 2766 531 
Q 2569 213 2275 61 
Q 1981 -91 1556 -91 
Q 1019 -91 701 211 
Q 384 513 384 1019 
Q 384 1609 779 1909 
Q 1175 2209 1959 2209 
L 2766 2209 
L 2766 2266 
Q 2766 2663 2505 2880 
Q 2244 3097 1772 3097 
Q 1472 3097 1187 3025 
Q 903 2953 641 2809 
L 641 3341 
Q 956 3463 1253 3523 
Q 1550 3584 1831 3584 
Q 2591 3584 2966 3190 
Q 3341 2797 3341 1997 
z
" transform="scale(0.015625)"/>
     </defs>
     <use xlink:href="#DejaVuSans-73"/>
     <use xlink:href="#DejaVuSans-70" transform="translate(52.099609 0)"/>
     <use xlink:href="#DejaVuSans-61" transform="translate(115.576172 0)"/>
     <use xlink:href="#DejaVuSans-72" transform="translate(176.855469 0)"/>
     <use xlink:href="#DejaVuSans-73" transform="translate(217.96875 0)"/>
     <use xlink:href="#DejaVuSans-65" transform="translate(270.068359 0)"/>
     <use xlink:href="#DejaVuSans-20" transform="translate(331.591797 0)"/>
     <use xlink:href="#DejaVuSans-73" transform="translate(363.378906 0)"/>
     <use xlink:href="#DejaVuSans-63" transform="translate(415.478516 0)"/>
     <use xlink:href="#DejaVuSans-6f" transform="translate(470.458984 0)"/>
     <use xlink:href="#DejaVuSans-72" transform="translate(531.640625 0)"/>
     <use xlink:href="#DejaVuSans-65" transform="translate(570.503906 0)"/>
     <use xlink:href="#DejaVuSans-73" transform="translate(632.027344 0)"/>
    </g>
   </g>
   <g id="text_3">
    <g id="patch_11">
     <path d="M 230.250224 389.390159 
L 254.750146 389.390159 
Q 255.530146 389.390159 255.530146 388.610159 
L 255.530146 382.319378 
Q 255.530146 381.539378 254.750146 381.539378 
L 230.250224 381.539378 
Q 229.470224 381.539378 229.470224 382.319378 
L 229.470224 388.610159 
Q 229.470224 389.390159 230.250224 389.390159 
z
" style="fill: #ffffff; opacity: 0.9"/>
    </g>
    <!-- context -->
    <g style="fill: #475569" transform="translate(230.250224 387.258363) scale(0.065 -0.065)">
     <defs>
      <path id="DejaVuSans-74" d="M 1172 4494 
L 1172 3500 
L 2356 3500 
L 2356 3053 
L 1172 3053 
L 1172 1153 
Q 1172 725 1289 603 
Q 1406 481 1766 481 
L 2356 481 
L 2356 0 
L 1766 0 
Q 1100 0 847 248 
Q 594 497 594 1153 
L 594 3053 
L 172 3053 
L 172 3500 
L 594 3500 
L 594 4494 
L 1172 4494 
z
" transform="scale(0.015625)"/>
      <path id="DejaVuSans-78" d="M 3513 3500 
L 2247 1797 
L 3578 0 
L 2900 0 
L 1881 1375 
L 863 0 
L 184 0 
L 1544 1831 
L 300 3500 
L 978 3500 
L 1906 2253 
L 2834 3500 
L 3513 3500 
z
" transform="scale(0.015625)"/>
     </defs>
     <use xlink:href="#DejaVuSans-63"/>
     <use xlink:href="#DejaVuSans-6f" transform="translate(54.980469 0)"/>
     <use xlink:href="#DejaVuSans-6e" transform="translate(116.162109 0)"/>
     <use xlink:href="#DejaVuSans-74" transform="translate(179.541016 0)"/>
     <use xlink:href="#DejaVuSans-65" transform="translate(218.75 0)"/>
     <use xlink:href="#DejaVuSans-78" transform="translate(278.523438 0)"/>
     <use xlink:href="#DejaVuSans-74" transform="translate(337.703125 0)"/>
    </g>
   </g>
   <g id="text_4">
    <!-- Plain RAG Pipeline -->
    <g style="fill: #1D4ED8" transform="translate(7.2 17.077969) scale(0.13 -0.13)">
     <defs>
      <path id="DejaVuSans-Bold-50" d="M 588 4666 
L 2584 4666 
Q 3475 4666 3951 4270 
Q 4428 3875 4428 3144 
Q 4428 2409 3951 2014 
Q 3475 1619 2584 1619 
L 1791 1619 
L 1791 0 
L 588 0 
L 588 4666 
z
M 1791 3794 
L 1791 2491 
L 2456 2491 
Q 2806 2491 2997 2661 
Q 3188 2831 3188 3144 
Q 3188 3456 2997 3625 
Q 2806 3794 2456 3794 
L 1791 3794 
z
" transform="scale(0.015625)"/>
      <path id="DejaVuSans-Bold-6c" d="M 538 4863 
L 1656 4863 
L 1656 0 
L 538 0 
L 538 4863 
z
" transform="scale(0.015625)"/>
      <path id="DejaVuSans-Bold-61" d="M 2106 1575 
Q 1756 1575 1579 1456 
Q 1403 1338 1403 1106 
Q 1403 894 1545 773 
Q 1688 653 1941 653 
Q 2256 653 2472 879 
Q 2688 1106 2688 1447 
L 2688 1575 
L 2106 1575 
z
M 3816 1997 
L 3816 0 
L 2688 0 
L 2688 519 
Q 2463 200 2181 54 
Q 1900 -91 1497 -91 
Q 953 -91 614 226 
Q 275 544 275 1050 
Q 275 1666 698 1953 
Q 1122 2241 2028 2241 
L 2688 2241 
L 2688 2328 
Q 2688 2594 2478 2717 
Q 2269 2841 1825 2841 
Q 1466 2841 1156 2769 
Q 847 2697 581 2553 
L 581 3406 
Q 941 3494 1303 3539 
Q 1666 3584 2028 3584 
Q 2975 3584 3395 3211 
Q 3816 2838 3816 1997 
z
" transform="scale(0.015625)"/>
      <path id="DejaVuSans-Bold-69" d="M 538 3500 
L 1656 3500 
L 1656 0 
L 538 0 
L 538 3500 
z
M 538 4863 
L 1656 4863 
L 1656 3950 
L 538 3950 
L 538 4863 
z
" transform="scale(0.015625)"/>
      <path id="DejaVuSans-Bold-6e" d="M 4056 2131 
L 4056 0 
L 2931 0 
L 2931 347 
L 2931 1631 
Q 2931 2084 2911 2256 
Q 2891 2428 2841 2509 
Q 2775 2619 2662 2680 
Q 2550 2741 2406 2741 
Q 2056 2741 1856 2470 
Q 1656 2200 1656 1722 
L 1656 0 
L 538 0 
L 538 3500 
L 1656 3500 
L 1656 2988 
Q 1909 3294 2193 3439 
Q 2478 3584 2822 3584 
Q 3428 3584 3742 3212 
Q 4056 2841 4056 2131 
z
" transform="scale(0.015625)"/>
      <path id="DejaVuSans-Bold-20" transform="scale(0.015625)"/>
      <path id="DejaVuSans-Bold-52" d="M 2297 2597 
Q 2675 2597 2839 2737 
Q 3003 2878 3003 3200 
Q 3003 3519 2839 3656 
Q 2675 3794 2297 3794 
L 1791 3794 
L 1791 2597 
L 2297 2597 
z
M 1791 1766 
L 1791 0 
L 588 0 
L 588 4666 
L 2425 4666 
Q 3347 4666 3776 4356 
Q 4206 4047 4206 3378 
Q 4206 2916 3982 2619 
Q 3759 2322 3309 2181 
Q 3556 2125 3751 1926 
Q 3947 1728 4147 1325 
L 4800 0 
L 3519 0 
L 2950 1159 
Q 2778 1509 2601 1637 
Q 2425 1766 2131 1766 
L 1791 1766 
z
" transform="scale(0.015625)"/>
      <path id="DejaVuSans-Bold-41" d="M 3419 850 
L 1538 850 
L 1241 0 
L 31 0 
L 1759 4666 
L 3194 4666 
L 4922 0 
L 3713 0 
L 3419 850 
z
M 1838 1716 
L 3116 1716 
L 2478 3572 
L 1838 1716 
z
" transform="scale(0.015625)"/>
      <path id="DejaVuSans-Bold-47" d="M 4781 347 
Q 4331 128 3847 18 
Q 3363 -91 2847 -91 
Q 1681 -91 1000 561 
Q 319 1213 319 2328 
Q 319 3456 1012 4103 
Q 1706 4750 2913 4750 
Q 3378 4750 3804 4662 
Q 4231 4575 4609 4403 
L 4609 3438 
Q 4219 3659 3833 3768 
Q 3447 3878 3059 3878 
Q 2341 3878 1952 3476 
Q 1563 3075 1563 2328 
Q 1563 1588 1938 1184 
Q 2313 781 3003 781 
Q 3191 781 3352 804 
Q 3513 828 3641 878 
L 3641 1784 
L 2906 1784 
L 2906 2591 
L 4781 2591 
L 4781 347 
z
" transform="scale(0.015625)"/>
      <path id="DejaVuSans-Bold-70" d="M 1656 506 
L 1656 -1331 
L 538 -1331 
L 538 3500 
L 1656 3500 
L 1656 2988 
Q 1888 3294 2169 3439 
Q 2450 3584 2816 3584 
Q 3463 3584 3878 3070 
Q 4294 2556 4294 1747 
Q 4294 938 3878 423 
Q 3463 -91 2816 -91 
Q 2450 -91 2169 54 
Q 1888 200 1656 506 
z
M 2400 2772 
Q 2041 2772 1848 2508 
Q 1656 2244 1656 1747 
Q 1656 1250 1848 986 
Q 2041 722 2400 722 
Q 2759 722 2948 984 
Q 3138 1247 3138 1747 
Q 3138 2247 2948 2509 
Q 2759 2772 2400 2772 
z
" transform="scale(0.015625)"/>
      <path id="DejaVuSans-Bold-65" d="M 4031 1759 
L 4031 1441 
L 1416 1441 
Q 1456 1047 1700 850 
Q 1944 653 2381 653 
Q 2734 653 3104 758 
Q 3475 863 3866 1075 
L 3866 213 
Q 3469 63 3072 -14 
Q 2675 -91 2278 -91 
Q 1328 -91 801 392 
Q 275 875 275 1747 
Q 275 2603 792 3093 
Q 1309 3584 2216 3584 
Q 3041 3584 3536 3087 
Q 4031 2591 4031 1759 
z
M 2881 2131 
Q 2881 2450 2695 2645 
Q 2509 2841 2209 2841 
Q 1884 2841 1681 2658 
Q 1478 2475 1428 2131 
L 2881 2131 
z
" transform="scale(0.015625)"/>
     </defs>
     <use xlink:href="#DejaVuSans-Bold-50"/>
     <use xlink:href="#DejaVuSans-Bold-6c" transform="translate(73.291016 0)"/>
     <use xlink:href="#DejaVuSans-Bold-61" transform="translate(107.568359 0)"/>
     <use xlink:href="#DejaVuSans-Bold-69" transform="translate(175.048828 0)"/>
     <use xlink:href="#DejaVuSans-Bold-6e" transform="translate(209.326172 0)"/>
     <use xlink:href="#DejaVuSans-Bold-20" transform="translate(280.517578 0)"/>
     <use xlink:href="#DejaVuSans-Bold-52" transform="translate(315.332031 0)"/>
     <use xlink:href="#DejaVuSans-Bold-41" transform="translate(392.333984 0)"/>
     <use xlink:href="#DejaVuSans-Bold-47" transform="translate(469.726562 0)"/>
     <use xlink:href="#DejaVuSans-Bold-20" transform="translate(551.806641 0)"/>
     <use xlink:href="#DejaVuSans-Bold-50" transform="translate(586.621094 0)"/>
     <use xlink:href="#DejaVuSans-Bold-69" transform="translate(659.912109 0)"/>
     <use xlink:href="#DejaVuSans-Bold-70" transform="translate(694.189453 0)"/>
     <use xlink:href="#DejaVuSans-Bold-65" transform="translate(765.771484 0)"/>
     <use xlink:href="#DejaVuSans-Bold-6c" transform="translate(833.59375 0)"/>
     <use xlink:href="#DejaVuSans-Bold-69" transform="translate(867.871094 0)"/>
     <use xlink:href="#DejaVuSans-Bold-6e" transform="translate(902.148438 0)"/>
     <use xlink:href="#DejaVuSans-Bold-65" transform="translate(973.339844 0)"/>
    </g>
   </g>
   <g id="patch_12">
    <path d="M 356.472 154.011822 
C 358.728839 154.011822 360.893548 153.11517 362.489375 151.519344 
C 364.085201 149.923517 364.981853 147.758808 364.981853 145.501969 
C 364.981853 143.245129 364.085201 141.08042 362.489375 139.484594 
C 360.893548 137.888767 358.728839 136.992115 356.472 136.992115 
C 354.215161 136.992115 352.050452 137.888767 350.454625 139.484594 
C 348.858799 141.08042 347.962147 143.245129 347.962147 145.501969 
C 347.962147 147.758808 348.858799 149.923517 350.454625 151.519344 
C 352.050452 153.11517 354.215161 154.011822 356.472 154.011822 
z
" clip-path="url(#p89e23a477b)" style="fill: #D97706; stroke: #ffffff; stroke-width: 1.2; stroke-linejoin: miter"/>
   </g>
   <g id="patch_13">
    <path d="M 356.472 225.453453 
C 358.728839 225.453453 360.893548 224.556801 362.489375 222.960975 
C 364.085201 221.365148 364.981853 219.200439 364.981853 216.9436 
C 364.981853 214.68676 364.085201 212.522051 362.489375 210.926225 
C 360.893548 209.330398 358.728839 208.433746 356.472 208.433746 
C 354.215161 208.433746 352.050452 209.330398 350.454625 210.926225 
C 348.858799 212.522051 347.962147 214.68676 347.962147 216.9436 
C 347.962147 219.200439 348.858799 221.365148 350.454625 222.960975 
C 352.050452 224.556801 354.215161 225.453453 356.472 225.453453 
z
" clip-path="url(#p89e23a477b)" style="fill: #1D4ED8; stroke: #ffffff; stroke-width: 1.2; stroke-linejoin: miter"/>
   </g>
   <g id="patch_14">
    <path d="M 244.286182 154.011822 
C 246.543022 154.011822 248.707731 153.11517 250.303557 151.519344 
C 251.899384 149.923517 252.796036 147.758808 252.796036 145.501969 
C 252.796036 143.245129 251.899384 141.08042 250.303557 139.484594 
C 248.707731 137.888767 246.543022 136.992115 244.286182 136.992115 
C 242.029343 136.992115 239.864634 137.888767 238.268807 139.484594 
C 236.672981 141.08042 235.776329 143.245129 235.776329 145.501969 
C 235.776329 147.758808 236.672981 149.923517 238.268807 151.519344 
C 239.864634 153.11517 242.029343 154.011822 244.286182 154.011822 
z
" clip-path="url(#p89e23a477b)" style="fill: #1D4ED8; stroke: #ffffff; stroke-width: 1.2; stroke-linejoin: miter"/>
   </g>
   <g id="patch_15">
    <path d="M 281.154877 269.52215 
C 283.629795 269.52215 286.00368 268.538854 287.753712 266.788823 
C 289.503743 265.038792 290.487038 262.664906 290.487038 260.189988 
C 290.487038 257.71507 289.503743 255.341185 287.753712 253.591153 
C 286.00368 251.841122 283.629795 250.857826 281.154877 250.857826 
C 278.679958 250.857826 276.306073 251.841122 274.556042 253.591153 
C 272.80601 255.341185 271.822715 257.71507 271.822715 260.189988 
C 271.822715 262.664906 272.80601 265.038792 274.556042 266.788823 
C 276.306073 268.538854 278.679958 269.52215 281.154877 269.52215 
z
" clip-path="url(#p89e23a477b)" style="fill: #1D4ED8; stroke: #ffffff; stroke-width: 1.2; stroke-linejoin: miter"/>
   </g>
   <g id="patch_16">
    <path d="M 310.620459 386.859822 
C 312.877298 386.859822 315.042007 385.96317 316.637834 384.367344 
C 318.23366 382.771517 319.130312 380.606808 319.130312 378.349969 
C 319.130312 376.093129 318.23366 373.92842 316.637834 372.332594 
C 315.042007 370.736767 312.877298 369.840115 310.620459 369.840115 
C 308.363619 369.840115 306.19891 370.736767 304.603084 372.332594 
C 303.007257 373.92842 302.110605 376.093129 302.110605 378.349969 
C 302.110605 380.606808 303.007257 382.771517 304.603084 384.367344 
C 306.19891 385.96317 308.363619 386.859822 310.620459 386.859822 
z
" clip-path="url(#p89e23a477b)" style="fill: #1D4ED8; stroke: #ffffff; stroke-width: 1.2; stroke-linejoin: miter"/>
   </g>
   <g id="patch_17">
    <path d="M 200.749049 386.859822 
C 203.005889 386.859822 205.170598 385.96317 206.766424 384.367344 
C 208.362251 382.771517 209.258903 380.606808 209.258903 378.349969 
C 209.258903 376.093129 208.362251 373.92842 206.766424 372.332594 
C 205.170598 370.736767 203.005889 369.840115 200.749049 369.840115 
C 198.49221 369.840115 196.327501 370.736767 194.731674 372.332594 
C 193.135848 373.92842 192.239196 376.093129 192.239196 378.349969 
C 192.239196 380.606808 193.135848 382.771517 194.731674 384.367344 
C 196.327501 385.96317 198.49221 386.859822 200.749049 386.859822 
z
" clip-path="url(#p89e23a477b)" style="fill: #059669; stroke: #ffffff; stroke-width: 1.2; stroke-linejoin: miter"/>
   </g>
   <g id="patch_18">
    <path d="M 123.624 385.788169 
C 125.596634 385.788169 127.488739 385.004433 128.883602 383.60957 
C 130.278464 382.214708 131.0622 380.322602 131.0622 378.349969 
C 131.0622 376.377335 130.278464 374.48523 128.883602 373.090367 
C 127.488739 371.695504 125.596634 370.911769 123.624 370.911769 
C 121.651366 370.911769 119.759261 371.695504 118.364398 373.090367 
C 116.969536 374.48523 116.1858 376.377335 116.1858 378.349969 
C 116.1858 380.322602 116.969536 382.214708 118.364398 383.60957 
C 119.759261 385.004433 121.651366 385.788169 123.624 385.788169 
z
" clip-path="url(#p89e23a477b)" style="fill: #B91C1C; stroke: #ffffff; stroke-width: 1.2; stroke-linejoin: miter"/>
   </g>
   <g id="legend_1">
    <g id="patch_19">
     <path d="M 12.8 85.647969 
L 85.10875 85.647969 
Q 86.70875 85.647969 86.70875 84.047969 
L 86.70875 34.677969 
Q 86.70875 33.077969 85.10875 33.077969 
L 12.8 33.077969 
Q 11.2 33.077969 11.2 34.677969 
L 11.2 84.047969 
Q 11.2 85.647969 12.8 85.647969 
z
" style="fill: #ffffff; opacity: 0.9; stroke: #cccccc; stroke-linejoin: miter"/>
    </g>
    <g id="patch_20">
     <path d="M 16 43.956719 
L 32 43.956719 
L 32 38.356719 
L 16 38.356719 
z
" style="fill: #D97706; stroke: #D97706; stroke-linejoin: miter"/>
    </g>
    <g id="text_5">
     <!-- input -->
     <g transform="translate(38.4 43.956719) scale(0.08 -0.08)">
      <defs>
       <path id="DejaVuSans-69" d="M 603 3500 
L 1178 3500 
L 1178 0 
L 603 0 
L 603 3500 
z
M 603 4863 
L 1178 4863 
L 1178 4134 
L 603 4134 
L 603 4863 
z
" transform="scale(0.015625)"/>
       <path id="DejaVuSans-75" d="M 544 1381 
L 544 3500 
L 1119 3500 
L 1119 1403 
Q 1119 906 1312 657 
Q 1506 409 1894 409 
Q 2359 409 2629 706 
Q 2900 1003 2900 1516 
L 2900 3500 
L 3475 3500 
L 3475 0 
L 2900 0 
L 2900 538 
Q 2691 219 2414 64 
Q 2138 -91 1772 -91 
Q 1169 -91 856 284 
Q 544 659 544 1381 
z
M 1991 3584 
L 1991 3584 
z
" transform="scale(0.015625)"/>
      </defs>
      <use xlink:href="#DejaVuSans-69"/>
      <use xlink:href="#DejaVuSans-6e" transform="translate(27.783203 0)"/>
      <use xlink:href="#DejaVuSans-70" transform="translate(91.162109 0)"/>
      <use xlink:href="#DejaVuSans-75" transform="translate(154.638672 0)"/>
      <use xlink:href="#DejaVuSans-74" transform="translate(218.017578 0)"/>
     </g>
    </g>
    <g id="patch_21">
     <path d="M 16 55.699219 
L 32 55.699219 
L 32 50.099219 
L 16 50.099219 
z
" style="fill: #1D4ED8; stroke: #1D4ED8; stroke-linejoin: miter"/>
    </g>
    <g id="text_6">
     <!-- retrieval -->
     <g transform="translate(38.4 55.699219) scale(0.08 -0.08)">
      <defs>
       <path id="DejaVuSans-76" d="M 191 3500 
L 800 3500 
L 1894 563 
L 2988 3500 
L 3597 3500 
L 2284 0 
L 1503 0 
L 191 3500 
z
" transform="scale(0.015625)"/>
       <path id="DejaVuSans-6c" d="M 603 4863 
L 1178 4863 
L 1178 0 
L 603 0 
L 603 4863 
z
" transform="scale(0.015625)"/>
      </defs>
      <use xlink:href="#DejaVuSans-72"/>
      <use xlink:href="#DejaVuSans-65" transform="translate(38.863281 0)"/>
      <use xlink:href="#DejaVuSans-74" transform="translate(100.386719 0)"/>
      <use xlink:href="#DejaVuSans-72" transform="translate(139.595703 0)"/>
      <use xlink:href="#DejaVuSans-69" transform="translate(180.708984 0)"/>
      <use xlink:href="#DejaVuSans-65" transform="translate(208.492188 0)"/>
      <use xlink:href="#DejaVuSans-76" transform="translate(270.015625 0)"/>
      <use xlink:href="#DejaVuSans-61" transform="translate(329.195312 0)"/>
      <use xlink:href="#DejaVuSans-6c" transform="translate(390.474609 0)"/>
     </g>
    </g>
    <g id="patch_22">
     <path d="M 16 67.441719 
L 32 67.441719 
L 32 61.841719 
L 16 61.841719 
z
" style="fill: #059669; stroke: #059669; stroke-linejoin: miter"/>
    </g>
    <g id="text_7">
     <!-- generation -->
     <g transform="translate(38.4 67.441719) scale(0.08 -0.08)">
      <defs>
       <path id="DejaVuSans-67" d="M 2906 1791 
Q 2906 2416 2648 2759 
Q 2391 3103 1925 3103 
Q 1463 3103 1205 2759 
Q 947 2416 947 1791 
Q 947 1169 1205 825 
Q 1463 481 1925 481 
Q 2391 481 2648 825 
Q 2906 1169 2906 1791 
z
M 3481 434 
Q 3481 -459 3084 -895 
Q 2688 -1331 1869 -1331 
Q 1566 -1331 1297 -1286 
Q 1028 -1241 775 -1147 
L 775 -588 
Q 1028 -725 1275 -790 
Q 1522 -856 1778 -856 
Q 2344 -856 2625 -561 
Q 2906 -266 2906 331 
L 2906 616 
Q 2728 306 2450 153 
Q 2172 0 1784 0 
Q 1141 0 747 490 
Q 353 981 353 1791 
Q 353 2603 747 3093 
Q 1141 3584 1784 3584 
Q 2172 3584 2450 3431 
Q 2728 3278 2906 2969 
L 2906 3500 
L 3481 3500 
L 3481 434 
z
" transform="scale(0.015625)"/>
      </defs>
      <use xlink:href="#DejaVuSans-67"/>
      <use xlink:href="#DejaVuSans-65" transform="translate(63.476562 0)"/>
      <use xlink:href="#DejaVuSans-6e" transform="translate(125 0)"/>
      <use xlink:href="#DejaVuSans-65" transform="translate(188.378906 0)"/>
      <use xlink:href="#DejaVuSans-72" transform="translate(249.902344 0)"/>
      <use xlink:href="#DejaVuSans-61" transform="translate(291.015625 0)"/>
      <use xlink:href="#DejaVuSans-74" transform="translate(352.294922 0)"/>
      <use xlink:href="#DejaVuSans-69" transform="translate(391.503906 0)"/>
      <use xlink:href="#DejaVuSans-6f" transform="translate(419.287109 0)"/>
      <use xlink:href="#DejaVuSans-6e" transform="translate(480.46875 0)"/>
     </g>
    </g>
    <g id="patch_23">
     <path d="M 16 79.184219 
L 32 79.184219 
L 32 73.584219 
L 16 73.584219 
z
" style="fill: #B91C1C; stroke: #B91C1C; stroke-linejoin: miter"/>
    </g>
    <g id="text_8">
     <!-- output -->
     <g transform="translate(38.4 79.184219) scale(0.08 -0.08)">
      <use xlink:href="#DejaVuSans-6f"/>
      <use xlink:href="#DejaVuSans-75" transform="translate(61.181641 0)"/>
      <use xlink:href="#DejaVuSans-74" transform="translate(124.560547 0)"/>
      <use xlink:href="#DejaVuSans-70" transform="translate(163.769531 0)"/>
      <use xlink:href="#DejaVuSans-75" transform="translate(227.246094 0)"/>
      <use xlink:href="#DejaVuSans-74" transform="translate(290.625 0)"/>
     </g>
    </g>
   </g>
   <g id="text_9">
    <g id="patch_24">
     <path d="M 365.457867 133.769794 
L 388.252007 133.769794 
Q 389.302007 133.769794 389.302007 132.719794 
L 389.302007 125.4612 
Q 389.302007 124.4112 388.252007 124.4112 
L 365.457867 124.4112 
Q 364.407867 124.4112 364.407867 125.4612 
L 364.407867 132.719794 
Q 364.407867 133.769794 365.457867 133.769794 
z
" style="fill: #ffffff; opacity: 0.88"/>
    </g>
    <!-- Query -->
    <g style="fill: #212529" transform="translate(365.457867 131.160028) scale(0.075 -0.075)">
     <defs>
      <path id="DejaVuSans-51" d="M 2522 4238 
Q 1834 4238 1429 3725 
Q 1025 3213 1025 2328 
Q 1025 1447 1429 934 
Q 1834 422 2522 422 
Q 3209 422 3611 934 
Q 4013 1447 4013 2328 
Q 4013 3213 3611 3725 
Q 3209 4238 2522 4238 
z
M 3406 84 
L 4238 -825 
L 3475 -825 
L 2784 -78 
Q 2681 -84 2626 -87 
Q 2572 -91 2522 -91 
Q 1538 -91 948 567 
Q 359 1225 359 2328 
Q 359 3434 948 4092 
Q 1538 4750 2522 4750 
Q 3503 4750 4090 4092 
Q 4678 3434 4678 2328 
Q 4678 1516 4351 937 
Q 4025 359 3406 84 
z
" transform="scale(0.015625)"/>
      <path id="DejaVuSans-79" d="M 2059 -325 
Q 1816 -950 1584 -1140 
Q 1353 -1331 966 -1331 
L 506 -1331 
L 506 -850 
L 844 -850 
Q 1081 -850 1212 -737 
Q 1344 -625 1503 -206 
L 1606 56 
L 191 3500 
L 800 3500 
L 1894 763 
L 2988 3500 
L 3597 3500 
L 2059 -325 
z
" transform="scale(0.015625)"/>
     </defs>
     <use xlink:href="#DejaVuSans-51"/>
     <use xlink:href="#DejaVuSans-75" transform="translate(78.710938 0)"/>
     <use xlink:href="#DejaVuSans-65" transform="translate(142.089844 0)"/>
     <use xlink:href="#DejaVuSans-72" transform="translate(203.613281 0)"/>
     <use xlink:href="#DejaVuSans-79" transform="translate(244.726562 0)"/>
    </g>
   </g>
   <g id="text_10">
    <g id="patch_25">
     <path d="M 369.761106 209.775968 
L 445.596652 209.775968 
Q 446.646652 209.775968 446.646652 208.725968 
L 446.646652 194.493722 
Q 446.646652 193.443722 445.596652 193.443722 
L 369.761106 193.443722 
Q 368.711106 193.443722 368.711106 194.493722 
L 368.711106 208.725968 
Q 368.711106 209.775968 369.761106 209.775968 
z
" style="fill: #ffffff; opacity: 0.88"/>
    </g>
    <!-- Embed Query (multi -->
    <g style="fill: #212529" transform="translate(369.761106 200.19255) scale(0.075 -0.075)">
     <defs>
      <path id="DejaVuSans-45" d="M 628 4666 
L 3578 4666 
L 3578 4134 
L 1259 4134 
L 1259 2753 
L 3481 2753 
L 3481 2222 
L 1259 2222 
L 1259 531 
L 3634 531 
L 3634 0 
L 628 0 
L 628 4666 
z
" transform="scale(0.015625)"/>
      <path id="DejaVuSans-6d" d="M 3328 2828 
Q 3544 3216 3844 3400 
Q 4144 3584 4550 3584 
Q 5097 3584 5394 3201 
Q 5691 2819 5691 2113 
L 5691 0 
L 5113 0 
L 5113 2094 
Q 5113 2597 4934 2840 
Q 4756 3084 4391 3084 
Q 3944 3084 3684 2787 
Q 3425 2491 3425 1978 
L 3425 0 
L 2847 0 
L 2847 2094 
Q 2847 2600 2669 2842 
Q 2491 3084 2119 3084 
Q 1678 3084 1418 2786 
Q 1159 2488 1159 1978 
L 1159 0 
L 581 0 
L 581 3500 
L 1159 3500 
L 1159 2956 
Q 1356 3278 1631 3431 
Q 1906 3584 2284 3584 
Q 2666 3584 2933 3390 
Q 3200 3197 3328 2828 
z
" transform="scale(0.015625)"/>
      <path id="DejaVuSans-62" d="M 3116 1747 
Q 3116 2381 2855 2742 
Q 2594 3103 2138 3103 
Q 1681 3103 1420 2742 
Q 1159 2381 1159 1747 
Q 1159 1113 1420 752 
Q 1681 391 2138 391 
Q 2594 391 2855 752 
Q 3116 1113 3116 1747 
z
M 1159 2969 
Q 1341 3281 1617 3432 
Q 1894 3584 2278 3584 
Q 2916 3584 3314 3078 
Q 3713 2572 3713 1747 
Q 3713 922 3314 415 
Q 2916 -91 2278 -91 
Q 1894 -91 1617 61 
Q 1341 213 1159 525 
L 1159 0 
L 581 0 
L 581 4863 
L 1159 4863 
L 1159 2969 
z
" transform="scale(0.015625)"/>
      <path id="DejaVuSans-28" d="M 1984 4856 
Q 1566 4138 1362 3434 
Q 1159 2731 1159 2009 
Q 1159 1288 1364 580 
Q 1569 -128 1984 -844 
L 1484 -844 
Q 1016 -109 783 600 
Q 550 1309 550 2009 
Q 550 2706 781 3412 
Q 1013 4119 1484 4856 
L 1984 4856 
z
" transform="scale(0.015625)"/>
     </defs>
     <use xlink:href="#DejaVuSans-45"/>
     <use xlink:href="#DejaVuSans-6d" transform="translate(63.183594 0)"/>
     <use xlink:href="#DejaVuSans-62" transform="translate(160.595703 0)"/>
     <use xlink:href="#DejaVuSans-65" transform="translate(224.072266 0)"/>
     <use xlink:href="#DejaVuSans-64" transform="translate(285.595703 0)"/>
     <use xlink:href="#DejaVuSans-20" transform="translate(349.072266 0)"/>
     <use xlink:href="#DejaVuSans-51" transform="translate(380.859375 0)"/>
     <use xlink:href="#DejaVuSans-75" transform="translate(459.570312 0)"/>
     <use xlink:href="#DejaVuSans-65" transform="translate(522.949219 0)"/>
     <use xlink:href="#DejaVuSans-72" transform="translate(584.472656 0)"/>
     <use xlink:href="#DejaVuSans-79" transform="translate(625.585938 0)"/>
     <use xlink:href="#DejaVuSans-20" transform="translate(684.765625 0)"/>
     <use xlink:href="#DejaVuSans-28" transform="translate(716.552734 0)"/>
     <use xlink:href="#DejaVuSans-6d" transform="translate(755.566406 0)"/>
     <use xlink:href="#DejaVuSans-75" transform="translate(852.978516 0)"/>
     <use xlink:href="#DejaVuSans-6c" transform="translate(916.357422 0)"/>
     <use xlink:href="#DejaVuSans-74" transform="translate(944.140625 0)"/>
     <use xlink:href="#DejaVuSans-69" transform="translate(983.349609 0)"/>
    </g>
    <!-- lingual-e5-small) -->
    <g style="fill: #212529" transform="translate(369.761106 207.166203) scale(0.075 -0.075)">
     <defs>
      <path id="DejaVuSans-2d" d="M 313 2009 
L 1997 2009 
L 1997 1497 
L 313 1497 
L 313 2009 
z
" transform="scale(0.015625)"/>
      <path id="DejaVuSans-35" d="M 691 4666 
L 3169 4666 
L 3169 4134 
L 1269 4134 
L 1269 2991 
Q 1406 3038 1543 3061 
Q 1681 3084 1819 3084 
Q 2600 3084 3056 2656 
Q 3513 2228 3513 1497 
Q 3513 744 3044 326 
Q 2575 -91 1722 -91 
Q 1428 -91 1123 -41 
Q 819 9 494 109 
L 494 744 
Q 775 591 1075 516 
Q 1375 441 1709 441 
Q 2250 441 2565 725 
Q 2881 1009 2881 1497 
Q 2881 1984 2565 2268 
Q 2250 2553 1709 2553 
Q 1456 2553 1204 2497 
Q 953 2441 691 2322 
L 691 4666 
z
" transform="scale(0.015625)"/>
      <path id="DejaVuSans-29" d="M 513 4856 
L 1013 4856 
Q 1481 4119 1714 3412 
Q 1947 2706 1947 2009 
Q 1947 1309 1714 600 
Q 1481 -109 1013 -844 
L 513 -844 
Q 928 -128 1133 580 
Q 1338 1288 1338 2009 
Q 1338 2731 1133 3434 
Q 928 4138 513 4856 
z
" transform="scale(0.015625)"/>
     </defs>
     <use xlink:href="#DejaVuSans-6c"/>
     <use xlink:href="#DejaVuSans-69" transform="translate(27.783203 0)"/>
     <use xlink:href="#DejaVuSans-6e" transform="translate(55.566406 0)"/>
     <use xlink:href="#DejaVuSans-67" transform="translate(118.945312 0)"/>
     <use xlink:href="#DejaVuSans-75" transform="translate(182.421875 0)"/>
     <use xlink:href="#DejaVuSans-61" transform="translate(245.800781 0)"/>
     <use xlink:href="#DejaVuSans-6c" transform="translate(307.080078 0)"/>
     <use xlink:href="#DejaVuSans-2d" transform="translate(334.863281 0)"/>
     <use xlink:href="#DejaVuSans-65" transform="translate(370.947266 0)"/>
     <use xlink:href="#DejaVuSans-35" transform="translate(432.470703 0)"/>
     <use xlink:href="#DejaVuSans-2d" transform="translate(496.09375 0)"/>
     <use xlink:href="#DejaVuSans-73" transform="translate(532.177734 0)"/>
     <use xlink:href="#DejaVuSans-6d" transform="translate(584.277344 0)"/>
     <use xlink:href="#DejaVuSans-61" transform="translate(681.689453 0)"/>
     <use xlink:href="#DejaVuSans-6c" transform="translate(742.96875 0)"/>
     <use xlink:href="#DejaVuSans-6c" transform="translate(770.751953 0)"/>
     <use xlink:href="#DejaVuSans-29" transform="translate(798.535156 0)"/>
    </g>
   </g>
   <g id="text_11">
    <g id="patch_26">
     <path d="M 201.966484 131.187121 
L 280.930937 131.187121 
Q 281.980937 131.187121 281.980937 130.137121 
L 281.980937 122.878527 
Q 281.980937 121.828527 280.930937 121.828527 
L 201.966484 121.828527 
Q 200.916484 121.828527 200.916484 122.878527 
L 200.916484 130.137121 
Q 200.916484 131.187121 201.966484 131.187121 
z
" style="fill: #ffffff; opacity: 0.88"/>
    </g>
    <!-- BM25 Keyword Score -->
    <g style="fill: #212529" transform="translate(201.966484 128.577355) scale(0.075 -0.075)">
     <defs>
      <path id="DejaVuSans-42" d="M 1259 2228 
L 1259 519 
L 2272 519 
Q 2781 519 3026 730 
Q 3272 941 3272 1375 
Q 3272 1813 3026 2020 
Q 2781 2228 2272 2228 
L 1259 2228 
z
M 1259 4147 
L 1259 2741 
L 2194 2741 
Q 2656 2741 2882 2914 
Q 3109 3088 3109 3444 
Q 3109 3797 2882 3972 
Q 2656 4147 2194 4147 
L 1259 4147 
z
M 628 4666 
L 2241 4666 
Q 2963 4666 3353 4366 
Q 3744 4066 3744 3513 
Q 3744 3084 3544 2831 
Q 3344 2578 2956 2516 
Q 3422 2416 3680 2098 
Q 3938 1781 3938 1306 
Q 3938 681 3513 340 
Q 3088 0 2303 0 
L 628 0 
L 628 4666 
z
" transform="scale(0.015625)"/>
      <path id="DejaVuSans-4d" d="M 628 4666 
L 1569 4666 
L 2759 1491 
L 3956 4666 
L 4897 4666 
L 4897 0 
L 4281 0 
L 4281 4097 
L 3078 897 
L 2444 897 
L 1241 4097 
L 1241 0 
L 628 0 
L 628 4666 
z
" transform="scale(0.015625)"/>
      <path id="DejaVuSans-32" d="M 1228 531 
L 3431 531 
L 3431 0 
L 469 0 
L 469 531 
Q 828 903 1448 1529 
Q 2069 2156 2228 2338 
Q 2531 2678 2651 2914 
Q 2772 3150 2772 3378 
Q 2772 3750 2511 3984 
Q 2250 4219 1831 4219 
Q 1534 4219 1204 4116 
Q 875 4013 500 3803 
L 500 4441 
Q 881 4594 1212 4672 
Q 1544 4750 1819 4750 
Q 2544 4750 2975 4387 
Q 3406 4025 3406 3419 
Q 3406 3131 3298 2873 
Q 3191 2616 2906 2266 
Q 2828 2175 2409 1742 
Q 1991 1309 1228 531 
z
" transform="scale(0.015625)"/>
      <path id="DejaVuSans-4b" d="M 628 4666 
L 1259 4666 
L 1259 2694 
L 3353 4666 
L 4166 4666 
L 1850 2491 
L 4331 0 
L 3500 0 
L 1259 2247 
L 1259 0 
L 628 0 
L 628 4666 
z
" transform="scale(0.015625)"/>
      <path id="DejaVuSans-77" d="M 269 3500 
L 844 3500 
L 1563 769 
L 2278 3500 
L 2956 3500 
L 3675 769 
L 4391 3500 
L 4966 3500 
L 4050 0 
L 3372 0 
L 2619 2869 
L 1863 0 
L 1184 0 
L 269 3500 
z
" transform="scale(0.015625)"/>
      <path id="DejaVuSans-53" d="M 3425 4513 
L 3425 3897 
Q 3066 4069 2747 4153 
Q 2428 4238 2131 4238 
Q 1616 4238 1336 4038 
Q 1056 3838 1056 3469 
Q 1056 3159 1242 3001 
Q 1428 2844 1947 2747 
L 2328 2669 
Q 3034 2534 3370 2195 
Q 3706 1856 3706 1288 
Q 3706 609 3251 259 
Q 2797 -91 1919 -91 
Q 1588 -91 1214 -16 
Q 841 59 441 206 
L 441 856 
Q 825 641 1194 531 
Q 1563 422 1919 422 
Q 2459 422 2753 634 
Q 3047 847 3047 1241 
Q 3047 1584 2836 1778 
Q 2625 1972 2144 2069 
L 1759 2144 
Q 1053 2284 737 2584 
Q 422 2884 422 3419 
Q 422 4038 858 4394 
Q 1294 4750 2059 4750 
Q 2388 4750 2728 4690 
Q 3069 4631 3425 4513 
z
" transform="scale(0.015625)"/>
     </defs>
     <use xlink:href="#DejaVuSans-42"/>
     <use xlink:href="#DejaVuSans-4d" transform="translate(68.603516 0)"/>
     <use xlink:href="#DejaVuSans-32" transform="translate(154.882812 0)"/>
     <use xlink:href="#DejaVuSans-35" transform="translate(218.505859 0)"/>
     <use xlink:href="#DejaVuSans-20" transform="translate(282.128906 0)"/>
     <use xlink:href="#DejaVuSans-4b" transform="translate(313.916016 0)"/>
     <use xlink:href="#DejaVuSans-65" transform="translate(374.492188 0)"/>
     <use xlink:href="#DejaVuSans-79" transform="translate(436.015625 0)"/>
     <use xlink:href="#DejaVuSans-77" transform="translate(495.195312 0)"/>
     <use xlink:href="#DejaVuSans-6f" transform="translate(576.982422 0)"/>
     <use xlink:href="#DejaVuSans-72" transform="translate(638.164062 0)"/>
     <use xlink:href="#DejaVuSans-64" transform="translate(677.527344 0)"/>
     <use xlink:href="#DejaVuSans-20" transform="translate(741.003906 0)"/>
     <use xlink:href="#DejaVuSans-53" transform="translate(772.791016 0)"/>
     <use xlink:href="#DejaVuSans-63" transform="translate(836.267578 0)"/>
     <use xlink:href="#DejaVuSans-6f" transform="translate(891.248047 0)"/>
     <use xlink:href="#DejaVuSans-72" transform="translate(952.429688 0)"/>
     <use xlink:href="#DejaVuSans-65" transform="translate(991.292969 0)"/>
    </g>
   </g>
   <g id="text_12">
    <g id="patch_27">
     <path d="M 242.733197 291.919196 
L 319.576556 291.919196 
Q 320.626556 291.919196 320.626556 290.869196 
L 320.626556 276.63695 
Q 320.626556 275.58695 319.576556 275.58695 
L 242.733197 275.58695 
Q 241.683197 275.58695 241.683197 276.63695 
L 241.683197 290.869196 
Q 241.683197 291.919196 242.733197 291.919196 
z
" style="fill: #ffffff; opacity: 0.88"/>
    </g>
    <!-- Score Fusion (65% -->
    <g style="fill: #212529" transform="translate(246.477924 282.335778) scale(0.075 -0.075)">
     <defs>
      <path id="DejaVuSans-46" d="M 628 4666 
L 3309 4666 
L 3309 4134 
L 1259 4134 
L 1259 2759 
L 3109 2759 
L 3109 2228 
L 1259 2228 
L 1259 0 
L 628 0 
L 628 4666 
z
" transform="scale(0.015625)"/>
      <path id="DejaVuSans-36" d="M 2113 2584 
Q 1688 2584 1439 2293 
Q 1191 2003 1191 1497 
Q 1191 994 1439 701 
Q 1688 409 2113 409 
Q 2538 409 2786 701 
Q 3034 994 3034 1497 
Q 3034 2003 2786 2293 
Q 2538 2584 2113 2584 
z
M 3366 4563 
L 3366 3988 
Q 3128 4100 2886 4159 
Q 2644 4219 2406 4219 
Q 1781 4219 1451 3797 
Q 1122 3375 1075 2522 
Q 1259 2794 1537 2939 
Q 1816 3084 2150 3084 
Q 2853 3084 3261 2657 
Q 3669 2231 3669 1497 
Q 3669 778 3244 343 
Q 2819 -91 2113 -91 
Q 1303 -91 875 529 
Q 447 1150 447 2328 
Q 447 3434 972 4092 
Q 1497 4750 2381 4750 
Q 2619 4750 2861 4703 
Q 3103 4656 3366 4563 
z
" transform="scale(0.015625)"/>
      <path id="DejaVuSans-25" d="M 4653 2053 
Q 4381 2053 4226 1822 
Q 4072 1591 4072 1178 
Q 4072 772 4226 539 
Q 4381 306 4653 306 
Q 4919 306 5073 539 
Q 5228 772 5228 1178 
Q 5228 1588 5073 1820 
Q 4919 2053 4653 2053 
z
M 4653 2450 
Q 5147 2450 5437 2106 
Q 5728 1763 5728 1178 
Q 5728 594 5436 251 
Q 5144 -91 4653 -91 
Q 4153 -91 3862 251 
Q 3572 594 3572 1178 
Q 3572 1766 3864 2108 
Q 4156 2450 4653 2450 
z
M 1428 4353 
Q 1159 4353 1004 4120 
Q 850 3888 850 3481 
Q 850 3069 1003 2837 
Q 1156 2606 1428 2606 
Q 1700 2606 1854 2837 
Q 2009 3069 2009 3481 
Q 2009 3884 1853 4118 
Q 1697 4353 1428 4353 
z
M 4250 4750 
L 4750 4750 
L 1831 -91 
L 1331 -91 
L 4250 4750 
z
M 1428 4750 
Q 1922 4750 2215 4408 
Q 2509 4066 2509 3481 
Q 2509 2891 2217 2550 
Q 1925 2209 1428 2209 
Q 931 2209 642 2551 
Q 353 2894 353 3481 
Q 353 4063 643 4406 
Q 934 4750 1428 4750 
z
" transform="scale(0.015625)"/>
     </defs>
     <use xlink:href="#DejaVuSans-53"/>
     <use xlink:href="#DejaVuSans-63" transform="translate(63.476562 0)"/>
     <use xlink:href="#DejaVuSans-6f" transform="translate(118.457031 0)"/>
     <use xlink:href="#DejaVuSans-72" transform="translate(179.638672 0)"/>
     <use xlink:href="#DejaVuSans-65" transform="translate(218.501953 0)"/>
     <use xlink:href="#DejaVuSans-20" transform="translate(280.025391 0)"/>
     <use xlink:href="#DejaVuSans-46" transform="translate(311.8125 0)"/>
     <use xlink:href="#DejaVuSans-75" transform="translate(363.832031 0)"/>
     <use xlink:href="#DejaVuSans-73" transform="translate(427.210938 0)"/>
     <use xlink:href="#DejaVuSans-69" transform="translate(479.310547 0)"/>
     <use xlink:href="#DejaVuSans-6f" transform="translate(507.09375 0)"/>
     <use xlink:href="#DejaVuSans-6e" transform="translate(568.275391 0)"/>
     <use xlink:href="#DejaVuSans-20" transform="translate(631.654297 0)"/>
     <use xlink:href="#DejaVuSans-28" transform="translate(663.441406 0)"/>
     <use xlink:href="#DejaVuSans-36" transform="translate(702.455078 0)"/>
     <use xlink:href="#DejaVuSans-35" transform="translate(766.078125 0)"/>
     <use xlink:href="#DejaVuSans-25" transform="translate(829.701172 0)"/>
    </g>
    <!-- dense + 35% BM25) -->
    <g style="fill: #212529" transform="translate(242.733197 289.30943) scale(0.075 -0.075)">
     <defs>
      <path id="DejaVuSans-2b" d="M 2944 4013 
L 2944 2272 
L 4684 2272 
L 4684 1741 
L 2944 1741 
L 2944 0 
L 2419 0 
L 2419 1741 
L 678 1741 
L 678 2272 
L 2419 2272 
L 2419 4013 
L 2944 4013 
z
" transform="scale(0.015625)"/>
      <path id="DejaVuSans-33" d="M 2597 2516 
Q 3050 2419 3304 2112 
Q 3559 1806 3559 1356 
Q 3559 666 3084 287 
Q 2609 -91 1734 -91 
Q 1441 -91 1130 -33 
Q 819 25 488 141 
L 488 750 
Q 750 597 1062 519 
Q 1375 441 1716 441 
Q 2309 441 2620 675 
Q 2931 909 2931 1356 
Q 2931 1769 2642 2001 
Q 2353 2234 1838 2234 
L 1294 2234 
L 1294 2753 
L 1863 2753 
Q 2328 2753 2575 2939 
Q 2822 3125 2822 3475 
Q 2822 3834 2567 4026 
Q 2313 4219 1838 4219 
Q 1578 4219 1281 4162 
Q 984 4106 628 3988 
L 628 4550 
Q 988 4650 1302 4700 
Q 1616 4750 1894 4750 
Q 2613 4750 3031 4423 
Q 3450 4097 3450 3541 
Q 3450 3153 3228 2886 
Q 3006 2619 2597 2516 
z
" transform="scale(0.015625)"/>
     </defs>
     <use xlink:href="#DejaVuSans-64"/>
     <use xlink:href="#DejaVuSans-65" transform="translate(63.476562 0)"/>
     <use xlink:href="#DejaVuSans-6e" transform="translate(125 0)"/>
     <use xlink:href="#DejaVuSans-73" transform="translate(188.378906 0)"/>
     <use xlink:href="#DejaVuSans-65" transform="translate(240.478516 0)"/>
     <use xlink:href="#DejaVuSans-20" transform="translate(302.001953 0)"/>
     <use xlink:href="#DejaVuSans-2b" transform="translate(333.789062 0)"/>
     <use xlink:href="#DejaVuSans-20" transform="translate(417.578125 0)"/>
     <use xlink:href="#DejaVuSans-33" transform="translate(449.365234 0)"/>
     <use xlink:href="#DejaVuSans-35" transform="translate(512.988281 0)"/>
     <use xlink:href="#DejaVuSans-25" transform="translate(576.611328 0)"/>
     <use xlink:href="#DejaVuSans-20" transform="translate(671.630859 0)"/>
     <use xlink:href="#DejaVuSans-42" transform="translate(703.417969 0)"/>
     <use xlink:href="#DejaVuSans-4d" transform="translate(772.021484 0)"/>
     <use xlink:href="#DejaVuSans-32" transform="translate(858.300781 0)"/>
     <use xlink:href="#DejaVuSans-35" transform="translate(921.923828 0)"/>
     <use xlink:href="#DejaVuSans-29" transform="translate(985.546875 0)"/>
    </g>
   </g>
   <g id="text_13">
    <g id="patch_28">
     <path d="M 316.471202 401.14644 
L 390.517296 401.14644 
Q 391.567296 401.14644 391.567296 400.09644 
L 391.567296 392.837846 
Q 391.567296 391.787846 390.517296 391.787846 
L 316.471202 391.787846 
Q 315.421202 391.787846 315.421202 392.837846 
L 315.421202 400.09644 
Q 315.421202 401.14644 316.471202 401.14644 
z
" style="fill: #ffffff; opacity: 0.88"/>
    </g>
    <!-- Top-K Chunks (k=5) -->
    <g style="fill: #212529" transform="translate(316.471202 398.536674) scale(0.075 -0.075)">
     <defs>
      <path id="DejaVuSans-54" d="M -19 4666 
L 3928 4666 
L 3928 4134 
L 2272 4134 
L 2272 0 
L 1638 0 
L 1638 4134 
L -19 4134 
L -19 4666 
z
" transform="scale(0.015625)"/>
      <path id="DejaVuSans-43" d="M 4122 4306 
L 4122 3641 
Q 3803 3938 3442 4084 
Q 3081 4231 2675 4231 
Q 1875 4231 1450 3742 
Q 1025 3253 1025 2328 
Q 1025 1406 1450 917 
Q 1875 428 2675 428 
Q 3081 428 3442 575 
Q 3803 722 4122 1019 
L 4122 359 
Q 3791 134 3420 21 
Q 3050 -91 2638 -91 
Q 1578 -91 968 557 
Q 359 1206 359 2328 
Q 359 3453 968 4101 
Q 1578 4750 2638 4750 
Q 3056 4750 3426 4639 
Q 3797 4528 4122 4306 
z
" transform="scale(0.015625)"/>
      <path id="DejaVuSans-68" d="M 3513 2113 
L 3513 0 
L 2938 0 
L 2938 2094 
Q 2938 2591 2744 2837 
Q 2550 3084 2163 3084 
Q 1697 3084 1428 2787 
Q 1159 2491 1159 1978 
L 1159 0 
L 581 0 
L 581 4863 
L 1159 4863 
L 1159 2956 
Q 1366 3272 1645 3428 
Q 1925 3584 2291 3584 
Q 2894 3584 3203 3211 
Q 3513 2838 3513 2113 
z
" transform="scale(0.015625)"/>
      <path id="DejaVuSans-6b" d="M 581 4863 
L 1159 4863 
L 1159 1991 
L 2875 3500 
L 3609 3500 
L 1753 1863 
L 3688 0 
L 2938 0 
L 1159 1709 
L 1159 0 
L 581 0 
L 581 4863 
z
" transform="scale(0.015625)"/>
      <path id="DejaVuSans-3d" d="M 678 2906 
L 4684 2906 
L 4684 2381 
L 678 2381 
L 678 2906 
z
M 678 1631 
L 4684 1631 
L 4684 1100 
L 678 1100 
L 678 1631 
z
" transform="scale(0.015625)"/>
     </defs>
     <use xlink:href="#DejaVuSans-54"/>
     <use xlink:href="#DejaVuSans-6f" transform="translate(44.083984 0)"/>
     <use xlink:href="#DejaVuSans-70" transform="translate(105.265625 0)"/>
     <use xlink:href="#DejaVuSans-2d" transform="translate(168.742188 0)"/>
     <use xlink:href="#DejaVuSans-4b" transform="translate(204.826172 0)"/>
     <use xlink:href="#DejaVuSans-20" transform="translate(270.402344 0)"/>
     <use xlink:href="#DejaVuSans-43" transform="translate(302.189453 0)"/>
     <use xlink:href="#DejaVuSans-68" transform="translate(372.013672 0)"/>
     <use xlink:href="#DejaVuSans-75" transform="translate(435.392578 0)"/>
     <use xlink:href="#DejaVuSans-6e" transform="translate(498.771484 0)"/>
     <use xlink:href="#DejaVuSans-6b" transform="translate(562.150391 0)"/>
     <use xlink:href="#DejaVuSans-73" transform="translate(620.060547 0)"/>
     <use xlink:href="#DejaVuSans-20" transform="translate(672.160156 0)"/>
     <use xlink:href="#DejaVuSans-28" transform="translate(703.947266 0)"/>
     <use xlink:href="#DejaVuSans-6b" transform="translate(742.960938 0)"/>
     <use xlink:href="#DejaVuSans-3d" transform="translate(800.871094 0)"/>
     <use xlink:href="#DejaVuSans-35" transform="translate(884.660156 0)"/>
     <use xlink:href="#DejaVuSans-29" transform="translate(948.283203 0)"/>
    </g>
   </g>
   <g id="text_14">
    <g id="patch_29">
     <path d="M 144.660724 406.86314 
L 192.438067 406.86314 
Q 193.488067 406.86314 193.488067 405.81314 
L 193.488067 391.580894 
Q 193.488067 390.530894 192.438067 390.530894 
L 144.660724 390.530894 
Q 143.610724 390.530894 143.610724 391.580894 
L 143.610724 405.81314 
Q 143.610724 406.86314 144.660724 406.86314 
z
" style="fill: #ffffff; opacity: 0.88"/>
    </g>
    <!-- LLM (claude- -->
    <g style="fill: #212529" transform="translate(144.660724 397.279722) scale(0.075 -0.075)">
     <defs>
      <path id="DejaVuSans-4c" d="M 628 4666 
L 1259 4666 
L 1259 531 
L 3531 531 
L 3531 0 
L 628 0 
L 628 4666 
z
" transform="scale(0.015625)"/>
     </defs>
     <use xlink:href="#DejaVuSans-4c"/>
     <use xlink:href="#DejaVuSans-4c" transform="translate(55.712891 0)"/>
     <use xlink:href="#DejaVuSans-4d" transform="translate(111.425781 0)"/>
     <use xlink:href="#DejaVuSans-20" transform="translate(197.705078 0)"/>
     <use xlink:href="#DejaVuSans-28" transform="translate(229.492188 0)"/>
     <use xlink:href="#DejaVuSans-63" transform="translate(268.505859 0)"/>
     <use xlink:href="#DejaVuSans-6c" transform="translate(323.486328 0)"/>
     <use xlink:href="#DejaVuSans-61" transform="translate(351.269531 0)"/>
     <use xlink:href="#DejaVuSans-75" transform="translate(412.548828 0)"/>
     <use xlink:href="#DejaVuSans-64" transform="translate(475.927734 0)"/>
     <use xlink:href="#DejaVuSans-65" transform="translate(539.404297 0)"/>
     <use xlink:href="#DejaVuSans-2d" transform="translate(600.927734 0)"/>
    </g>
    <!-- sonnet-4-6) -->
    <g style="fill: #212529" transform="translate(148.999005 404.253374) scale(0.075 -0.075)">
     <defs>
      <path id="DejaVuSans-34" d="M 2419 4116 
L 825 1625 
L 2419 1625 
L 2419 4116 
z
M 2253 4666 
L 3047 4666 
L 3047 1625 
L 3713 1625 
L 3713 1100 
L 3047 1100 
L 3047 0 
L 2419 0 
L 2419 1100 
L 313 1100 
L 313 1709 
L 2253 4666 
z
" transform="scale(0.015625)"/>
     </defs>
     <use xlink:href="#DejaVuSans-73"/>
     <use xlink:href="#DejaVuSans-6f" transform="translate(52.099609 0)"/>
     <use xlink:href="#DejaVuSans-6e" transform="translate(113.28125 0)"/>
     <use xlink:href="#DejaVuSans-6e" transform="translate(176.660156 0)"/>
     <use xlink:href="#DejaVuSans-65" transform="translate(240.039062 0)"/>
     <use xlink:href="#DejaVuSans-74" transform="translate(301.5625 0)"/>
     <use xlink:href="#DejaVuSans-2d" transform="translate(340.771484 0)"/>
     <use xlink:href="#DejaVuSans-34" transform="translate(376.855469 0)"/>
     <use xlink:href="#DejaVuSans-2d" transform="translate(440.478516 0)"/>
     <use xlink:href="#DejaVuSans-36" transform="translate(476.5625 0)"/>
     <use xlink:href="#DejaVuSans-29" transform="translate(540.185547 0)"/>
    </g>
   </g>
   <g id="text_15">
    <g id="patch_30">
     <path d="M 57.539965 395.31032 
L 111.921996 395.31032 
Q 112.971996 395.31032 112.971996 394.26032 
L 112.971996 387.001726 
Q 112.971996 385.951726 111.921996 385.951726 
L 57.539965 385.951726 
Q 56.489965 385.951726 56.489965 387.001726 
L 56.489965 394.26032 
Q 56.489965 395.31032 57.539965 395.31032 
z
" style="fill: #ffffff; opacity: 0.88"/>
    </g>
    <!-- Answer (cited) -->
    <g style="fill: #212529" transform="translate(57.539965 392.700554) scale(0.075 -0.075)">
     <defs>
      <path id="DejaVuSans-41" d="M 2188 4044 
L 1331 1722 
L 3047 1722 
L 2188 4044 
z
M 1831 4666 
L 2547 4666 
L 4325 0 
L 3669 0 
L 3244 1197 
L 1141 1197 
L 716 0 
L 50 0 
L 1831 4666 
z
" transform="scale(0.015625)"/>
     </defs>
     <use xlink:href="#DejaVuSans-41"/>
     <use xlink:href="#DejaVuSans-6e" transform="translate(68.408203 0)"/>
     <use xlink:href="#DejaVuSans-73" transform="translate(131.787109 0)"/>
     <use xlink:href="#DejaVuSans-77" transform="translate(183.886719 0)"/>
     <use xlink:href="#DejaVuSans-65" transform="translate(265.673828 0)"/>
     <use xlink:href="#DejaVuSans-72" transform="translate(327.197266 0)"/>
     <use xlink:href="#DejaVuSans-20" transform="translate(368.310547 0)"/>
     <use xlink:href="#DejaVuSans-28" transform="translate(400.097656 0)"/>
     <use xlink:href="#DejaVuSans-63" transform="translate(439.111328 0)"/>
     <use xlink:href="#DejaVuSans-69" transform="translate(494.091797 0)"/>
     <use xlink:href="#DejaVuSans-74" transform="translate(521.875 0)"/>
     <use xlink:href="#DejaVuSans-65" transform="translate(561.083984 0)"/>
     <use xlink:href="#DejaVuSans-64" transform="translate(622.607422 0)"/>
     <use xlink:href="#DejaVuSans-29" transform="translate(686.083984 0)"/>
    </g>
   </g>
  </g>
 </g>
 <defs>
  <clipPath id="p89e23a477b">
   <rect x="7.2" y="29.077969" width="465.696" height="465.696"/>
  </clipPath>
 </defs>
  <g id="branding_footer">
    <line x1="12" y1="489" x2="468" y2="489" stroke="#cccccc" stroke-width="0.5"/>
    <text x="240.048" y="497.5" text-anchor="middle"
          font-family="DejaVu Sans, Arial, sans-serif" font-size="7.5"
          fill="#888888">AI &amp; SAP Consulting Paul Oesterwitz | oesterwitz-consulting.de</text>
  </g>
</svg>
