<?xml version="1.0" encoding="utf-8" standalone="no"?>
<!DOCTYPE svg PUBLIC "-//W3C//DTD SVG 1.1//EN"
  "http://www.w3.org/Graphics/SVG/1.1/DTD/svg11.dtd">
<svg xmlns:xlink="http://www.w3.org/1999/xlink" width="480.096pt" height="515.973969pt" viewBox="0 0 480.096 515.973969" xmlns="http://www.w3.org/2000/svg" version="1.1">
 <metadata>
  <rdf:RDF xmlns:dc="http://purl.org/dc/elements/1.1/" xmlns:cc="http://creativecommons.org/ns#" xmlns:rdf="http://www.w3.org/1999/02/22-rdf-syntax-ns#">
   <cc:Work>
    <dc:type rdf:resource="http://purl.org/dc/dcmitype/StillImage"/>
    <dc:date>2026-06-12T23:20:48.885360</dc:date>
    <dc:format>image/svg+xml</dc:format>
    <dc:creator>
     <cc:Agent>
      <dc:title>Matplotlib v3.10.9, https://matplotlib.org/</dc:title>
     </cc:Agent>
    </dc:creator>
   </cc:Work>
  </rdf:RDF>
 </metadata>
 <defs>
  <style type="text/css">*{stroke-linejoin: round; stroke-linecap: butt}</style>
 </defs>
 <g id="figure_1">
  <g id="patch_1">
   <path d="M 0 501.973969 
L 480.096 501.973969 
L 480.096 0 
L 0 0 
z
" style="fill: #ffffff"/>
  </g>
  <g id="axes_1">
   <g id="patch_2">
    <path d="M 348.193573 145.501969 
Q 307.980196 145.501969 268.996656 145.501969 
" clip-path="url(#p3b43610c0b)" style="fill: none; stroke: #9aa3b2; stroke-width: 1.1; stroke-linecap: round"/>
    <path d="M 273.796656 147.901969 
L 268.996656 145.501969 
L 273.796656 143.101969 
z
" clip-path="url(#p3b43610c0b)" style="fill: #9aa3b2; stroke: #9aa3b2; stroke-width: 1.1; stroke-linecap: round"/>
   </g>
   <g id="patch_3">
    <path d="M 248.823775 145.501969 
Q 202.983562 145.501969 158.373187 145.501969 
" clip-path="url(#p3b43610c0b)" style="fill: none; stroke: #9aa3b2; stroke-width: 1.1; stroke-linecap: round"/>
    <path d="M 163.173187 147.901969 
L 158.373187 145.501969 
L 163.173187 143.101969 
z
" clip-path="url(#p3b43610c0b)" style="fill: #9aa3b2; stroke: #9aa3b2; stroke-width: 1.1; stroke-linecap: round"/>
   </g>
   <g id="patch_4">
    <path d="M 149.517362 154.795801 
Q 158.924595 202.106636 168.091984 248.211248 
" clip-path="url(#p3b43610c0b)" style="fill: none; stroke: #9aa3b2; stroke-width: 1.1; stroke-linecap: round"/>
    <path d="M 169.509801 243.035362 
L 168.091984 248.211248 
L 164.801965 243.971463 
z
" clip-path="url(#p3b43610c0b)" style="fill: #9aa3b2; stroke: #9aa3b2; stroke-width: 1.1; stroke-linecap: round"/>
   </g>
   <g id="patch_5">
    <path d="M 163.913919 267.748114 
Q 146.708815 289.492011 130.266835 310.27147 
" clip-path="url(#p3b43610c0b)" style="fill: none; stroke: #9aa3b2; stroke-width: 1.1; stroke-linecap: round"/>
    <path d="M 135.127352 307.996525 
L 130.266835 310.27147 
L 131.36319 305.018089 
z
" clip-path="url(#p3b43610c0b)" style="fill: #9aa3b2; stroke: #9aa3b2; stroke-width: 1.1; stroke-linecap: round"/>
   </g>
   <g id="patch_6">
    <path d="M 123.624 328.14158 
Q 123.624 349.107198 123.624 368.842979 
" clip-path="url(#p3b43610c0b)" style="fill: none; stroke: #9aa3b2; stroke-width: 1.1; stroke-linecap: round"/>
    <path d="M 126.024 364.042979 
L 123.624 368.842979 
L 121.224 364.042979 
z
" clip-path="url(#p3b43610c0b)" style="fill: #9aa3b2; stroke: #9aa3b2; stroke-width: 1.1; stroke-linecap: round"/>
   </g>
   <g id="patch_7">
    <path d="M 176.286574 268.13883 
Q 211.869144 319.354654 246.750007 369.560474 
" clip-path="url(#p3b43610c0b)" style="fill: none; stroke: #9aa3b2; stroke-width: 1.1; stroke-linecap: round"/>
    <path d="M 245.982274 364.24911 
L 246.750007 369.560474 
L 242.040276 366.987842 
z
" clip-path="url(#p3b43610c0b)" style="fill: #9aa3b2; stroke: #9aa3b2; stroke-width: 1.1; stroke-linecap: round"/>
   </g>
   <g id="patch_8">
    <path d="M 262.327038 378.349969 
Q 304.663253 378.349969 345.76963 378.349969 
" clip-path="url(#p3b43610c0b)" style="fill: none; stroke: #9aa3b2; stroke-width: 1.1; stroke-linecap: round"/>
    <path d="M 340.96963 375.949969 
L 345.76963 378.349969 
L 340.96963 380.749969 
z
" clip-path="url(#p3b43610c0b)" style="fill: #9aa3b2; stroke: #9aa3b2; stroke-width: 1.1; stroke-linecap: round"/>
   </g>
   <g id="patch_9">
    <path d="M 356.472 368.878272 
Q 356.472 344.17724 356.472 320.706045 
" clip-path="url(#p3b43610c0b)" style="fill: none; stroke: #9aa3b2; stroke-width: 1.1; stroke-linecap: round"/>
    <path d="M 354.072 325.506045 
L 356.472 320.706045 
L 358.872 325.506045 
z
" clip-path="url(#p3b43610c0b)" style="fill: #9aa3b2; stroke: #9aa3b2; stroke-width: 1.1; stroke-linecap: round"/>
   </g>
   <g id="text_1">
    <g id="patch_10">
     <path d="M 141.047029 218.783543 
L 196.381325 218.783543 
Q 197.161325 218.783543 197.161325 218.003543 
L 197.161325 211.712762 
Q 197.161325 210.932762 196.381325 210.932762 
L 141.047029 210.932762 
Q 140.267029 210.932762 140.267029 211.712762 
L 140.267029 218.003543 
Q 140.267029 218.783543 141.047029 218.783543 
z
" style="fill: #ffffff; opacity: 0.9"/>
    </g>
    <!-- query + passage -->
    <g style="fill: #475569" transform="translate(141.047029 216.651746) scale(0.065 -0.065)">
     <defs>
      <path id="DejaVuSans-71" d="M 947 1747 
Q 947 1113 1208 752 
Q 1469 391 1925 391 
Q 2381 391 2643 752 
Q 2906 1113 2906 1747 
Q 2906 2381 2643 2742 
Q 2381 3103 1925 3103 
Q 1469 3103 1208 2742 
Q 947 2381 947 1747 
z
M 2906 525 
Q 2725 213 2448 61 
Q 2172 -91 1784 -91 
Q 1150 -91 751 415 
Q 353 922 353 1747 
Q 353 2572 751 3078 
Q 1150 3584 1784 3584 
Q 2172 3584 2448 3432 
Q 2725 3281 2906 2969 
L 2906 3500 
L 3481 3500 
L 3481 -1331 
L 2906 -1331 
L 2906 525 
z
" transform="scale(0.015625)"/>
      <path id="DejaVuSans-75" d="M 544 1381 
L 544 3500 
L 1119 3500 
L 1119 1403 
Q 1119 906 1312 657 
Q 1506 409 1894 409 
Q 2359 409 2629 706 
Q 2900 1003 2900 1516 
L 2900 3500 
L 3475 3500 
L 3475 0 
L 2900 0 
L 2900 538 
Q 2691 219 2414 64 
Q 2138 -91 1772 -91 
Q 1169 -91 856 284 
Q 544 659 544 1381 
z
M 1991 3584 
L 1991 3584 
z
" transform="scale(0.015625)"/>
      <path id="DejaVuSans-65" d="M 3597 1894 
L 3597 1613 
L 953 1613 
Q 991 1019 1311 708 
Q 1631 397 2203 397 
Q 2534 397 2845 478 
Q 3156 559 3463 722 
L 3463 178 
Q 3153 47 2828 -22 
Q 2503 -91 2169 -91 
Q 1331 -91 842 396 
Q 353 884 353 1716 
Q 353 2575 817 3079 
Q 1281 3584 2069 3584 
Q 2775 3584 3186 3129 
Q 3597 2675 3597 1894 
z
M 3022 2063 
Q 3016 2534 2758 2815 
Q 2500 3097 2075 3097 
Q 1594 3097 1305 2825 
Q 1016 2553 972 2059 
L 3022 2063 
z
" transform="scale(0.015625)"/>
      <path id="DejaVuSans-72" d="M 2631 2963 
Q 2534 3019 2420 3045 
Q 2306 3072 2169 3072 
Q 1681 3072 1420 2755 
Q 1159 2438 1159 1844 
L 1159 0 
L 581 0 
L 581 3500 
L 1159 3500 
L 1159 2956 
Q 1341 3275 1631 3429 
Q 1922 3584 2338 3584 
Q 2397 3584 2469 3576 
Q 2541 3569 2628 3553 
L 2631 2963 
z
" transform="scale(0.015625)"/>
      <path id="DejaVuSans-79" d="M 2059 -325 
Q 1816 -950 1584 -1140 
Q 1353 -1331 966 -1331 
L 506 -1331 
L 506 -850 
L 844 -850 
Q 1081 -850 1212 -737 
Q 1344 -625 1503 -206 
L 1606 56 
L 191 3500 
L 800 3500 
L 1894 763 
L 2988 3500 
L 3597 3500 
L 2059 -325 
z
" transform="scale(0.015625)"/>
      <path id="DejaVuSans-20" transform="scale(0.015625)"/>
      <path id="DejaVuSans-2b" d="M 2944 4013 
L 2944 2272 
L 4684 2272 
L 4684 1741 
L 2944 1741 
L 2944 0 
L 2419 0 
L 2419 1741 
L 678 1741 
L 678 2272 
L 2419 2272 
L 2419 4013 
L 2944 4013 
z
" transform="scale(0.015625)"/>
      <path id="DejaVuSans-70" d="M 1159 525 
L 1159 -1331 
L 581 -1331 
L 581 3500 
L 1159 3500 
L 1159 2969 
Q 1341 3281 1617 3432 
Q 1894 3584 2278 3584 
Q 2916 3584 3314 3078 
Q 3713 2572 3713 1747 
Q 3713 922 3314 415 
Q 2916 -91 2278 -91 
Q 1894 -91 1617 61 
Q 1341 213 1159 525 
z
M 3116 1747 
Q 3116 2381 2855 2742 
Q 2594 3103 2138 3103 
Q 1681 3103 1420 2742 
Q 1159 2381 1159 1747 
Q 1159 1113 1420 752 
Q 1681 391 2138 391 
Q 2594 391 2855 752 
Q 3116 1113 3116 1747 
z
" transform="scale(0.015625)"/>
      <path id="DejaVuSans-61" d="M 2194 1759 
Q 1497 1759 1228 1600 
Q 959 1441 959 1056 
Q 959 750 1161 570 
Q 1363 391 1709 391 
Q 2188 391 2477 730 
Q 2766 1069 2766 1631 
L 2766 1759 
L 2194 1759 
z
M 3341 1997 
L 3341 0 
L 2766 0 
L 2766 531 
Q 2569 213 2275 61 
Q 1981 -91 1556 -91 
Q 1019 -91 701 211 
Q 384 513 384 1019 
Q 384 1609 779 1909 
Q 1175 2209 1959 2209 
L 2766 2209 
L 2766 2266 
Q 2766 2663 2505 2880 
Q 2244 3097 1772 3097 
Q 1472 3097 1187 3025 
Q 903 2953 641 2809 
L 641 3341 
Q 956 3463 1253 3523 
Q 1550 3584 1831 3584 
Q 2591 3584 2966 3190 
Q 3341 2797 3341 1997 
z
" transform="scale(0.015625)"/>
      <path id="DejaVuSans-73" d="M 2834 3397 
L 2834 2853 
Q 2591 2978 2328 3040 
Q 2066 3103 1784 3103 
Q 1356 3103 1142 2972 
Q 928 2841 928 2578 
Q 928 2378 1081 2264 
Q 1234 2150 1697 2047 
L 1894 2003 
Q 2506 1872 2764 1633 
Q 3022 1394 3022 966 
Q 3022 478 2636 193 
Q 2250 -91 1575 -91 
Q 1294 -91 989 -36 
Q 684 19 347 128 
L 347 722 
Q 666 556 975 473 
Q 1284 391 1588 391 
Q 1994 391 2212 530 
Q 2431 669 2431 922 
Q 2431 1156 2273 1281 
Q 2116 1406 1581 1522 
L 1381 1569 
Q 847 1681 609 1914 
Q 372 2147 372 2553 
Q 372 3047 722 3315 
Q 1072 3584 1716 3584 
Q 2034 3584 2315 3537 
Q 2597 3491 2834 3397 
z
" transform="scale(0.015625)"/>
      <path id="DejaVuSans-67" d="M 2906 1791 
Q 2906 2416 2648 2759 
Q 2391 3103 1925 3103 
Q 1463 3103 1205 2759 
Q 947 2416 947 1791 
Q 947 1169 1205 825 
Q 1463 481 1925 481 
Q 2391 481 2648 825 
Q 2906 1169 2906 1791 
z
M 3481 434 
Q 3481 -459 3084 -895 
Q 2688 -1331 1869 -1331 
Q 1566 -1331 1297 -1286 
Q 1028 -1241 775 -1147 
L 775 -588 
Q 1028 -725 1275 -790 
Q 1522 -856 1778 -856 
Q 2344 -856 2625 -561 
Q 2906 -266 2906 331 
L 2906 616 
Q 2728 306 2450 153 
Q 2172 0 1784 0 
Q 1141 0 747 490 
Q 353 981 353 1791 
Q 353 2603 747 3093 
Q 1141 3584 1784 3584 
Q 2172 3584 2450 3431 
Q 2728 3278 2906 2969 
L 2906 3500 
L 3481 3500 
L 3481 434 
z
" transform="scale(0.015625)"/>
     </defs>
     <use xlink:href="#DejaVuSans-71"/>
     <use xlink:href="#DejaVuSans-75" transform="translate(63.476562 0)"/>
     <use xlink:href="#DejaVuSans-65" transform="translate(126.855469 0)"/>
     <use xlink:href="#DejaVuSans-72" transform="translate(188.378906 0)"/>
     <use xlink:href="#DejaVuSans-79" transform="translate(229.492188 0)"/>
     <use xlink:href="#DejaVuSans-20" transform="translate(288.671875 0)"/>
     <use xlink:href="#DejaVuSans-2b" transform="translate(320.458984 0)"/>
     <use xlink:href="#DejaVuSans-20" transform="translate(404.248047 0)"/>
     <use xlink:href="#DejaVuSans-70" transform="translate(436.035156 0)"/>
     <use xlink:href="#DejaVuSans-61" transform="translate(499.511719 0)"/>
     <use xlink:href="#DejaVuSans-73" transform="translate(560.791016 0)"/>
     <use xlink:href="#DejaVuSans-73" transform="translate(612.890625 0)"/>
     <use xlink:href="#DejaVuSans-61" transform="translate(664.990234 0)"/>
     <use xlink:href="#DejaVuSans-67" transform="translate(726.269531 0)"/>
     <use xlink:href="#DejaVuSans-65" transform="translate(789.746094 0)"/>
    </g>
   </g>
   <g id="text_2">
    <g id="patch_11">
     <path d="M 137.247689 304.563344 
L 156.676595 304.563344 
Q 157.456595 304.563344 157.456595 303.783344 
L 157.456595 297.492563 
Q 157.456595 296.712563 156.676595 296.712563 
L 137.247689 296.712563 
Q 136.467689 296.712563 136.467689 297.492563 
L 136.467689 303.783344 
Q 136.467689 304.563344 137.247689 304.563344 
z
" style="fill: #ffffff; opacity: 0.9"/>
    </g>
    <!-- if fails -->
    <g style="fill: #475569" transform="translate(137.247689 302.431548) scale(0.065 -0.065)">
     <defs>
      <path id="DejaVuSans-69" d="M 603 3500 
L 1178 3500 
L 1178 0 
L 603 0 
L 603 3500 
z
M 603 4863 
L 1178 4863 
L 1178 4134 
L 603 4134 
L 603 4863 
z
" transform="scale(0.015625)"/>
      <path id="DejaVuSans-66" d="M 2375 4863 
L 2375 4384 
L 1825 4384 
Q 1516 4384 1395 4259 
Q 1275 4134 1275 3809 
L 1275 3500 
L 2222 3500 
L 2222 3053 
L 1275 3053 
L 1275 0 
L 697 0 
L 697 3053 
L 147 3053 
L 147 3500 
L 697 3500 
L 697 3744 
Q 697 4328 969 4595 
Q 1241 4863 1831 4863 
L 2375 4863 
z
" transform="scale(0.015625)"/>
      <path id="DejaVuSans-6c" d="M 603 4863 
L 1178 4863 
L 1178 0 
L 603 0 
L 603 4863 
z
" transform="scale(0.015625)"/>
     </defs>
     <use xlink:href="#DejaVuSans-69"/>
     <use xlink:href="#DejaVuSans-66" transform="translate(27.783203 0)"/>
     <use xlink:href="#DejaVuSans-20" transform="translate(62.988281 0)"/>
     <use xlink:href="#DejaVuSans-66" transform="translate(94.775391 0)"/>
     <use xlink:href="#DejaVuSans-61" transform="translate(129.980469 0)"/>
     <use xlink:href="#DejaVuSans-69" transform="translate(191.259766 0)"/>
     <use xlink:href="#DejaVuSans-6c" transform="translate(219.042969 0)"/>
     <use xlink:href="#DejaVuSans-73" transform="translate(246.826172 0)"/>
    </g>
   </g>
   <g id="text_3">
    <g id="patch_12">
     <path d="M 121.024347 359.595724 
L 140.453253 359.595724 
Q 141.233253 359.595724 141.233253 358.815724 
L 141.233253 352.524943 
Q 141.233253 351.744943 140.453253 351.744943 
L 121.024347 351.744943 
Q 120.244347 351.744943 120.244347 352.524943 
L 120.244347 358.815724 
Q 120.244347 359.595724 121.024347 359.595724 
z
" style="fill: #ffffff; opacity: 0.9"/>
    </g>
    <!-- if fails -->
    <g style="fill: #475569" transform="translate(121.024347 357.463927) scale(0.065 -0.065)">
     <use xlink:href="#DejaVuSans-69"/>
     <use xlink:href="#DejaVuSans-66" transform="translate(27.783203 0)"/>
     <use xlink:href="#DejaVuSans-20" transform="translate(62.988281 0)"/>
     <use xlink:href="#DejaVuSans-66" transform="translate(94.775391 0)"/>
     <use xlink:href="#DejaVuSans-61" transform="translate(129.980469 0)"/>
     <use xlink:href="#DejaVuSans-69" transform="translate(191.259766 0)"/>
     <use xlink:href="#DejaVuSans-6c" transform="translate(219.042969 0)"/>
     <use xlink:href="#DejaVuSans-73" transform="translate(246.826172 0)"/>
    </g>
   </g>
   <g id="text_4">
    <g id="patch_13">
     <path d="M 216.925559 333.092688 
L 237.774309 333.092688 
Q 238.554309 333.092688 238.554309 332.312688 
L 238.554309 326.021906 
Q 238.554309 325.241906 237.774309 325.241906 
L 216.925559 325.241906 
Q 216.145559 325.241906 216.145559 326.021906 
L 216.145559 332.312688 
Q 216.145559 333.092688 216.925559 333.092688 
z
" style="fill: #ffffff; opacity: 0.9"/>
    </g>
    <!-- scores -->
    <g style="fill: #475569" transform="translate(216.925559 330.960891) scale(0.065 -0.065)">
     <defs>
      <path id="DejaVuSans-63" d="M 3122 3366 
L 3122 2828 
Q 2878 2963 2633 3030 
Q 2388 3097 2138 3097 
Q 1578 3097 1268 2742 
Q 959 2388 959 1747 
Q 959 1106 1268 751 
Q 1578 397 2138 397 
Q 2388 397 2633 464 
Q 2878 531 3122 666 
L 3122 134 
Q 2881 22 2623 -34 
Q 2366 -91 2075 -91 
Q 1284 -91 818 406 
Q 353 903 353 1747 
Q 353 2603 823 3093 
Q 1294 3584 2113 3584 
Q 2378 3584 2631 3529 
Q 2884 3475 3122 3366 
z
" transform="scale(0.015625)"/>
      <path id="DejaVuSans-6f" d="M 1959 3097 
Q 1497 3097 1228 2736 
Q 959 2375 959 1747 
Q 959 1119 1226 758 
Q 1494 397 1959 397 
Q 2419 397 2687 759 
Q 2956 1122 2956 1747 
Q 2956 2369 2687 2733 
Q 2419 3097 1959 3097 
z
M 1959 3584 
Q 2709 3584 3137 3096 
Q 3566 2609 3566 1747 
Q 3566 888 3137 398 
Q 2709 -91 1959 -91 
Q 1206 -91 779 398 
Q 353 888 353 1747 
Q 353 2609 779 3096 
Q 1206 3584 1959 3584 
z
" transform="scale(0.015625)"/>
     </defs>
     <use xlink:href="#DejaVuSans-73"/>
     <use xlink:href="#DejaVuSans-63" transform="translate(52.099609 0)"/>
     <use xlink:href="#DejaVuSans-6f" transform="translate(107.080078 0)"/>
     <use xlink:href="#DejaVuSans-72" transform="translate(168.261719 0)"/>
     <use xlink:href="#DejaVuSans-65" transform="translate(207.125 0)"/>
     <use xlink:href="#DejaVuSans-73" transform="translate(268.648438 0)"/>
    </g>
   </g>
   <g id="text_5">
    <g id="patch_14">
     <path d="M 304.848177 375.160559 
L 329.348099 375.160559 
Q 330.128099 375.160559 330.128099 374.380559 
L 330.128099 368.089778 
Q 330.128099 367.309778 329.348099 367.309778 
L 304.848177 367.309778 
Q 304.068177 367.309778 304.068177 368.089778 
L 304.068177 374.380559 
Q 304.068177 375.160559 304.848177 375.160559 
z
" style="fill: #ffffff; opacity: 0.9"/>
    </g>
    <!-- context -->
    <g style="fill: #475569" transform="translate(304.848177 373.028763) scale(0.065 -0.065)">
     <defs>
      <path id="DejaVuSans-6e" d="M 3513 2113 
L 3513 0 
L 2938 0 
L 2938 2094 
Q 2938 2591 2744 2837 
Q 2550 3084 2163 3084 
Q 1697 3084 1428 2787 
Q 1159 2491 1159 1978 
L 1159 0 
L 581 0 
L 581 3500 
L 1159 3500 
L 1159 2956 
Q 1366 3272 1645 3428 
Q 1925 3584 2291 3584 
Q 2894 3584 3203 3211 
Q 3513 2838 3513 2113 
z
" transform="scale(0.015625)"/>
      <path id="DejaVuSans-74" d="M 1172 4494 
L 1172 3500 
L 2356 3500 
L 2356 3053 
L 1172 3053 
L 1172 1153 
Q 1172 725 1289 603 
Q 1406 481 1766 481 
L 2356 481 
L 2356 0 
L 1766 0 
Q 1100 0 847 248 
Q 594 497 594 1153 
L 594 3053 
L 172 3053 
L 172 3500 
L 594 3500 
L 594 4494 
L 1172 4494 
z
" transform="scale(0.015625)"/>
      <path id="DejaVuSans-78" d="M 3513 3500 
L 2247 1797 
L 3578 0 
L 2900 0 
L 1881 1375 
L 863 0 
L 184 0 
L 1544 1831 
L 300 3500 
L 978 3500 
L 1906 2253 
L 2834 3500 
L 3513 3500 
z
" transform="scale(0.015625)"/>
     </defs>
     <use xlink:href="#DejaVuSans-63"/>
     <use xlink:href="#DejaVuSans-6f" transform="translate(54.980469 0)"/>
     <use xlink:href="#DejaVuSans-6e" transform="translate(116.162109 0)"/>
     <use xlink:href="#DejaVuSans-74" transform="translate(179.541016 0)"/>
     <use xlink:href="#DejaVuSans-65" transform="translate(218.75 0)"/>
     <use xlink:href="#DejaVuSans-78" transform="translate(278.523438 0)"/>
     <use xlink:href="#DejaVuSans-74" transform="translate(337.703125 0)"/>
    </g>
   </g>
   <g id="text_6">
    <!-- RAG + Reranker Pipeline -->
    <g style="fill: #222a3a" transform="translate(7.2 17.077969) scale(0.13 -0.13)">
     <defs>
      <path id="DejaVuSans-Bold-52" d="M 2297 2597 
Q 2675 2597 2839 2737 
Q 3003 2878 3003 3200 
Q 3003 3519 2839 3656 
Q 2675 3794 2297 3794 
L 1791 3794 
L 1791 2597 
L 2297 2597 
z
M 1791 1766 
L 1791 0 
L 588 0 
L 588 4666 
L 2425 4666 
Q 3347 4666 3776 4356 
Q 4206 4047 4206 3378 
Q 4206 2916 3982 2619 
Q 3759 2322 3309 2181 
Q 3556 2125 3751 1926 
Q 3947 1728 4147 1325 
L 4800 0 
L 3519 0 
L 2950 1159 
Q 2778 1509 2601 1637 
Q 2425 1766 2131 1766 
L 1791 1766 
z
" transform="scale(0.015625)"/>
      <path id="DejaVuSans-Bold-41" d="M 3419 850 
L 1538 850 
L 1241 0 
L 31 0 
L 1759 4666 
L 3194 4666 
L 4922 0 
L 3713 0 
L 3419 850 
z
M 1838 1716 
L 3116 1716 
L 2478 3572 
L 1838 1716 
z
" transform="scale(0.015625)"/>
      <path id="DejaVuSans-Bold-47" d="M 4781 347 
Q 4331 128 3847 18 
Q 3363 -91 2847 -91 
Q 1681 -91 1000 561 
Q 319 1213 319 2328 
Q 319 3456 1012 4103 
Q 1706 4750 2913 4750 
Q 3378 4750 3804 4662 
Q 4231 4575 4609 4403 
L 4609 3438 
Q 4219 3659 3833 3768 
Q 3447 3878 3059 3878 
Q 2341 3878 1952 3476 
Q 1563 3075 1563 2328 
Q 1563 1588 1938 1184 
Q 2313 781 3003 781 
Q 3191 781 3352 804 
Q 3513 828 3641 878 
L 3641 1784 
L 2906 1784 
L 2906 2591 
L 4781 2591 
L 4781 347 
z
" transform="scale(0.015625)"/>
      <path id="DejaVuSans-Bold-20" transform="scale(0.015625)"/>
      <path id="DejaVuSans-Bold-2b" d="M 3053 4013 
L 3053 2375 
L 4684 2375 
L 4684 1638 
L 3053 1638 
L 3053 0 
L 2309 0 
L 2309 1638 
L 678 1638 
L 678 2375 
L 2309 2375 
L 2309 4013 
L 3053 4013 
z
" transform="scale(0.015625)"/>
      <path id="DejaVuSans-Bold-65" d="M 4031 1759 
L 4031 1441 
L 1416 1441 
Q 1456 1047 1700 850 
Q 1944 653 2381 653 
Q 2734 653 3104 758 
Q 3475 863 3866 1075 
L 3866 213 
Q 3469 63 3072 -14 
Q 2675 -91 2278 -91 
Q 1328 -91 801 392 
Q 275 875 275 1747 
Q 275 2603 792 3093 
Q 1309 3584 2216 3584 
Q 3041 3584 3536 3087 
Q 4031 2591 4031 1759 
z
M 2881 2131 
Q 2881 2450 2695 2645 
Q 2509 2841 2209 2841 
Q 1884 2841 1681 2658 
Q 1478 2475 1428 2131 
L 2881 2131 
z
" transform="scale(0.015625)"/>
      <path id="DejaVuSans-Bold-72" d="M 3138 2547 
Q 2991 2616 2845 2648 
Q 2700 2681 2553 2681 
Q 2122 2681 1889 2404 
Q 1656 2128 1656 1613 
L 1656 0 
L 538 0 
L 538 3500 
L 1656 3500 
L 1656 2925 
Q 1872 3269 2151 3426 
Q 2431 3584 2822 3584 
Q 2878 3584 2943 3579 
Q 3009 3575 3134 3559 
L 3138 2547 
z
" transform="scale(0.015625)"/>
      <path id="DejaVuSans-Bold-61" d="M 2106 1575 
Q 1756 1575 1579 1456 
Q 1403 1338 1403 1106 
Q 1403 894 1545 773 
Q 1688 653 1941 653 
Q 2256 653 2472 879 
Q 2688 1106 2688 1447 
L 2688 1575 
L 2106 1575 
z
M 3816 1997 
L 3816 0 
L 2688 0 
L 2688 519 
Q 2463 200 2181 54 
Q 1900 -91 1497 -91 
Q 953 -91 614 226 
Q 275 544 275 1050 
Q 275 1666 698 1953 
Q 1122 2241 2028 2241 
L 2688 2241 
L 2688 2328 
Q 2688 2594 2478 2717 
Q 2269 2841 1825 2841 
Q 1466 2841 1156 2769 
Q 847 2697 581 2553 
L 581 3406 
Q 941 3494 1303 3539 
Q 1666 3584 2028 3584 
Q 2975 3584 3395 3211 
Q 3816 2838 3816 1997 
z
" transform="scale(0.015625)"/>
      <path id="DejaVuSans-Bold-6e" d="M 4056 2131 
L 4056 0 
L 2931 0 
L 2931 347 
L 2931 1631 
Q 2931 2084 2911 2256 
Q 2891 2428 2841 2509 
Q 2775 2619 2662 2680 
Q 2550 2741 2406 2741 
Q 2056 2741 1856 2470 
Q 1656 2200 1656 1722 
L 1656 0 
L 538 0 
L 538 3500 
L 1656 3500 
L 1656 2988 
Q 1909 3294 2193 3439 
Q 2478 3584 2822 3584 
Q 3428 3584 3742 3212 
Q 4056 2841 4056 2131 
z
" transform="scale(0.015625)"/>
      <path id="DejaVuSans-Bold-6b" d="M 538 4863 
L 1656 4863 
L 1656 2216 
L 2944 3500 
L 4244 3500 
L 2534 1894 
L 4378 0 
L 3022 0 
L 1656 1459 
L 1656 0 
L 538 0 
L 538 4863 
z
" transform="scale(0.015625)"/>
      <path id="DejaVuSans-Bold-50" d="M 588 4666 
L 2584 4666 
Q 3475 4666 3951 4270 
Q 4428 3875 4428 3144 
Q 4428 2409 3951 2014 
Q 3475 1619 2584 1619 
L 1791 1619 
L 1791 0 
L 588 0 
L 588 4666 
z
M 1791 3794 
L 1791 2491 
L 2456 2491 
Q 2806 2491 2997 2661 
Q 3188 2831 3188 3144 
Q 3188 3456 2997 3625 
Q 2806 3794 2456 3794 
L 1791 3794 
z
" transform="scale(0.015625)"/>
      <path id="DejaVuSans-Bold-69" d="M 538 3500 
L 1656 3500 
L 1656 0 
L 538 0 
L 538 3500 
z
M 538 4863 
L 1656 4863 
L 1656 3950 
L 538 3950 
L 538 4863 
z
" transform="scale(0.015625)"/>
      <path id="DejaVuSans-Bold-70" d="M 1656 506 
L 1656 -1331 
L 538 -1331 
L 538 3500 
L 1656 3500 
L 1656 2988 
Q 1888 3294 2169 3439 
Q 2450 3584 2816 3584 
Q 3463 3584 3878 3070 
Q 4294 2556 4294 1747 
Q 4294 938 3878 423 
Q 3463 -91 2816 -91 
Q 2450 -91 2169 54 
Q 1888 200 1656 506 
z
M 2400 2772 
Q 2041 2772 1848 2508 
Q 1656 2244 1656 1747 
Q 1656 1250 1848 986 
Q 2041 722 2400 722 
Q 2759 722 2948 984 
Q 3138 1247 3138 1747 
Q 3138 2247 2948 2509 
Q 2759 2772 2400 2772 
z
" transform="scale(0.015625)"/>
      <path id="DejaVuSans-Bold-6c" d="M 538 4863 
L 1656 4863 
L 1656 0 
L 538 0 
L 538 4863 
z
" transform="scale(0.015625)"/>
     </defs>
     <use xlink:href="#DejaVuSans-Bold-52"/>
     <use xlink:href="#DejaVuSans-Bold-41" transform="translate(77.001953 0)"/>
     <use xlink:href="#DejaVuSans-Bold-47" transform="translate(154.394531 0)"/>
     <use xlink:href="#DejaVuSans-Bold-20" transform="translate(236.474609 0)"/>
     <use xlink:href="#DejaVuSans-Bold-2b" transform="translate(271.289062 0)"/>
     <use xlink:href="#DejaVuSans-Bold-20" transform="translate(355.078125 0)"/>
     <use xlink:href="#DejaVuSans-Bold-52" transform="translate(389.892578 0)"/>
     <use xlink:href="#DejaVuSans-Bold-65" transform="translate(466.894531 0)"/>
     <use xlink:href="#DejaVuSans-Bold-72" transform="translate(534.716797 0)"/>
     <use xlink:href="#DejaVuSans-Bold-61" transform="translate(584.033203 0)"/>
     <use xlink:href="#DejaVuSans-Bold-6e" transform="translate(651.513672 0)"/>
     <use xlink:href="#DejaVuSans-Bold-6b" transform="translate(722.705078 0)"/>
     <use xlink:href="#DejaVuSans-Bold-65" transform="translate(786.583984 0)"/>
     <use xlink:href="#DejaVuSans-Bold-72" transform="translate(854.40625 0)"/>
     <use xlink:href="#DejaVuSans-Bold-20" transform="translate(903.722656 0)"/>
     <use xlink:href="#DejaVuSans-Bold-50" transform="translate(938.537109 0)"/>
     <use xlink:href="#DejaVuSans-Bold-69" transform="translate(1011.828125 0)"/>
     <use xlink:href="#DejaVuSans-Bold-70" transform="translate(1046.105469 0)"/>
     <use xlink:href="#DejaVuSans-Bold-65" transform="translate(1117.6875 0)"/>
     <use xlink:href="#DejaVuSans-Bold-6c" transform="translate(1185.509766 0)"/>
     <use xlink:href="#DejaVuSans-Bold-69" transform="translate(1219.787109 0)"/>
     <use xlink:href="#DejaVuSans-Bold-6e" transform="translate(1254.064453 0)"/>
     <use xlink:href="#DejaVuSans-Bold-65" transform="translate(1325.255859 0)"/>
    </g>
   </g>
   <g id="patch_15">
    <path d="M 356.472 152.940169 
C 358.444634 152.940169 360.336739 152.156433 361.731602 150.76157 
C 363.126464 149.366708 363.9102 147.474602 363.9102 145.501969 
C 363.9102 143.529335 363.126464 141.63723 361.731602 140.242367 
C 360.336739 138.847504 358.444634 138.063769 356.472 138.063769 
C 354.499366 138.063769 352.607261 138.847504 351.212398 140.242367 
C 349.817536 141.63723 349.0338 143.529335 349.0338 145.501969 
C 349.0338 147.474602 349.817536 149.366708 351.212398 150.76157 
C 352.607261 152.156433 354.499366 152.940169 356.472 152.940169 
z
" clip-path="url(#p3b43610c0b)" style="fill: #7a0a6e; stroke: #ffffff; stroke-width: 1.2; stroke-linejoin: miter"/>
   </g>
   <g id="patch_16">
    <path d="M 258.29339 154.011822 
C 260.550229 154.011822 262.714938 153.11517 264.310765 151.519344 
C 265.906591 149.923517 266.803243 147.758808 266.803243 145.501969 
C 266.803243 143.245129 265.906591 141.08042 264.310765 139.484594 
C 262.714938 137.888767 260.550229 136.992115 258.29339 136.992115 
C 256.03655 136.992115 253.871841 137.888767 252.276015 139.484594 
C 250.680188 141.08042 249.783536 143.245129 249.783536 145.501969 
C 249.783536 147.758808 250.680188 149.923517 252.276015 151.519344 
C 253.871841 153.11517 256.03655 154.011822 258.29339 154.011822 
z
" clip-path="url(#p3b43610c0b)" style="fill: #222a3a; stroke: #ffffff; stroke-width: 1.2; stroke-linejoin: miter"/>
   </g>
   <g id="patch_17">
    <path d="M 147.669386 154.011822 
C 149.926226 154.011822 152.090935 153.11517 153.686761 151.519344 
C 155.282588 149.923517 156.17924 147.758808 156.17924 145.501969 
C 156.17924 143.245129 155.282588 141.08042 153.686761 139.484594 
C 152.090935 137.888767 149.926226 136.992115 147.669386 136.992115 
C 145.412547 136.992115 143.247838 137.888767 141.652011 139.484594 
C 140.056185 141.08042 139.159533 143.245129 139.159533 145.501969 
C 139.159533 147.758808 140.056185 149.923517 141.652011 151.519344 
C 143.247838 153.11517 145.412547 154.011822 147.669386 154.011822 
z
" clip-path="url(#p3b43610c0b)" style="fill: #222a3a; stroke: #ffffff; stroke-width: 1.2; stroke-linejoin: miter"/>
   </g>
   <g id="patch_18">
    <path d="M 170.357453 268.936904 
C 172.832371 268.936904 175.206257 267.953608 176.956288 266.203577 
C 178.70632 264.453545 179.689615 262.07966 179.689615 259.604742 
C 179.689615 257.129824 178.70632 254.755938 176.956288 253.005907 
C 175.206257 251.255875 172.832371 250.27258 170.357453 250.27258 
C 167.882535 250.27258 165.50865 251.255875 163.758618 253.005907 
C 162.008587 254.755938 161.025291 257.129824 161.025291 259.604742 
C 161.025291 262.07966 162.008587 264.453545 163.758618 266.203577 
C 165.50865 267.953608 167.882535 268.936904 170.357453 268.936904 
z
" clip-path="url(#p3b43610c0b)" style="fill: #b5179e; stroke: #ffffff; stroke-width: 1.2; stroke-linejoin: miter"/>
   </g>
   <g id="patch_19">
    <path d="M 123.624 327.176572 
C 125.880839 327.176572 128.045548 326.27992 129.641375 324.684093 
C 131.237201 323.088267 132.133853 320.923558 132.133853 318.666718 
C 132.133853 316.409879 131.237201 314.24517 129.641375 312.649343 
C 128.045548 311.053517 125.880839 310.156865 123.624 310.156865 
C 121.367161 310.156865 119.202452 311.053517 117.606625 312.649343 
C 116.010799 314.24517 115.114147 316.409879 115.114147 318.666718 
C 115.114147 320.923558 116.010799 323.088267 117.606625 324.684093 
C 119.202452 326.27992 121.367161 327.176572 123.624 327.176572 
z
" clip-path="url(#p3b43610c0b)" style="fill: #b5179e; stroke: #ffffff; stroke-width: 1.2; stroke-linejoin: miter"/>
   </g>
   <g id="patch_20">
    <path d="M 123.624 385.788169 
C 125.596634 385.788169 127.488739 385.004433 128.883602 383.60957 
C 130.278464 382.214708 131.0622 380.322602 131.0622 378.349969 
C 131.0622 376.377335 130.278464 374.48523 128.883602 373.090367 
C 127.488739 371.695504 125.596634 370.911769 123.624 370.911769 
C 121.651366 370.911769 119.759261 371.695504 118.364398 373.090367 
C 116.969536 374.48523 116.1858 376.377335 116.1858 378.349969 
C 116.1858 380.322602 116.969536 382.214708 118.364398 383.60957 
C 119.759261 385.004433 121.651366 385.788169 123.624 385.788169 
z
" clip-path="url(#p3b43610c0b)" style="fill: #b5179e; stroke: #ffffff; stroke-width: 1.2; stroke-linejoin: miter"/>
   </g>
   <g id="patch_21">
    <path d="M 252.856573 386.859822 
C 255.113413 386.859822 257.278122 385.96317 258.873948 384.367344 
C 260.469775 382.771517 261.366427 380.606808 261.366427 378.349969 
C 261.366427 376.093129 260.469775 373.92842 258.873948 372.332594 
C 257.278122 370.736767 255.113413 369.840115 252.856573 369.840115 
C 250.599734 369.840115 248.435025 370.736767 246.839198 372.332594 
C 245.243372 373.92842 244.34672 376.093129 244.34672 378.349969 
C 244.34672 380.606808 245.243372 382.771517 246.839198 384.367344 
C 248.435025 385.96317 250.599734 386.859822 252.856573 386.859822 
z
" clip-path="url(#p3b43610c0b)" style="fill: #222a3a; stroke: #ffffff; stroke-width: 1.2; stroke-linejoin: miter"/>
   </g>
   <g id="patch_22">
    <path d="M 356.472 386.859822 
C 358.728839 386.859822 360.893548 385.96317 362.489375 384.367344 
C 364.085201 382.771517 364.981853 380.606808 364.981853 378.349969 
C 364.981853 376.093129 364.085201 373.92842 362.489375 372.332594 
C 360.893548 370.736767 358.728839 369.840115 356.472 369.840115 
C 354.215161 369.840115 352.050452 370.736767 350.454625 372.332594 
C 348.858799 373.92842 347.962147 376.093129 347.962147 378.349969 
C 347.962147 380.606808 348.858799 382.771517 350.454625 384.367344 
C 352.050452 385.96317 354.215161 386.859822 356.472 386.859822 
z
" clip-path="url(#p3b43610c0b)" style="fill: #343f57; stroke: #ffffff; stroke-width: 1.2; stroke-linejoin: miter"/>
   </g>
   <g id="patch_23">
    <path d="M 356.472 318.637898 
C 358.444634 318.637898 360.336739 317.854162 361.731602 316.4593 
C 363.126464 315.064437 363.9102 313.172332 363.9102 311.199698 
C 363.9102 309.227064 363.126464 307.334959 361.731602 305.940096 
C 360.336739 304.545234 358.444634 303.761498 356.472 303.761498 
C 354.499366 303.761498 352.607261 304.545234 351.212398 305.940096 
C 349.817536 307.334959 349.0338 309.227064 349.0338 311.199698 
C 349.0338 313.172332 349.817536 315.064437 351.212398 316.4593 
C 352.607261 317.854162 354.499366 318.637898 356.472 318.637898 
z
" clip-path="url(#p3b43610c0b)" style="fill: #5e0a56; stroke: #ffffff; stroke-width: 1.2; stroke-linejoin: miter"/>
   </g>
   <g id="legend_1">
    <g id="patch_24">
     <path d="M 12.8 97.390469 
L 85.10875 97.390469 
Q 86.70875 97.390469 86.70875 95.790469 
L 86.70875 34.677969 
Q 86.70875 33.077969 85.10875 33.077969 
L 12.8 33.077969 
Q 11.2 33.077969 11.2 34.677969 
L 11.2 95.790469 
Q 11.2 97.390469 12.8 97.390469 
z
" style="fill: #ffffff; opacity: 0.9; stroke: #cccccc; stroke-linejoin: miter"/>
    </g>
    <g id="patch_25">
     <path d="M 16 43.956719 
L 32 43.956719 
L 32 38.356719 
L 16 38.356719 
z
" style="fill: #7a0a6e; stroke: #7a0a6e; stroke-linejoin: miter"/>
    </g>
    <g id="text_7">
     <!-- input -->
     <g transform="translate(38.4 43.956719) scale(0.08 -0.08)">
      <use xlink:href="#DejaVuSans-69"/>
      <use xlink:href="#DejaVuSans-6e" transform="translate(27.783203 0)"/>
      <use xlink:href="#DejaVuSans-70" transform="translate(91.162109 0)"/>
      <use xlink:href="#DejaVuSans-75" transform="translate(154.638672 0)"/>
      <use xlink:href="#DejaVuSans-74" transform="translate(218.017578 0)"/>
     </g>
    </g>
    <g id="patch_26">
     <path d="M 16 55.699219 
L 32 55.699219 
L 32 50.099219 
L 16 50.099219 
z
" style="fill: #222a3a; stroke: #222a3a; stroke-linejoin: miter"/>
    </g>
    <g id="text_8">
     <!-- retrieval -->
     <g transform="translate(38.4 55.699219) scale(0.08 -0.08)">
      <defs>
       <path id="DejaVuSans-76" d="M 191 3500 
L 800 3500 
L 1894 563 
L 2988 3500 
L 3597 3500 
L 2284 0 
L 1503 0 
L 191 3500 
z
" transform="scale(0.015625)"/>
      </defs>
      <use xlink:href="#DejaVuSans-72"/>
      <use xlink:href="#DejaVuSans-65" transform="translate(38.863281 0)"/>
      <use xlink:href="#DejaVuSans-74" transform="translate(100.386719 0)"/>
      <use xlink:href="#DejaVuSans-72" transform="translate(139.595703 0)"/>
      <use xlink:href="#DejaVuSans-69" transform="translate(180.708984 0)"/>
      <use xlink:href="#DejaVuSans-65" transform="translate(208.492188 0)"/>
      <use xlink:href="#DejaVuSans-76" transform="translate(270.015625 0)"/>
      <use xlink:href="#DejaVuSans-61" transform="translate(329.195312 0)"/>
      <use xlink:href="#DejaVuSans-6c" transform="translate(390.474609 0)"/>
     </g>
    </g>
    <g id="patch_27">
     <path d="M 16 67.441719 
L 32 67.441719 
L 32 61.841719 
L 16 61.841719 
z
" style="fill: #b5179e; stroke: #b5179e; stroke-linejoin: miter"/>
    </g>
    <g id="text_9">
     <!-- rerank -->
     <g transform="translate(38.4 67.441719) scale(0.08 -0.08)">
      <defs>
       <path id="DejaVuSans-6b" d="M 581 4863 
L 1159 4863 
L 1159 1991 
L 2875 3500 
L 3609 3500 
L 1753 1863 
L 3688 0 
L 2938 0 
L 1159 1709 
L 1159 0 
L 581 0 
L 581 4863 
z
" transform="scale(0.015625)"/>
      </defs>
      <use xlink:href="#DejaVuSans-72"/>
      <use xlink:href="#DejaVuSans-65" transform="translate(38.863281 0)"/>
      <use xlink:href="#DejaVuSans-72" transform="translate(100.386719 0)"/>
      <use xlink:href="#DejaVuSans-61" transform="translate(141.5 0)"/>
      <use xlink:href="#DejaVuSans-6e" transform="translate(202.779297 0)"/>
      <use xlink:href="#DejaVuSans-6b" transform="translate(266.158203 0)"/>
     </g>
    </g>
    <g id="patch_28">
     <path d="M 16 79.184219 
L 32 79.184219 
L 32 73.584219 
L 16 73.584219 
z
" style="fill: #343f57; stroke: #343f57; stroke-linejoin: miter"/>
    </g>
    <g id="text_10">
     <!-- generation -->
     <g transform="translate(38.4 79.184219) scale(0.08 -0.08)">
      <use xlink:href="#DejaVuSans-67"/>
      <use xlink:href="#DejaVuSans-65" transform="translate(63.476562 0)"/>
      <use xlink:href="#DejaVuSans-6e" transform="translate(125 0)"/>
      <use xlink:href="#DejaVuSans-65" transform="translate(188.378906 0)"/>
      <use xlink:href="#DejaVuSans-72" transform="translate(249.902344 0)"/>
      <use xlink:href="#DejaVuSans-61" transform="translate(291.015625 0)"/>
      <use xlink:href="#DejaVuSans-74" transform="translate(352.294922 0)"/>
      <use xlink:href="#DejaVuSans-69" transform="translate(391.503906 0)"/>
      <use xlink:href="#DejaVuSans-6f" transform="translate(419.287109 0)"/>
      <use xlink:href="#DejaVuSans-6e" transform="translate(480.46875 0)"/>
     </g>
    </g>
    <g id="patch_29">
     <path d="M 16 90.926719 
L 32 90.926719 
L 32 85.326719 
L 16 85.326719 
z
" style="fill: #5e0a56; stroke: #5e0a56; stroke-linejoin: miter"/>
    </g>
    <g id="text_11">
     <!-- output -->
     <g transform="translate(38.4 90.926719) scale(0.08 -0.08)">
      <use xlink:href="#DejaVuSans-6f"/>
      <use xlink:href="#DejaVuSans-75" transform="translate(61.181641 0)"/>
      <use xlink:href="#DejaVuSans-74" transform="translate(124.560547 0)"/>
      <use xlink:href="#DejaVuSans-70" transform="translate(163.769531 0)"/>
      <use xlink:href="#DejaVuSans-75" transform="translate(227.246094 0)"/>
      <use xlink:href="#DejaVuSans-74" transform="translate(290.625 0)"/>
     </g>
    </g>
   </g>
   <g id="text_12">
    <g id="patch_30">
     <path d="M 366.34038 135.855947 
L 389.134521 135.855947 
Q 390.184521 135.855947 390.184521 134.805947 
L 390.184521 127.547353 
Q 390.184521 126.497353 389.134521 126.497353 
L 366.34038 126.497353 
Q 365.29038 126.497353 365.29038 127.547353 
L 365.29038 134.805947 
Q 365.29038 135.855947 366.34038 135.855947 
z
" style="fill: #ffffff; opacity: 0.88"/>
    </g>
    <!-- Query -->
    <g style="fill: #212529" transform="translate(366.34038 133.246181) scale(0.075 -0.075)">
     <defs>
      <path id="DejaVuSans-51" d="M 2522 4238 
Q 1834 4238 1429 3725 
Q 1025 3213 1025 2328 
Q 1025 1447 1429 934 
Q 1834 422 2522 422 
Q 3209 422 3611 934 
Q 4013 1447 4013 2328 
Q 4013 3213 3611 3725 
Q 3209 4238 2522 4238 
z
M 3406 84 
L 4238 -825 
L 3475 -825 
L 2784 -78 
Q 2681 -84 2626 -87 
Q 2572 -91 2522 -91 
Q 1538 -91 948 567 
Q 359 1225 359 2328 
Q 359 3434 948 4092 
Q 1538 4750 2522 4750 
Q 3503 4750 4090 4092 
Q 4678 3434 4678 2328 
Q 4678 1516 4351 937 
Q 4025 359 3406 84 
z
" transform="scale(0.015625)"/>
     </defs>
     <use xlink:href="#DejaVuSans-51"/>
     <use xlink:href="#DejaVuSans-75" transform="translate(78.710938 0)"/>
     <use xlink:href="#DejaVuSans-65" transform="translate(142.089844 0)"/>
     <use xlink:href="#DejaVuSans-72" transform="translate(203.613281 0)"/>
     <use xlink:href="#DejaVuSans-79" transform="translate(244.726562 0)"/>
    </g>
   </g>
   <g id="text_13">
    <g id="patch_31">
     <path d="M 235.010884 131.112332 
L 286.37065 131.112332 
Q 287.42065 131.112332 287.42065 130.062332 
L 287.42065 122.803739 
Q 287.42065 121.753739 286.37065 121.753739 
L 235.010884 121.753739 
Q 233.960884 121.753739 233.960884 122.803739 
L 233.960884 130.062332 
Q 233.960884 131.112332 235.010884 131.112332 
z
" style="fill: #ffffff; opacity: 0.88"/>
    </g>
    <!-- Embed Query -->
    <g style="fill: #212529" transform="translate(235.010884 128.502567) scale(0.075 -0.075)">
     <defs>
      <path id="DejaVuSans-45" d="M 628 4666 
L 3578 4666 
L 3578 4134 
L 1259 4134 
L 1259 2753 
L 3481 2753 
L 3481 2222 
L 1259 2222 
L 1259 531 
L 3634 531 
L 3634 0 
L 628 0 
L 628 4666 
z
" transform="scale(0.015625)"/>
      <path id="DejaVuSans-6d" d="M 3328 2828 
Q 3544 3216 3844 3400 
Q 4144 3584 4550 3584 
Q 5097 3584 5394 3201 
Q 5691 2819 5691 2113 
L 5691 0 
L 5113 0 
L 5113 2094 
Q 5113 2597 4934 2840 
Q 4756 3084 4391 3084 
Q 3944 3084 3684 2787 
Q 3425 2491 3425 1978 
L 3425 0 
L 2847 0 
L 2847 2094 
Q 2847 2600 2669 2842 
Q 2491 3084 2119 3084 
Q 1678 3084 1418 2786 
Q 1159 2488 1159 1978 
L 1159 0 
L 581 0 
L 581 3500 
L 1159 3500 
L 1159 2956 
Q 1356 3278 1631 3431 
Q 1906 3584 2284 3584 
Q 2666 3584 2933 3390 
Q 3200 3197 3328 2828 
z
" transform="scale(0.015625)"/>
      <path id="DejaVuSans-62" d="M 3116 1747 
Q 3116 2381 2855 2742 
Q 2594 3103 2138 3103 
Q 1681 3103 1420 2742 
Q 1159 2381 1159 1747 
Q 1159 1113 1420 752 
Q 1681 391 2138 391 
Q 2594 391 2855 752 
Q 3116 1113 3116 1747 
z
M 1159 2969 
Q 1341 3281 1617 3432 
Q 1894 3584 2278 3584 
Q 2916 3584 3314 3078 
Q 3713 2572 3713 1747 
Q 3713 922 3314 415 
Q 2916 -91 2278 -91 
Q 1894 -91 1617 61 
Q 1341 213 1159 525 
L 1159 0 
L 581 0 
L 581 4863 
L 1159 4863 
L 1159 2969 
z
" transform="scale(0.015625)"/>
      <path id="DejaVuSans-64" d="M 2906 2969 
L 2906 4863 
L 3481 4863 
L 3481 0 
L 2906 0 
L 2906 525 
Q 2725 213 2448 61 
Q 2172 -91 1784 -91 
Q 1150 -91 751 415 
Q 353 922 353 1747 
Q 353 2572 751 3078 
Q 1150 3584 1784 3584 
Q 2172 3584 2448 3432 
Q 2725 3281 2906 2969 
z
M 947 1747 
Q 947 1113 1208 752 
Q 1469 391 1925 391 
Q 2381 391 2643 752 
Q 2906 1113 2906 1747 
Q 2906 2381 2643 2742 
Q 2381 3103 1925 3103 
Q 1469 3103 1208 2742 
Q 947 2381 947 1747 
z
" transform="scale(0.015625)"/>
     </defs>
     <use xlink:href="#DejaVuSans-45"/>
     <use xlink:href="#DejaVuSans-6d" transform="translate(63.183594 0)"/>
     <use xlink:href="#DejaVuSans-62" transform="translate(160.595703 0)"/>
     <use xlink:href="#DejaVuSans-65" transform="translate(224.072266 0)"/>
     <use xlink:href="#DejaVuSans-64" transform="translate(285.595703 0)"/>
     <use xlink:href="#DejaVuSans-20" transform="translate(349.072266 0)"/>
     <use xlink:href="#DejaVuSans-51" transform="translate(380.859375 0)"/>
     <use xlink:href="#DejaVuSans-75" transform="translate(459.570312 0)"/>
     <use xlink:href="#DejaVuSans-65" transform="translate(522.949219 0)"/>
     <use xlink:href="#DejaVuSans-72" transform="translate(584.472656 0)"/>
     <use xlink:href="#DejaVuSans-79" transform="translate(625.585938 0)"/>
    </g>
   </g>
   <g id="text_14">
    <g id="patch_32">
     <path d="M 68.987303 133.807948 
L 138.62949 133.807948 
Q 139.67949 133.807948 139.67949 132.757948 
L 139.67949 111.55205 
Q 139.67949 110.50205 138.62949 110.50205 
L 68.987303 110.50205 
Q 67.937303 110.50205 67.937303 111.55205 
L 67.937303 132.757948 
Q 67.937303 133.807948 68.987303 133.807948 
z
" style="fill: #ffffff; opacity: 0.88"/>
    </g>
    <!-- Wide Candidate -->
    <g style="fill: #212529" transform="translate(79.195506 117.250878) scale(0.075 -0.075)">
     <defs>
      <path id="DejaVuSans-57" d="M 213 4666 
L 850 4666 
L 1831 722 
L 2809 4666 
L 3519 4666 
L 4500 722 
L 5478 4666 
L 6119 4666 
L 4947 0 
L 4153 0 
L 3169 4050 
L 2175 0 
L 1381 0 
L 213 4666 
z
" transform="scale(0.015625)"/>
      <path id="DejaVuSans-43" d="M 4122 4306 
L 4122 3641 
Q 3803 3938 3442 4084 
Q 3081 4231 2675 4231 
Q 1875 4231 1450 3742 
Q 1025 3253 1025 2328 
Q 1025 1406 1450 917 
Q 1875 428 2675 428 
Q 3081 428 3442 575 
Q 3803 722 4122 1019 
L 4122 359 
Q 3791 134 3420 21 
Q 3050 -91 2638 -91 
Q 1578 -91 968 557 
Q 359 1206 359 2328 
Q 359 3453 968 4101 
Q 1578 4750 2638 4750 
Q 3056 4750 3426 4639 
Q 3797 4528 4122 4306 
z
" transform="scale(0.015625)"/>
     </defs>
     <use xlink:href="#DejaVuSans-57"/>
     <use xlink:href="#DejaVuSans-69" transform="translate(96.626953 0)"/>
     <use xlink:href="#DejaVuSans-64" transform="translate(124.410156 0)"/>
     <use xlink:href="#DejaVuSans-65" transform="translate(187.886719 0)"/>
     <use xlink:href="#DejaVuSans-20" transform="translate(249.410156 0)"/>
     <use xlink:href="#DejaVuSans-43" transform="translate(281.197266 0)"/>
     <use xlink:href="#DejaVuSans-61" transform="translate(351.021484 0)"/>
     <use xlink:href="#DejaVuSans-6e" transform="translate(412.300781 0)"/>
     <use xlink:href="#DejaVuSans-64" transform="translate(475.679688 0)"/>
     <use xlink:href="#DejaVuSans-69" transform="translate(539.15625 0)"/>
     <use xlink:href="#DejaVuSans-64" transform="translate(566.939453 0)"/>
     <use xlink:href="#DejaVuSans-61" transform="translate(630.416016 0)"/>
     <use xlink:href="#DejaVuSans-74" transform="translate(691.695312 0)"/>
     <use xlink:href="#DejaVuSans-65" transform="translate(730.904297 0)"/>
    </g>
    <!-- Pool (k=20, hybrid -->
    <g style="fill: #212529" transform="translate(68.987303 124.22453) scale(0.075 -0.075)">
     <defs>
      <path id="DejaVuSans-50" d="M 1259 4147 
L 1259 2394 
L 2053 2394 
Q 2494 2394 2734 2622 
Q 2975 2850 2975 3272 
Q 2975 3691 2734 3919 
Q 2494 4147 2053 4147 
L 1259 4147 
z
M 628 4666 
L 2053 4666 
Q 2838 4666 3239 4311 
Q 3641 3956 3641 3272 
Q 3641 2581 3239 2228 
Q 2838 1875 2053 1875 
L 1259 1875 
L 1259 0 
L 628 0 
L 628 4666 
z
" transform="scale(0.015625)"/>
      <path id="DejaVuSans-28" d="M 1984 4856 
Q 1566 4138 1362 3434 
Q 1159 2731 1159 2009 
Q 1159 1288 1364 580 
Q 1569 -128 1984 -844 
L 1484 -844 
Q 1016 -109 783 600 
Q 550 1309 550 2009 
Q 550 2706 781 3412 
Q 1013 4119 1484 4856 
L 1984 4856 
z
" transform="scale(0.015625)"/>
      <path id="DejaVuSans-3d" d="M 678 2906 
L 4684 2906 
L 4684 2381 
L 678 2381 
L 678 2906 
z
M 678 1631 
L 4684 1631 
L 4684 1100 
L 678 1100 
L 678 1631 
z
" transform="scale(0.015625)"/>
      <path id="DejaVuSans-32" d="M 1228 531 
L 3431 531 
L 3431 0 
L 469 0 
L 469 531 
Q 828 903 1448 1529 
Q 2069 2156 2228 2338 
Q 2531 2678 2651 2914 
Q 2772 3150 2772 3378 
Q 2772 3750 2511 3984 
Q 2250 4219 1831 4219 
Q 1534 4219 1204 4116 
Q 875 4013 500 3803 
L 500 4441 
Q 881 4594 1212 4672 
Q 1544 4750 1819 4750 
Q 2544 4750 2975 4387 
Q 3406 4025 3406 3419 
Q 3406 3131 3298 2873 
Q 3191 2616 2906 2266 
Q 2828 2175 2409 1742 
Q 1991 1309 1228 531 
z
" transform="scale(0.015625)"/>
      <path id="DejaVuSans-30" d="M 2034 4250 
Q 1547 4250 1301 3770 
Q 1056 3291 1056 2328 
Q 1056 1369 1301 889 
Q 1547 409 2034 409 
Q 2525 409 2770 889 
Q 3016 1369 3016 2328 
Q 3016 3291 2770 3770 
Q 2525 4250 2034 4250 
z
M 2034 4750 
Q 2819 4750 3233 4129 
Q 3647 3509 3647 2328 
Q 3647 1150 3233 529 
Q 2819 -91 2034 -91 
Q 1250 -91 836 529 
Q 422 1150 422 2328 
Q 422 3509 836 4129 
Q 1250 4750 2034 4750 
z
" transform="scale(0.015625)"/>
      <path id="DejaVuSans-2c" d="M 750 794 
L 1409 794 
L 1409 256 
L 897 -744 
L 494 -744 
L 750 256 
L 750 794 
z
" transform="scale(0.015625)"/>
      <path id="DejaVuSans-68" d="M 3513 2113 
L 3513 0 
L 2938 0 
L 2938 2094 
Q 2938 2591 2744 2837 
Q 2550 3084 2163 3084 
Q 1697 3084 1428 2787 
Q 1159 2491 1159 1978 
L 1159 0 
L 581 0 
L 581 4863 
L 1159 4863 
L 1159 2956 
Q 1366 3272 1645 3428 
Q 1925 3584 2291 3584 
Q 2894 3584 3203 3211 
Q 3513 2838 3513 2113 
z
" transform="scale(0.015625)"/>
     </defs>
     <use xlink:href="#DejaVuSans-50"/>
     <use xlink:href="#DejaVuSans-6f" transform="translate(56.677734 0)"/>
     <use xlink:href="#DejaVuSans-6f" transform="translate(117.859375 0)"/>
     <use xlink:href="#DejaVuSans-6c" transform="translate(179.041016 0)"/>
     <use xlink:href="#DejaVuSans-20" transform="translate(206.824219 0)"/>
     <use xlink:href="#DejaVuSans-28" transform="translate(238.611328 0)"/>
     <use xlink:href="#DejaVuSans-6b" transform="translate(277.625 0)"/>
     <use xlink:href="#DejaVuSans-3d" transform="translate(335.535156 0)"/>
     <use xlink:href="#DejaVuSans-32" transform="translate(419.324219 0)"/>
     <use xlink:href="#DejaVuSans-30" transform="translate(482.947266 0)"/>
     <use xlink:href="#DejaVuSans-2c" transform="translate(546.570312 0)"/>
     <use xlink:href="#DejaVuSans-20" transform="translate(578.357422 0)"/>
     <use xlink:href="#DejaVuSans-68" transform="translate(610.144531 0)"/>
     <use xlink:href="#DejaVuSans-79" transform="translate(673.523438 0)"/>
     <use xlink:href="#DejaVuSans-62" transform="translate(732.703125 0)"/>
     <use xlink:href="#DejaVuSans-72" transform="translate(796.179688 0)"/>
     <use xlink:href="#DejaVuSans-69" transform="translate(837.292969 0)"/>
     <use xlink:href="#DejaVuSans-64" transform="translate(865.076172 0)"/>
    </g>
    <!-- search) -->
    <g style="fill: #212529" transform="translate(110.793943 131.198182) scale(0.075 -0.075)">
     <defs>
      <path id="DejaVuSans-29" d="M 513 4856 
L 1013 4856 
Q 1481 4119 1714 3412 
Q 1947 2706 1947 2009 
Q 1947 1309 1714 600 
Q 1481 -109 1013 -844 
L 513 -844 
Q 928 -128 1133 580 
Q 1338 1288 1338 2009 
Q 1338 2731 1133 3434 
Q 928 4138 513 4856 
z
" transform="scale(0.015625)"/>
     </defs>
     <use xlink:href="#DejaVuSans-73"/>
     <use xlink:href="#DejaVuSans-65" transform="translate(52.099609 0)"/>
     <use xlink:href="#DejaVuSans-61" transform="translate(113.623047 0)"/>
     <use xlink:href="#DejaVuSans-72" transform="translate(174.902344 0)"/>
     <use xlink:href="#DejaVuSans-63" transform="translate(213.765625 0)"/>
     <use xlink:href="#DejaVuSans-68" transform="translate(268.746094 0)"/>
     <use xlink:href="#DejaVuSans-29" transform="translate(332.125 0)"/>
    </g>
   </g>
   <g id="text_15">
    <g id="patch_33">
     <path d="M 92.926712 264.493268 
L 154.240384 264.493268 
Q 155.290384 264.493268 155.290384 263.443268 
L 155.290384 249.211022 
Q 155.290384 248.161022 154.240384 248.161022 
L 92.926712 248.161022 
Q 91.876712 248.161022 91.876712 249.211022 
L 91.876712 263.443268 
Q 91.876712 264.493268 92.926712 264.493268 
z
" style="fill: #ffffff; opacity: 0.88"/>
    </g>
    <!-- Jina Reranker v2 -->
    <g style="fill: #212529" transform="translate(92.926712 254.90985) scale(0.075 -0.075)">
     <defs>
      <path id="DejaVuSans-4a" d="M 628 4666 
L 1259 4666 
L 1259 325 
Q 1259 -519 939 -900 
Q 619 -1281 -91 -1281 
L -331 -1281 
L -331 -750 
L -134 -750 
Q 284 -750 456 -515 
Q 628 -281 628 325 
L 628 4666 
z
" transform="scale(0.015625)"/>
      <path id="DejaVuSans-52" d="M 2841 2188 
Q 3044 2119 3236 1894 
Q 3428 1669 3622 1275 
L 4263 0 
L 3584 0 
L 2988 1197 
Q 2756 1666 2539 1819 
Q 2322 1972 1947 1972 
L 1259 1972 
L 1259 0 
L 628 0 
L 628 4666 
L 2053 4666 
Q 2853 4666 3247 4331 
Q 3641 3997 3641 3322 
Q 3641 2881 3436 2590 
Q 3231 2300 2841 2188 
z
M 1259 4147 
L 1259 2491 
L 2053 2491 
Q 2509 2491 2742 2702 
Q 2975 2913 2975 3322 
Q 2975 3731 2742 3939 
Q 2509 4147 2053 4147 
L 1259 4147 
z
" transform="scale(0.015625)"/>
     </defs>
     <use xlink:href="#DejaVuSans-4a"/>
     <use xlink:href="#DejaVuSans-69" transform="translate(29.492188 0)"/>
     <use xlink:href="#DejaVuSans-6e" transform="translate(57.275391 0)"/>
     <use xlink:href="#DejaVuSans-61" transform="translate(120.654297 0)"/>
     <use xlink:href="#DejaVuSans-20" transform="translate(181.933594 0)"/>
     <use xlink:href="#DejaVuSans-52" transform="translate(213.720703 0)"/>
     <use xlink:href="#DejaVuSans-65" transform="translate(278.703125 0)"/>
     <use xlink:href="#DejaVuSans-72" transform="translate(340.226562 0)"/>
     <use xlink:href="#DejaVuSans-61" transform="translate(381.339844 0)"/>
     <use xlink:href="#DejaVuSans-6e" transform="translate(442.619141 0)"/>
     <use xlink:href="#DejaVuSans-6b" transform="translate(505.998047 0)"/>
     <use xlink:href="#DejaVuSans-65" transform="translate(560.283203 0)"/>
     <use xlink:href="#DejaVuSans-72" transform="translate(621.806641 0)"/>
     <use xlink:href="#DejaVuSans-20" transform="translate(662.919922 0)"/>
     <use xlink:href="#DejaVuSans-76" transform="translate(694.707031 0)"/>
     <use xlink:href="#DejaVuSans-32" transform="translate(753.886719 0)"/>
    </g>
    <!-- (cross-encoder) -->
    <g style="fill: #212529" transform="translate(95.70054 261.883502) scale(0.075 -0.075)">
     <defs>
      <path id="DejaVuSans-2d" d="M 313 2009 
L 1997 2009 
L 1997 1497 
L 313 1497 
L 313 2009 
z
" transform="scale(0.015625)"/>
     </defs>
     <use xlink:href="#DejaVuSans-28"/>
     <use xlink:href="#DejaVuSans-63" transform="translate(39.013672 0)"/>
     <use xlink:href="#DejaVuSans-72" transform="translate(93.994141 0)"/>
     <use xlink:href="#DejaVuSans-6f" transform="translate(132.857422 0)"/>
     <use xlink:href="#DejaVuSans-73" transform="translate(194.039062 0)"/>
     <use xlink:href="#DejaVuSans-73" transform="translate(246.138672 0)"/>
     <use xlink:href="#DejaVuSans-2d" transform="translate(298.238281 0)"/>
     <use xlink:href="#DejaVuSans-65" transform="translate(334.322266 0)"/>
     <use xlink:href="#DejaVuSans-6e" transform="translate(395.845703 0)"/>
     <use xlink:href="#DejaVuSans-63" transform="translate(459.224609 0)"/>
     <use xlink:href="#DejaVuSans-6f" transform="translate(514.205078 0)"/>
     <use xlink:href="#DejaVuSans-64" transform="translate(575.386719 0)"/>
     <use xlink:href="#DejaVuSans-65" transform="translate(638.863281 0)"/>
     <use xlink:href="#DejaVuSans-72" transform="translate(700.386719 0)"/>
     <use xlink:href="#DejaVuSans-29" transform="translate(741.5 0)"/>
    </g>
   </g>
   <g id="text_16">
    <g id="patch_34">
     <path d="M 57.447758 339.67512 
L 109.08643 339.67512 
Q 110.13643 339.67512 110.13643 338.62512 
L 110.13643 324.392873 
Q 110.13643 323.342873 109.08643 323.342873 
L 57.447758 323.342873 
Q 56.397758 323.342873 56.397758 324.392873 
L 56.397758 338.62512 
Q 56.397758 339.67512 57.447758 339.67512 
z
" style="fill: #ffffff; opacity: 0.88"/>
    </g>
    <!-- BGE Reranker -->
    <g style="fill: #212529" transform="translate(57.447758 330.091702) scale(0.075 -0.075)">
     <defs>
      <path id="DejaVuSans-42" d="M 1259 2228 
L 1259 519 
L 2272 519 
Q 2781 519 3026 730 
Q 3272 941 3272 1375 
Q 3272 1813 3026 2020 
Q 2781 2228 2272 2228 
L 1259 2228 
z
M 1259 4147 
L 1259 2741 
L 2194 2741 
Q 2656 2741 2882 2914 
Q 3109 3088 3109 3444 
Q 3109 3797 2882 3972 
Q 2656 4147 2194 4147 
L 1259 4147 
z
M 628 4666 
L 2241 4666 
Q 2963 4666 3353 4366 
Q 3744 4066 3744 3513 
Q 3744 3084 3544 2831 
Q 3344 2578 2956 2516 
Q 3422 2416 3680 2098 
Q 3938 1781 3938 1306 
Q 3938 681 3513 340 
Q 3088 0 2303 0 
L 628 0 
L 628 4666 
z
" transform="scale(0.015625)"/>
      <path id="DejaVuSans-47" d="M 3809 666 
L 3809 1919 
L 2778 1919 
L 2778 2438 
L 4434 2438 
L 4434 434 
Q 4069 175 3628 42 
Q 3188 -91 2688 -91 
Q 1594 -91 976 548 
Q 359 1188 359 2328 
Q 359 3472 976 4111 
Q 1594 4750 2688 4750 
Q 3144 4750 3555 4637 
Q 3966 4525 4313 4306 
L 4313 3634 
Q 3963 3931 3569 4081 
Q 3175 4231 2741 4231 
Q 1884 4231 1454 3753 
Q 1025 3275 1025 2328 
Q 1025 1384 1454 906 
Q 1884 428 2741 428 
Q 3075 428 3337 486 
Q 3600 544 3809 666 
z
" transform="scale(0.015625)"/>
     </defs>
     <use xlink:href="#DejaVuSans-42"/>
     <use xlink:href="#DejaVuSans-47" transform="translate(66.853516 0)"/>
     <use xlink:href="#DejaVuSans-45" transform="translate(144.34375 0)"/>
     <use xlink:href="#DejaVuSans-20" transform="translate(207.527344 0)"/>
     <use xlink:href="#DejaVuSans-52" transform="translate(239.314453 0)"/>
     <use xlink:href="#DejaVuSans-65" transform="translate(304.296875 0)"/>
     <use xlink:href="#DejaVuSans-72" transform="translate(365.820312 0)"/>
     <use xlink:href="#DejaVuSans-61" transform="translate(406.933594 0)"/>
     <use xlink:href="#DejaVuSans-6e" transform="translate(468.212891 0)"/>
     <use xlink:href="#DejaVuSans-6b" transform="translate(531.591797 0)"/>
     <use xlink:href="#DejaVuSans-65" transform="translate(585.876953 0)"/>
     <use xlink:href="#DejaVuSans-72" transform="translate(647.400391 0)"/>
    </g>
    <!-- (fallback) -->
    <g style="fill: #212529" transform="translate(74.006352 337.065354) scale(0.075 -0.075)">
     <use xlink:href="#DejaVuSans-28"/>
     <use xlink:href="#DejaVuSans-66" transform="translate(39.013672 0)"/>
     <use xlink:href="#DejaVuSans-61" transform="translate(74.21875 0)"/>
     <use xlink:href="#DejaVuSans-6c" transform="translate(135.498047 0)"/>
     <use xlink:href="#DejaVuSans-6c" transform="translate(163.28125 0)"/>
     <use xlink:href="#DejaVuSans-62" transform="translate(191.064453 0)"/>
     <use xlink:href="#DejaVuSans-61" transform="translate(254.541016 0)"/>
     <use xlink:href="#DejaVuSans-63" transform="translate(315.820312 0)"/>
     <use xlink:href="#DejaVuSans-6b" transform="translate(370.800781 0)"/>
     <use xlink:href="#DejaVuSans-29" transform="translate(428.710938 0)"/>
    </g>
   </g>
   <g id="text_17">
    <g id="patch_35">
     <path d="M 60.312703 403.449073 
L 112.880671 403.449073 
Q 113.930671 403.449073 113.930671 402.399073 
L 113.930671 388.166827 
Q 113.930671 387.116827 112.880671 387.116827 
L 60.312703 387.116827 
Q 59.262703 387.116827 59.262703 388.166827 
L 59.262703 402.399073 
Q 59.262703 403.449073 60.312703 403.449073 
z
" style="fill: #ffffff; opacity: 0.88"/>
    </g>
    <!-- LLM Pointwise -->
    <g style="fill: #212529" transform="translate(60.312703 393.865655) scale(0.075 -0.075)">
     <defs>
      <path id="DejaVuSans-4c" d="M 628 4666 
L 1259 4666 
L 1259 531 
L 3531 531 
L 3531 0 
L 628 0 
L 628 4666 
z
" transform="scale(0.015625)"/>
      <path id="DejaVuSans-4d" d="M 628 4666 
L 1569 4666 
L 2759 1491 
L 3956 4666 
L 4897 4666 
L 4897 0 
L 4281 0 
L 4281 4097 
L 3078 897 
L 2444 897 
L 1241 4097 
L 1241 0 
L 628 0 
L 628 4666 
z
" transform="scale(0.015625)"/>
      <path id="DejaVuSans-77" d="M 269 3500 
L 844 3500 
L 1563 769 
L 2278 3500 
L 2956 3500 
L 3675 769 
L 4391 3500 
L 4966 3500 
L 4050 0 
L 3372 0 
L 2619 2869 
L 1863 0 
L 1184 0 
L 269 3500 
z
" transform="scale(0.015625)"/>
     </defs>
     <use xlink:href="#DejaVuSans-4c"/>
     <use xlink:href="#DejaVuSans-4c" transform="translate(55.712891 0)"/>
     <use xlink:href="#DejaVuSans-4d" transform="translate(111.425781 0)"/>
     <use xlink:href="#DejaVuSans-20" transform="translate(197.705078 0)"/>
     <use xlink:href="#DejaVuSans-50" transform="translate(229.492188 0)"/>
     <use xlink:href="#DejaVuSans-6f" transform="translate(286.169922 0)"/>
     <use xlink:href="#DejaVuSans-69" transform="translate(347.351562 0)"/>
     <use xlink:href="#DejaVuSans-6e" transform="translate(375.134766 0)"/>
     <use xlink:href="#DejaVuSans-74" transform="translate(438.513672 0)"/>
     <use xlink:href="#DejaVuSans-77" transform="translate(477.722656 0)"/>
     <use xlink:href="#DejaVuSans-69" transform="translate(559.509766 0)"/>
     <use xlink:href="#DejaVuSans-73" transform="translate(587.292969 0)"/>
     <use xlink:href="#DejaVuSans-65" transform="translate(639.392578 0)"/>
    </g>
    <!-- (fallback²) -->
    <g style="fill: #212529" transform="translate(74.793562 400.839307) scale(0.075 -0.075)">
     <defs>
      <path id="DejaVuSans-b2" d="M 838 2444 
L 2163 2444 
L 2163 2088 
L 294 2088 
L 294 2431 
Q 400 2528 597 2703 
Q 1672 3656 1672 3950 
Q 1672 4156 1509 4282 
Q 1347 4409 1081 4409 
Q 919 4409 728 4354 
Q 538 4300 313 4191 
L 313 4575 
Q 553 4663 761 4706 
Q 969 4750 1147 4750 
Q 1600 4750 1872 4544 
Q 2144 4338 2144 4000 
Q 2144 3566 1109 2678 
Q 934 2528 838 2444 
z
" transform="scale(0.015625)"/>
     </defs>
     <use xlink:href="#DejaVuSans-28"/>
     <use xlink:href="#DejaVuSans-66" transform="translate(39.013672 0)"/>
     <use xlink:href="#DejaVuSans-61" transform="translate(74.21875 0)"/>
     <use xlink:href="#DejaVuSans-6c" transform="translate(135.498047 0)"/>
     <use xlink:href="#DejaVuSans-6c" transform="translate(163.28125 0)"/>
     <use xlink:href="#DejaVuSans-62" transform="translate(191.064453 0)"/>
     <use xlink:href="#DejaVuSans-61" transform="translate(254.541016 0)"/>
     <use xlink:href="#DejaVuSans-63" transform="translate(315.820312 0)"/>
     <use xlink:href="#DejaVuSans-6b" transform="translate(370.800781 0)"/>
     <use xlink:href="#DejaVuSans-b2" transform="translate(428.710938 0)"/>
     <use xlink:href="#DejaVuSans-29" transform="translate(468.798828 0)"/>
    </g>
   </g>
   <g id="text_18">
    <g id="patch_36">
     <path d="M 224.616625 409.111114 
L 285.354907 409.111114 
Q 286.404907 409.111114 286.404907 408.061114 
L 286.404907 393.828868 
Q 286.404907 392.778868 285.354907 392.778868 
L 224.616625 392.778868 
Q 223.566625 392.778868 223.566625 393.828868 
L 223.566625 408.061114 
Q 223.566625 409.111114 224.616625 409.111114 
z
" style="fill: #ffffff; opacity: 0.88"/>
    </g>
    <!-- Top-K Re-ranked -->
    <g style="fill: #212529" transform="translate(224.616625 399.527696) scale(0.075 -0.075)">
     <defs>
      <path id="DejaVuSans-54" d="M -19 4666 
L 3928 4666 
L 3928 4134 
L 2272 4134 
L 2272 0 
L 1638 0 
L 1638 4134 
L -19 4134 
L -19 4666 
z
" transform="scale(0.015625)"/>
      <path id="DejaVuSans-4b" d="M 628 4666 
L 1259 4666 
L 1259 2694 
L 3353 4666 
L 4166 4666 
L 1850 2491 
L 4331 0 
L 3500 0 
L 1259 2247 
L 1259 0 
L 628 0 
L 628 4666 
z
" transform="scale(0.015625)"/>
     </defs>
     <use xlink:href="#DejaVuSans-54"/>
     <use xlink:href="#DejaVuSans-6f" transform="translate(44.083984 0)"/>
     <use xlink:href="#DejaVuSans-70" transform="translate(105.265625 0)"/>
     <use xlink:href="#DejaVuSans-2d" transform="translate(168.742188 0)"/>
     <use xlink:href="#DejaVuSans-4b" transform="translate(204.826172 0)"/>
     <use xlink:href="#DejaVuSans-20" transform="translate(270.402344 0)"/>
     <use xlink:href="#DejaVuSans-52" transform="translate(302.189453 0)"/>
     <use xlink:href="#DejaVuSans-65" transform="translate(367.171875 0)"/>
     <use xlink:href="#DejaVuSans-2d" transform="translate(428.695312 0)"/>
     <use xlink:href="#DejaVuSans-72" transform="translate(464.779297 0)"/>
     <use xlink:href="#DejaVuSans-61" transform="translate(505.892578 0)"/>
     <use xlink:href="#DejaVuSans-6e" transform="translate(567.171875 0)"/>
     <use xlink:href="#DejaVuSans-6b" transform="translate(630.550781 0)"/>
     <use xlink:href="#DejaVuSans-65" transform="translate(684.835938 0)"/>
     <use xlink:href="#DejaVuSans-64" transform="translate(746.359375 0)"/>
    </g>
    <!-- (k=5) -->
    <g style="fill: #212529" transform="translate(244.359789 406.501349) scale(0.075 -0.075)">
     <defs>
      <path id="DejaVuSans-35" d="M 691 4666 
L 3169 4666 
L 3169 4134 
L 1269 4134 
L 1269 2991 
Q 1406 3038 1543 3061 
Q 1681 3084 1819 3084 
Q 2600 3084 3056 2656 
Q 3513 2228 3513 1497 
Q 3513 744 3044 326 
Q 2575 -91 1722 -91 
Q 1428 -91 1123 -41 
Q 819 9 494 109 
L 494 744 
Q 775 591 1075 516 
Q 1375 441 1709 441 
Q 2250 441 2565 725 
Q 2881 1009 2881 1497 
Q 2881 1984 2565 2268 
Q 2250 2553 1709 2553 
Q 1456 2553 1204 2497 
Q 953 2441 691 2322 
L 691 4666 
z
" transform="scale(0.015625)"/>
     </defs>
     <use xlink:href="#DejaVuSans-28"/>
     <use xlink:href="#DejaVuSans-6b" transform="translate(39.013672 0)"/>
     <use xlink:href="#DejaVuSans-3d" transform="translate(96.923828 0)"/>
     <use xlink:href="#DejaVuSans-35" transform="translate(180.712891 0)"/>
     <use xlink:href="#DejaVuSans-29" transform="translate(244.335938 0)"/>
    </g>
   </g>
   <g id="text_19">
    <g id="patch_37">
     <path d="M 368.151317 404.0112 
L 415.928661 404.0112 
Q 416.978661 404.0112 416.978661 402.9612 
L 416.978661 388.728954 
Q 416.978661 387.678954 415.928661 387.678954 
L 368.151317 387.678954 
Q 367.101317 387.678954 367.101317 388.728954 
L 367.101317 402.9612 
Q 367.101317 404.0112 368.151317 404.0112 
z
" style="fill: #ffffff; opacity: 0.88"/>
    </g>
    <!-- LLM (claude- -->
    <g style="fill: #212529" transform="translate(368.151317 394.427782) scale(0.075 -0.075)">
     <use xlink:href="#DejaVuSans-4c"/>
     <use xlink:href="#DejaVuSans-4c" transform="translate(55.712891 0)"/>
     <use xlink:href="#DejaVuSans-4d" transform="translate(111.425781 0)"/>
     <use xlink:href="#DejaVuSans-20" transform="translate(197.705078 0)"/>
     <use xlink:href="#DejaVuSans-28" transform="translate(229.492188 0)"/>
     <use xlink:href="#DejaVuSans-63" transform="translate(268.505859 0)"/>
     <use xlink:href="#DejaVuSans-6c" transform="translate(323.486328 0)"/>
     <use xlink:href="#DejaVuSans-61" transform="translate(351.269531 0)"/>
     <use xlink:href="#DejaVuSans-75" transform="translate(412.548828 0)"/>
     <use xlink:href="#DejaVuSans-64" transform="translate(475.927734 0)"/>
     <use xlink:href="#DejaVuSans-65" transform="translate(539.404297 0)"/>
     <use xlink:href="#DejaVuSans-2d" transform="translate(600.927734 0)"/>
    </g>
    <!-- sonnet-4-6) -->
    <g style="fill: #212529" transform="translate(368.151317 401.401435) scale(0.075 -0.075)">
     <defs>
      <path id="DejaVuSans-34" d="M 2419 4116 
L 825 1625 
L 2419 1625 
L 2419 4116 
z
M 2253 4666 
L 3047 4666 
L 3047 1625 
L 3713 1625 
L 3713 1100 
L 3047 1100 
L 3047 0 
L 2419 0 
L 2419 1100 
L 313 1100 
L 313 1709 
L 2253 4666 
z
" transform="scale(0.015625)"/>
      <path id="DejaVuSans-36" d="M 2113 2584 
Q 1688 2584 1439 2293 
Q 1191 2003 1191 1497 
Q 1191 994 1439 701 
Q 1688 409 2113 409 
Q 2538 409 2786 701 
Q 3034 994 3034 1497 
Q 3034 2003 2786 2293 
Q 2538 2584 2113 2584 
z
M 3366 4563 
L 3366 3988 
Q 3128 4100 2886 4159 
Q 2644 4219 2406 4219 
Q 1781 4219 1451 3797 
Q 1122 3375 1075 2522 
Q 1259 2794 1537 2939 
Q 1816 3084 2150 3084 
Q 2853 3084 3261 2657 
Q 3669 2231 3669 1497 
Q 3669 778 3244 343 
Q 2819 -91 2113 -91 
Q 1303 -91 875 529 
Q 447 1150 447 2328 
Q 447 3434 972 4092 
Q 1497 4750 2381 4750 
Q 2619 4750 2861 4703 
Q 3103 4656 3366 4563 
z
" transform="scale(0.015625)"/>
     </defs>
     <use xlink:href="#DejaVuSans-73"/>
     <use xlink:href="#DejaVuSans-6f" transform="translate(52.099609 0)"/>
     <use xlink:href="#DejaVuSans-6e" transform="translate(113.28125 0)"/>
     <use xlink:href="#DejaVuSans-6e" transform="translate(176.660156 0)"/>
     <use xlink:href="#DejaVuSans-65" transform="translate(240.039062 0)"/>
     <use xlink:href="#DejaVuSans-74" transform="translate(301.5625 0)"/>
     <use xlink:href="#DejaVuSans-2d" transform="translate(340.771484 0)"/>
     <use xlink:href="#DejaVuSans-34" transform="translate(376.855469 0)"/>
     <use xlink:href="#DejaVuSans-2d" transform="translate(440.478516 0)"/>
     <use xlink:href="#DejaVuSans-36" transform="translate(476.5625 0)"/>
     <use xlink:href="#DejaVuSans-29" transform="translate(540.185547 0)"/>
    </g>
   </g>
   <g id="text_20">
    <g id="patch_38">
     <path d="M 370.333386 323.941326 
L 424.715417 323.941326 
Q 425.765417 323.941326 425.765417 322.891326 
L 425.765417 315.632732 
Q 425.765417 314.582732 424.715417 314.582732 
L 370.333386 314.582732 
Q 369.283386 314.582732 369.283386 315.632732 
L 369.283386 322.891326 
Q 369.283386 323.941326 370.333386 323.941326 
z
" style="fill: #ffffff; opacity: 0.88"/>
    </g>
    <!-- Answer (cited) -->
    <g style="fill: #212529" transform="translate(370.333386 321.33156) scale(0.075 -0.075)">
     <defs>
      <path id="DejaVuSans-41" d="M 2188 4044 
L 1331 1722 
L 3047 1722 
L 2188 4044 
z
M 1831 4666 
L 2547 4666 
L 4325 0 
L 3669 0 
L 3244 1197 
L 1141 1197 
L 716 0 
L 50 0 
L 1831 4666 
z
" transform="scale(0.015625)"/>
     </defs>
     <use xlink:href="#DejaVuSans-41"/>
     <use xlink:href="#DejaVuSans-6e" transform="translate(68.408203 0)"/>
     <use xlink:href="#DejaVuSans-73" transform="translate(131.787109 0)"/>
     <use xlink:href="#DejaVuSans-77" transform="translate(183.886719 0)"/>
     <use xlink:href="#DejaVuSans-65" transform="translate(265.673828 0)"/>
     <use xlink:href="#DejaVuSans-72" transform="translate(327.197266 0)"/>
     <use xlink:href="#DejaVuSans-20" transform="translate(368.310547 0)"/>
     <use xlink:href="#DejaVuSans-28" transform="translate(400.097656 0)"/>
     <use xlink:href="#DejaVuSans-63" transform="translate(439.111328 0)"/>
     <use xlink:href="#DejaVuSans-69" transform="translate(494.091797 0)"/>
     <use xlink:href="#DejaVuSans-74" transform="translate(521.875 0)"/>
     <use xlink:href="#DejaVuSans-65" transform="translate(561.083984 0)"/>
     <use xlink:href="#DejaVuSans-64" transform="translate(622.607422 0)"/>
     <use xlink:href="#DejaVuSans-29" transform="translate(686.083984 0)"/>
    </g>
   </g>
  </g>
 </g>
 <defs>
  <clipPath id="p3b43610c0b">
   <rect x="7.2" y="29.077969" width="465.696" height="465.696"/>
  </clipPath>
 </defs>
  <g id="branding_footer">
    <line x1="12" y1="489" x2="468" y2="489" stroke="#cccccc" stroke-width="0.5"/>
    <text x="240.048" y="497.5" text-anchor="middle"
          font-family="DejaVu Sans, Arial, sans-serif" font-size="7.5"
          fill="#888888">AI &amp; SAP Consulting Paul Oesterwitz | oesterwitz-consulting.de</text>
  </g>
</svg>
